<svg width="435" height="308" viewBox="0 0 435 308" fill="none" xmlns="http://www.w3.org/2000/svg">
<g clip-path="url(#clip0_401_1834)">
<path d="M111.192 108.677C111.192 108.677 107.231 105.44 101.021 115.038C94.8115 124.636 92.244 130.312 92.244 130.312C92.244 130.312 90.6597 132.298 89.3442 130.757C88.0286 129.216 86.4231 125.067 83.8698 125.527C81.3165 125.986 80.0717 128.785 80.1354 133.054C80.199 137.323 79.9727 146.695 79.9515 147.536C79.9303 148.378 79.3361 149.537 78.2681 148.632C77.2001 147.727 71.3509 139.705 67.7084 142.709C64.0659 145.713 66.1878 157.552 66.3929 158.888C66.598 160.223 66.3009 160.704 65.6856 160.958C65.0703 161.213 63.3374 158.329 61.5833 156.117C59.8293 153.905 57.3962 151.643 55.4441 153.551C53.492 155.46 52.0421 164.054 58.8462 178.961L62.4533 185.661L70.0849 186.014C86.4797 185.781 93.6374 180.798 94.5286 178.24C95.4197 175.681 92.336 174.437 89.5776 173.794C86.8192 173.151 83.4879 172.847 83.4455 172.161C83.403 171.476 83.7354 170.988 85.0015 170.613C86.2675 170.239 97.9165 167.079 99.0693 162.506C100.222 157.933 90.4688 156.082 89.1674 155.509C87.866 154.937 88.6935 153.891 89.4361 153.516C90.1788 153.141 98.5671 148.929 102.457 147.155C106.347 145.381 108.377 143.154 107.67 140.56C106.963 137.966 102.556 138.383 100.597 137.853C98.6379 137.323 99.7554 135.026 99.7554 135.026C99.7554 135.026 103.773 130.291 109.813 120.565C115.853 110.84 111.1 108.613 111.1 108.613" fill="#EBEBEB"/>
<path d="M61.1021 186.919C65.565 179.795 73.7058 167.256 80.6443 156.463C87.5827 145.671 93.8492 135.888 98.3263 128.785L103.645 120.367L105.06 118.077L105.442 117.484C105.526 117.349 105.576 117.286 105.576 117.286L105.463 117.498C105.371 117.639 105.251 117.844 105.102 118.098L103.688 120.41C102.464 122.417 100.667 125.308 98.4324 128.891C93.9695 136.023 87.7242 145.812 80.7857 156.612C73.8473 167.412 65.6852 179.936 61.1869 187.004" fill="#E0E0E0"/>
<path d="M85.8926 131.429C85.9555 131.603 86.0005 131.783 86.027 131.966C86.1048 132.312 86.1967 132.814 86.3099 133.436C86.5291 134.68 86.7838 136.404 87.0172 138.32C87.2506 140.235 87.4769 141.91 87.6396 143.211C87.7174 143.797 87.7881 144.292 87.8376 144.695C87.874 144.874 87.893 145.057 87.8942 145.239C87.8193 145.071 87.7693 144.892 87.7457 144.709C87.6749 144.363 87.583 143.861 87.4769 143.239C87.2718 141.988 87.0313 140.256 86.7696 138.348C86.5079 136.44 86.2816 134.765 86.1118 133.457L85.8997 131.98C85.8733 131.797 85.8709 131.612 85.8926 131.429V131.429Z" fill="#E0E0E0"/>
<path d="M88.5942 145.444C88.5942 145.381 92.1306 144.695 96.5017 143.904C100.873 143.112 104.437 142.532 104.444 142.596C104.452 142.66 100.908 143.352 96.5441 144.137C92.1802 144.921 88.6084 145.508 88.5942 145.444Z" fill="#E0E0E0"/>
<path d="M77.1929 161.545C77.3809 161.525 77.5706 161.525 77.7587 161.545L79.2723 161.708C80.5595 161.842 82.3277 162.019 84.294 162.146C86.2602 162.273 88.0355 162.33 89.3228 162.358H90.8505C91.0378 162.345 91.226 162.359 91.4093 162.4C91.2248 162.433 91.0378 162.449 90.8505 162.45C90.4898 162.45 89.9664 162.45 89.3228 162.45C88.0284 162.45 86.2461 162.45 84.2728 162.308C82.2995 162.167 80.5312 161.983 79.2511 161.807C78.6145 161.715 78.0982 161.637 77.7446 161.566C77.5604 161.576 77.3758 161.569 77.1929 161.545V161.545Z" fill="#E0E0E0"/>
<path d="M71.959 149.402C72.056 149.547 72.1389 149.701 72.2065 149.862L72.8219 151.134C73.324 152.208 74.0101 153.707 74.7527 155.375C75.4954 157.043 76.1673 158.548 76.62 159.616L77.1575 160.916C77.2354 161.073 77.2924 161.239 77.3273 161.411C77.2237 161.269 77.1381 161.114 77.0726 160.951L76.4644 159.679C75.9622 158.605 75.2761 157.106 74.5335 155.438C73.7908 153.77 73.1189 152.272 72.6663 151.198C72.4541 150.689 72.2702 150.25 72.1287 149.897C72.0509 149.74 71.9938 149.574 71.959 149.402V149.402Z" fill="#E0E0E0"/>
<path d="M60.0835 162.344C60.2077 162.526 60.3143 162.72 60.4018 162.923L61.1939 164.556C61.8446 165.934 62.7358 167.843 63.7119 169.963C64.6879 172.083 65.5437 174.006 66.1661 175.405C66.4561 176.07 66.6966 176.628 66.8734 177.066C66.9738 177.265 67.0543 177.474 67.1139 177.688C66.9895 177.503 66.8829 177.307 66.7956 177.102L66.0035 175.476C65.3528 174.062 64.4616 172.182 63.4855 170.062C62.5095 167.942 61.6466 166.019 61.0313 164.62L60.324 162.966C60.2263 162.766 60.1458 162.558 60.0835 162.344V162.344Z" fill="#E0E0E0"/>
<path d="M67.0503 177.271C67.2857 177.253 67.5222 177.253 67.7576 177.271L69.6885 177.406C71.3223 177.519 73.5785 177.66 76.054 177.752C78.5295 177.844 80.8069 177.872 82.4196 177.879H84.3575C84.5928 177.859 84.8295 177.859 85.0648 177.879C84.8308 177.917 84.5945 177.938 84.3575 177.943C83.9048 177.943 83.24 177.992 82.4196 178.006C80.7857 178.006 78.5224 178.006 76.054 177.95C73.5856 177.893 71.3011 177.681 69.6885 177.533L67.7647 177.321C67.5256 177.323 67.2867 177.307 67.0503 177.271Z" fill="#E0E0E0"/>
<path d="M48.8874 135.634C48.9225 136.799 48.8562 137.965 48.6894 139.118C48.2581 142.414 47.1789 145.592 45.5137 148.469L45.4429 148.342H45.5915L45.5207 148.469L25.7168 183.576L25.5966 183.795L25.4551 183.583L4.51958 150.201L3.48694 148.554L3.32427 148.3H3.6284L3.48694 148.554C1.90078 145.833 0.83134 142.843 0.332462 139.733C0.0790241 138.218 -0.0275597 136.682 0.0141874 135.146L0.141498 132.877C0.254664 132.128 0.367827 131.386 0.473919 130.644C1.59756 124.951 4.6104 119.804 9.02497 116.034C11.0864 114.328 13.4103 112.965 15.9068 111.999L16.8192 111.659L17.2719 111.49L17.7387 111.363L19.5847 110.882C20.8035 110.648 22.0372 110.499 23.2767 110.437C24.472 110.373 25.6704 110.394 26.8626 110.5C27.4497 110.55 28.0226 110.677 28.5955 110.755L29.4442 110.896C29.7201 110.953 29.9959 111.037 30.2717 111.108L31.8914 111.546L33.4262 112.133C33.6808 112.232 33.9355 112.317 34.183 112.423L34.8903 112.783L36.3049 113.49C39.5353 115.364 42.3125 117.927 44.4386 120.996C46.0213 123.313 47.2157 125.872 47.975 128.573C48.2502 129.557 48.4581 130.558 48.5974 131.57C48.73 132.305 48.8104 133.049 48.8379 133.796C48.8379 134.39 48.8379 134.849 48.8874 135.174C48.9369 135.5 48.8874 135.641 48.8874 135.641C48.8874 135.641 48.8874 135.478 48.8874 135.174C48.8874 134.871 48.845 134.397 48.8096 133.803C48.7672 133.059 48.6775 132.317 48.5408 131.584C48.3879 130.579 48.1705 129.585 47.8901 128.608C47.121 125.933 45.927 123.399 44.3537 121.102C42.2193 118.065 39.4424 115.533 36.22 113.688L34.8054 112.981L34.0981 112.635C33.8577 112.522 33.603 112.444 33.3484 112.345L31.8278 111.765L30.2222 111.341C29.9535 111.271 29.6847 111.186 29.4089 111.129L28.5672 110.995C28.0014 110.917 27.4355 110.797 26.8556 110.748C25.6794 110.647 24.4976 110.63 23.3191 110.698C22.0937 110.761 20.8741 110.909 19.6696 111.143L17.8448 111.624L17.385 111.751L16.9395 111.914L16.0412 112.253C13.5652 113.204 11.2602 114.55 9.21593 116.239C4.85292 119.974 1.88173 125.073 0.785125 130.708C0.679033 131.414 0.565866 132.171 0.459773 132.906C0.353681 133.641 0.374901 134.397 0.339537 135.153C0.299203 136.67 0.403407 138.187 0.65074 139.684C1.14617 142.75 2.20102 145.699 3.76278 148.384L3.91131 148.639H3.62133L3.76278 148.384C4.08813 148.908 4.47007 149.466 4.78834 150.031L25.7098 183.434H25.4481C33.7799 168.79 40.7324 156.576 45.3722 148.392L45.45 148.519H45.2944L45.3651 148.392C47.0331 145.536 48.1331 142.384 48.6045 139.111C48.7672 137.988 48.8096 137.111 48.852 136.532C48.852 136.242 48.852 136.023 48.852 135.867C48.852 135.712 48.8874 135.634 48.8874 135.634Z" fill="#E0E0E0"/>
<path d="M40.004 135.323C39.9967 135.241 39.9967 135.158 40.004 135.076C40.004 134.892 40.004 134.652 39.9474 134.369C39.9474 134.206 39.9474 134.03 39.9474 133.832C39.9474 133.634 39.8837 133.415 39.8484 133.181C39.7759 132.645 39.6672 132.113 39.523 131.591C39.1602 130.149 38.5833 128.77 37.8114 127.499C35.9895 124.437 33.1569 122.105 29.8008 120.904C26.4447 119.703 22.7748 119.708 19.422 120.919C18.7358 121.163 18.0671 121.453 17.4204 121.788C16.767 122.146 16.1385 122.547 15.5391 122.989C14.9284 123.445 14.3472 123.938 13.7992 124.467C13.2579 125.021 12.7545 125.612 12.2926 126.234C11.338 127.521 10.5955 128.953 10.093 130.474C9.04166 133.609 9.04166 137.001 10.093 140.136C10.5813 141.66 11.3173 143.093 12.2714 144.377C12.7284 145.004 13.2269 145.599 13.7638 146.158C14.3109 146.687 14.8896 147.183 15.4966 147.642C16.0959 148.087 16.7245 148.491 17.378 148.851C17.9814 149.17 18.6052 149.448 19.2452 149.685C22.5958 150.909 26.2677 150.93 29.6326 149.747C32.9975 148.563 35.8462 146.248 37.6912 143.197C38.4755 141.932 39.06 140.554 39.424 139.111C39.5736 138.59 39.6847 138.059 39.7564 137.521C39.7564 137.288 39.8342 137.076 39.8625 136.878V136.334C39.8625 136.03 39.905 135.782 39.9191 135.627C39.9114 135.542 39.9114 135.457 39.9191 135.373C39.9285 135.457 39.9285 135.542 39.9191 135.627C39.9191 135.811 39.9191 136.051 39.9191 136.334V136.878C39.9191 137.076 39.8625 137.295 39.8342 137.528C39.7693 138.072 39.6677 138.61 39.5301 139.14C39.1801 140.601 38.6076 142.001 37.8326 143.289C35.982 146.408 33.0987 148.783 29.6812 150.003C26.2638 151.222 22.5272 151.21 19.1179 149.968C17.6979 149.47 16.364 148.755 15.1642 147.847C14.5385 147.384 13.9454 146.879 13.3889 146.335C12.853 145.761 12.3567 145.152 11.9036 144.511C10.9314 143.204 10.1766 141.748 9.66862 140.2C9.16023 138.599 8.89325 136.932 8.87646 135.252C8.8992 133.571 9.1758 131.903 9.69691 130.305C10.21 128.761 10.9695 127.309 11.9461 126.008C12.4198 125.371 12.9348 124.767 13.4879 124.198C14.0503 123.662 14.6456 123.162 15.2703 122.7C15.8839 122.25 16.5266 121.842 17.1941 121.477C17.8576 121.148 18.5429 120.864 19.2452 120.629C22.6603 119.404 26.3964 119.41 29.8073 120.647C33.2182 121.883 36.0894 124.272 37.9246 127.4C38.6895 128.695 39.2547 130.099 39.6008 131.563C39.7377 132.09 39.8347 132.626 39.8908 133.167C39.8908 133.408 39.9615 133.62 39.9757 133.825C39.9898 134.03 39.9757 134.199 39.9757 134.362C39.9757 134.673 39.9757 134.92 39.9757 135.104C39.9912 135.176 40.0006 135.249 40.004 135.323V135.323Z" fill="#E0E0E0"/>
<path d="M24.2173 142.554L15.2207 136.277L17.4133 133.146L23.4464 137.352L31.2548 127.435L34.2607 129.803L24.2173 142.554Z" fill="#E0E0E0"/>
<path fill-rule="evenodd" clip-rule="evenodd" d="M276.045 26.3847C278.677 26.7129 281.253 27.3903 283.705 28.3991L289.328 23.6918L298.99 31.0425L295.948 37.7146C297.574 39.8072 298.915 42.1053 299.937 44.5493L307.244 45.1925L308.877 57.208L302.003 59.7737C301.679 62.4189 300.999 65.0081 299.98 67.4707L304.697 73.125L297.342 82.7869L290.665 79.7406C288.573 81.3674 286.272 82.708 283.825 83.727L283.182 91.0282L271.158 92.6609L268.591 85.7908C265.954 85.448 263.376 84.7539 260.924 83.727L255.265 88.4342L245.604 81.0835L248.652 74.4114C247.023 72.3215 245.681 70.0228 244.663 67.5767L237.357 66.9335L235.723 54.918L242.591 52.3453C242.923 49.7177 243.603 47.1459 244.614 44.6977L239.917 39.0505L247.266 29.3886L253.95 32.4349C256.043 30.8092 258.343 29.4686 260.789 28.4485L261.433 21.1473L273.457 19.5146L276.024 26.3847H276.045ZM272.452 42.9661C269.763 43.0528 267.167 43.9692 265.021 45.5894C262.874 47.2097 261.282 49.4544 260.463 52.0152C259.644 54.5761 259.638 57.3275 260.447 59.8916C261.255 62.4557 262.838 64.7068 264.979 66.3358C267.119 67.9647 269.711 68.8916 272.4 68.9891C275.088 69.0866 277.741 68.35 279.994 66.8805C282.247 65.4109 283.989 63.2804 284.981 60.7816C285.974 58.2829 286.168 55.5383 285.537 52.9248C284.833 50.0152 283.148 47.4366 280.765 45.6229C278.382 43.8091 275.446 42.8709 272.452 42.9661V42.9661Z" fill="#F5F5F5"/>
<path fill-rule="evenodd" clip-rule="evenodd" d="M166.466 64.8272C168.167 65.044 169.832 65.4861 171.417 66.1419L175.066 63.0815L181.34 67.8523L179.367 72.185C180.423 73.5434 181.293 75.036 181.955 76.6236L186.701 77.0407L187.755 84.8154L183.299 86.4834C183.081 88.1833 182.638 89.8469 181.984 91.431L185.046 95.0781L180.286 101.397L175.951 99.4249C174.592 100.479 173.098 101.347 171.509 102.005L171.092 106.747L163.311 107.807L161.642 103.348C159.941 103.135 158.276 102.695 156.691 102.04L153.042 105.1L146.768 100.33L148.748 95.9969C147.69 94.6402 146.819 93.1472 146.16 91.5582L141.414 91.1412L140.353 83.3311L144.816 81.6702C145.03 79.9702 145.47 78.3064 146.124 76.7226L143.019 73.0543L147.794 66.7851L152.129 68.757C153.487 67.703 154.978 66.8331 156.564 66.1702L156.981 61.4276L164.797 60.4027L166.466 64.8555V64.8272ZM164.118 75.5917C162.363 75.6417 160.668 76.2339 159.264 77.2867C157.861 78.3396 156.819 79.8013 156.281 81.4706C155.743 83.1399 155.736 84.9348 156.261 86.6082C156.787 88.2815 157.818 89.751 159.213 90.8144C160.609 91.8777 162.3 92.4826 164.054 92.5458C165.808 92.6091 167.538 92.1274 169.006 91.1673C170.475 90.2072 171.61 88.8157 172.254 87.1845C172.899 85.5533 173.021 83.7626 172.605 82.0589C172.145 80.1731 171.051 78.5023 169.506 77.3253C167.961 76.1483 166.059 75.5364 164.118 75.5917Z" fill="#EBEBEB"/>
<path d="M232.01 121.894C233.05 122.356 234.006 122.986 234.839 123.76C237.179 125.853 238.723 128.689 239.21 131.789C239.556 133.932 239.391 136.126 238.729 138.193C237.959 140.575 236.565 142.708 234.691 144.37C233.687 145.275 232.549 146.019 231.317 146.575C230.043 147.182 228.679 147.581 227.278 147.756C224.315 148.164 221.3 147.608 218.677 146.171C216.054 144.734 213.964 142.492 212.715 139.776C212.106 138.503 211.707 137.14 211.534 135.74C211.345 134.4 211.362 133.039 211.584 131.704C211.981 129.233 213.031 126.913 214.625 124.983C216.014 123.313 217.778 121.996 219.774 121.138C222.657 119.876 225.889 119.651 228.919 120.502C230.02 120.8 231.064 121.278 232.01 121.915C231.968 122 230.928 121.357 228.841 120.834C225.883 120.119 222.771 120.415 220 121.675C218.116 122.531 216.459 123.816 215.163 125.428C213.667 127.279 212.691 129.494 212.333 131.846C211.942 134.444 212.329 137.1 213.444 139.479C214.634 142.033 216.608 144.14 219.08 145.494C221.552 146.848 224.392 147.378 227.186 147.006C228.513 146.847 229.805 146.474 231.013 145.904C232.185 145.386 233.269 144.687 234.224 143.833C235.905 142.37 237.194 140.511 237.972 138.423C238.751 136.335 238.994 134.086 238.68 131.881C238.24 128.882 236.815 126.114 234.627 124.014C233.064 122.502 231.953 121.972 232.01 121.894Z" fill="#EBEBEB"/>
<path d="M246.594 110.882C246.62 110.725 246.656 110.569 246.7 110.416C246.792 110.069 246.912 109.603 247.068 109.002L248.596 103.454L248.652 103.595L237.449 97.5378L237.689 97.4954L232.618 103.277L232.526 103.383L232.392 103.348C229.709 102.699 226.953 102.407 224.194 102.478H224.039L223.961 102.344C222.794 100.224 221.528 97.9831 220.205 95.6224L220.531 95.7567L208.309 99.3472L208.528 99.0291C208.684 101.411 208.846 104.026 209.016 106.712V106.91L208.846 107.009C206.505 108.433 204.364 110.164 202.481 112.154L202.339 112.303L202.141 112.246L194.736 110.126L195.139 109.963L188.993 121.187L188.915 120.735L194.679 125.831L194.849 125.979L194.8 126.198C194.154 128.853 193.866 131.582 193.944 134.312V134.538L193.739 134.652L187.005 138.391L187.189 137.945L190.754 150.166L190.358 149.89L198.039 149.417H198.28L198.4 149.621C199.82 151.959 201.544 154.099 203.528 155.983V155.983C203.577 156.159 203.429 155.594 203.641 156.378V156.421V156.477V156.598L203.57 156.831L203.436 157.29L203.174 158.223L202.636 160.075C202.283 161.312 201.929 162.542 201.583 163.764L201.392 163.312L212.56 169.44L212.086 169.518L217.185 163.764L217.284 163.595L217.511 163.651C220.177 164.31 222.919 164.612 225.665 164.549H225.899L226.005 164.747C227.273 167.023 228.518 169.268 229.739 171.483L229.308 171.306L241.537 167.772L241.282 168.14C241.127 165.539 240.971 162.973 240.823 160.464V160.245L241.006 160.139C243.364 158.724 245.521 157 247.421 155.014L247.563 154.866L247.761 154.922L255.152 157.043L254.777 157.198L260.931 146.052L260.994 146.42L255.244 141.31L255.117 141.197L255.152 141.034C255.823 138.361 256.133 135.611 256.072 132.856V132.701L256.206 132.623L262.946 128.912L262.84 129.181C261.482 124.438 260.322 120.403 259.304 116.946L259.488 117.067L251.8 117.491H251.722L251.679 117.427C250.618 115.634 249.381 113.951 247.987 112.402L246.941 111.271C246.816 111.152 246.7 111.024 246.594 110.889C246.732 110.99 246.862 111.101 246.983 111.221C247.238 111.455 247.612 111.808 248.086 112.31C249.527 113.836 250.805 115.509 251.899 117.3L251.785 117.236L259.467 116.72H259.601L259.643 116.862C260.669 120.311 261.864 124.339 263.265 129.068L263.314 129.245L263.151 129.329L256.432 133.09L256.567 132.856C256.644 135.659 256.347 138.459 255.683 141.182L255.591 140.9L261.369 145.989L261.553 146.144L261.433 146.356L255.329 157.531L255.202 157.757L254.954 157.686L247.549 155.566L247.888 155.474C245.953 157.511 243.752 159.28 241.346 160.732L241.516 160.414C241.671 162.926 241.832 165.484 241.997 168.09V168.38L241.721 168.458L229.499 172.034L229.209 172.119L229.068 171.857L225.326 165.129L225.665 165.326C222.851 165.397 220.04 165.093 217.305 164.422L217.687 164.302L212.588 170.062L212.383 170.295L212.114 170.147L200.939 164.026L200.663 163.878L200.755 163.574C201.104 162.353 201.455 161.126 201.809 159.891L202.339 158.032L202.608 157.106L202.742 156.64L202.806 156.407L202.841 156.294V156.23V156.188C203.054 156.972 202.898 156.407 202.948 156.576C200.912 154.636 199.145 152.432 197.692 150.024L198.053 150.215L190.365 150.682H190.054L189.969 150.385L186.433 138.164L186.348 137.868L186.616 137.719L193.35 133.994L193.159 134.334C193.088 131.523 193.395 128.715 194.071 125.986L194.191 126.354C192.19 124.58 190.224 122.82 188.427 121.251L188.215 121.053L188.349 120.798L194.496 109.645L194.63 109.398L194.899 109.476L202.29 111.596L201.95 111.688C203.896 109.662 206.101 107.901 208.507 106.45L208.351 106.747C208.196 104.069 208.04 101.446 207.899 99.0715V98.8242L208.139 98.7535L220.375 95.2195L220.587 95.1559L220.693 95.3538C222.002 97.7145 223.254 99.9904 224.414 102.09L224.18 101.962C226.982 101.899 229.78 102.213 232.498 102.895L232.272 102.966L237.392 97.2268L237.498 97.1066L237.64 97.1844L248.772 103.369L248.864 103.418V103.517C248.157 105.885 247.605 107.716 247.223 108.981L246.792 110.394C246.741 110.563 246.675 110.726 246.594 110.882V110.882Z" fill="#EBEBEB"/>
<path d="M276.547 123.661L265.45 79.5568L310.603 78.8076L276.547 123.661Z" fill="#EBEBEB"/>
<path d="M296.977 87.3616L281.467 107.789L364.136 170.472L379.646 150.045L296.977 87.3616Z" fill="#EBEBEB"/>
<path d="M357.326 236.395L363.062 249.393C363.062 249.393 351.746 259.585 352.595 262.115L378.212 251.902L370.107 231.284L357.326 236.395Z" fill="#E8505B"/>
<path opacity="0.5" d="M357.326 236.395L363.062 249.393C363.062 249.393 351.746 259.585 352.595 262.115L378.212 251.902L370.107 231.284L357.326 236.395Z" fill="black"/>
<path d="M378.212 251.895L377.314 249.824L353.082 260.426C353.082 260.426 352.142 261.373 352.587 262.129L378.212 251.895Z" fill="#263238"/>
<path d="M402.437 254.821L409.623 267.084C409.623 267.084 399.565 278.491 400.669 280.923L424.957 267.861L414.552 248.269L402.437 254.821Z" fill="#E8505B"/>
<path opacity="0.5" d="M402.437 254.821L409.623 267.084C409.623 267.084 399.565 278.491 400.669 280.923L424.957 267.861L414.552 248.269L402.437 254.821Z" fill="black"/>
<path d="M424.957 267.826L423.811 265.896L400.966 279.142C400.966 279.142 400.138 280.195 400.668 280.887L424.957 267.826Z" fill="#263238"/>
<path d="M371.104 82.8576L355.36 84.0874L354.837 75.2808C354.837 75.2808 348.471 75.1889 347.537 68.9903C346.604 62.7917 345.656 48.3872 345.656 48.3872C348.975 46.3747 352.772 45.2841 356.653 45.2282C360.535 45.1723 364.362 46.1531 367.737 48.0692L368.756 48.6487L371.104 82.8576Z" fill="#FFBE9D"/>
<path d="M354.815 75.1888C357.692 74.8405 360.4 73.6448 362.595 71.7538C362.595 71.7538 361.223 76.6307 354.942 76.9417L354.815 75.1888Z" fill="#EB996E"/>
<path d="M368.897 55.1795C368.996 55.1159 372.992 53.3136 373.452 57.5826C373.912 61.8517 369.534 61.4276 369.513 61.3074C369.491 61.1873 368.897 55.1795 368.897 55.1795Z" fill="#FFBE9D"/>
<path d="M370.644 59.5474C370.644 59.5474 370.722 59.5898 370.856 59.6393C371.04 59.6945 371.237 59.6768 371.408 59.5898C371.671 59.3887 371.876 59.1206 372 58.8135C372.125 58.5064 372.164 58.1717 372.115 57.844C372.089 57.4781 371.98 57.1229 371.797 56.8051C371.742 56.6765 371.657 56.563 371.548 56.4744C371.44 56.3858 371.312 56.3247 371.175 56.2962C371.086 56.2831 370.996 56.3015 370.92 56.3479C370.844 56.3944 370.786 56.4661 370.757 56.5506C370.715 56.6708 370.757 56.7556 370.757 56.7627C370.757 56.7697 370.658 56.7061 370.673 56.5223C370.685 56.4145 370.735 56.3145 370.814 56.2396C370.866 56.1878 370.928 56.1472 370.996 56.1204C371.064 56.0937 371.137 56.0813 371.21 56.0841C371.389 56.1009 371.561 56.1629 371.709 56.2643C371.858 56.3657 371.978 56.5031 372.059 56.6637C372.281 57.0126 372.415 57.4106 372.448 57.8228C372.509 58.2006 372.456 58.5879 372.298 58.9362C372.139 59.2844 371.881 59.5782 371.557 59.7807C371.444 59.8306 371.322 59.8534 371.199 59.8472C371.076 59.8411 370.956 59.8062 370.849 59.7453C370.658 59.6534 370.63 59.5616 370.644 59.5474Z" fill="#EB996E"/>
<path d="M348.337 58.1409C348.368 58.3717 348.489 58.5811 348.672 58.7249C348.856 58.8687 349.088 58.9355 349.32 58.9113C349.434 58.9052 349.545 58.876 349.648 58.8257C349.751 58.7754 349.842 58.7049 349.917 58.6184C349.991 58.5319 350.048 58.4313 350.082 58.3225C350.117 58.2138 350.13 58.0991 350.119 57.9854C350.09 57.7539 349.972 57.5428 349.79 57.3974C349.607 57.252 349.375 57.184 349.143 57.208C349.028 57.2151 348.916 57.245 348.813 57.296C348.71 57.347 348.618 57.4181 348.543 57.505C348.468 57.5919 348.411 57.6929 348.376 57.8021C348.34 57.9113 348.327 58.0265 348.337 58.1409Z" fill="#263238"/>
<path d="M348.061 56.9536C348.188 57.0525 348.768 56.4588 349.744 56.3316C350.72 56.2044 351.47 56.579 351.555 56.4447C351.64 56.3104 351.456 56.1902 351.123 56.0135C350.668 55.788 350.155 55.7066 349.652 55.7803C349.155 55.8485 348.693 56.071 348.33 56.4164C348.068 56.685 348.004 56.9112 348.061 56.9536Z" fill="#263238"/>
<path d="M357.623 57.0667C357.655 57.2975 357.775 57.5069 357.959 57.6507C358.142 57.7944 358.374 57.8613 358.606 57.8371C358.72 57.83 358.831 57.8002 358.933 57.7496C359.035 57.6989 359.126 57.6284 359.201 57.5421C359.275 57.4559 359.332 57.3556 359.367 57.2473C359.402 57.1389 359.415 57.0247 359.406 56.9112C359.375 56.6804 359.257 56.4704 359.075 56.3253C358.893 56.1803 358.661 56.1116 358.429 56.1337C358.315 56.1408 358.203 56.1708 358.1 56.2218C357.997 56.2728 357.905 56.3438 357.83 56.4307C357.755 56.5176 357.698 56.6186 357.662 56.7278C357.627 56.8371 357.614 56.9522 357.623 57.0667V57.0667Z" fill="#263238"/>
<path d="M357.475 55.8086C357.602 55.9146 358.182 55.3209 359.158 55.1866C360.134 55.0523 360.877 55.434 360.969 55.3067C361.06 55.1795 360.87 55.0523 360.53 54.8756C360.079 54.6442 359.567 54.5601 359.066 54.6353C358.568 54.704 358.105 54.9293 357.743 55.2785C357.482 55.547 357.411 55.7661 357.475 55.8086Z" fill="#263238"/>
<path d="M355.006 63.3712C354.48 63.2907 353.946 63.2717 353.415 63.3147C353.167 63.3147 352.927 63.3147 352.863 63.145C352.814 62.9083 352.837 62.6625 352.927 62.4382C353.068 61.8163 353.224 61.1589 353.387 60.4804C353.834 58.8144 354.147 57.1149 354.32 55.3986C353.74 57.0234 353.29 58.692 352.976 60.3885L352.552 62.3534C352.436 62.6683 352.436 63.014 352.552 63.3288C352.599 63.4098 352.665 63.4788 352.743 63.5303C352.822 63.5818 352.911 63.6145 353.005 63.6257C353.143 63.647 353.284 63.647 353.422 63.6257C353.959 63.6085 354.491 63.523 355.006 63.3712Z" fill="#263238"/>
<path d="M357.906 63.6398C357.75 63.6398 357.906 64.6858 357.107 65.5481C356.308 66.4104 355.204 66.4457 355.218 66.5941C355.233 66.7426 355.494 66.7638 355.961 66.7072C356.568 66.6309 357.129 66.3431 357.545 65.8944C357.946 65.4634 358.162 64.8924 358.147 64.3041C358.125 63.8659 357.977 63.6256 357.906 63.6398Z" fill="#263238"/>
<path d="M356.697 52.105C356.831 52.3523 357.765 52.105 358.903 52.105C360.042 52.105 361.025 52.2605 361.11 52.006C361.16 51.8859 360.969 51.6597 360.566 51.4618C360.037 51.2157 359.458 51.0993 358.875 51.1225C358.292 51.1371 357.721 51.2872 357.206 51.5607C356.824 51.7586 356.619 51.9919 356.697 52.105Z" fill="#263238"/>
<path d="M348.025 54.1405C348.223 54.3314 348.853 54.0204 349.638 53.8932C350.423 53.7659 351.123 53.8366 351.244 53.5892C351.293 53.4691 351.159 53.2641 350.84 53.1015C350.414 52.9062 349.937 52.847 349.475 52.9319C349.01 53.0015 348.579 53.2168 348.245 53.5468C347.997 53.8083 347.933 54.0416 348.025 54.1405Z" fill="#263238"/>
<path d="M342.077 44.8885C341.982 44.509 341.983 44.1116 342.081 43.7327C342.178 43.3537 342.369 43.0051 342.636 42.7187C342.917 42.4496 343.284 42.2884 343.672 42.2639C344.061 42.2393 344.445 42.3528 344.758 42.5844C344.664 42.3331 344.624 42.0649 344.64 41.7971C344.656 41.5293 344.728 41.2679 344.851 41.0295C344.974 40.7912 345.146 40.5813 345.355 40.4133C345.565 40.2453 345.807 40.1229 346.066 40.0541C347.071 39.8491 348.047 40.4923 349.065 40.6195C350.064 40.6834 351.056 40.4231 351.894 39.8774C352.764 39.3826 353.549 38.7465 354.433 38.28C356.298 37.2859 358.48 37.0675 360.505 37.6724C362.53 38.2772 364.235 39.6564 365.248 41.5101C365.917 41.2388 366.653 41.1788 367.357 41.338C368.062 41.4972 368.7 41.868 369.187 42.4006C370.15 43.49 370.672 44.8985 370.651 46.3516C370.651 47.3216 370.545 48.2886 370.333 49.2353C370.333 49.3131 370.333 49.3908 370.368 49.4756C370.786 52.8965 370.963 56.9606 369.513 57.1868C366.974 57.5826 366.91 52.7128 366.91 52.7128C363.621 51.9494 364.123 47.115 363.246 46.5212C362.369 45.9275 360.502 44.5069 354.448 48.7547C352.172 50.1828 349.504 50.858 346.823 50.6843H346.653H346.611H346.554C345.944 50.6184 345.348 50.4587 344.786 50.2107C344.124 49.9446 343.564 49.4741 343.188 48.8678C343.007 48.563 342.919 48.2124 342.934 47.8587C342.95 47.5049 343.067 47.1631 343.272 46.8746C342.688 46.3436 342.273 45.6531 342.077 44.8885V44.8885Z" fill="#263238"/>
<path d="M354.815 80.6735L355.522 105.319L370.863 72.3121L370.481 69.2517L354.815 80.6735Z" fill="#EBEBEB"/>
<path d="M364.993 154.357C364.434 154.541 332.458 186.834 333.165 192.637C333.873 198.44 356.626 241.406 356.626 241.406L372.893 233.412L357.666 195.754L357.864 193.414L376.472 178.183L375.475 153.7L364.993 154.357Z" fill="#263238"/>
<path d="M371.882 160.725C372.257 161.284 377.788 212.017 379.273 214.64C380.758 217.262 402.981 260.581 402.981 260.581L419.482 253.937L399.339 206.335L401.63 161.284L400.393 148.561L375.475 153.7L371.882 160.725Z" fill="#263238"/>
<path d="M378.983 213.777C378.93 213.612 378.894 213.441 378.877 213.268C378.813 212.901 378.736 212.413 378.637 211.805C378.439 210.491 378.156 208.66 377.816 206.412C377.158 201.811 376.253 195.528 375.249 188.587C374.244 181.646 373.424 175.342 372.787 170.748C372.497 168.486 372.257 166.648 372.08 165.333L371.91 163.856C371.893 163.685 371.893 163.512 371.91 163.34C371.91 163.34 371.953 163.517 372.016 163.849C372.08 164.181 372.158 164.704 372.257 165.312L373.07 170.712C373.735 175.306 374.64 181.59 375.638 188.538C376.635 195.485 377.47 201.776 378.099 206.377C378.396 208.632 378.637 210.469 378.806 211.784C378.877 212.399 378.941 212.894 378.983 213.261C379 213.433 379 213.606 378.983 213.777V213.777Z" fill="#455A64"/>
<path d="M398.922 204.879C398.713 206.244 398.391 207.589 397.96 208.9C397.638 210.243 397.203 211.555 396.658 212.823C396.874 211.467 397.203 210.131 397.641 208.83C397.95 207.477 398.379 206.155 398.922 204.879V204.879Z" fill="#455A64"/>
<path d="M401.418 216.371C401.048 216.008 400.742 215.585 400.513 215.12C399.281 212.928 398.746 210.414 398.978 207.911C398.995 207.395 399.101 206.886 399.289 206.405C398.899 209.869 399.644 213.366 401.411 216.371H401.418Z" fill="#455A64"/>
<path d="M352.375 190.276C354.355 191.055 355.978 192.535 356.937 194.432C356.852 194.489 356.06 193.337 354.815 192.199C353.571 191.061 352.297 190.368 352.375 190.276Z" fill="#455A64"/>
<path d="M354.851 188.778C355.512 189.234 356.051 189.846 356.421 190.559C356.895 191.21 357.204 191.967 357.319 192.764C356.884 192.113 356.484 191.438 356.124 190.743C355.663 190.112 355.238 189.456 354.851 188.778V188.778Z" fill="#455A64"/>
<path d="M357.057 114.762L361.138 135.019L364.463 163.291C364.463 163.291 378.17 161.375 384.012 159.531C390.788 157.41 405.527 155.559 405.527 155.559L403.038 158.018C408.314 156.541 411.674 151.516 411.674 151.516C402.592 143.098 394.812 125.739 394.812 125.739L387.902 91.4452C387.902 91.4452 386.855 86.6107 386.219 84.455C385.582 82.2992 375.093 75.3656 373.636 74.4892L372.724 74.058L372.434 71.3086L371.351 70.6583L360.007 80.9705C357.795 82.9727 356.39 85.7115 356.053 88.6745C355.573 92.9564 355.408 97.2676 355.558 101.574C355.692 105.638 357.057 114.762 357.057 114.762Z" fill="#FF725E"/>
<path d="M364.852 79.6841C364.852 79.6841 358.854 82.9 357.814 85.6282C356.774 88.3565 359.865 118.268 359.865 118.268L338.314 118.678L338.229 131.506C338.229 131.506 372.455 134.213 373.792 132.361C375.588 129.859 377.682 106.486 377.682 106.486L378.46 89.664C378.46 89.664 376.501 76.8428 364.852 79.6841Z" fill="#FF725E"/>
<g opacity="0.3">
<path d="M361.138 135.019C363.926 135.891 366.867 136.163 369.767 135.818C372.802 135.542 375.892 133.881 377.038 131.054C377.915 128.898 377.547 126.46 377.682 124.134C377.802 122.106 378.297 120.127 378.608 118.127C378.92 116.126 377.901 112.472 377.194 110.529C377.194 110.529 376.43 124.41 374.251 130.241C374.009 131.055 373.549 131.788 372.922 132.361C372.151 132.983 371.09 133.068 370.093 133.139C367.341 133.429 360.707 132.948 360.707 132.948" fill="black"/>
</g>
<path d="M378.446 91.5017C378.455 91.6052 378.455 91.7092 378.446 91.8127C378.446 92.0247 378.446 92.3216 378.41 92.7033C378.41 93.509 378.318 94.6611 378.248 96.1383C378.177 97.6155 378.071 99.4602 377.958 101.574C377.844 103.687 377.76 106.111 377.498 108.769C377.236 111.426 376.989 114.338 376.656 117.462C376.324 120.586 375.949 123.922 375.348 127.407C375.206 128.297 375.008 129.178 374.754 130.043C374.46 130.949 373.921 131.756 373.198 132.376C372.454 133.016 371.498 133.357 370.517 133.33C369.569 133.33 368.614 133.33 367.688 133.33C363.84 133.231 359.865 133.04 355.791 132.814C349.673 132.482 343.768 132.107 338.272 131.711H338.116V131.556C338.116 126.997 338.166 122.707 338.194 118.742V118.593H338.343L359.144 118.148L364.958 118.049H366.493C366.839 118.049 367.016 118.049 367.016 118.049C367.016 118.049 366.839 118.049 366.493 118.084L364.965 118.148L359.144 118.332L338.35 118.904L338.498 118.756C338.498 122.714 338.498 127.004 338.456 131.563L338.293 131.393C343.803 131.768 349.702 132.149 355.813 132.482C359.88 132.701 363.854 132.906 367.695 133.005C368.657 133.005 369.605 133.04 370.524 133.005C371.43 133.039 372.314 132.728 373 132.135C373.675 131.558 374.177 130.804 374.45 129.958C374.699 129.109 374.895 128.245 375.037 127.372C375.638 123.901 376.02 120.565 376.38 117.476C376.741 114.388 377.017 111.455 377.265 108.797C377.512 106.139 377.632 103.722 377.774 101.609C377.915 99.4956 378.028 97.6791 378.12 96.1807C378.212 94.6823 378.297 93.5514 378.354 92.7527C378.354 92.3711 378.403 92.0459 378.424 91.8551C378.418 91.7369 378.425 91.6183 378.446 91.5017V91.5017Z" fill="#263238"/>
<path d="M342.473 131.315C342.306 129.247 342.257 127.17 342.325 125.096C342.278 123.02 342.349 120.943 342.537 118.876C342.704 120.945 342.754 123.021 342.685 125.096C342.732 127.171 342.661 129.248 342.473 131.315Z" fill="#263238"/>
<path d="M340.196 120.827C340.153 120.827 340.366 120.558 340.776 120.699C340.896 120.741 341.001 120.817 341.079 120.917C341.157 121.018 341.204 121.138 341.214 121.265C341.233 121.423 341.201 121.582 341.124 121.721C341.046 121.86 340.927 121.971 340.783 122.038C340.639 122.105 340.477 122.125 340.321 122.096C340.165 122.066 340.022 121.988 339.913 121.873C339.822 121.789 339.754 121.683 339.717 121.565C339.68 121.447 339.674 121.322 339.701 121.201C339.8 120.791 340.083 120.706 340.09 120.749C340.097 120.791 339.955 120.94 339.948 121.229C339.946 121.305 339.961 121.381 339.992 121.451C340.022 121.52 340.068 121.582 340.125 121.632C340.194 121.689 340.277 121.727 340.365 121.74C340.454 121.754 340.544 121.744 340.627 121.71C340.705 121.67 340.771 121.609 340.817 121.535C340.863 121.46 340.888 121.374 340.889 121.286C340.887 121.212 340.866 121.14 340.827 121.077C340.789 121.013 340.735 120.961 340.67 120.925C340.422 120.777 340.217 120.869 340.196 120.827Z" fill="#263238"/>
<path d="M388.008 94.3854C388.008 94.3854 399.226 109.037 400.591 113.024C401.956 117.01 400.902 122.749 398.617 125.491C396.333 128.234 394.494 127.117 394.494 127.117L388.008 94.3854Z" fill="#E8505B"/>
<path d="M394.105 125.944C393.191 126.273 392.241 126.494 391.276 126.601C390.335 126.823 389.37 126.927 388.404 126.912C389.318 126.581 390.267 126.361 391.233 126.255C392.174 126.033 393.138 125.929 394.105 125.944V125.944Z" fill="#263238"/>
<path d="M396.227 136.737C396.353 136.983 396.455 137.241 396.531 137.507C396.701 138.016 396.955 138.737 397.288 139.627C398.159 141.948 399.165 144.216 400.301 146.42C401.445 148.617 402.701 150.754 404.064 152.823C404.587 153.622 405.018 154.237 405.322 154.696C405.495 154.914 405.643 155.151 405.761 155.403C405.554 155.217 405.369 155.008 405.209 154.781C404.877 154.364 404.41 153.749 403.858 152.965C402.425 150.934 401.13 148.809 399.982 146.603C398.835 144.39 397.856 142.094 397.054 139.733C396.75 138.829 396.524 138.087 396.397 137.571C396.303 137.301 396.246 137.021 396.227 136.737V136.737Z" fill="#263238"/>
<g opacity="0.3">
<path d="M397.005 138.475C398.787 141.642 400.612 144.836 403.314 147.289C404.336 148.064 405.262 148.959 406.072 149.954C406.779 151.007 407.112 152.477 406.419 153.558C406.315 153.76 406.153 153.925 405.953 154.032C405.754 154.14 405.526 154.184 405.301 154.159C405.005 154.046 404.756 153.837 404.594 153.565C401.211 149.212 398.683 144.257 397.146 138.963" fill="black"/>
</g>
<g opacity="0.3">
<path d="M395.519 127.061C397.054 125.958 397.592 123.866 397.365 121.986C397.139 120.106 396.276 118.381 395.505 116.664C393.175 111.528 391.349 106.178 390.052 100.69L388.956 96.626L394.501 125.605L395.519 127.061Z" fill="black"/>
</g>
<path d="M367.773 78.3835C368.434 77.6436 369.143 76.9471 369.895 76.2985C370.558 75.5488 371.266 74.8407 372.016 74.1781C371.544 75.0588 370.922 75.8505 370.177 76.5176C369.498 77.283 368.683 77.9157 367.773 78.3835V78.3835Z" fill="#263238"/>
<path d="M366.641 80.8998C366.641 80.9634 365.99 81.1613 365 81.649C362.401 82.9376 360.307 85.0571 359.052 87.6709C358.571 88.6675 358.345 89.3318 358.345 89.3177C358.343 89.1519 358.369 88.987 358.422 88.83C358.531 88.3981 358.673 87.9752 358.847 87.5649C360.016 84.8192 362.189 82.6226 364.922 81.4228C365.33 81.2441 365.751 81.0976 366.181 80.9846C366.329 80.931 366.484 80.9024 366.641 80.8998Z" fill="#263238"/>
<path d="M396.75 129.98C396.679 129.894 396.619 129.799 396.573 129.697L396.128 128.856C395.724 128.071 395.18 127.004 394.508 125.703C393.801 122.495 392.818 117.816 391.735 112.607C390.731 107.666 389.861 103.22 389.154 99.9832L388.447 96.1453C388.376 95.7283 388.312 95.3819 388.263 95.0992C388.233 94.979 388.221 94.8553 388.227 94.7317C388.275 94.8455 388.31 94.9639 388.333 95.0851C388.397 95.3607 388.482 95.7071 388.581 96.1241C388.793 97.0712 389.083 98.3575 389.43 99.9337C390.137 103.199 391.056 107.638 392.089 112.536C393.171 117.745 394.119 122.431 394.748 125.661C395.378 126.983 395.887 128.064 396.262 128.863L396.658 129.732C396.697 129.811 396.728 129.894 396.75 129.98V129.98Z" fill="#263238"/>
<path d="M359.498 118.261C359.407 117.914 359.351 117.559 359.328 117.201C359.25 116.452 359.144 115.469 359.017 114.289C358.762 111.836 358.437 108.437 358.104 104.691C357.772 100.945 357.489 97.5378 357.298 95.071C357.213 93.8907 357.149 92.9082 357.093 92.159C357.06 91.8017 357.06 91.4421 357.093 91.0847C357.173 91.4336 357.228 91.788 357.256 92.1449C357.333 92.8941 357.439 93.8766 357.574 95.0569C357.821 97.5095 358.147 100.902 358.479 104.655C358.812 108.408 359.094 111.808 359.285 114.268C359.37 115.448 359.434 116.43 359.491 117.187C359.518 117.544 359.52 117.903 359.498 118.261V118.261Z" fill="#263238"/>
<path d="M338.59 120.176C338.59 120.176 333.936 116.642 332.805 116.437C331.935 116.275 326.75 116.367 324.367 116.437C323.921 116.434 323.492 116.605 323.172 116.914C322.852 117.224 322.666 117.646 322.655 118.091C322.648 118.148 322.648 118.205 322.655 118.261C322.714 118.543 322.852 118.803 323.052 119.01C323.252 119.218 323.507 119.365 323.787 119.434C323.425 119.55 323.11 119.777 322.885 120.083C322.66 120.389 322.538 120.758 322.535 121.138C322.535 122.481 324.14 122.763 324.14 122.763L323.907 122.975C323.706 123.179 323.563 123.433 323.493 123.711C323.423 123.989 323.428 124.28 323.509 124.555C323.59 124.83 323.743 125.078 323.952 125.274C324.162 125.469 324.419 125.606 324.699 125.668L325.406 125.838C325.135 125.948 324.899 126.131 324.726 126.367C324.552 126.603 324.448 126.882 324.423 127.174C324.423 128.941 328.441 129.294 328.441 129.294C328.441 129.294 338.293 130.856 338.505 130.785C338.718 130.715 338.59 120.176 338.59 120.176Z" fill="#FFBE9D"/>
<path d="M325.279 114.317C325.322 114.904 325.463 116.148 326.453 116.706L331.949 116.494C331.949 116.494 327.861 115.08 327.274 114.374C327.046 114.084 326.782 113.825 326.489 113.603C326.367 113.521 326.224 113.475 326.077 113.471C325.93 113.467 325.785 113.504 325.658 113.579C325.532 113.653 325.429 113.762 325.362 113.893C325.295 114.024 325.266 114.171 325.279 114.317Z" fill="#FFBE9D"/>
<path d="M329.36 116.437C328.541 116.631 327.695 116.691 326.856 116.614C326.018 116.664 325.176 116.604 324.353 116.437C325.176 116.253 326.022 116.193 326.863 116.261C327.7 116.219 328.538 116.278 329.36 116.437V116.437Z" fill="#EB996E"/>
<path d="M328.13 119.505C327.432 119.73 326.694 119.804 325.965 119.724C325.239 119.751 324.516 119.623 323.844 119.349C324.56 119.272 325.284 119.272 326.001 119.349C326.714 119.321 327.428 119.373 328.13 119.505V119.505Z" fill="#EB996E"/>
<path d="M330.923 119.109C331.008 119.166 330.923 119.462 330.591 119.66C330.258 119.858 329.961 119.837 329.954 119.738C329.947 119.639 330.152 119.519 330.393 119.364C330.633 119.208 330.838 119.067 330.923 119.109Z" fill="#EB996E"/>
<path d="M328.731 122.982C327.159 123.166 325.569 123.114 324.013 122.827C324.793 122.672 325.592 122.636 326.383 122.721C327.174 122.691 327.965 122.779 328.731 122.982V122.982Z" fill="#EB996E"/>
<path d="M331.864 121.512C331.906 121.512 331.991 121.611 332.02 121.823C332.05 122.112 331.966 122.401 331.787 122.629C331.607 122.858 331.346 123.007 331.058 123.046C330.846 123.046 330.718 123.046 330.718 122.968C330.718 122.89 331.192 122.813 331.503 122.41C331.815 122.007 331.779 121.533 331.864 121.512Z" fill="#EB996E"/>
<path d="M329.565 126.382C328.858 126.469 328.141 126.44 327.443 126.297C326.716 126.272 325.999 126.124 325.322 125.859C326.029 125.772 326.745 125.801 327.443 125.944C328.17 125.973 328.887 126.121 329.565 126.382Z" fill="#EB996E"/>
<path d="M332.628 124.65C332.67 124.65 332.741 124.763 332.734 124.983C332.706 125.242 332.603 125.488 332.437 125.689C332.041 126.177 331.588 126.354 331.539 126.283C331.489 126.212 331.829 125.88 332.161 125.47C332.493 125.06 332.571 124.672 332.628 124.65Z" fill="#EB996E"/>
<path d="M401.178 158.301C402.15 158.207 403.087 157.887 403.914 157.367C404.74 156.847 405.433 156.14 405.938 155.304C406.051 155.113 406.15 154.852 406.001 154.689C405.944 154.641 405.877 154.606 405.805 154.584C405.734 154.562 405.659 154.554 405.584 154.562C404.046 154.55 402.517 154.814 401.072 155.339C400.987 155.359 400.907 155.396 400.837 155.448C400.768 155.5 400.71 155.567 400.668 155.643C400.63 155.763 400.63 155.891 400.668 156.011C400.859 156.753 401.05 157.495 401.248 158.244" fill="#E8505B"/>
<g opacity="0.4">
<path d="M401.178 158.301C402.15 158.207 403.087 157.887 403.914 157.367C404.74 156.847 405.433 156.14 405.938 155.304C406.051 155.113 406.15 154.852 406.001 154.689C405.944 154.641 405.877 154.606 405.805 154.584C405.734 154.562 405.659 154.554 405.584 154.562C404.046 154.55 402.517 154.814 401.072 155.339C400.987 155.359 400.907 155.396 400.837 155.448C400.768 155.5 400.71 155.567 400.668 155.643C400.63 155.763 400.63 155.891 400.668 156.011C400.859 156.753 401.05 157.495 401.248 158.244" fill="black"/>
</g>
<path d="M354.815 80.6736C354.815 80.6736 352.552 88.2575 353.174 87.8264C353.797 87.3952 355.148 86.2007 355.148 86.2007L354.815 80.6736Z" fill="#EBEBEB"/>
<path d="M354.942 84.1722L353.712 87.1266C353.589 87.4324 353.508 87.7533 353.471 88.0808C353.365 88.9078 353.252 90.4203 353.74 90.5263C353.987 90.5402 354.234 90.4986 354.463 90.4044C354.692 90.3102 354.897 90.1659 355.063 89.9821L354.942 84.1722Z" fill="#263238"/>
<path d="M393.277 84.6387C393.277 84.6387 381.19 79.9243 374.492 84.0874C367.794 88.2504 366.577 94.8943 362.588 94.8943C354.808 94.8943 355.063 89.4095 355.063 89.4095L353.408 89.9114C353.408 91.0352 351.611 99.0997 359.773 100.082C367.935 101.065 371.415 89.9184 378.785 89.9114C383.396 89.9892 387.89 91.3687 391.75 93.8906L397.047 90.5475L393.277 84.6387Z" fill="#263238"/>
<path d="M362.277 99.9833C364.362 98.742 365.995 96.8673 366.938 94.6328C368.819 90.3002 372.851 85.3597 376.218 84.1157C379.584 82.8718 387.372 81.9953 392.754 85.5293L396.198 90.18L391.728 93.0849C389.215 91.7654 386.572 90.7067 383.842 89.9256C378.283 88.3777 374.902 90.1305 371.67 93.1839C371.472 93.3747 371.281 93.5655 371.125 93.7493C369.563 95.4133 367.849 96.9277 366.004 98.2728C364.399 99.3542 362.984 99.9833 362.277 99.9833Z" fill="#455A64"/>
<path d="M111.899 34.1593C104.727 35.269 99.4718 29.2118 97.7956 23.8896C96.2466 18.942 95.511 13.7895 93.3397 9.04692C90.2984 2.47373 82.2495 -0.565489 75.0281 0.0423546C67.8068 0.650198 60.5218 4.28312 54.1279 7.68281L55.8961 47.2633C55.8961 47.2633 69.8084 32.4206 76.4993 32.1803C87.6602 31.735 87.0519 50.0622 97.8875 52.7692C97.8875 52.7692 113.08 56.8828 123.35 43.6304C129.864 35.2125 130.422 24.9922 130.422 24.9922C130.422 24.9922 125.429 32.0743 111.899 34.1593Z" fill="#FF725E"/>
<path d="M53.8169 1.15198C53.9159 1.15198 55.868 43.1921 58.1738 95.0497C60.4795 146.907 62.276 188.961 62.177 188.969C62.078 188.976 60.1329 146.935 57.8201 95.0638C55.5073 43.1921 53.7179 1.15905 53.8169 1.15198Z" fill="#263238"/>
<g opacity="0.2">
<path d="M92.0952 21.1472C93.3103 25.3293 95.0851 29.3282 97.3715 33.0355C99.4368 36.2656 102.57 38.9867 106.326 39.7713C107.013 39.8638 107.687 40.037 108.334 40.2872C108.657 40.4184 108.938 40.634 109.149 40.9113C109.359 41.1887 109.491 41.5176 109.53 41.8634C109.53 42.9024 108.49 43.5809 107.556 44.0403C106.26 44.7514 104.873 45.2839 103.433 45.6235C102.018 45.8921 100.844 46.0476 99.847 44.9167C98.8824 43.9717 98.0151 42.9322 97.2584 41.8139C93.9837 36.2373 92.364 28.2646 92.0952 21.96" fill="black"/>
</g>
<path d="M101.82 46.5706C101.82 46.5706 101.707 46.5212 101.502 46.3869C101.205 46.1934 100.919 45.9834 100.646 45.7578C99.6388 44.925 98.749 43.9597 98.0008 42.8882C96.8929 41.2978 96.001 39.5676 95.3485 37.7428C94.5551 35.5167 93.9008 33.2435 93.3893 30.9363C92.4178 26.7553 91.805 22.4991 91.5575 18.214C91.4655 16.5743 91.4514 15.2455 91.4514 14.3267C91.4514 13.8955 91.4514 13.5492 91.4514 13.2665C91.4394 13.1442 91.4394 13.0211 91.4514 12.8989C91.4833 13.0187 91.4976 13.1425 91.4938 13.2665C91.4938 13.5492 91.4938 13.8955 91.5363 14.3196C91.5787 15.2384 91.6282 16.5672 91.7555 18.1999C92.0769 22.4595 92.72 26.6888 93.6793 30.8515C94.1984 33.1467 94.8502 35.4099 95.6314 37.6297C96.2725 39.4317 97.1374 41.1461 98.2059 42.7327C98.9248 43.8012 99.7728 44.7769 100.731 45.6377C101.417 46.2667 101.841 46.5494 101.82 46.5706Z" fill="#263238"/>
<path d="M10.5737 197.323L105.328 212.823V197.323H10.5737Z" fill="#E0E0E0"/>
<path d="M120.974 232.345L215.728 247.845V232.345H120.974Z" fill="#E0E0E0"/>
<path d="M230.609 265.84L325.364 281.34V265.84H230.609Z" fill="#E0E0E0"/>
<path d="M340.104 292.493L434.858 308V292.493H340.104Z" fill="#E0E0E0"/>
<path d="M105.328 185.71H10.5737V197.323H105.328V185.71Z" fill="#FF725E"/>
<g opacity="0.3">
<path d="M105.336 185.71H75.7642V197.323H105.336V185.71Z" fill="black"/>
</g>
<path d="M215.728 220.732H120.974V232.345H215.728V220.732Z" fill="#FF725E"/>
<g opacity="0.3">
<path d="M215.728 220.732H186.157V232.345H215.728V220.732Z" fill="black"/>
</g>
<path d="M325.364 254.227H230.609V265.84H325.364V254.227Z" fill="#FF725E"/>
<g opacity="0.3">
<path d="M325.371 254.227H295.8V265.84H325.371V254.227Z" fill="black"/>
</g>
<path d="M435 280.887H340.245V292.5H435V280.887Z" fill="#FF725E"/>
<g opacity="0.3">
<path d="M435.007 280.887H405.435V292.5H435.007V280.887Z" fill="black"/>
</g>
<path d="M376.607 238.628C376.608 239.137 376.76 239.633 377.044 240.055C377.328 240.478 377.73 240.806 378.201 241C378.671 241.193 379.189 241.243 379.688 241.143C380.187 241.043 380.645 240.798 381.004 240.438C381.363 240.078 381.608 239.619 381.707 239.12C381.806 238.621 381.754 238.104 381.559 237.635C381.364 237.165 381.034 236.764 380.611 236.481C380.188 236.199 379.69 236.048 379.181 236.048C378.843 236.048 378.507 236.115 378.194 236.245C377.882 236.374 377.597 236.565 377.358 236.804C377.119 237.044 376.93 237.328 376.801 237.641C376.672 237.954 376.606 238.29 376.607 238.628V238.628Z" fill="#EBEBEB"/>
</g>
<defs>
<clipPath id="clip0_401_1834">
<rect width="435" height="308" fill="white"/>
</clipPath>
</defs>
</svg>
