<svg width="723" height="475" viewBox="0 0 723 475" fill="none" xmlns="http://www.w3.org/2000/svg">
<g clip-path="url(#clip0_401_2)">
<path fill-rule="evenodd" clip-rule="evenodd" d="M164.23 157C161.87 117.12 131.08 128.71 131.08 128.71C126.38 100.19 114.52 117.08 114.52 117.08C114.52 117.08 96.5202 62.74 70.9802 70.27C45.4402 77.8 54.4602 124.16 54.4602 124.16C54.4602 124.16 40.1102 112.82 30.1602 118.47C20.5002 124 30.1602 148.3 30.6902 149.65V149.71H30.3902C23.3902 149.43 29.8602 158.78 29.8602 158.78L194.57 161.47C194.22 153.09 164.23 157 164.23 157Z" fill="#EBEBEB"/>
<path fill-rule="evenodd" clip-rule="evenodd" d="M642.253 133.21H641.943C642.513 132.21 652.513 113.91 642.493 109.76C632.183 105.48 617.303 114.01 617.303 114.01C617.303 114.01 626.703 79.11 600.203 73.47C573.703 67.83 558.303 108.7 558.303 108.7C558.303 108.7 544.603 100.8 537.893 117.44C537.893 117.44 505.963 108.72 503.513 138.72C503.513 138.72 492.903 133.13 494.093 141.35L494.343 142.61L642.803 140.06C642.803 140.06 649.483 132.99 642.253 133.21Z" fill="#EBEBEB"/>
<path d="M699.71 473.22C699.71 473.36 546.47 473.48 357.48 473.48C168.49 473.48 15.21 473.36 15.21 473.22C15.21 473.08 168.46 472.96 357.46 472.96C546.46 472.96 699.71 473.07 699.71 473.22Z" fill="#263238"/>
<path d="M326.01 107.74H302.15V473.39H326.01V107.74Z" fill="#FF725E"/>
<g opacity="0.3">
<path d="M326.01 107.74H302.15V473.39H326.01V107.74Z" fill="black"/>
</g>
<path d="M405.45 107.74H326.01V473.39H405.45V107.74Z" fill="#FF725E"/>
<path d="M372.82 115.5H331.58V126.69H372.82V115.5Z" fill="#455A64"/>
<g opacity="0.3">
<path d="M372.82 115.5H331.58V126.69H372.82V115.5Z" fill="white"/>
</g>
<path d="M400.15 115.5H379.53V126.69H400.15V115.5Z" fill="#455A64"/>
<g opacity="0.3">
<path d="M400.15 115.5H379.53V126.69H400.15V115.5Z" fill="white"/>
</g>
<g opacity="0.3">
<path d="M331.58 117.27L370.84 117.3L370.92 126.69H372.81V115.5H331.58V117.27Z" fill="black"/>
</g>
<g opacity="0.3">
<path d="M379.52 115.5V117.13H397.87V126.69H400.14V115.5H379.52Z" fill="black"/>
</g>
<path d="M372.82 134.76H331.58V145.95H372.82V134.76Z" fill="#455A64"/>
<g opacity="0.3">
<path d="M372.82 134.76H331.58V145.95H372.82V134.76Z" fill="white"/>
</g>
<path d="M400.15 134.76H379.53V145.95H400.15V134.76Z" fill="#455A64"/>
<g opacity="0.3">
<path d="M400.15 134.76H379.53V145.95H400.15V134.76Z" fill="white"/>
</g>
<g opacity="0.3">
<path d="M331.58 136.52L370.84 136.55L370.92 145.94H372.81V134.76H331.58V136.52Z" fill="black"/>
</g>
<g opacity="0.3">
<path d="M379.52 134.76V136.38H397.87V145.94H400.14V134.76H379.52Z" fill="black"/>
</g>
<path d="M372.82 154.01H331.58V165.2H372.82V154.01Z" fill="#455A64"/>
<g opacity="0.3">
<path d="M372.82 154.01H331.58V165.2H372.82V154.01Z" fill="white"/>
</g>
<path d="M400.15 154.01H379.53V165.2H400.15V154.01Z" fill="#455A64"/>
<g opacity="0.3">
<path d="M400.14 165.2H394.96L394.92 162.69L388.21 162.7V165.2H379.52V154.01H400.14V165.2Z" fill="white"/>
</g>
<g opacity="0.3">
<path d="M331.58 155.77L370.84 155.8L370.92 165.2H372.81V154.01H331.58V155.77Z" fill="black"/>
</g>
<g opacity="0.3">
<path d="M379.52 154.01V155.63H397.87V165.2H400.14V154.01H379.52Z" fill="black"/>
</g>
<path d="M372.82 173.26H331.58V184.45H372.82V173.26Z" fill="#455A64"/>
<path d="M400.15 173.26H379.53V184.45H400.15V173.26Z" fill="#455A64"/>
<g opacity="0.3">
<path d="M383.65 184.45V178.86H387.81V173.26H379.52V184.45H383.65Z" fill="white"/>
</g>
<g opacity="0.3">
<path d="M400.14 173.26H396.55V184.45H400.14V173.26Z" fill="white"/>
</g>
<g opacity="0.3">
<path d="M372.82 173.26H331.58V184.45H372.82V173.26Z" fill="white"/>
</g>
<g opacity="0.3">
<path d="M331.58 175.02L370.84 175.05L370.92 184.45H372.81V173.26H331.58V175.02Z" fill="black"/>
</g>
<g opacity="0.3">
<path d="M379.52 173.26V174.89H397.87V184.45H400.14V173.26H379.52Z" fill="black"/>
</g>
<path d="M372.82 192.51H331.58V203.7H372.82V192.51Z" fill="#455A64"/>
<g opacity="0.3">
<path d="M331.58 200.64H341.24V196.47H359.3V203.7H372.81V192.51H331.58V200.64Z" fill="white"/>
</g>
<path d="M400.15 192.51H379.53V203.7H400.15V192.51Z" fill="#455A64"/>
<g opacity="0.3">
<path d="M400.14 192.51H396.55V203.7H400.14V192.51Z" fill="white"/>
</g>
<g opacity="0.3">
<path d="M331.58 194.28L370.84 194.31L370.92 203.7H372.81V192.51H331.58V194.28Z" fill="black"/>
</g>
<g opacity="0.3">
<path d="M383.65 192.51H379.53V203.7H383.65V192.51Z" fill="white"/>
</g>
<g opacity="0.3">
<path d="M379.52 192.51V194.14H397.87V203.7H400.14V192.51H379.52Z" fill="black"/>
</g>
<path d="M372.82 211.77H331.58V222.96H372.82V211.77Z" fill="#455A64"/>
<path d="M400.15 211.77H379.53V222.96H400.15V211.77Z" fill="#455A64"/>
<g opacity="0.3">
<path d="M331.58 213.53L370.84 213.56L370.92 222.96H372.81V211.77H331.58V213.53Z" fill="black"/>
</g>
<g opacity="0.3">
<path d="M379.52 211.77V213.39H397.87V222.96H400.14V211.77H379.52Z" fill="black"/>
</g>
<path d="M372.82 231.02H331.58V242.21H372.82V231.02Z" fill="#455A64"/>
<path d="M400.15 231.02H379.53V242.21H400.15V231.02Z" fill="#455A64"/>
<g opacity="0.3">
<path d="M331.58 232.78L370.84 232.81L370.92 242.21H372.81V231.02H331.58V232.78Z" fill="black"/>
</g>
<g opacity="0.3">
<path d="M379.52 231.02V232.65H397.87V242.21H400.14V231.02H379.52Z" fill="black"/>
</g>
<path d="M372.82 250.27H331.58V261.46H372.82V250.27Z" fill="#455A64"/>
<path d="M400.15 250.27H379.53V261.46H400.15V250.27Z" fill="#455A64"/>
<g opacity="0.3">
<path d="M331.58 252.03L370.84 252.06L370.92 261.46H372.81V250.27H331.58V252.03Z" fill="black"/>
</g>
<g opacity="0.3">
<path d="M379.52 250.27V251.9H397.87V261.46H400.14V250.27H379.52Z" fill="black"/>
</g>
<path d="M372.82 269.53H331.58V280.72H372.82V269.53Z" fill="#455A64"/>
<path d="M400.15 269.53H379.53V280.72H400.15V269.53Z" fill="#455A64"/>
<g opacity="0.3">
<path d="M331.58 271.29L370.84 271.32L370.92 280.71H372.81V269.52H331.58V271.29Z" fill="black"/>
</g>
<g opacity="0.3">
<path d="M379.52 269.52V271.15H397.87V280.71H400.14V269.52H379.52Z" fill="black"/>
</g>
<path d="M372.82 288.78H331.58V299.97H372.82V288.78Z" fill="#455A64"/>
<path d="M400.15 288.78H379.53V299.97H400.15V288.78Z" fill="#455A64"/>
<g opacity="0.3">
<path d="M331.58 290.54L370.84 290.57L370.92 299.97H372.81V288.78H331.58V290.54Z" fill="black"/>
</g>
<g opacity="0.3">
<path d="M379.52 288.78V290.4H397.87V299.97H400.14V288.78H379.52Z" fill="black"/>
</g>
<path d="M372.82 308.03H331.58V319.22H372.82V308.03Z" fill="#455A64"/>
<path d="M400.15 308.03H379.53V319.22H400.15V308.03Z" fill="#455A64"/>
<g opacity="0.3">
<path d="M331.58 309.79L370.84 309.82L370.92 319.22H372.81V308.03H331.58V309.79Z" fill="black"/>
</g>
<g opacity="0.3">
<path d="M379.52 308.03V309.66H397.87V319.22H400.14V308.03H379.52Z" fill="black"/>
</g>
<path d="M372.82 327.28H331.58V338.47H372.82V327.28Z" fill="#455A64"/>
<path d="M400.15 327.28H379.53V338.47H400.15V327.28Z" fill="#455A64"/>
<g opacity="0.3">
<path d="M331.58 329.04L370.84 329.07L370.92 338.47H372.81V327.28H331.58V329.04Z" fill="black"/>
</g>
<g opacity="0.3">
<path d="M379.52 327.28V328.91H397.87V338.47H400.14V327.28H379.52Z" fill="black"/>
</g>
<path d="M372.82 346.54H331.58V357.73H372.82V346.54Z" fill="#455A64"/>
<path d="M400.15 346.54H379.53V357.73H400.15V346.54Z" fill="#455A64"/>
<g opacity="0.3">
<path d="M331.58 348.3L370.84 348.33L370.92 357.72H372.81V346.54H331.58V348.3Z" fill="black"/>
</g>
<g opacity="0.3">
<path d="M379.52 346.54V348.16H397.87V357.72H400.14V346.54H379.52Z" fill="black"/>
</g>
<path d="M319.93 117.56H314.9V125.61H319.93V117.56Z" fill="#455A64"/>
<path d="M319.93 136.31H314.9V144.36H319.93V136.31Z" fill="#455A64"/>
<path d="M319.93 155.28H314.9V163.33H319.93V155.28Z" fill="#455A64"/>
<path d="M319.93 174.25H314.9V182.3H319.93V174.25Z" fill="#455A64"/>
<path d="M319.93 193.21H314.9V201.26H319.93V193.21Z" fill="#455A64"/>
<path d="M319.93 212.18H314.9V220.23H319.93V212.18Z" fill="#455A64"/>
<path d="M319.93 231.15H314.9V239.2H319.93V231.15Z" fill="#455A64"/>
<path d="M319.93 250.12H314.9V258.17H319.93V250.12Z" fill="#455A64"/>
<path d="M319.93 269.09H314.9V277.14H319.93V269.09Z" fill="#455A64"/>
<path d="M319.93 288.05H314.9V296.1H319.93V288.05Z" fill="#455A64"/>
<path d="M319.93 307.02H314.9V315.07H319.93V307.02Z" fill="#455A64"/>
<path d="M319.93 325.99H314.9V334.04H319.93V325.99Z" fill="#455A64"/>
<path d="M311.77 117.56H306.74V125.61H311.77V117.56Z" fill="#455A64"/>
<path d="M311.77 136.31H306.74V144.36H311.77V136.31Z" fill="#455A64"/>
<path d="M311.77 155.28H306.74V163.33H311.77V155.28Z" fill="#455A64"/>
<path d="M311.77 174.25H306.74V182.3H311.77V174.25Z" fill="#455A64"/>
<path d="M311.77 193.21H306.74V201.26H311.77V193.21Z" fill="#455A64"/>
<path d="M311.77 212.18H306.74V220.23H311.77V212.18Z" fill="#455A64"/>
<path d="M311.77 231.15H306.74V239.2H311.77V231.15Z" fill="#455A64"/>
<path d="M311.77 250.12H306.74V258.17H311.77V250.12Z" fill="#455A64"/>
<path d="M311.77 269.09H306.74V277.14H311.77V269.09Z" fill="#455A64"/>
<path d="M311.77 288.05H306.74V296.1H311.77V288.05Z" fill="#455A64"/>
<path d="M311.77 307.02H306.74V315.07H311.77V307.02Z" fill="#455A64"/>
<path d="M311.77 325.99H306.74V334.04H311.77V325.99Z" fill="#455A64"/>
<path d="M371.93 261.47C371.93 261.62 362.93 261.73 351.76 261.73C340.59 261.73 331.58 261.62 331.58 261.47C331.58 261.32 340.58 261.21 351.76 261.21C362.94 261.21 371.93 261.32 371.93 261.47Z" fill="white"/>
<path d="M398.46 261.47C395.411 261.733 392.349 261.82 389.29 261.73C386.231 261.82 383.169 261.733 380.12 261.47C383.17 261.213 386.231 261.126 389.29 261.21C392.349 261.126 395.411 261.213 398.46 261.47V261.47Z" fill="white"/>
<path d="M371.93 280.92C371.93 281.06 362.93 281.18 351.76 281.18C340.59 281.18 331.58 281.06 331.58 280.92C331.58 280.78 340.58 280.66 351.76 280.66C362.94 280.66 371.93 280.78 371.93 280.92Z" fill="white"/>
<path d="M398.46 280.92C395.411 281.177 392.349 281.264 389.29 281.18C386.231 281.264 383.17 281.177 380.12 280.92C383.17 280.663 386.231 280.576 389.29 280.66C392.349 280.576 395.411 280.663 398.46 280.92V280.92Z" fill="white"/>
<path d="M371.93 300.38C371.93 300.52 362.93 300.64 351.76 300.64C340.59 300.64 331.58 300.52 331.58 300.38C331.58 300.24 340.58 300.12 351.76 300.12C362.94 300.12 371.93 300.23 371.93 300.38Z" fill="white"/>
<path d="M398.46 300.38C395.411 300.637 392.349 300.724 389.29 300.64C386.231 300.724 383.17 300.637 380.12 300.38C383.169 300.117 386.231 300.03 389.29 300.12C392.349 300.03 395.411 300.117 398.46 300.38V300.38Z" fill="white"/>
<path d="M371.93 319.83C371.93 319.98 362.93 320.09 351.76 320.09C340.59 320.09 331.58 319.98 331.58 319.83C331.58 319.68 340.58 319.57 351.76 319.57C362.94 319.57 371.93 319.69 371.93 319.83Z" fill="white"/>
<path d="M398.46 319.83C395.411 320.093 392.349 320.18 389.29 320.09C386.231 320.18 383.169 320.093 380.12 319.83C383.17 319.573 386.231 319.486 389.29 319.57C392.349 319.486 395.411 319.573 398.46 319.83V319.83Z" fill="white"/>
<path d="M371.93 339.29C371.93 339.43 362.93 339.55 351.76 339.55C340.59 339.55 331.58 339.43 331.58 339.29C331.58 339.15 340.58 339.03 351.76 339.03C362.94 339.03 371.93 339.14 371.93 339.29Z" fill="white"/>
<path d="M398.46 339.29C395.411 339.547 392.349 339.634 389.29 339.55C386.231 339.634 383.17 339.547 380.12 339.29C383.169 339.027 386.231 338.94 389.29 339.03C392.349 338.94 395.411 339.027 398.46 339.29V339.29Z" fill="white"/>
<path d="M371.93 358.74C371.93 358.89 362.93 359 351.76 359C340.59 359 331.58 358.89 331.58 358.74C331.58 358.59 340.58 358.48 351.76 358.48C362.94 358.48 371.93 358.6 371.93 358.74Z" fill="white"/>
<path d="M398.46 358.74C395.411 359.003 392.349 359.09 389.29 359C386.231 359.09 383.169 359.003 380.12 358.74C383.17 358.483 386.231 358.396 389.29 358.48C392.349 358.396 395.411 358.483 398.46 358.74V358.74Z" fill="white"/>
<path d="M371.93 184.67C371.93 184.82 362.93 184.93 351.76 184.93C340.59 184.93 331.58 184.82 331.58 184.67C331.58 184.52 340.58 184.41 351.76 184.41C362.94 184.41 371.93 184.53 371.93 184.67Z" fill="white"/>
<path d="M371.93 165.2C371.93 165.34 362.93 165.46 351.76 165.46C340.59 165.46 331.58 165.34 331.58 165.2C331.58 165.06 340.58 164.94 351.76 164.94C362.94 164.94 371.93 165.06 371.93 165.2Z" fill="white"/>
<path d="M371.93 145.73C371.93 145.87 362.93 145.99 351.76 145.99C340.59 145.99 331.58 145.87 331.58 145.73C331.58 145.59 340.58 145.47 351.76 145.47C362.94 145.47 371.93 145.59 371.93 145.73Z" fill="white"/>
<path d="M371.93 203.71C371.93 203.85 362.93 203.97 351.76 203.97C340.59 203.97 331.58 203.85 331.58 203.71C331.58 203.57 340.58 203.45 351.76 203.45C362.94 203.45 371.93 203.56 371.93 203.71Z" fill="white"/>
<path d="M371.93 222.74C371.93 222.88 362.93 223 351.76 223C340.59 223 331.58 222.88 331.58 222.74C331.58 222.6 340.58 222.48 351.76 222.48C362.94 222.48 371.93 222.6 371.93 222.74Z" fill="white"/>
<path d="M371.93 241.77C371.93 241.92 362.93 242.03 351.76 242.03C340.59 242.03 331.58 241.92 331.58 241.77C331.58 241.62 340.58 241.51 351.76 241.51C362.94 241.51 371.93 241.63 371.93 241.77Z" fill="white"/>
<path d="M371.15 126.65C371.15 126.79 362.15 126.91 351.06 126.91C339.97 126.91 330.98 126.79 330.98 126.65C330.98 126.51 339.98 126.39 351.06 126.39C362.14 126.39 371.15 126.47 371.15 126.65Z" fill="white"/>
<path d="M398.46 126.65C395.411 126.907 392.349 126.994 389.29 126.91C386.231 126.994 383.17 126.907 380.12 126.65C383.169 126.387 386.231 126.3 389.29 126.39C392.349 126.3 395.411 126.387 398.46 126.65Z" fill="white"/>
<path d="M398.46 145.73C395.411 145.987 392.349 146.074 389.29 145.99C386.231 146.074 383.17 145.987 380.12 145.73C383.17 145.473 386.231 145.386 389.29 145.47C392.349 145.386 395.411 145.473 398.46 145.73V145.73Z" fill="white"/>
<path d="M398.46 164.81C395.411 165.073 392.349 165.16 389.29 165.07C386.231 165.16 383.169 165.073 380.12 164.81C383.17 164.553 386.231 164.466 389.29 164.55C392.349 164.466 395.411 164.553 398.46 164.81V164.81Z" fill="white"/>
<path d="M398.46 184.67C395.411 184.933 392.349 185.02 389.29 184.93C386.231 185.02 383.169 184.933 380.12 184.67C383.17 184.413 386.231 184.326 389.29 184.41C392.349 184.326 395.411 184.413 398.46 184.67V184.67Z" fill="white"/>
<path d="M398.46 203.71C395.411 203.967 392.349 204.054 389.29 203.97C386.231 204.054 383.17 203.967 380.12 203.71C383.169 203.447 386.231 203.36 389.29 203.45C392.349 203.36 395.411 203.447 398.46 203.71V203.71Z" fill="white"/>
<path d="M398.46 222.81C395.411 223.067 392.349 223.154 389.29 223.07C386.231 223.154 383.17 223.067 380.12 222.81C383.17 222.553 386.231 222.466 389.29 222.55C392.349 222.466 395.411 222.553 398.46 222.81V222.81Z" fill="white"/>
<path d="M398.46 241.91C395.411 242.173 392.349 242.26 389.29 242.17C386.231 242.26 383.169 242.173 380.12 241.91C383.17 241.653 386.231 241.566 389.29 241.65C392.349 241.566 395.411 241.653 398.46 241.91V241.91Z" fill="white"/>
<path d="M280.56 208.88H172.72V472.35H280.56V208.88Z" fill="#FF725E"/>
<path d="M224.26 219.7H215.82V461.87H224.26V219.7Z" fill="#455A64"/>
<path d="M236.14 219.7H227.7V461.87H236.14V219.7Z" fill="#455A64"/>
<path d="M248.03 219.7H239.59V461.87H248.03V219.7Z" fill="#455A64"/>
<path d="M188.52 219.7H180.08V461.87H188.52V219.7Z" fill="#455A64"/>
<path d="M200.4 219.7H191.96V461.87H200.4V219.7Z" fill="#455A64"/>
<path d="M259.91 219.7H251.47V461.87H259.91V219.7Z" fill="#455A64"/>
<path d="M271.79 219.7H263.35V461.87H271.79V219.7Z" fill="#455A64"/>
<g opacity="0.3">
<path d="M207.3 208.88H172.72V472.35H207.3V208.88Z" fill="black"/>
</g>
<path d="M247.12 246.47C246.435 247.513 245.61 248.459 244.67 249.28C243.852 250.223 242.906 251.048 241.86 251.73C243.351 249.733 245.123 247.961 247.12 246.47V246.47Z" fill="white"/>
<path d="M257.63 253.6C257.73 253.71 256.98 254.6 255.95 255.6C254.92 256.6 254.01 257.3 253.95 257.19C254.38 256.424 254.95 255.745 255.63 255.19C256.62 254.21 257.53 253.47 257.63 253.6Z" fill="white"/>
<path d="M268.3 238.6C268.4 238.7 267.69 239.6 266.71 240.49C265.73 241.38 264.85 242.1 264.71 242C264.57 241.9 265.32 241.05 266.31 240.11C267.3 239.17 268.2 238.47 268.3 238.6Z" fill="white"/>
<path d="M481.23 173.26H426.81V187.67H481.23V173.26Z" fill="#263238"/>
<path d="M478.94 175.07H429.1V184.4H478.94V175.07Z" fill="#455A64"/>
<g opacity="0.3">
<path d="M478.94 175.07H429.1V184.4H478.94V175.07Z" fill="white"/>
</g>
<path d="M488.41 185.55H418.5V362.63H488.41V185.55Z" fill="#263238"/>
<path d="M484.23 189.65H422.25V362.63H484.23V189.65Z" fill="#455A64"/>
<g opacity="0.3">
<path d="M422.25 270.77H434.8V251.27H444.91V235.5H465.13V285.22H475.24V214.72H484.23V189.65H422.25V270.77Z" fill="white"/>
</g>
<path d="M487.08 207.85C487.08 208 472.22 208.11 453.9 208.11C435.58 208.11 420.72 208 420.72 207.85C420.72 207.7 435.57 207.59 453.9 207.59C472.23 207.59 487.08 207.71 487.08 207.85Z" fill="#263238"/>
<path d="M487.08 225.6C487.08 225.74 472.22 225.86 453.9 225.86C435.58 225.86 420.72 225.74 420.72 225.6C420.72 225.46 435.57 225.34 453.9 225.34C472.23 225.34 487.08 225.47 487.08 225.6Z" fill="#263238"/>
<path d="M487.08 243.35C487.08 243.49 472.22 243.61 453.9 243.61C435.58 243.61 420.72 243.49 420.72 243.35C420.72 243.21 435.57 243.08 453.9 243.08C472.23 243.08 487.08 243.2 487.08 243.35Z" fill="#263238"/>
<path d="M487.08 261.09C487.08 261.24 472.22 261.35 453.9 261.35C435.58 261.35 420.72 261.24 420.72 261.09C420.72 260.94 435.57 260.83 453.9 260.83C472.23 260.83 487.08 260.95 487.08 261.09Z" fill="#263238"/>
<path d="M487.08 278.84C487.08 278.98 472.22 279.1 453.9 279.1C435.58 279.1 420.72 278.98 420.72 278.84C420.72 278.7 435.57 278.58 453.9 278.58C472.23 278.58 487.08 278.69 487.08 278.84Z" fill="#263238"/>
<path d="M487.08 296.58C487.08 296.73 472.22 296.84 453.9 296.84C435.58 296.84 420.72 296.73 420.72 296.58C420.72 296.43 435.57 296.32 453.9 296.32C472.23 296.32 487.08 296.47 487.08 296.58Z" fill="#263238"/>
<path d="M487.08 314.33C487.08 314.47 472.22 314.59 453.9 314.59C435.58 314.59 420.72 314.47 420.72 314.33C420.72 314.19 435.57 314.07 453.9 314.07C472.23 314.07 487.08 314.19 487.08 314.33Z" fill="#263238"/>
<path d="M487.08 332.08C487.08 332.22 472.22 332.34 453.9 332.34C435.58 332.34 420.72 332.22 420.72 332.08C420.72 331.94 435.57 331.82 453.9 331.82C472.23 331.82 487.08 331.93 487.08 332.08Z" fill="#263238"/>
<path d="M487.08 349.82C487.08 349.97 472.22 350.08 453.9 350.08C435.58 350.08 420.72 349.97 420.72 349.82C420.72 349.67 435.57 349.56 453.9 349.56C472.23 349.56 487.08 349.68 487.08 349.82Z" fill="#263238"/>
<path d="M436.36 366.33C436.21 366.33 436.1 323.33 436.1 270.33C436.1 217.33 436.21 174.33 436.36 174.33C436.51 174.33 436.62 217.33 436.62 270.33C436.62 323.33 436.46 366.33 436.36 366.33Z" fill="#263238"/>
<path d="M454.34 366.33C454.2 366.33 454.08 323.33 454.08 270.33C454.08 217.33 454.2 174.33 454.34 174.33C454.48 174.33 454.61 217.33 454.61 270.33C454.61 323.33 454.46 366.33 454.34 366.33Z" fill="#263238"/>
<path d="M472.33 366.33C472.19 366.33 472.07 323.33 472.07 270.33C472.07 217.33 472.19 174.33 472.33 174.33C472.47 174.33 472.59 217.33 472.59 270.33C472.59 323.33 472.46 366.33 472.33 366.33Z" fill="#263238"/>
<path d="M426.81 173.26H418.94V185.56H426.81V173.26Z" fill="#263238"/>
<g opacity="0.3">
<path d="M426.81 173.26H418.94V185.56H426.81V173.26Z" fill="black"/>
</g>
<path d="M418.84 185.66H410.97V334.69H418.84V185.66Z" fill="#263238"/>
<g opacity="0.3">
<path d="M418.84 185.66H410.97V334.69H418.84V185.66Z" fill="black"/>
</g>
<path d="M451.75 211.08C450.156 212.924 448.439 214.658 446.61 216.27C444.896 218.008 443.058 219.619 441.11 221.09C442.705 219.244 444.423 217.507 446.25 215.89C447.966 214.157 449.804 212.549 451.75 211.08V211.08Z" fill="white"/>
<path d="M468.4 210.76C466.811 212.612 465.093 214.349 463.26 215.96C461.543 217.695 459.705 219.305 457.76 220.78C461.064 217.197 464.62 213.855 468.4 210.78V210.76Z" fill="white"/>
<path d="M468.68 196.67C467.094 198.525 465.377 200.263 463.54 201.87C461.825 203.602 459.99 205.213 458.05 206.69C459.633 204.832 461.351 203.094 463.19 201.49C464.903 199.754 466.737 198.143 468.68 196.67V196.67Z" fill="white"/>
<path d="M603.37 428.17H510.69V263.13L603.37 217.96V428.17Z" fill="#455A64"/>
<path d="M556.18 334.6H547.84V346.58H556.18V334.6Z" fill="#EBEBEB"/>
<g opacity="0.3">
<path d="M547.84 334.6V336.08H554.77V346.58H556.18V334.6H547.84Z" fill="black"/>
</g>
<path d="M556.18 357.78H547.84V369.76H556.18V357.78Z" fill="#EBEBEB"/>
<g opacity="0.3">
<path d="M547.84 357.78V359.27H554.77V369.76H556.18V357.78H547.84Z" fill="black"/>
</g>
<path d="M556.18 380.97H547.84V392.95H556.18V380.97Z" fill="#EBEBEB"/>
<g opacity="0.3">
<path d="M547.84 380.97V382.45H554.77V392.95H556.18V380.97H547.84Z" fill="black"/>
</g>
<path d="M556.18 404.28H547.84V428.26H556.18V404.28Z" fill="#EBEBEB"/>
<g opacity="0.3">
<path d="M547.84 404.28V407.25H554.77V428.26H556.18V404.28H547.84Z" fill="black"/>
</g>
<path d="M556.18 310.85H547.84V322.83H556.18V310.85Z" fill="#EBEBEB"/>
<g opacity="0.3">
<path d="M547.84 310.85V312.34H554.77V322.83H556.18V310.85H547.84Z" fill="black"/>
</g>
<path d="M556.18 287.1H547.84V299.08H556.18V287.1Z" fill="#EBEBEB"/>
<g opacity="0.3">
<path d="M547.84 287.11V288.59H554.77V299.08H556.18V287.11H547.84Z" fill="black"/>
</g>
<path d="M556.18 263.36H547.84V275.34H556.18V263.36Z" fill="#EBEBEB"/>
<g opacity="0.3">
<path d="M547.84 263.36V264.84H554.77V275.34H556.18V263.36H547.84Z" fill="black"/>
</g>
<path d="M575.07 334.07H566.73V346.05H575.07V334.07Z" fill="#EBEBEB"/>
<g opacity="0.3">
<path d="M566.73 334.07V335.56H573.66V346.05H575.07V334.07H566.73Z" fill="black"/>
</g>
<path d="M575.07 357.26H566.73V369.24H575.07V357.26Z" fill="#EBEBEB"/>
<g opacity="0.3">
<path d="M566.73 357.26V358.74H573.66V369.24H575.07V357.26H566.73Z" fill="black"/>
</g>
<path d="M575.07 380.44H566.73V392.42H575.07V380.44Z" fill="#EBEBEB"/>
<g opacity="0.3">
<path d="M566.73 380.44V381.93H573.66V392.42H575.07V380.44H566.73Z" fill="black"/>
</g>
<path d="M575.07 403.63H566.73V428.26H575.07V403.63Z" fill="#EBEBEB"/>
<g opacity="0.3">
<path d="M566.73 403.63V406.68H573.66V428.26H575.07V403.63H566.73Z" fill="black"/>
</g>
<path d="M575.07 310.33H566.73V322.31H575.07V310.33Z" fill="#EBEBEB"/>
<g opacity="0.3">
<path d="M566.73 310.33V311.81H573.66V322.31H575.07V310.33H566.73Z" fill="black"/>
</g>
<path d="M575.07 286.58H566.73V298.56H575.07V286.58Z" fill="#EBEBEB"/>
<g opacity="0.3">
<path d="M566.73 286.58V288.07H573.66V298.56H575.07V286.58H566.73Z" fill="black"/>
</g>
<path d="M575.07 262.84H566.73V274.82H575.07V262.84Z" fill="#EBEBEB"/>
<g opacity="0.3">
<path d="M566.73 262.84V264.32H573.66V274.82H575.07V262.84H566.73Z" fill="black"/>
</g>
<path d="M593.95 334.47H585.61V346.45H593.95V334.47Z" fill="#EBEBEB"/>
<g opacity="0.3">
<path d="M585.61 334.47V335.95H592.54V346.45H593.95V334.47H585.61Z" fill="black"/>
</g>
<path d="M593.95 357.65H585.61V369.63H593.95V357.65Z" fill="#EBEBEB"/>
<g opacity="0.3">
<path d="M585.61 357.65V359.14H592.54V369.63H593.95V357.65H585.61Z" fill="black"/>
</g>
<path d="M593.95 380.84H585.61V392.82H593.95V380.84Z" fill="#EBEBEB"/>
<g opacity="0.3">
<path d="M585.61 380.84V382.32H592.54V392.82H593.95V380.84H585.61Z" fill="black"/>
</g>
<path d="M593.95 404.02H585.61V428H593.95V404.02Z" fill="#EBEBEB"/>
<g opacity="0.3">
<path d="M585.61 404.02V407H592.54V428H593.95V404.02H585.61Z" fill="black"/>
</g>
<path d="M593.95 310.72H585.61V322.7H593.95V310.72Z" fill="#EBEBEB"/>
<g opacity="0.3">
<path d="M585.61 310.72V312.21H592.54V322.7H593.95V310.72H585.61Z" fill="black"/>
</g>
<path d="M593.95 286.98H585.61V298.96H593.95V286.98Z" fill="#EBEBEB"/>
<g opacity="0.3">
<path d="M585.61 286.98V288.46H592.54V298.96H593.95V286.98H585.61Z" fill="black"/>
</g>
<path d="M593.95 263.23H585.61V275.21H593.95V263.23Z" fill="#EBEBEB"/>
<g opacity="0.3">
<path d="M585.61 263.23V264.72H592.54V275.21H593.95V263.23H585.61Z" fill="black"/>
</g>
<path d="M593.95 242.99H585.61V254.97H593.95V242.99Z" fill="#EBEBEB"/>
<g opacity="0.3">
<path d="M585.61 242.99V244.47H592.54V254.97H593.95V242.99H585.61Z" fill="black"/>
</g>
<path d="M529.62 267.05H526.7V279.03H529.62V267.05Z" fill="#263238"/>
<path d="M530.03 279.03H524.7V280.84H530.03V279.03Z" fill="white"/>
<path d="M529.62 289.88H526.7V301.86H529.62V289.88Z" fill="#263238"/>
<path d="M530.03 301.86H524.7V303.67H530.03V301.86Z" fill="white"/>
<path d="M529.62 312.7H526.7V324.68H529.62V312.7Z" fill="#263238"/>
<path d="M530.03 324.68H524.7V326.49H530.03V324.68Z" fill="white"/>
<path d="M529.62 335.52H526.7V347.5H529.62V335.52Z" fill="#263238"/>
<path d="M530.03 347.5H524.7V349.31H530.03V347.5Z" fill="white"/>
<path d="M529.91 357.75H526.99V369.73H529.91V357.75Z" fill="#263238"/>
<path d="M530.32 369.73H524.99V371.54H530.32V369.73Z" fill="white"/>
<path d="M530.2 379.98H527.28V391.96H530.2V379.98Z" fill="#263238"/>
<path d="M530.61 391.96H525.28V393.77H530.61V391.96Z" fill="white"/>
<path d="M530.49 402.21H527.57V414.19H530.49V402.21Z" fill="#263238"/>
<path d="M530.9 414.19H525.57V416H530.9V414.19Z" fill="white"/>
<path d="M520.69 267.05H517.77V279.03H520.69V267.05Z" fill="#263238"/>
<path d="M521.1 279.03H515.77V280.84H521.1V279.03Z" fill="white"/>
<path d="M520.69 289.88H517.77V301.86H520.69V289.88Z" fill="#263238"/>
<path d="M521.1 301.86H515.77V303.67H521.1V301.86Z" fill="white"/>
<path d="M520.69 312.7H517.77V324.68H520.69V312.7Z" fill="#263238"/>
<path d="M521.1 324.68H515.77V326.49H521.1V324.68Z" fill="white"/>
<path d="M520.69 335.52H517.77V347.5H520.69V335.52Z" fill="#263238"/>
<path d="M521.1 347.5H515.77V349.31H521.1V347.5Z" fill="white"/>
<path d="M520.98 357.75H518.06V369.73H520.98V357.75Z" fill="#263238"/>
<path d="M521.39 369.73H516.06V371.54H521.39V369.73Z" fill="white"/>
<path d="M521.27 379.98H518.35V391.96H521.27V379.98Z" fill="#263238"/>
<path d="M521.68 391.96H516.35V393.77H521.68V391.96Z" fill="white"/>
<path d="M521.56 402.21H518.64V414.19H521.56V402.21Z" fill="#263238"/>
<path d="M521.97 414.19H516.64V416H521.97V414.19Z" fill="white"/>
<g opacity="0.3">
<path d="M536.92 428.26H510.69V263.13L537.52 250.05L536.92 428.26Z" fill="black"/>
</g>
<path d="M365.62 259.28H286.41V472.73H365.62V259.28Z" fill="#E0E0E0"/>
<path d="M322.39 267.4H317.19V274.88H322.39V267.4Z" fill="#455A64"/>
<g opacity="0.3">
<path d="M317.19 267.4V268.33H321.51V274.88H322.39V267.4H317.19Z" fill="black"/>
</g>
<path d="M330.37 267.4H325.17V274.88H330.37V267.4Z" fill="#455A64"/>
<g opacity="0.3">
<path d="M325.17 267.4V268.33H329.49V274.88H330.37V267.4H325.17Z" fill="black"/>
</g>
<path d="M338.35 267.4H333.15V274.88H338.35V267.4Z" fill="#455A64"/>
<g opacity="0.3">
<path d="M333.15 267.4V268.33H337.47V274.88H338.35V267.4H333.15Z" fill="black"/>
</g>
<path d="M346.33 267.4H341.13V274.88H346.33V267.4Z" fill="#455A64"/>
<g opacity="0.3">
<path d="M341.13 267.4V268.33H345.45V274.88H346.33V267.4H341.13Z" fill="black"/>
</g>
<path d="M354.31 267.4H349.11V274.88H354.31V267.4Z" fill="#455A64"/>
<g opacity="0.3">
<path d="M349.11 267.4V268.33H353.44V274.88H354.31V267.4H349.11Z" fill="black"/>
</g>
<path d="M362.29 267.4H357.09V274.88H362.29V267.4Z" fill="#455A64"/>
<g opacity="0.3">
<path d="M357.09 267.4V268.33H361.42V274.88H362.3V267.4H357.09Z" fill="black"/>
</g>
<path d="M294.93 267.4H289.73V274.88H294.93V267.4Z" fill="#455A64"/>
<g opacity="0.3">
<path d="M289.73 267.4V268.33H294.06V274.88H294.93V267.4H289.73Z" fill="black"/>
</g>
<path d="M302.91 267.4H297.71V274.88H302.91V267.4Z" fill="#455A64"/>
<g opacity="0.3">
<path d="M297.71 267.4V268.33H302.04V274.88H302.92V267.4H297.71Z" fill="black"/>
</g>
<path d="M310.89 267.4H305.69V274.88H310.89V267.4Z" fill="#455A64"/>
<g opacity="0.3">
<path d="M305.69 267.4V268.33H310.02V274.88H310.9V267.4H305.69Z" fill="black"/>
</g>
<path d="M322.39 278.5H317.19V285.98H322.39V278.5Z" fill="#455A64"/>
<g opacity="0.3">
<path d="M317.19 278.5V279.43H321.51V285.98H322.39V278.5H317.19Z" fill="black"/>
</g>
<path d="M330.37 278.5H325.17V285.98H330.37V278.5Z" fill="#455A64"/>
<g opacity="0.3">
<path d="M325.17 278.5V279.43H329.49V285.98H330.37V278.5H325.17Z" fill="black"/>
</g>
<path d="M338.35 278.5H333.15V285.98H338.35V278.5Z" fill="#455A64"/>
<g opacity="0.3">
<path d="M333.15 278.5V279.43H337.47V285.98H338.35V278.5H333.15Z" fill="black"/>
</g>
<path d="M346.33 278.5H341.13V285.98H346.33V278.5Z" fill="#455A64"/>
<g opacity="0.3">
<path d="M341.13 278.5V279.43H345.45V285.98H346.33V278.5H341.13Z" fill="black"/>
</g>
<path d="M354.31 278.5H349.11V285.98H354.31V278.5Z" fill="#455A64"/>
<g opacity="0.3">
<path d="M349.11 278.5V279.43H353.44V285.98H354.31V278.5H349.11Z" fill="black"/>
</g>
<path d="M362.29 278.5H357.09V285.98H362.29V278.5Z" fill="#455A64"/>
<g opacity="0.3">
<path d="M357.09 278.5V279.43H361.42V285.98H362.3V278.5H357.09Z" fill="black"/>
</g>
<path d="M294.93 278.5H289.73V285.98H294.93V278.5Z" fill="#455A64"/>
<g opacity="0.3">
<path d="M289.73 278.5V279.43H294.06V285.98H294.93V278.5H289.73Z" fill="black"/>
</g>
<path d="M302.91 278.5H297.71V285.98H302.91V278.5Z" fill="#455A64"/>
<g opacity="0.3">
<path d="M297.71 278.5V279.43H302.04V285.98H302.92V278.5H297.71Z" fill="black"/>
</g>
<path d="M310.89 278.5H305.69V285.98H310.89V278.5Z" fill="#455A64"/>
<g opacity="0.3">
<path d="M305.69 278.5V279.43H310.02V285.98H310.9V278.5H305.69Z" fill="black"/>
</g>
<path d="M322.39 289.6H317.19V297.08H322.39V289.6Z" fill="#455A64"/>
<g opacity="0.3">
<path d="M317.19 289.6V290.53H321.51V297.07H322.39V289.6H317.19Z" fill="black"/>
</g>
<path d="M330.37 289.6H325.17V297.08H330.37V289.6Z" fill="#455A64"/>
<g opacity="0.3">
<path d="M325.17 289.6V290.53H329.49V297.07H330.37V289.6H325.17Z" fill="black"/>
</g>
<path d="M338.35 289.6H333.15V297.08H338.35V289.6Z" fill="#455A64"/>
<g opacity="0.3">
<path d="M333.15 289.6V290.53H337.47V297.07H338.35V289.6H333.15Z" fill="black"/>
</g>
<path d="M346.33 289.6H341.13V297.08H346.33V289.6Z" fill="#455A64"/>
<g opacity="0.3">
<path d="M341.13 289.6V290.53H345.45V297.07H346.33V289.6H341.13Z" fill="black"/>
</g>
<path d="M354.31 289.6H349.11V297.08H354.31V289.6Z" fill="#455A64"/>
<g opacity="0.3">
<path d="M349.11 289.6V290.53H353.44V297.07H354.31V289.6H349.11Z" fill="black"/>
</g>
<path d="M362.29 289.6H357.09V297.08H362.29V289.6Z" fill="#455A64"/>
<g opacity="0.3">
<path d="M357.09 289.6V290.53H361.42V297.07H362.3V289.6H357.09Z" fill="black"/>
</g>
<path d="M294.93 289.6H289.73V297.08H294.93V289.6Z" fill="#455A64"/>
<g opacity="0.3">
<path d="M289.73 289.6V290.53H294.06V297.07H294.93V289.6H289.73Z" fill="black"/>
</g>
<path d="M302.91 289.6H297.71V297.08H302.91V289.6Z" fill="#455A64"/>
<g opacity="0.3">
<path d="M297.71 289.6V290.53H302.04V297.07H302.92V289.6H297.71Z" fill="black"/>
</g>
<path d="M310.89 289.6H305.69V297.08H310.89V289.6Z" fill="#455A64"/>
<g opacity="0.3">
<path d="M305.69 289.6V290.53H310.02V297.07H310.9V289.6H305.69Z" fill="black"/>
</g>
<g opacity="0.4">
<path d="M294.93 267.4H289.73V274.88H294.93V267.4Z" fill="white"/>
<g opacity="0.3">
<path d="M289.73 267.4V268.33H294.06V274.88H294.93V267.4H289.73Z" fill="white"/>
</g>
</g>
<g opacity="0.4">
<path d="M302.91 267.4H297.71V274.88H302.91V267.4Z" fill="white"/>
<g opacity="0.3">
<path d="M297.71 267.4V268.33H302.04V274.88H302.92V267.4H297.71Z" fill="white"/>
</g>
</g>
<g opacity="0.4">
<path d="M310.89 267.4H305.69V274.88H310.89V267.4Z" fill="white"/>
<g opacity="0.3">
<path d="M305.69 267.4V268.33H310.02V274.88H310.9V267.4H305.69Z" fill="white"/>
</g>
</g>
<g opacity="0.4">
<path d="M294.93 278.5H289.73V285.98H294.93V278.5Z" fill="white"/>
<g opacity="0.3">
<path d="M289.73 278.5V279.43H294.06V285.98H294.93V278.5H289.73Z" fill="white"/>
</g>
</g>
<g opacity="0.4">
<path d="M302.91 278.5H297.71V285.98H302.91V278.5Z" fill="white"/>
<g opacity="0.3">
<path d="M297.71 278.5V279.43H302.04V285.98H302.92V278.5H297.71Z" fill="white"/>
</g>
</g>
<g opacity="0.4">
<path d="M310.89 278.5H305.69V285.98H310.89V278.5Z" fill="white"/>
<g opacity="0.3">
<path d="M305.69 278.5V279.43H310.02V285.98H310.9V278.5H305.69Z" fill="white"/>
</g>
</g>
<g opacity="0.4">
<path d="M294.93 289.6H289.73V297.08H294.93V289.6Z" fill="white"/>
<g opacity="0.3">
<path d="M289.73 289.6V290.53H294.06V297.07H294.93V289.6H289.73Z" fill="white"/>
</g>
</g>
<g opacity="0.4">
<path d="M310.89 289.6H305.69V297.08H310.89V289.6Z" fill="white"/>
<g opacity="0.3">
<path d="M305.69 289.6V290.53H310.02V297.07H310.9V289.6H305.69Z" fill="white"/>
</g>
</g>
<path d="M322.39 300.7H317.19V308.18H322.39V300.7Z" fill="#455A64"/>
<g opacity="0.3">
<path d="M317.19 300.7V301.63H321.51V308.18H322.39V300.7H317.19Z" fill="black"/>
</g>
<path d="M330.37 300.7H325.17V308.18H330.37V300.7Z" fill="#455A64"/>
<g opacity="0.3">
<path d="M325.17 300.7V301.63H329.49V308.18H330.37V300.7H325.17Z" fill="black"/>
</g>
<path d="M338.35 300.7H333.15V308.18H338.35V300.7Z" fill="#455A64"/>
<g opacity="0.3">
<path d="M333.15 300.7V301.63H337.47V308.18H338.35V300.7H333.15Z" fill="black"/>
</g>
<path d="M346.33 300.7H341.13V308.18H346.33V300.7Z" fill="#455A64"/>
<g opacity="0.3">
<path d="M341.13 300.7V301.63H345.45V308.18H346.33V300.7H341.13Z" fill="black"/>
</g>
<path d="M354.31 300.7H349.11V308.18H354.31V300.7Z" fill="#455A64"/>
<g opacity="0.3">
<path d="M349.11 300.7V301.63H353.44V308.18H354.31V300.7H349.11Z" fill="black"/>
</g>
<path d="M362.29 300.7H357.09V308.18H362.29V300.7Z" fill="#455A64"/>
<g opacity="0.3">
<path d="M357.09 300.7V301.63H361.42V308.18H362.3V300.7H357.09Z" fill="black"/>
</g>
<path d="M294.93 300.7H289.73V308.18H294.93V300.7Z" fill="#455A64"/>
<g opacity="0.3">
<path d="M289.73 300.7V301.63H294.06V308.18H294.93V300.7H289.73Z" fill="black"/>
</g>
<path d="M302.91 300.7H297.71V308.18H302.91V300.7Z" fill="#455A64"/>
<g opacity="0.3">
<path d="M297.71 300.7V301.63H302.04V308.18H302.92V300.7H297.71Z" fill="black"/>
</g>
<path d="M310.89 300.7H305.69V308.18H310.89V300.7Z" fill="#455A64"/>
<g opacity="0.3">
<path d="M305.69 300.7V301.63H310.02V308.18H310.9V300.7H305.69Z" fill="black"/>
</g>
<path d="M322.39 311.8H317.19V319.28H322.39V311.8Z" fill="#455A64"/>
<g opacity="0.3">
<path d="M317.19 311.8V312.73H321.51V319.27H322.39V311.8H317.19Z" fill="black"/>
</g>
<path d="M330.37 311.8H325.17V319.28H330.37V311.8Z" fill="#455A64"/>
<g opacity="0.3">
<path d="M325.17 311.8V312.73H329.49V319.27H330.37V311.8H325.17Z" fill="black"/>
</g>
<path d="M338.35 311.8H333.15V319.28H338.35V311.8Z" fill="#455A64"/>
<g opacity="0.3">
<path d="M333.15 311.8V312.73H337.47V319.27H338.35V311.8H333.15Z" fill="black"/>
</g>
<path d="M346.33 311.8H341.13V319.28H346.33V311.8Z" fill="#455A64"/>
<g opacity="0.3">
<path d="M341.13 311.8V312.73H345.45V319.27H346.33V311.8H341.13Z" fill="black"/>
</g>
<path d="M354.31 311.8H349.11V319.28H354.31V311.8Z" fill="#455A64"/>
<g opacity="0.3">
<path d="M349.11 311.8V312.73H353.44V319.27H354.31V311.8H349.11Z" fill="black"/>
</g>
<path d="M362.29 311.8H357.09V319.28H362.29V311.8Z" fill="#455A64"/>
<g opacity="0.3">
<path d="M357.09 311.8V312.73H361.42V319.27H362.3V311.8H357.09Z" fill="black"/>
</g>
<path d="M294.93 311.8H289.73V319.28H294.93V311.8Z" fill="#455A64"/>
<g opacity="0.3">
<path d="M289.73 311.8V312.73H294.06V319.27H294.93V311.8H289.73Z" fill="black"/>
</g>
<path d="M302.91 311.8H297.71V319.28H302.91V311.8Z" fill="#455A64"/>
<g opacity="0.3">
<path d="M297.71 311.8V312.73H302.04V319.27H302.92V311.8H297.71Z" fill="black"/>
</g>
<path d="M310.89 311.8H305.69V319.28H310.89V311.8Z" fill="#455A64"/>
<g opacity="0.3">
<path d="M305.69 311.8V312.73H310.02V319.27H310.9V311.8H305.69Z" fill="black"/>
</g>
<path d="M322.39 322.9H317.19V330.38H322.39V322.9Z" fill="#455A64"/>
<g opacity="0.3">
<path d="M317.19 322.9V323.83H321.51V330.38H322.39V322.9H317.19Z" fill="black"/>
</g>
<path d="M330.37 322.9H325.17V330.38H330.37V322.9Z" fill="#455A64"/>
<g opacity="0.3">
<path d="M325.17 322.9V323.83H329.49V330.38H330.37V322.9H325.17Z" fill="black"/>
</g>
<path d="M338.35 322.9H333.15V330.38H338.35V322.9Z" fill="#455A64"/>
<g opacity="0.3">
<path d="M333.15 322.9V323.83H337.47V330.38H338.35V322.9H333.15Z" fill="black"/>
</g>
<path d="M346.33 322.9H341.13V330.38H346.33V322.9Z" fill="#455A64"/>
<g opacity="0.3">
<path d="M341.13 322.9V323.83H345.45V330.38H346.33V322.9H341.13Z" fill="black"/>
</g>
<path d="M354.31 322.9H349.11V330.38H354.31V322.9Z" fill="#455A64"/>
<g opacity="0.3">
<path d="M349.11 322.9V323.83H353.44V330.38H354.31V322.9H349.11Z" fill="black"/>
</g>
<path d="M362.29 322.9H357.09V330.38H362.29V322.9Z" fill="#455A64"/>
<g opacity="0.3">
<path d="M357.09 322.9V323.83H361.42V330.38H362.3V322.9H357.09Z" fill="black"/>
</g>
<path d="M294.93 322.9H289.73V330.38H294.93V322.9Z" fill="#455A64"/>
<g opacity="0.3">
<path d="M289.73 322.9V323.83H294.06V330.38H294.93V322.9H289.73Z" fill="black"/>
</g>
<path d="M302.91 322.9H297.71V330.38H302.91V322.9Z" fill="#455A64"/>
<g opacity="0.3">
<path d="M297.71 322.9V323.83H302.04V330.38H302.92V322.9H297.71Z" fill="black"/>
</g>
<path d="M310.89 322.9H305.69V330.38H310.89V322.9Z" fill="#455A64"/>
<g opacity="0.3">
<path d="M305.69 322.9V323.83H310.02V330.38H310.9V322.9H305.69Z" fill="black"/>
</g>
<path d="M322.39 339.31H317.19V346.79H322.39V339.31Z" fill="#455A64"/>
<g opacity="0.3">
<path d="M317.19 339.31V340.24H321.51V346.78H322.39V339.31H317.19Z" fill="black"/>
</g>
<path d="M330.37 339.31H325.17V346.79H330.37V339.31Z" fill="#455A64"/>
<g opacity="0.3">
<path d="M325.17 339.31V340.24H329.49V346.78H330.37V339.31H325.17Z" fill="black"/>
</g>
<path d="M338.35 339.31H333.15V346.79H338.35V339.31Z" fill="#455A64"/>
<g opacity="0.3">
<path d="M333.15 339.31V340.24H337.47V346.78H338.35V339.31H333.15Z" fill="black"/>
</g>
<path d="M346.33 339.31H341.13V346.79H346.33V339.31Z" fill="#455A64"/>
<g opacity="0.3">
<path d="M341.13 339.31V340.24H345.45V346.78H346.33V339.31H341.13Z" fill="black"/>
</g>
<path d="M354.31 339.31H349.11V346.79H354.31V339.31Z" fill="#455A64"/>
<g opacity="0.3">
<path d="M349.11 339.31V340.24H353.44V346.78H354.31V339.31H349.11Z" fill="black"/>
</g>
<path d="M362.29 339.31H357.09V346.79H362.29V339.31Z" fill="#455A64"/>
<g opacity="0.3">
<path d="M357.09 339.31V340.24H361.42V346.78H362.3V339.31H357.09Z" fill="black"/>
</g>
<path d="M294.93 339.31H289.73V346.79H294.93V339.31Z" fill="#455A64"/>
<g opacity="0.3">
<path d="M289.73 339.31V340.24H294.06V346.78H294.93V339.31H289.73Z" fill="black"/>
</g>
<path d="M302.91 339.31H297.71V346.79H302.91V339.31Z" fill="#455A64"/>
<g opacity="0.3">
<path d="M297.71 339.31V340.24H302.04V346.78H302.92V339.31H297.71Z" fill="black"/>
</g>
<path d="M310.89 339.31H305.69V346.79H310.89V339.31Z" fill="#455A64"/>
<g opacity="0.3">
<path d="M305.69 339.31V340.24H310.02V346.78H310.9V339.31H305.69Z" fill="black"/>
</g>
<path d="M322.39 350.03H317.19V357.51H322.39V350.03Z" fill="#455A64"/>
<g opacity="0.3">
<path d="M317.19 350.03V350.95H321.51V357.5H322.39V350.03H317.19Z" fill="black"/>
</g>
<path d="M330.37 350.03H325.17V357.51H330.37V350.03Z" fill="#455A64"/>
<g opacity="0.3">
<path d="M325.17 350.03V350.95H329.49V357.5H330.37V350.03H325.17Z" fill="black"/>
</g>
<path d="M338.35 350.03H333.15V357.51H338.35V350.03Z" fill="#455A64"/>
<g opacity="0.3">
<path d="M333.15 350.03V350.95H337.47V357.5H338.35V350.03H333.15Z" fill="black"/>
</g>
<path d="M346.33 350.03H341.13V357.51H346.33V350.03Z" fill="#455A64"/>
<g opacity="0.3">
<path d="M341.13 350.03V350.95H345.45V357.5H346.33V350.03H341.13Z" fill="black"/>
</g>
<path d="M354.31 350.03H349.11V357.51H354.31V350.03Z" fill="#455A64"/>
<g opacity="0.3">
<path d="M349.11 350.03V350.95H353.44V357.5H354.31V350.03H349.11Z" fill="black"/>
</g>
<path d="M362.29 350.03H357.09V357.51H362.29V350.03Z" fill="#455A64"/>
<g opacity="0.3">
<path d="M357.09 350.03V350.95H361.42V357.5H362.3V350.03H357.09Z" fill="black"/>
</g>
<path d="M294.93 350.03H289.73V357.51H294.93V350.03Z" fill="#455A64"/>
<g opacity="0.3">
<path d="M289.73 350.03V350.95H294.06V357.5H294.93V350.03H289.73Z" fill="black"/>
</g>
<path d="M302.91 350.03H297.71V357.51H302.91V350.03Z" fill="#455A64"/>
<g opacity="0.3">
<path d="M297.71 350.03V350.95H302.04V357.5H302.92V350.03H297.71Z" fill="black"/>
</g>
<path d="M310.89 350.03H305.69V357.51H310.89V350.03Z" fill="#455A64"/>
<g opacity="0.3">
<path d="M305.69 350.03V350.95H310.02V357.5H310.9V350.03H305.69Z" fill="black"/>
</g>
<path d="M322.39 360.75H317.19V368.23H322.39V360.75Z" fill="#455A64"/>
<g opacity="0.3">
<path d="M317.19 360.75V361.67H321.51V368.22H322.39V360.75H317.19Z" fill="black"/>
</g>
<path d="M330.37 360.75H325.17V368.23H330.37V360.75Z" fill="#455A64"/>
<g opacity="0.3">
<path d="M325.17 360.75V361.67H329.49V368.22H330.37V360.75H325.17Z" fill="black"/>
</g>
<path d="M338.35 360.75H333.15V368.23H338.35V360.75Z" fill="#455A64"/>
<g opacity="0.3">
<path d="M333.15 360.75V361.67H337.47V368.22H338.35V360.75H333.15Z" fill="black"/>
</g>
<path d="M346.33 360.75H341.13V368.23H346.33V360.75Z" fill="#455A64"/>
<g opacity="0.3">
<path d="M341.13 360.75V361.67H345.45V368.22H346.33V360.75H341.13Z" fill="black"/>
</g>
<path d="M354.31 360.75H349.11V368.23H354.31V360.75Z" fill="#455A64"/>
<g opacity="0.3">
<path d="M349.11 360.75V361.67H353.44V368.22H354.31V360.75H349.11Z" fill="black"/>
</g>
<path d="M362.29 360.75H357.09V368.23H362.29V360.75Z" fill="#455A64"/>
<g opacity="0.3">
<path d="M357.09 360.75V361.67H361.42V368.22H362.3V360.75H357.09Z" fill="black"/>
</g>
<path d="M294.93 360.75H289.73V368.23H294.93V360.75Z" fill="#455A64"/>
<g opacity="0.3">
<path d="M289.73 360.75V361.67H294.06V368.22H294.93V360.75H289.73Z" fill="black"/>
</g>
<path d="M302.91 360.75H297.71V368.23H302.91V360.75Z" fill="#455A64"/>
<g opacity="0.3">
<path d="M297.71 360.75V361.67H302.04V368.22H302.92V360.75H297.71Z" fill="black"/>
</g>
<path d="M310.89 360.75H305.69V368.23H310.89V360.75Z" fill="#455A64"/>
<g opacity="0.3">
<path d="M305.69 360.75V361.67H310.02V368.22H310.9V360.75H305.69Z" fill="black"/>
</g>
<path d="M322.39 371.46H317.19V378.94H322.39V371.46Z" fill="#455A64"/>
<g opacity="0.3">
<path d="M317.19 371.46V372.39H321.51V378.94H322.39V371.46H317.19Z" fill="black"/>
</g>
<path d="M330.37 371.46H325.17V378.94H330.37V371.46Z" fill="#455A64"/>
<g opacity="0.3">
<path d="M325.17 371.46V372.39H329.49V378.94H330.37V371.46H325.17Z" fill="black"/>
</g>
<path d="M338.35 371.46H333.15V378.94H338.35V371.46Z" fill="#455A64"/>
<g opacity="0.3">
<path d="M333.15 371.46V372.39H337.47V378.94H338.35V371.46H333.15Z" fill="black"/>
</g>
<path d="M346.33 371.46H341.13V378.94H346.33V371.46Z" fill="#455A64"/>
<g opacity="0.3">
<path d="M341.13 371.46V372.39H345.45V378.94H346.33V371.46H341.13Z" fill="black"/>
</g>
<path d="M354.31 371.46H349.11V378.94H354.31V371.46Z" fill="#455A64"/>
<g opacity="0.3">
<path d="M349.11 371.46V372.39H353.44V378.94H354.31V371.46H349.11Z" fill="black"/>
</g>
<path d="M362.29 371.46H357.09V378.94H362.29V371.46Z" fill="#455A64"/>
<g opacity="0.3">
<path d="M357.09 371.46V372.39H361.42V378.94H362.3V371.46H357.09Z" fill="black"/>
</g>
<path d="M294.93 371.46H289.73V378.94H294.93V371.46Z" fill="#455A64"/>
<g opacity="0.3">
<path d="M289.73 371.46V372.39H294.06V378.94H294.93V371.46H289.73Z" fill="black"/>
</g>
<path d="M302.91 371.46H297.71V378.94H302.91V371.46Z" fill="#455A64"/>
<g opacity="0.3">
<path d="M297.71 371.46V372.39H302.04V378.94H302.92V371.46H297.71Z" fill="black"/>
</g>
<path d="M310.89 371.46H305.69V378.94H310.89V371.46Z" fill="#455A64"/>
<g opacity="0.3">
<path d="M305.69 371.46V372.39H310.02V378.94H310.9V371.46H305.69Z" fill="black"/>
</g>
<path d="M322.39 382.18H317.19V389.66H322.39V382.18Z" fill="#455A64"/>
<g opacity="0.3">
<path d="M317.19 382.18V383.11H321.51V389.66H322.39V382.18H317.19Z" fill="black"/>
</g>
<path d="M330.37 382.18H325.17V389.66H330.37V382.18Z" fill="#455A64"/>
<g opacity="0.3">
<path d="M325.17 382.18V383.11H329.49V389.66H330.37V382.18H325.17Z" fill="black"/>
</g>
<path d="M338.35 382.18H333.15V389.66H338.35V382.18Z" fill="#455A64"/>
<g opacity="0.3">
<path d="M333.15 382.18V383.11H337.47V389.66H338.35V382.18H333.15Z" fill="black"/>
</g>
<path d="M346.33 382.18H341.13V389.66H346.33V382.18Z" fill="#455A64"/>
<g opacity="0.3">
<path d="M341.13 382.18V383.11H345.45V389.66H346.33V382.18H341.13Z" fill="black"/>
</g>
<path d="M354.31 382.18H349.11V389.66H354.31V382.18Z" fill="#455A64"/>
<g opacity="0.3">
<path d="M349.11 382.18V383.11H353.44V389.66H354.31V382.18H349.11Z" fill="black"/>
</g>
<path d="M362.29 382.18H357.09V389.66H362.29V382.18Z" fill="#455A64"/>
<g opacity="0.3">
<path d="M357.09 382.18V383.11H361.42V389.66H362.3V382.18H357.09Z" fill="black"/>
</g>
<path d="M294.93 382.18H289.73V389.66H294.93V382.18Z" fill="#455A64"/>
<g opacity="0.3">
<path d="M289.73 382.18V383.11H294.06V389.66H294.93V382.18H289.73Z" fill="black"/>
</g>
<path d="M302.91 382.18H297.71V389.66H302.91V382.18Z" fill="#455A64"/>
<g opacity="0.3">
<path d="M297.71 382.18V383.11H302.04V389.66H302.92V382.18H297.71Z" fill="black"/>
</g>
<path d="M310.89 382.18H305.69V389.66H310.89V382.18Z" fill="#455A64"/>
<g opacity="0.3">
<path d="M305.69 382.18V383.11H310.02V389.66H310.9V382.18H305.69Z" fill="black"/>
</g>
<path d="M322.39 392.9H317.19V400.38H322.39V392.9Z" fill="#455A64"/>
<g opacity="0.3">
<path d="M317.19 392.9V393.83H321.51V400.38H322.39V392.9H317.19Z" fill="black"/>
</g>
<path d="M330.37 392.9H325.17V400.38H330.37V392.9Z" fill="#455A64"/>
<g opacity="0.3">
<path d="M325.17 392.9V393.83H329.49V400.38H330.37V392.9H325.17Z" fill="black"/>
</g>
<path d="M338.35 392.9H333.15V400.38H338.35V392.9Z" fill="#455A64"/>
<g opacity="0.3">
<path d="M333.15 392.9V393.83H337.47V400.38H338.35V392.9H333.15Z" fill="black"/>
</g>
<path d="M346.33 392.9H341.13V400.38H346.33V392.9Z" fill="#455A64"/>
<g opacity="0.3">
<path d="M341.13 392.9V393.83H345.45V400.38H346.33V392.9H341.13Z" fill="black"/>
</g>
<path d="M354.31 392.9H349.11V400.38H354.31V392.9Z" fill="#455A64"/>
<g opacity="0.3">
<path d="M349.11 392.9V393.83H353.44V400.38H354.31V392.9H349.11Z" fill="black"/>
</g>
<path d="M362.29 392.9H357.09V400.38H362.29V392.9Z" fill="#455A64"/>
<g opacity="0.3">
<path d="M357.09 392.9V393.83H361.42V400.38H362.3V392.9H357.09Z" fill="black"/>
</g>
<path d="M294.93 392.9H289.73V400.38H294.93V392.9Z" fill="#455A64"/>
<g opacity="0.3">
<path d="M289.73 392.9V393.83H294.06V400.38H294.93V392.9H289.73Z" fill="black"/>
</g>
<path d="M302.91 392.9H297.71V400.38H302.91V392.9Z" fill="#455A64"/>
<g opacity="0.3">
<path d="M297.71 392.9V393.83H302.04V400.38H302.92V392.9H297.71Z" fill="black"/>
</g>
<path d="M310.89 392.9H305.69V400.38H310.89V392.9Z" fill="#455A64"/>
<g opacity="0.3">
<path d="M305.69 392.9V393.83H310.02V400.38H310.9V392.9H305.69Z" fill="black"/>
</g>
<path d="M322.39 406.95H317.19V414.43H322.39V406.95Z" fill="#455A64"/>
<g opacity="0.3">
<path d="M317.19 406.95V407.88H321.51V414.43H322.39V406.95H317.19Z" fill="black"/>
</g>
<path d="M330.37 406.95H325.17V414.43H330.37V406.95Z" fill="#455A64"/>
<g opacity="0.3">
<path d="M325.17 406.95V407.88H329.49V414.43H330.37V406.95H325.17Z" fill="black"/>
</g>
<path d="M338.35 406.95H333.15V414.43H338.35V406.95Z" fill="#455A64"/>
<g opacity="0.3">
<path d="M333.15 406.95V407.88H337.47V414.43H338.35V406.95H333.15Z" fill="black"/>
</g>
<path d="M346.33 406.95H341.13V414.43H346.33V406.95Z" fill="#455A64"/>
<g opacity="0.3">
<path d="M341.13 406.95V407.88H345.45V414.43H346.33V406.95H341.13Z" fill="black"/>
</g>
<path d="M354.31 406.95H349.11V414.43H354.31V406.95Z" fill="#455A64"/>
<g opacity="0.3">
<path d="M349.11 406.95V407.88H353.44V414.43H354.31V406.95H349.11Z" fill="black"/>
</g>
<path d="M362.29 406.95H357.09V414.43H362.29V406.95Z" fill="#455A64"/>
<g opacity="0.3">
<path d="M357.09 406.95V407.88H361.42V414.43H362.3V406.95H357.09Z" fill="black"/>
</g>
<path d="M294.93 406.95H289.73V414.43H294.93V406.95Z" fill="#455A64"/>
<g opacity="0.3">
<path d="M289.73 406.95V407.88H294.06V414.43H294.93V406.95H289.73Z" fill="black"/>
</g>
<path d="M302.91 406.95H297.71V414.43H302.91V406.95Z" fill="#455A64"/>
<g opacity="0.3">
<path d="M297.71 406.95V407.88H302.04V414.43H302.92V406.95H297.71Z" fill="black"/>
</g>
<path d="M310.89 406.95H305.69V414.43H310.89V406.95Z" fill="#455A64"/>
<g opacity="0.3">
<path d="M305.69 406.95V407.88H310.02V414.43H310.9V406.95H305.69Z" fill="black"/>
</g>
<path d="M322.39 417.67H317.19V425.15H322.39V417.67Z" fill="#455A64"/>
<g opacity="0.3">
<path d="M317.19 417.67V418.6H321.51V425.15H322.39V417.67H317.19Z" fill="black"/>
</g>
<path d="M330.37 417.67H325.17V425.15H330.37V417.67Z" fill="#455A64"/>
<g opacity="0.3">
<path d="M325.17 417.67V418.6H329.49V425.15H330.37V417.67H325.17Z" fill="black"/>
</g>
<path d="M338.35 417.67H333.15V425.15H338.35V417.67Z" fill="#455A64"/>
<g opacity="0.3">
<path d="M333.15 417.67V418.6H337.47V425.15H338.35V417.67H333.15Z" fill="black"/>
</g>
<path d="M346.33 417.67H341.13V425.15H346.33V417.67Z" fill="#455A64"/>
<g opacity="0.3">
<path d="M341.13 417.67V418.6H345.45V425.15H346.33V417.67H341.13Z" fill="black"/>
</g>
<path d="M354.31 417.67H349.11V425.15H354.31V417.67Z" fill="#455A64"/>
<g opacity="0.3">
<path d="M349.11 417.67V418.6H353.44V425.15H354.31V417.67H349.11Z" fill="black"/>
</g>
<path d="M362.29 417.67H357.09V425.15H362.29V417.67Z" fill="#455A64"/>
<g opacity="0.3">
<path d="M357.09 417.67V418.6H361.42V425.15H362.3V417.67H357.09Z" fill="black"/>
</g>
<path d="M294.93 417.67H289.73V425.15H294.93V417.67Z" fill="#455A64"/>
<g opacity="0.3">
<path d="M289.73 417.67V418.6H294.06V425.15H294.93V417.67H289.73Z" fill="black"/>
</g>
<path d="M302.91 417.67H297.71V425.15H302.91V417.67Z" fill="#455A64"/>
<g opacity="0.3">
<path d="M297.71 417.67V418.6H302.04V425.15H302.92V417.67H297.71Z" fill="black"/>
</g>
<path d="M310.89 417.67H305.69V425.15H310.89V417.67Z" fill="#455A64"/>
<g opacity="0.3">
<path d="M305.69 417.67V418.6H310.02V425.15H310.9V417.67H305.69Z" fill="black"/>
</g>
<path d="M322.39 428.39H317.19V435.87H322.39V428.39Z" fill="#455A64"/>
<g opacity="0.3">
<path d="M317.19 428.39V429.32H321.51V435.87H322.39V428.39H317.19Z" fill="black"/>
</g>
<path d="M330.37 428.39H325.17V435.87H330.37V428.39Z" fill="#455A64"/>
<g opacity="0.3">
<path d="M325.17 428.39V429.32H329.49V435.87H330.37V428.39H325.17Z" fill="black"/>
</g>
<path d="M338.35 428.39H333.15V435.87H338.35V428.39Z" fill="#455A64"/>
<g opacity="0.3">
<path d="M333.15 428.39V429.32H337.47V435.87H338.35V428.39H333.15Z" fill="black"/>
</g>
<path d="M346.33 428.39H341.13V435.87H346.33V428.39Z" fill="#455A64"/>
<g opacity="0.3">
<path d="M341.13 428.39V429.32H345.45V435.87H346.33V428.39H341.13Z" fill="black"/>
</g>
<path d="M354.31 428.39H349.11V435.87H354.31V428.39Z" fill="#455A64"/>
<g opacity="0.3">
<path d="M349.11 428.39V429.32H353.44V435.87H354.31V428.39H349.11Z" fill="black"/>
</g>
<path d="M362.29 428.39H357.09V435.87H362.29V428.39Z" fill="#455A64"/>
<g opacity="0.3">
<path d="M357.09 428.39V429.32H361.42V435.87H362.3V428.39H357.09Z" fill="black"/>
</g>
<path d="M294.93 428.39H289.73V435.87H294.93V428.39Z" fill="#455A64"/>
<g opacity="0.3">
<path d="M289.73 428.39V429.32H294.06V435.87H294.93V428.39H289.73Z" fill="black"/>
</g>
<path d="M302.91 428.39H297.71V435.87H302.91V428.39Z" fill="#455A64"/>
<g opacity="0.3">
<path d="M297.71 428.39V429.32H302.04V435.87H302.92V428.39H297.71Z" fill="black"/>
</g>
<path d="M310.89 428.39H305.69V435.87H310.89V428.39Z" fill="#455A64"/>
<g opacity="0.3">
<path d="M305.69 428.39V429.32H310.02V435.87H310.9V428.39H305.69Z" fill="black"/>
</g>
<path d="M322.39 439.11H317.19V446.59H322.39V439.11Z" fill="#455A64"/>
<g opacity="0.3">
<path d="M317.19 439.11V440.04H321.51V446.59H322.39V439.11H317.19Z" fill="black"/>
</g>
<path d="M330.37 439.11H325.17V446.59H330.37V439.11Z" fill="#455A64"/>
<g opacity="0.3">
<path d="M325.17 439.11V440.04H329.49V446.59H330.37V439.11H325.17Z" fill="black"/>
</g>
<path d="M338.35 439.11H333.15V446.59H338.35V439.11Z" fill="#455A64"/>
<g opacity="0.3">
<path d="M333.15 439.11V440.04H337.47V446.59H338.35V439.11H333.15Z" fill="black"/>
</g>
<path d="M346.33 439.11H341.13V446.59H346.33V439.11Z" fill="#455A64"/>
<g opacity="0.3">
<path d="M341.13 439.11V440.04H345.45V446.59H346.33V439.11H341.13Z" fill="black"/>
</g>
<path d="M354.31 439.11H349.11V446.59H354.31V439.11Z" fill="#455A64"/>
<g opacity="0.3">
<path d="M349.11 439.11V440.04H353.44V446.59H354.31V439.11H349.11Z" fill="black"/>
</g>
<path d="M362.29 439.11H357.09V446.59H362.29V439.11Z" fill="#455A64"/>
<g opacity="0.3">
<path d="M357.09 439.11V440.04H361.42V446.59H362.3V439.11H357.09Z" fill="black"/>
</g>
<path d="M294.93 439.11H289.73V446.59H294.93V439.11Z" fill="#455A64"/>
<g opacity="0.3">
<path d="M289.73 439.11V440.04H294.06V446.59H294.93V439.11H289.73Z" fill="black"/>
</g>
<path d="M302.91 439.11H297.71V446.59H302.91V439.11Z" fill="#455A64"/>
<g opacity="0.3">
<path d="M297.71 439.11V440.04H302.04V446.59H302.92V439.11H297.71Z" fill="black"/>
</g>
<path d="M310.89 439.11H305.69V446.59H310.89V439.11Z" fill="#455A64"/>
<g opacity="0.3">
<path d="M305.69 439.11V440.04H310.02V446.59H310.9V439.11H305.69Z" fill="black"/>
</g>
<path d="M322.39 449.83H317.19V457.31H322.39V449.83Z" fill="#455A64"/>
<g opacity="0.3">
<path d="M317.19 449.83V450.76H321.51V457.31H322.39V449.83H317.19Z" fill="black"/>
</g>
<path d="M330.37 449.83H325.17V457.31H330.37V449.83Z" fill="#455A64"/>
<g opacity="0.3">
<path d="M325.17 449.83V450.76H329.49V457.31H330.37V449.83H325.17Z" fill="black"/>
</g>
<path d="M338.35 449.83H333.15V457.31H338.35V449.83Z" fill="#455A64"/>
<g opacity="0.3">
<path d="M333.15 449.83V450.76H337.47V457.31H338.35V449.83H333.15Z" fill="black"/>
</g>
<path d="M346.33 449.83H341.13V457.31H346.33V449.83Z" fill="#455A64"/>
<g opacity="0.3">
<path d="M341.13 449.83V450.76H345.45V457.31H346.33V449.83H341.13Z" fill="black"/>
</g>
<path d="M354.31 449.83H349.11V457.31H354.31V449.83Z" fill="#455A64"/>
<g opacity="0.3">
<path d="M349.11 449.83V450.76H353.44V457.31H354.31V449.83H349.11Z" fill="black"/>
</g>
<path d="M362.29 449.83H357.09V457.31H362.29V449.83Z" fill="#455A64"/>
<g opacity="0.3">
<path d="M357.09 449.83V450.76H361.42V457.31H362.3V449.83H357.09Z" fill="black"/>
</g>
<path d="M294.93 449.83H289.73V457.31H294.93V449.83Z" fill="#455A64"/>
<g opacity="0.3">
<path d="M289.73 449.83V450.76H294.06V457.31H294.93V449.83H289.73Z" fill="black"/>
</g>
<path d="M302.91 449.83H297.71V457.31H302.91V449.83Z" fill="#455A64"/>
<g opacity="0.3">
<path d="M297.71 449.83V450.76H302.04V457.31H302.92V449.83H297.71Z" fill="black"/>
</g>
<path d="M310.89 449.83H305.69V457.31H310.89V449.83Z" fill="#455A64"/>
<g opacity="0.3">
<path d="M305.69 449.83V450.76H310.02V457.31H310.9V449.83H305.69Z" fill="black"/>
</g>
<path d="M322.39 460.55H317.19V468.03H322.39V460.55Z" fill="#455A64"/>
<g opacity="0.3">
<path d="M317.19 460.55V461.48H321.51V468.02H322.39V460.55H317.19Z" fill="black"/>
</g>
<path d="M330.37 460.55H325.17V468.03H330.37V460.55Z" fill="#455A64"/>
<g opacity="0.3">
<path d="M325.17 460.55V461.48H329.49V468.02H330.37V460.55H325.17Z" fill="black"/>
</g>
<path d="M338.35 460.55H333.15V468.03H338.35V460.55Z" fill="#455A64"/>
<g opacity="0.3">
<path d="M333.15 460.55V461.48H337.47V468.02H338.35V460.55H333.15Z" fill="black"/>
</g>
<path d="M346.33 460.55H341.13V468.03H346.33V460.55Z" fill="#455A64"/>
<g opacity="0.3">
<path d="M341.13 460.55V461.48H345.45V468.02H346.33V460.55H341.13Z" fill="black"/>
</g>
<path d="M354.31 460.55H349.11V468.03H354.31V460.55Z" fill="#455A64"/>
<g opacity="0.3">
<path d="M349.11 460.55V461.48H353.44V468.02H354.31V460.55H349.11Z" fill="black"/>
</g>
<path d="M362.29 460.55H357.09V468.03H362.29V460.55Z" fill="#455A64"/>
<g opacity="0.3">
<path d="M357.09 460.55V461.48H361.42V468.02H362.3V460.55H357.09Z" fill="black"/>
</g>
<path d="M294.93 460.55H289.73V468.03H294.93V460.55Z" fill="#455A64"/>
<g opacity="0.3">
<path d="M289.73 460.55V461.48H294.06V468.02H294.93V460.55H289.73Z" fill="black"/>
</g>
<path d="M302.91 460.55H297.71V468.03H302.91V460.55Z" fill="#455A64"/>
<g opacity="0.3">
<path d="M297.71 460.55V461.48H302.04V468.02H302.92V460.55H297.71Z" fill="black"/>
</g>
<path d="M310.89 460.55H305.69V468.03H310.89V460.55Z" fill="#455A64"/>
<g opacity="0.3">
<path d="M305.69 460.55V461.48H310.02V468.02H310.9V460.55H305.69Z" fill="black"/>
</g>
<g opacity="0.4">
<path d="M322.39 267.4H317.19V274.88H322.39V267.4Z" fill="white"/>
</g>
<g opacity="0.4">
<path d="M330.37 267.4H325.17V274.88H330.37V267.4Z" fill="white"/>
</g>
<g opacity="0.4">
<path d="M338.35 267.4H333.15V274.88H338.35V267.4Z" fill="white"/>
</g>
<g opacity="0.4">
<path d="M346.33 267.4H341.13V274.88H346.33V267.4Z" fill="white"/>
</g>
<g opacity="0.4">
<path d="M354.31 267.4H349.11V274.88H354.31V267.4Z" fill="white"/>
</g>
<g opacity="0.4">
<path d="M362.29 267.4H357.09V274.88H362.29V267.4Z" fill="white"/>
</g>
<g opacity="0.4">
<path d="M322.39 278.5H317.19V285.98H322.39V278.5Z" fill="white"/>
</g>
<g opacity="0.4">
<path d="M330.37 278.5H325.17V285.98H330.37V278.5Z" fill="white"/>
</g>
<g opacity="0.4">
<path d="M338.35 278.5H333.15V285.98H338.35V278.5Z" fill="white"/>
</g>
<g opacity="0.4">
<path d="M346.33 278.5H341.13V285.98H346.33V278.5Z" fill="white"/>
</g>
<g opacity="0.4">
<path d="M354.31 278.5H349.11V285.98H354.31V278.5Z" fill="white"/>
</g>
<g opacity="0.4">
<path d="M362.29 278.5H357.09V285.98H362.29V278.5Z" fill="white"/>
</g>
<g opacity="0.4">
<path d="M322.39 289.6H317.19V297.08H322.39V289.6Z" fill="white"/>
</g>
<g opacity="0.4">
<path d="M330.37 289.6H325.17V297.08H330.37V289.6Z" fill="white"/>
</g>
<g opacity="0.4">
<path d="M354.31 289.6H349.11V297.08H354.31V289.6Z" fill="white"/>
</g>
<g opacity="0.4">
<path d="M322.39 300.7H317.19V308.18H322.39V300.7Z" fill="white"/>
</g>
<g opacity="0.4">
<path d="M354.31 300.7H349.11V308.18H354.31V300.7Z" fill="white"/>
</g>
<g opacity="0.3">
<path d="M313.49 259.28H286.41V472.75H313.49V259.28Z" fill="black"/>
</g>
<path d="M271.92 472.53H317.41V348.37H271.92V472.53Z" fill="#FF725E"/>
<path d="M248.7 472.53H271.93V348.37H248.7V472.53Z" fill="#FF725E"/>
<path d="M288 360.43H278.64V373.09H288V360.43Z" fill="#455A64"/>
<g opacity="0.3">
<path d="M278.64 360.43V362H286.42V373.09H288V360.43H278.64Z" fill="black"/>
</g>
<path d="M288.54 373.09H278.64V375.66H288.54V373.09Z" fill="white"/>
<path d="M288.54 357.78H278.64V360.35H288.54V357.78Z" fill="white"/>
<path d="M309.56 373.09H299.66V375.66H309.56V373.09Z" fill="white"/>
<path d="M309.56 357.78H299.66V360.35H309.56V357.78Z" fill="white"/>
<path d="M309.02 360.43H299.66V373.09H309.02V360.43Z" fill="#455A64"/>
<g opacity="0.3">
<path d="M299.66 360.43V362H307.44V373.09H309.02V360.43H299.66Z" fill="black"/>
</g>
<path d="M288 383.91H278.64V396.57H288V383.91Z" fill="#455A64"/>
<g opacity="0.3">
<path d="M278.64 383.91V385.48H286.42V396.57H288V383.91H278.64Z" fill="black"/>
</g>
<path d="M288.54 396.57H278.64V399.14H288.54V396.57Z" fill="white"/>
<path d="M288.54 381.26H278.64V383.83H288.54V381.26Z" fill="white"/>
<path d="M309.56 396.57H299.66V399.14H309.56V396.57Z" fill="white"/>
<path d="M309.56 381.26H299.66V383.83H309.56V381.26Z" fill="white"/>
<path d="M309.02 383.91H299.66V396.57H309.02V383.91Z" fill="#455A64"/>
<g opacity="0.3">
<path d="M299.66 383.91V385.48H307.44V396.57H309.02V383.91H299.66Z" fill="black"/>
</g>
<path d="M288 408.23H278.64V420.89H288V408.23Z" fill="#455A64"/>
<g opacity="0.3">
<path d="M278.64 408.23V409.8H286.42V420.89H288V408.23H278.64Z" fill="black"/>
</g>
<path d="M288.54 420.89H278.64V423.46H288.54V420.89Z" fill="white"/>
<path d="M288.54 405.58H278.64V408.15H288.54V405.58Z" fill="white"/>
<path d="M309.56 420.89H299.66V423.46H309.56V420.89Z" fill="white"/>
<path d="M309.56 405.58H299.66V408.15H309.56V405.58Z" fill="white"/>
<path d="M309.02 408.23H299.66V420.89H309.02V408.23Z" fill="#455A64"/>
<g opacity="0.3">
<path d="M299.66 408.23V409.8H307.44V420.89H309.02V408.23H299.66Z" fill="black"/>
</g>
<path d="M288 432.38H278.64V445.04H288V432.38Z" fill="#455A64"/>
<g opacity="0.3">
<path d="M278.64 432.38V433.95H286.42V445.04H288V432.38H278.64Z" fill="black"/>
</g>
<path d="M288.54 445.04H278.64V447.61H288.54V445.04Z" fill="white"/>
<path d="M288.54 429.73H278.64V432.3H288.54V429.73Z" fill="white"/>
<path d="M309.56 445.04H299.66V447.61H309.56V445.04Z" fill="white"/>
<path d="M309.56 429.73H299.66V432.3H309.56V429.73Z" fill="white"/>
<path d="M309.02 432.38H299.66V445.04H309.02V432.38Z" fill="#455A64"/>
<g opacity="0.3">
<path d="M299.66 432.38V433.95H307.44V445.04H309.02V432.38H299.66Z" fill="black"/>
</g>
<path d="M265.83 360.01H262.55V372.67H265.83V360.01Z" fill="#263238"/>
<path d="M266.3 372.67H260.31V374.58H266.3V372.67Z" fill="white"/>
<path d="M257.06 360.01H253.78V372.67H257.06V360.01Z" fill="#263238"/>
<path d="M257.53 372.67H251.54V374.58H257.53V372.67Z" fill="white"/>
<path d="M265.83 384.13H262.55V396.79H265.83V384.13Z" fill="#263238"/>
<path d="M266.3 396.8H260.31V398.71H266.3V396.8Z" fill="white"/>
<path d="M257.06 384.13H253.78V396.79H257.06V384.13Z" fill="#263238"/>
<path d="M257.53 396.8H251.54V398.71H257.53V396.8Z" fill="white"/>
<path d="M265.83 408.26H262.55V420.92H265.83V408.26Z" fill="#263238"/>
<path d="M266.3 420.92H260.31V422.83H266.3V420.92Z" fill="white"/>
<path d="M257.06 408.26H253.78V420.92H257.06V408.26Z" fill="#263238"/>
<path d="M257.53 420.92H251.54V422.83H257.53V420.92Z" fill="white"/>
<path d="M288 452.55H278.64V472.53H288V452.55Z" fill="#455A64"/>
<g opacity="0.3">
<path d="M278.64 452.55V454.05H286.42V472.53H288V452.55H278.64Z" fill="black"/>
</g>
<path d="M309.3 452.55H299.94V472.53H309.3V452.55Z" fill="#455A64"/>
<g opacity="0.3">
<path d="M299.94 452.55V454.05H307.71V472.53H309.29V452.55H299.94Z" fill="black"/>
</g>
<path d="M265.83 432.38H262.55V445.04H265.83V432.38Z" fill="#263238"/>
<path d="M266.3 445.04H260.31V446.95H266.3V445.04Z" fill="white"/>
<path d="M257.06 432.38H253.78V445.04H257.06V432.38Z" fill="#263238"/>
<path d="M257.53 445.04H251.54V446.95H257.53V445.04Z" fill="white"/>
<path d="M265.83 453.58H262.55V466.24H265.83V453.58Z" fill="#263238"/>
<path d="M266.3 466.24H260.31V468.15H266.3V466.24Z" fill="white"/>
<path d="M257.06 453.58H253.78V466.24H257.06V453.58Z" fill="#263238"/>
<path d="M257.53 466.24H251.54V468.15H257.53V466.24Z" fill="white"/>
<g opacity="0.3">
<path d="M248.02 472.53H271.92V348.37H248.02V472.53Z" fill="black"/>
</g>
<path d="M613.41 420.71H514.61V472.97H613.41V420.71Z" fill="#FF725E"/>
<path d="M615.5 420.71H513.36V425.59H615.5V420.71Z" fill="#E0E0E0"/>
<path d="M531.97 433.49H527.84V463.32H531.97V433.49Z" fill="#455A64"/>
<path d="M524.01 433.49H519.88V463.32H524.01V433.49Z" fill="#455A64"/>
<path d="M613.41 463.23H514.61V472.97H613.41V463.23Z" fill="#E0E0E0"/>
<path d="M557.07 451.68H547.23V472.97H557.07V451.68Z" fill="#455A64"/>
<path d="M553.07 434.98H547.23V442.49H553.07V434.98Z" fill="#455A64"/>
<g opacity="0.3">
<path d="M547.23 434.98V435.91H552.09V442.49H553.07V434.98H547.23Z" fill="black"/>
</g>
<path d="M569.84 434.98H564V442.49H569.84V434.98Z" fill="#455A64"/>
<g opacity="0.3">
<path d="M564 434.98V435.91H568.85V442.49H569.84V434.98H564Z" fill="black"/>
</g>
<path d="M587.79 434.98H581.95V442.49H587.79V434.98Z" fill="#455A64"/>
<g opacity="0.3">
<path d="M581.95 434.98V435.91H586.8V442.49H587.79V434.98H581.95Z" fill="black"/>
</g>
<path d="M605.74 434.98H599.9V442.49H605.74V434.98Z" fill="#455A64"/>
<g opacity="0.3">
<path d="M599.9 434.98V435.91H604.75V442.49H605.74V434.98H599.9Z" fill="black"/>
</g>
<path d="M569.84 448.41H564V455.92H569.84V448.41Z" fill="#455A64"/>
<g opacity="0.3">
<path d="M564 448.41V449.34H568.85V455.92H569.84V448.41H564Z" fill="black"/>
</g>
<path d="M587.79 448.41H581.95V455.92H587.79V448.41Z" fill="#455A64"/>
<g opacity="0.3">
<path d="M581.95 448.41V449.34H586.8V455.92H587.79V448.41H581.95Z" fill="black"/>
</g>
<path d="M605.74 448.41H599.9V455.92H605.74V448.41Z" fill="#455A64"/>
<g opacity="0.3">
<path d="M599.9 448.41V449.34H604.75V455.92H605.74V448.41H599.9Z" fill="black"/>
</g>
<g opacity="0.3">
<path d="M540.95 425.59H514.61V472.97H540.95V425.59Z" fill="black"/>
</g>
<path d="M514.42 318.18H399.97V472.74H514.42V318.18Z" fill="#FF725E"/>
<path d="M433.52 329.2H425.11V341.28H433.52V329.2Z" fill="#455A64"/>
<g opacity="0.3">
<path d="M425.11 329.2V330.7H432.1V341.28H433.52V329.2H425.11Z" fill="black"/>
</g>
<path d="M448.96 329.2H440.55V341.28H448.96V329.2Z" fill="#455A64"/>
<g opacity="0.3">
<path d="M440.55 329.2V330.7H447.54V341.28H448.96V329.2H440.55Z" fill="black"/>
</g>
<path d="M464.4 329.2H455.99V341.28H464.4V329.2Z" fill="#455A64"/>
<g opacity="0.3">
<path d="M455.99 329.2V330.7H462.98V341.28H464.39V329.2H455.99Z" fill="black"/>
</g>
<path d="M479.83 329.2H471.42V341.28H479.83V329.2Z" fill="#455A64"/>
<g opacity="0.3">
<path d="M471.42 329.2V330.7H478.41V341.28H479.83V329.2H471.42Z" fill="black"/>
</g>
<path d="M495.27 329.2H486.86V341.28H495.27V329.2Z" fill="#455A64"/>
<g opacity="0.3">
<path d="M486.86 329.2V330.7H493.85V341.28H495.27V329.2H486.86Z" fill="black"/>
</g>
<path d="M510.71 329.2H502.3V341.28H510.71V329.2Z" fill="#455A64"/>
<g opacity="0.3">
<path d="M502.3 329.2V330.7H509.29V341.28H510.7V329.2H502.3Z" fill="black"/>
</g>
<path d="M434.26 358.54H425.85V370.62H434.26V358.54Z" fill="#455A64"/>
<g opacity="0.3">
<path d="M425.85 358.54V360.04H432.83V370.62H434.25V358.54H425.85Z" fill="black"/>
</g>
<path d="M449.69 358.54H441.28V370.62H449.69V358.54Z" fill="#455A64"/>
<g opacity="0.3">
<path d="M441.28 358.54V360.04H448.27V370.62H449.69V358.54H441.28Z" fill="black"/>
</g>
<path d="M465.13 358.54H456.72V370.62H465.13V358.54Z" fill="#455A64"/>
<g opacity="0.3">
<path d="M456.72 358.54V360.04H463.71V370.62H465.13V358.54H456.72Z" fill="black"/>
</g>
<path d="M480.57 358.54H472.16V370.62H480.57V358.54Z" fill="#455A64"/>
<g opacity="0.3">
<path d="M472.16 358.54V360.04H479.14V370.62H480.56V358.54H472.16Z" fill="black"/>
</g>
<path d="M496 358.54H487.59V370.62H496V358.54Z" fill="#455A64"/>
<g opacity="0.3">
<path d="M487.59 358.54V360.04H494.58V370.62H496V358.54H487.59Z" fill="black"/>
</g>
<path d="M511.44 358.54H503.03V370.62H511.44V358.54Z" fill="#455A64"/>
<g opacity="0.3">
<path d="M503.03 358.54V360.04H510.02V370.62H511.44V358.54H503.03Z" fill="black"/>
</g>
<path d="M433.36 387.8H424.95V399.88H433.36V387.8Z" fill="#455A64"/>
<g opacity="0.3">
<path d="M424.95 387.8V389.3H431.94V399.88H433.36V387.8H424.95Z" fill="black"/>
</g>
<path d="M448.8 387.8H440.39V399.88H448.8V387.8Z" fill="#455A64"/>
<g opacity="0.3">
<path d="M440.39 387.8V389.3H447.38V399.88H448.8V387.8H440.39Z" fill="black"/>
</g>
<path d="M464.24 387.8H455.83V399.88H464.24V387.8Z" fill="#455A64"/>
<g opacity="0.3">
<path d="M455.83 387.8V389.3H462.81V399.88H464.23V387.8H455.83Z" fill="black"/>
</g>
<path d="M479.67 387.8H471.26V399.88H479.67V387.8Z" fill="#455A64"/>
<g opacity="0.3">
<path d="M471.26 387.8V389.3H478.25V399.88H479.67V387.8H471.26Z" fill="black"/>
</g>
<path d="M495.11 387.8H486.7V399.88H495.11V387.8Z" fill="#455A64"/>
<g opacity="0.3">
<path d="M486.7 387.8V389.3H493.69V399.88H495.11V387.8H486.7Z" fill="black"/>
</g>
<path d="M510.55 387.8H502.14V399.88H510.55V387.8Z" fill="#455A64"/>
<g opacity="0.3">
<path d="M502.14 387.8V389.3H509.12V399.88H510.54V387.8H502.14Z" fill="black"/>
</g>
<path d="M433.78 416.97H425.37V429.05H433.78V416.97Z" fill="#455A64"/>
<g opacity="0.3">
<path d="M425.37 416.97V418.47H432.36V429.05H433.77V416.97H425.37Z" fill="black"/>
</g>
<path d="M449.21 416.97H440.8V429.05H449.21V416.97Z" fill="#455A64"/>
<g opacity="0.3">
<path d="M440.8 416.97V418.47H447.79V429.05H449.21V416.97H440.8Z" fill="black"/>
</g>
<path d="M464.65 416.97H456.24V429.05H464.65V416.97Z" fill="#455A64"/>
<g opacity="0.3">
<path d="M456.24 416.97V418.47H463.23V429.05H464.65V416.97H456.24Z" fill="black"/>
</g>
<path d="M452.74 450.5H427.87V472.74H452.74V450.5Z" fill="#455A64"/>
<g opacity="0.3">
<path d="M427.87 450.5V453.26H450.13V472.75H452.74V450.5H427.87Z" fill="black"/>
</g>
<path d="M473.53 450.5H458.05V472.74H473.53V450.5Z" fill="#455A64"/>
<g opacity="0.3">
<path d="M458.05 450.5V453.26H470.92V472.75H473.53V450.5H458.05Z" fill="black"/>
</g>
<path d="M509.64 450.5H494.16V472.74H509.64V450.5Z" fill="#455A64"/>
<g opacity="0.3">
<path d="M494.16 450.5V453.26H507.03V472.75H509.64V450.5H494.16Z" fill="black"/>
</g>
<path d="M480.09 416.97H471.68V429.05H480.09V416.97Z" fill="#455A64"/>
<g opacity="0.3">
<path d="M471.68 416.97V418.47H478.67V429.05H480.08V416.97H471.68Z" fill="black"/>
</g>
<path d="M495.52 416.97H487.11V429.05H495.52V416.97Z" fill="#455A64"/>
<g opacity="0.3">
<path d="M487.11 416.97V418.47H494.1V429.05H495.52V416.97H487.11Z" fill="black"/>
</g>
<path d="M510.96 416.97H502.55V429.05H510.96V416.97Z" fill="#455A64"/>
<g opacity="0.3">
<path d="M502.55 416.97V418.47H509.54V429.05H510.96V416.97H502.55Z" fill="black"/>
</g>
<path d="M514.42 315.59H399.97V320.78H514.42V315.59Z" fill="#FFBF9D"/>
<path d="M514.42 346.18H399.97V351.37H514.42V346.18Z" fill="#FFBF9D"/>
<path d="M514.42 375.44H399.97V380.63H514.42V375.44Z" fill="#FFBF9D"/>
<path d="M514.42 404.7H399.97V409.89H514.42V404.7Z" fill="#FFBF9D"/>
<path d="M514.42 434.53H399.97V439.72H514.42V434.53Z" fill="#FF725E"/>
<path d="M407.94 328.25H404.88V340.79H407.94V328.25Z" fill="#263238"/>
<path d="M416.92 328.25H413.86V340.79H416.92V328.25Z" fill="#263238"/>
<path d="M408.11 356.19H405.05V368.73H408.11V356.19Z" fill="#263238"/>
<path d="M417.22 356.19H414.16V368.73H417.22V356.19Z" fill="#263238"/>
<path d="M408.05 385.45H404.99V397.99H408.05V385.45Z" fill="#263238"/>
<path d="M417.16 385.45H414.1V397.99H417.16V385.45Z" fill="#263238"/>
<path d="M407.63 414.99H404.57V427.53H407.63V414.99Z" fill="#263238"/>
<path d="M416.04 414.99H412.98V427.53H416.04V414.99Z" fill="#263238"/>
<path d="M407.63 450.57H404.57V472.75H407.63V450.57Z" fill="#263238"/>
<path d="M416.04 450.57H412.98V472.75H416.04V450.57Z" fill="#263238"/>
<path d="M514.42 436.13H399.97V441.32H514.42V436.13Z" fill="#FFBF9D"/>
<g opacity="0.3">
<path d="M420 315.59H399.97V472.75H420V315.59Z" fill="black"/>
</g>
<g opacity="0.3">
<path d="M514.42 409.89H420V412.08H514.42V409.89Z" fill="black"/>
</g>
<g opacity="0.3">
<path d="M514.42 441.4H420V443.59H514.42V441.4Z" fill="black"/>
</g>
<g opacity="0.3">
<path d="M514.42 380.9H420V383.09H514.42V380.9Z" fill="black"/>
</g>
<g opacity="0.3">
<path d="M514.42 351.37H420V353.56H514.42V351.37Z" fill="black"/>
</g>
<g opacity="0.3">
<path d="M514.42 320.78H420V322.97H514.42V320.78Z" fill="black"/>
</g>
<g opacity="0.3">
<path d="M490.26 451.79H478.63V472.75H490.26V451.79Z" fill="black"/>
</g>
<path d="M452.08 303.4H429.16V315.59H452.08V303.4Z" fill="#FFBF9D"/>
<g opacity="0.3">
<path d="M436.43 303.4H429.16V315.59H436.43V303.4Z" fill="black"/>
</g>
<path d="M433.86 428.83C431.011 429.177 428.13 429.177 425.28 428.83C428.13 428.483 431.011 428.483 433.86 428.83V428.83Z" fill="white"/>
<path d="M449.14 428.83C446.291 429.177 443.41 429.177 440.56 428.83C443.41 428.483 446.291 428.483 449.14 428.83Z" fill="white"/>
<path d="M464.46 428.83C461.614 429.177 458.736 429.177 455.89 428.83C458.736 428.483 461.614 428.483 464.46 428.83V428.83Z" fill="white"/>
<path d="M480.17 428.83C477.321 429.177 474.44 429.177 471.59 428.83C474.44 428.483 477.321 428.483 480.17 428.83Z" fill="white"/>
<path d="M495.68 428.83C492.831 429.177 489.95 429.177 487.1 428.83C489.95 428.483 492.831 428.483 495.68 428.83V428.83Z" fill="white"/>
<path d="M511.19 428.83C508.341 429.177 505.46 429.177 502.61 428.83C505.46 428.483 508.341 428.483 511.19 428.83Z" fill="white"/>
<path d="M433.86 399.69C431.011 400.037 428.13 400.037 425.28 399.69C428.13 399.343 431.011 399.343 433.86 399.69V399.69Z" fill="white"/>
<path d="M449.14 399.69C446.291 400.037 443.41 400.037 440.56 399.69C443.41 399.343 446.291 399.343 449.14 399.69V399.69Z" fill="white"/>
<path d="M464.46 399.69C461.614 400.037 458.736 400.037 455.89 399.69C458.736 399.343 461.614 399.343 464.46 399.69V399.69Z" fill="white"/>
<path d="M480.17 399.69C477.321 400.037 474.44 400.037 471.59 399.69C474.44 399.343 477.321 399.343 480.17 399.69V399.69Z" fill="white"/>
<path d="M495.68 399.69C492.831 400.037 489.95 400.037 487.1 399.69C489.95 399.343 492.831 399.343 495.68 399.69V399.69Z" fill="white"/>
<path d="M511.19 399.69C508.341 400.037 505.46 400.037 502.61 399.69C505.46 399.343 508.341 399.343 511.19 399.69V399.69Z" fill="white"/>
<path d="M433.86 370.62C431.011 370.967 428.13 370.967 425.28 370.62C428.13 370.273 431.011 370.273 433.86 370.62V370.62Z" fill="white"/>
<path d="M449.14 370.62C446.291 370.967 443.41 370.967 440.56 370.62C443.41 370.273 446.291 370.273 449.14 370.62V370.62Z" fill="white"/>
<path d="M464.46 370.62C461.614 370.967 458.736 370.967 455.89 370.62C458.736 370.273 461.614 370.273 464.46 370.62V370.62Z" fill="white"/>
<path d="M480.17 370.62C477.321 370.967 474.44 370.967 471.59 370.62C474.44 370.273 477.321 370.273 480.17 370.62V370.62Z" fill="white"/>
<path d="M495.68 370.62C492.831 370.967 489.95 370.967 487.1 370.62C489.95 370.273 492.831 370.273 495.68 370.62V370.62Z" fill="white"/>
<path d="M511.19 370.62C508.341 370.967 505.46 370.967 502.61 370.62C505.46 370.273 508.341 370.273 511.19 370.62V370.62Z" fill="white"/>
<path d="M433.86 341.28C431.011 341.627 428.13 341.627 425.28 341.28C428.13 340.933 431.011 340.933 433.86 341.28V341.28Z" fill="white"/>
<path d="M449.14 341.28C446.291 341.627 443.41 341.627 440.56 341.28C443.41 340.933 446.291 340.933 449.14 341.28V341.28Z" fill="white"/>
<path d="M464.46 341.28C461.614 341.627 458.736 341.627 455.89 341.28C458.736 340.933 461.614 340.933 464.46 341.28V341.28Z" fill="white"/>
<path d="M480.17 341.28C477.321 341.627 474.44 341.627 471.59 341.28C474.44 340.933 477.321 340.933 480.17 341.28V341.28Z" fill="white"/>
<path d="M495.68 341.28C492.831 341.627 489.95 341.627 487.1 341.28C489.95 340.933 492.831 340.933 495.68 341.28V341.28Z" fill="white"/>
<path d="M511.19 341.28C508.341 341.627 505.46 341.627 502.61 341.28C505.46 340.933 508.341 340.933 511.19 341.28V341.28Z" fill="white"/>
<path d="M399.83 367.49H323.81V472.62H399.83V367.49Z" fill="#FF9A6C"/>
<path d="M364.35 435.62H355.62V448.16H364.35V435.62Z" fill="#455A64"/>
<g opacity="0.3">
<path d="M355.62 435.62V437.17H362.88V448.16H364.35V435.62H355.62Z" fill="black"/>
</g>
<path d="M366.9 448.16H355.62V449.64H366.9V448.16Z" fill="white"/>
<path d="M364.35 455.42H355.62V467.96H364.35V455.42Z" fill="#455A64"/>
<g opacity="0.3">
<path d="M355.62 455.42V456.97H362.88V467.96H364.35V455.42H355.62Z" fill="black"/>
</g>
<path d="M366.9 467.96H355.62V469.44H366.9V467.96Z" fill="white"/>
<path d="M364.19 418.08H355.46V430.62H364.19V418.08Z" fill="#455A64"/>
<g opacity="0.3">
<path d="M355.46 418.08V419.63H362.71V430.62H364.19V418.08H355.46Z" fill="black"/>
</g>
<path d="M366.74 430.62H355.46V432.1H366.74V430.62Z" fill="white"/>
<path d="M364.02 400.54H355.29V413.08H364.02V400.54Z" fill="#455A64"/>
<g opacity="0.3">
<path d="M355.29 400.54V402.1H362.55V413.08H364.02V400.54H355.29Z" fill="black"/>
</g>
<path d="M366.57 413.08H355.29V414.56H366.57V413.08Z" fill="white"/>
<path d="M363.86 383H355.13V395.54H363.86V383Z" fill="#455A64"/>
<g opacity="0.3">
<path d="M355.13 383V384.56H362.39V395.54H363.86V383H355.13Z" fill="black"/>
</g>
<path d="M366.41 395.54H355.13V397.02H366.41V395.54Z" fill="white"/>
<path d="M386.9 435.62H378.17V448.16H386.9V435.62Z" fill="#455A64"/>
<g opacity="0.3">
<path d="M378.17 435.62V437.17H385.43V448.16H386.9V435.62H378.17Z" fill="black"/>
</g>
<path d="M389.45 448.16H378.17V449.64H389.45V448.16Z" fill="white"/>
<path d="M386.74 418.08H378.01V430.62H386.74V418.08Z" fill="#455A64"/>
<g opacity="0.3">
<path d="M378.01 418.08V419.63H385.26V430.62H386.74V418.08H378.01Z" fill="black"/>
</g>
<path d="M389.29 430.62H378.01V432.1H389.29V430.62Z" fill="white"/>
<path d="M386.57 400.54H377.84V413.08H386.57V400.54Z" fill="#455A64"/>
<g opacity="0.3">
<path d="M377.85 400.54V402.1H385.1V413.08H386.57V400.54H377.85Z" fill="black"/>
</g>
<path d="M389.12 413.08H377.84V414.56H389.12V413.08Z" fill="white"/>
<path d="M386.41 383H377.68V395.54H386.41V383Z" fill="#455A64"/>
<g opacity="0.3">
<path d="M377.68 383V384.56H384.94V395.54H386.41V383H377.68Z" fill="black"/>
</g>
<path d="M388.96 395.54H377.68V397.02H388.96V395.54Z" fill="white"/>
<path d="M333.29 382.04H330.23V394.58H333.29V382.04Z" fill="#263238"/>
<path d="M333.72 394.58H328.14V396.47H333.72V394.58Z" fill="white"/>
<path d="M333.29 401.28H330.23V413.82H333.29V401.28Z" fill="#263238"/>
<path d="M333.72 413.82H328.14V415.71H333.72V413.82Z" fill="white"/>
<path d="M333.29 420.52H330.23V433.06H333.29V420.52Z" fill="#263238"/>
<path d="M333.72 433.06H328.14V434.95H333.72V433.06Z" fill="white"/>
<path d="M333.29 439.76H330.23V452.3H333.29V439.76Z" fill="#263238"/>
<path d="M333.72 452.31H328.14V454.2H333.72V452.31Z" fill="white"/>
<path d="M333.29 457.2H330.23V469.74H333.29V457.2Z" fill="#263238"/>
<path d="M333.72 469.74H328.14V471.63H333.72V469.74Z" fill="white"/>
<path d="M401.84 362.22H322.4V367.5H401.84V362.22Z" fill="#EBEBEB"/>
<path d="M399.77 369.73H323.7V371.29H399.77V369.73Z" fill="#E0E0E0"/>
<path d="M389.35 453.25H377.29V472.62H389.35V453.25Z" fill="#E0E0E0"/>
<path d="M388.3 454.2H378.27V472.75H388.3V454.2Z" fill="#263238"/>
<g opacity="0.3">
<path d="M342.03 367.49H323.81V472.74H342.03V367.49Z" fill="black"/>
</g>
<g opacity="0.3">
<path d="M336.86 362.22H322.4V367.5H336.86V362.22Z" fill="black"/>
</g>
<path d="M245.59 328.78H131.8V472.74H245.59V328.78Z" fill="#FFBF9D"/>
<path d="M247.05 326.35H130.06V331.22H247.05V326.35Z" fill="#FF9A6C"/>
<path d="M245.59 339.54H131.8V343.55H245.59V339.54Z" fill="#FF9A6C"/>
<path d="M245.59 334.38H131.8V336.39H245.59V334.38Z" fill="#FF9A6C"/>
<path d="M236.15 342.93H209.77V446.49H236.15V342.93Z" fill="#FF9A6C"/>
<path d="M182.5 342.93H156.12V446.49H182.5V342.93Z" fill="#FF9A6C"/>
<path d="M247.04 446.49H131.8V450.5H247.04V446.49Z" fill="#FF9A6C"/>
<path d="M204.61 452.51H184.54V472.58H204.61V452.51Z" fill="#FF9A6C"/>
<path d="M221.52 453.95H212.79V466.49H221.52V453.95Z" fill="#455A64"/>
<g opacity="0.3">
<path d="M212.79 453.95V455.5H220.05V466.49H221.52V453.95H212.79Z" fill="black"/>
</g>
<path d="M224.07 466.49H212.79V467.97H224.07V466.49Z" fill="white"/>
<path d="M241.13 453.95H232.4V466.49H241.13V453.95Z" fill="#455A64"/>
<g opacity="0.3">
<path d="M232.4 453.95V455.5H239.66V466.49H241.13V453.95H232.4Z" fill="black"/>
</g>
<path d="M243.68 466.49H232.4V467.97H243.68V466.49Z" fill="white"/>
<path d="M146.84 453.95H138.11V466.49H146.84V453.95Z" fill="#455A64"/>
<g opacity="0.3">
<path d="M138.11 453.95V455.5H145.37V466.49H146.84V453.95H138.11Z" fill="black"/>
</g>
<path d="M149.39 466.49H138.11V467.97H149.39V466.49Z" fill="white"/>
<path d="M173.87 454.97H165.14V467.51H173.87V454.97Z" fill="#455A64"/>
<g opacity="0.3">
<path d="M165.14 454.97V456.52H172.39V467.51H173.86V454.97H165.14Z" fill="black"/>
</g>
<path d="M176.42 467.51H165.14V468.99H176.42V467.51Z" fill="white"/>
<path d="M200.5 426.94H191.77V439.48H200.5V426.94Z" fill="#455A64"/>
<g opacity="0.3">
<path d="M191.77 426.94V428.5H199.03V439.48H200.5V426.94H191.77Z" fill="black"/>
</g>
<path d="M200.5 402.08H191.77V414.62H200.5V402.08Z" fill="#455A64"/>
<g opacity="0.3">
<path d="M191.77 402.08V403.64H199.03V414.62H200.5V402.08H191.77Z" fill="black"/>
</g>
<path d="M200.5 377.22H191.77V389.76H200.5V377.22Z" fill="#455A64"/>
<g opacity="0.3">
<path d="M191.77 377.22V378.78H199.03V389.77H200.5V377.22H191.77Z" fill="black"/>
</g>
<path d="M200.5 352.37H191.77V364.91H200.5V352.37Z" fill="#455A64"/>
<g opacity="0.3">
<path d="M200.5 352.37H191.77V364.91H200.5V352.37Z" fill="white"/>
</g>
<g opacity="0.3">
<path d="M191.77 352.37V353.92H199.03V364.91H200.5V352.37H191.77Z" fill="black"/>
</g>
<path d="M173.68 427.18H164.95V439.72H173.68V427.18Z" fill="#455A64"/>
<g opacity="0.3">
<path d="M164.95 427.18V428.73H172.21V439.72H173.68V427.18H164.95Z" fill="black"/>
</g>
<path d="M173.68 402.32H164.95V414.86H173.68V402.32Z" fill="#455A64"/>
<g opacity="0.3">
<path d="M164.95 402.32V403.87H172.21V414.86H173.68V402.32H164.95Z" fill="black"/>
</g>
<path d="M173.68 377.46H164.95V390H173.68V377.46Z" fill="#455A64"/>
<g opacity="0.3">
<path d="M173.68 377.46H164.95V390H173.68V377.46Z" fill="white"/>
</g>
<g opacity="0.3">
<path d="M164.95 377.46V379.01H172.21V390H173.68V377.46H164.95Z" fill="black"/>
</g>
<path d="M173.68 352.6H164.95V365.14H173.68V352.6Z" fill="#455A64"/>
<g opacity="0.3">
<path d="M173.68 352.6H164.95V365.14H173.68V352.6Z" fill="white"/>
</g>
<g opacity="0.3">
<path d="M164.95 352.6V354.16H172.21V365.14H173.68V352.6H164.95Z" fill="black"/>
</g>
<path d="M228.44 427.17H219.71V439.71H228.44V427.17Z" fill="#455A64"/>
<g opacity="0.3">
<path d="M219.71 427.17V428.72H226.96V439.71H228.43V427.17H219.71Z" fill="black"/>
</g>
<path d="M228.44 402.31H219.71V414.85H228.44V402.31Z" fill="#455A64"/>
<g opacity="0.3">
<path d="M219.71 402.31V403.86H226.96V414.85H228.43V402.31H219.71Z" fill="black"/>
</g>
<path d="M228.44 377.45H219.71V389.99H228.44V377.45Z" fill="#455A64"/>
<g opacity="0.3">
<path d="M228.44 377.45H219.71V389.99H228.44V377.45Z" fill="white"/>
</g>
<g opacity="0.3">
<path d="M219.71 377.45V379H226.96V389.99H228.43V377.45H219.71Z" fill="black"/>
</g>
<path d="M228.44 352.59H219.71V365.13H228.44V352.59Z" fill="#455A64"/>
<g opacity="0.3">
<path d="M228.44 352.59H219.71V365.13H228.44V352.59Z" fill="white"/>
</g>
<g opacity="0.3">
<path d="M219.71 352.59V354.15H226.96V365.13H228.43V352.59H219.71Z" fill="black"/>
</g>
<path d="M142.01 353.33H138.95V365.87H142.01V353.33Z" fill="#263238"/>
<path d="M142.44 365.87H136.86V367.76H142.44V365.87Z" fill="white"/>
<path d="M142.01 377.22H138.95V389.76H142.01V377.22Z" fill="#263238"/>
<path d="M142.44 389.77H136.86V391.66H142.44V389.77Z" fill="white"/>
<path d="M142.01 401.12H138.95V413.66H142.01V401.12Z" fill="#263238"/>
<path d="M142.44 413.66H136.86V415.55H142.44V413.66Z" fill="white"/>
<path d="M142.01 425.01H138.95V437.55H142.01V425.01Z" fill="#263238"/>
<path d="M142.44 437.55H136.86V439.44H142.44V437.55Z" fill="white"/>
<g opacity="0.3">
<path d="M152.54 331.22H131.8V472.74H152.54V331.22Z" fill="black"/>
</g>
<path d="M202.68 454.46H186.77V472.57H202.68V454.46Z" fill="#263238"/>
<g opacity="0.3">
<path d="M149.16 326.35H130.06V331.22H149.16V326.35Z" fill="black"/>
</g>
<path d="M173.46 365.47C172.045 365.726 170.605 365.814 169.17 365.73C167.735 365.814 166.295 365.726 164.88 365.47C166.294 365.208 167.735 365.12 169.17 365.21C170.605 365.12 172.046 365.208 173.46 365.47V365.47Z" fill="white"/>
<path d="M200.67 365.14C199.257 365.409 197.816 365.5 196.38 365.41C194.944 365.5 193.503 365.409 192.09 365.14C193.504 364.884 194.945 364.796 196.38 364.88C197.815 364.796 199.255 364.884 200.67 365.14Z" fill="white"/>
<path d="M228.6 365.37C225.754 365.717 222.876 365.717 220.03 365.37C222.876 365.023 225.754 365.023 228.6 365.37V365.37Z" fill="white"/>
<path d="M228.6 390.23C225.754 390.577 222.876 390.577 220.03 390.23C222.876 389.883 225.754 389.883 228.6 390.23V390.23Z" fill="white"/>
<path d="M200.13 389.77C198.716 390.026 197.276 390.114 195.84 390.03C194.405 390.114 192.965 390.026 191.55 389.77C192.964 389.508 194.405 389.42 195.84 389.51C197.276 389.42 198.716 389.508 200.13 389.77Z" fill="white"/>
<path d="M200.13 414.61C198.716 414.866 197.276 414.954 195.84 414.87C194.405 414.954 192.965 414.866 191.55 414.61C192.964 414.348 194.405 414.26 195.84 414.35C197.276 414.26 198.716 414.348 200.13 414.61Z" fill="white"/>
<path d="M228.72 414.85C225.874 415.197 222.996 415.197 220.15 414.85C222.996 414.503 225.874 414.503 228.72 414.85V414.85Z" fill="white"/>
<path d="M172.87 414.59C171.456 414.852 170.016 414.94 168.58 414.85C167.148 414.939 165.711 414.852 164.3 414.59C165.712 414.334 167.148 414.247 168.58 414.33C170.016 414.246 171.456 414.334 172.87 414.59V414.59Z" fill="white"/>
<path d="M173.69 439.72C172.275 439.976 170.835 440.064 169.4 439.98C167.965 440.064 166.525 439.976 165.11 439.72C166.525 439.464 167.965 439.376 169.4 439.46C170.835 439.376 172.275 439.464 173.69 439.72Z" fill="white"/>
<path d="M200.18 439.47C198.769 439.732 197.332 439.819 195.9 439.73C194.465 439.82 193.024 439.732 191.61 439.47C193.025 439.214 194.465 439.126 195.9 439.21C197.332 439.127 198.769 439.214 200.18 439.47V439.47Z" fill="white"/>
<path d="M228.26 439.72C225.411 440.067 222.53 440.067 219.68 439.72C222.53 439.373 225.411 439.373 228.26 439.72V439.72Z" fill="white"/>
<path d="M173.46 390C172.046 390.262 170.605 390.35 169.17 390.26C167.735 390.35 166.294 390.262 164.88 390C166.295 389.744 167.735 389.656 169.17 389.74C170.605 389.656 172.045 389.744 173.46 390Z" fill="white"/>
<path d="M110.8 456.02C110.338 453.626 109.648 451.282 108.74 449.02C108.111 447.806 107.173 446.78 106.022 446.043C104.871 445.305 103.546 444.884 102.18 444.82V444.82H101.83H101.47C100.104 444.882 98.7785 445.303 97.6268 446.04C96.4751 446.777 95.5382 447.805 94.9103 449.02C93.9979 451.281 93.308 453.625 92.8503 456.02C91.9331 458.934 91.4381 461.965 91.3803 465.02C91.3565 466.456 91.6385 467.881 92.2074 469.2C92.7764 470.519 93.6193 471.702 94.6803 472.67C96.5003 474.24 99.1403 474.61 101.83 474.56C104.73 474.5 107.15 474.24 108.98 472.67C110.037 471.699 110.877 470.515 111.446 469.197C112.015 467.879 112.299 466.455 112.28 465.02C112.21 461.966 111.712 458.936 110.8 456.02V456.02Z" fill="#455A64"/>
<path d="M331.73 456.02C331.272 453.625 330.583 451.281 329.67 449.02C329.042 447.805 328.105 446.777 326.954 446.04C325.802 445.303 324.476 444.882 323.11 444.82V444.82H322.75H322.39C321.025 444.884 319.7 445.305 318.548 446.043C317.397 446.78 316.46 447.806 315.83 449.02C314.922 451.282 314.233 453.626 313.77 456.02C312.862 458.937 312.367 461.966 312.3 465.02C312.282 466.455 312.566 467.879 313.134 469.197C313.703 470.515 314.543 471.699 315.6 472.67C317.43 474.24 320.07 474.61 322.75 474.56C325.65 474.5 328.07 474.24 329.9 472.67C330.959 471.7 331.801 470.517 332.369 469.198C332.938 467.88 333.221 466.456 333.2 465.02C333.142 461.965 332.647 458.934 331.73 456.02Z" fill="#455A64"/>
<path d="M129.37 440.41C126.83 440.67 123.01 459.6 121.45 467.92C121.243 469.07 121.468 470.255 122.083 471.249C122.698 472.242 123.659 472.973 124.78 473.3C128.207 474.432 131.892 474.523 135.37 473.56C136.516 473.225 137.491 472.465 138.095 471.436C138.7 470.406 138.887 469.184 138.62 468.02C136.74 459.86 131.9 440.15 129.37 440.41Z" fill="#455A64"/>
<path d="M141.18 455.91C139.81 456.05 137.74 466.3 136.9 470.8C136.788 471.422 136.91 472.063 137.243 472.6C137.575 473.137 138.094 473.532 138.7 473.71C140.555 474.319 142.548 474.368 144.43 473.85C145.052 473.67 145.58 473.258 145.908 472.7C146.235 472.142 146.336 471.48 146.19 470.85C145.17 466.47 142.55 455.77 141.18 455.91Z" fill="#455A64"/>
<path d="M399.28 439.71C396.75 439.96 392.93 458.9 391.37 467.22C391.16 468.37 391.385 469.557 392 470.551C392.615 471.544 393.577 472.275 394.7 472.6C398.123 473.733 401.805 473.823 405.28 472.86C406.427 472.525 407.403 471.766 408.008 470.736C408.614 469.707 408.804 468.485 408.54 467.32C406.65 459.16 401.81 439.47 399.28 439.71Z" fill="#455A64"/>
<path d="M410.46 455.09C409.09 455.23 407.02 465.48 406.18 469.98C406.068 470.602 406.19 471.243 406.522 471.78C406.855 472.317 407.374 472.712 407.98 472.89C409.834 473.505 411.829 473.554 413.71 473.03C414.331 472.85 414.86 472.438 415.187 471.88C415.515 471.322 415.616 470.66 415.47 470.03C414.46 465.62 411.8 454.95 410.46 455.09Z" fill="#455A64"/>
<path d="M518.61 443.26C516.08 443.5 512.26 461.17 510.7 468.92C510.518 470.02 510.761 471.149 511.379 472.077C511.997 473.005 512.945 473.664 514.03 473.92C517.466 474.979 521.128 475.066 524.61 474.17C525.723 473.908 526.688 473.219 527.298 472.252C527.907 471.285 528.113 470.117 527.87 469C525.98 461.41 521.15 443.02 518.61 443.26Z" fill="#455A64"/>
<path d="M602.72 455.28C601.35 455.41 599.29 465.66 598.44 470.16C598.326 470.783 598.449 471.426 598.783 471.964C599.118 472.502 599.641 472.896 600.25 473.07C602.1 473.687 604.091 473.739 605.97 473.22C606.59 473.038 607.117 472.626 607.444 472.069C607.771 471.511 607.873 470.85 607.73 470.22C606.71 465.8 604.1 455.14 602.72 455.28Z" fill="#455A64"/>
<path d="M613.69 439.73C611.16 439.98 607.33 458.92 605.77 467.24C605.563 468.391 605.79 469.578 606.407 470.571C607.024 471.565 607.987 472.295 609.11 472.62C612.533 473.753 616.216 473.843 619.69 472.88C620.837 472.545 621.813 471.786 622.419 470.756C623.024 469.727 623.214 468.505 622.95 467.34C621.06 459.18 616.22 439.47 613.69 439.73Z" fill="#455A64"/>
<path d="M625.22 455.22C623.85 455.36 621.78 465.61 620.94 470.11C620.826 470.732 620.947 471.374 621.28 471.912C621.612 472.449 622.133 472.844 622.74 473.02C624.595 473.629 626.588 473.678 628.47 473.16C629.09 472.978 629.617 472.566 629.944 472.009C630.271 471.451 630.373 470.79 630.23 470.16C629.21 465.75 626.59 455.08 625.22 455.22Z" fill="#455A64"/>
<path d="M120.33 458.38C119.17 458.5 117.42 467.16 116.71 470.97C116.612 471.496 116.714 472.039 116.995 472.494C117.276 472.949 117.716 473.282 118.23 473.43C119.796 473.948 121.481 473.99 123.07 473.55C123.595 473.396 124.041 473.047 124.318 472.575C124.595 472.103 124.682 471.544 124.56 471.01C123.7 467.28 121.46 458.26 120.33 458.38Z" fill="#455A64"/>
<path d="M50.7299 440.41C48.1999 440.67 44.3699 459.6 42.8099 467.92C42.6031 469.071 42.83 470.258 43.4468 471.251C44.0636 472.245 45.0266 472.975 46.1499 473.3C49.573 474.433 53.2554 474.523 56.7299 473.56C57.8766 473.225 58.8525 472.466 59.4583 471.436C60.0641 470.407 60.2543 469.185 59.9899 468.02C58.0999 459.86 53.2599 440.15 50.7299 440.41Z" fill="#455A64"/>
<path d="M62.5402 455.91C61.1702 456.05 59.1102 466.3 58.2602 470.8C58.1483 471.422 58.2703 472.063 58.6026 472.6C58.9349 473.137 59.454 473.532 60.0602 473.71C61.9148 474.319 63.908 474.368 65.7902 473.85C66.4115 473.67 66.9401 473.258 67.2674 472.7C67.5948 472.142 67.696 471.48 67.5502 470.85C66.5302 466.47 63.9202 455.77 62.5402 455.91Z" fill="#455A64"/>
<path d="M41.6901 458.38C40.5301 458.5 38.7801 467.16 38.0701 470.97C37.9612 471.502 38.0574 472.055 38.3393 472.518C38.6212 472.982 39.068 473.322 39.5901 473.47C41.1595 473.988 42.8471 474.03 44.4401 473.59C44.9637 473.434 45.4086 473.085 45.685 472.613C45.9615 472.142 46.0491 471.583 45.9301 471.05C45.0601 467.28 42.8501 458.26 41.6901 458.38Z" fill="#455A64"/>
<path d="M180.34 456.07C178.99 456.21 176.96 466.28 176.13 470.7C176.023 471.311 176.145 471.939 176.471 472.467C176.797 472.994 177.306 473.383 177.9 473.56C179.722 474.162 181.682 474.207 183.53 473.69C184.14 473.514 184.659 473.112 184.981 472.565C185.303 472.018 185.403 471.368 185.26 470.75C184.26 466.41 181.69 455.93 180.34 456.07Z" fill="#455A64"/>
<path d="M208.95 455.89C207.57 456.03 205.5 466.3 204.65 470.81C204.538 471.434 204.661 472.078 204.995 472.617C205.33 473.156 205.851 473.552 206.46 473.73C208.317 474.344 210.315 474.393 212.2 473.87C212.821 473.688 213.349 473.276 213.677 472.719C214.006 472.162 214.11 471.501 213.97 470.87C212.94 466.47 210.32 455.75 208.95 455.89Z" fill="#455A64"/>
<g clip-path="url(#clip1_401_2)">
<path d="M534.925 125.972C534.245 125.816 533.533 125.887 532.896 126.173C532.259 126.459 531.732 126.944 531.395 127.557C531.057 128.169 530.928 128.875 531.025 129.567C531.123 130.26 531.443 130.902 531.936 131.396H531.983L538.041 137.475L547.599 127.903L534.949 125.885C534.932 125.91 534.924 125.941 534.925 125.972V125.972Z" fill="#455A64" fill-opacity="0.5"/>
<path d="M569.783 160.553H569.846L567.926 148.411L558.415 157.943L564.244 163.778C564.244 163.778 564.244 163.778 564.244 163.738C564.72 164.355 565.402 164.777 566.165 164.927C566.927 165.077 567.718 164.945 568.391 164.555C569.064 164.165 569.572 163.544 569.822 162.806C570.072 162.069 570.047 161.265 569.751 160.545L569.783 160.553Z" fill="#455A64" fill-opacity="0.5"/>
<path d="M558.982 139.604L556.331 136.947C555.897 136.516 555.313 136.27 554.702 136.261C554.09 136.265 553.503 136.509 553.066 136.939L548.189 141.835L547.449 142.576C547.233 142.789 547.062 143.043 546.946 143.324C546.83 143.604 546.771 143.905 546.773 144.208C546.772 144.513 546.832 144.815 546.948 145.096C547.064 145.378 547.234 145.633 547.449 145.848L550.1 148.506C550.537 148.936 551.124 149.179 551.737 149.184C552.039 149.185 552.34 149.126 552.619 149.01C552.899 148.893 553.153 148.722 553.365 148.506L558.99 142.876C559.419 142.438 559.662 141.85 559.666 141.236C559.657 140.624 559.412 140.039 558.982 139.604V139.604Z" fill="#455A64" fill-opacity="0.5"/>
<path d="M582.794 131.12L589.685 110.4C589.787 110.181 589.861 109.951 589.906 109.714V109.714C590.009 109.2 589.982 108.668 589.826 108.167C589.67 107.666 589.39 107.213 589.012 106.85C588.635 106.487 588.172 106.225 587.667 106.089C587.162 105.952 586.63 105.946 586.122 106.071H586.082C585.929 106.109 585.779 106.159 585.634 106.221L565.488 112.875C564.765 113.014 564.096 113.355 563.56 113.861L549.306 128.179L539.024 138.516L537.286 140.25C536.565 140.987 536.161 141.978 536.161 143.01C536.161 144.042 536.565 145.033 537.286 145.77L539.646 148.135L539.048 149.302L546.568 156.839L547.732 156.24L550.163 158.677C550.898 159.399 551.887 159.804 552.917 159.804C553.946 159.804 554.935 159.399 555.67 158.677L557.408 156.934L567.635 146.684L581.976 132.311C582.32 131.968 582.598 131.565 582.794 131.12V131.12ZM554.089 149.255C553.779 149.565 553.411 149.812 553.006 149.98C552.601 150.149 552.167 150.235 551.729 150.235C551.29 150.235 550.856 150.149 550.451 149.98C550.046 149.812 549.678 149.565 549.369 149.255L546.718 146.597C546.407 146.288 546.16 145.919 545.991 145.513C545.823 145.107 545.736 144.672 545.736 144.232C545.736 143.792 545.823 143.357 545.991 142.951C546.16 142.545 546.407 142.177 546.718 141.867L547.457 141.078L552.342 136.19C552.652 135.878 553.019 135.631 553.424 135.462C553.829 135.293 554.264 135.206 554.702 135.206C555.141 135.206 555.575 135.293 555.98 135.462C556.385 135.631 556.753 135.878 557.062 136.19L559.713 138.847C560.024 139.157 560.271 139.525 560.44 139.931C560.608 140.337 560.695 140.773 560.695 141.212C560.695 141.652 560.608 142.087 560.44 142.493C560.271 142.899 560.024 143.268 559.713 143.578L554.089 149.255ZM564.15 131.79C563.313 130.951 562.742 129.882 562.511 128.718C562.28 127.554 562.398 126.348 562.851 125.251C563.304 124.155 564.072 123.217 565.056 122.558C566.041 121.899 567.198 121.547 568.382 121.547C569.567 121.547 570.724 121.899 571.709 122.558C572.693 123.217 573.46 124.155 573.913 125.251C574.367 126.348 574.485 127.554 574.254 128.718C574.023 129.882 573.452 130.951 572.615 131.79C571.489 132.912 569.965 133.539 568.378 133.535C566.79 133.531 565.27 132.895 564.15 131.767V131.79Z" fill="#455A64" fill-opacity="0.5"/>
</g>
<g clip-path="url(#clip2_401_2)">
<path d="M19.1754 85.9456C17.065 85.4641 14.8555 85.6832 12.8802 86.5701C10.9049 87.457 9.27087 88.9634 8.22441 90.8624C7.17795 92.7614 6.7758 94.9498 7.07865 97.0978C7.3815 99.2458 8.37293 101.237 9.9034 102.771H10.0498L28.8378 121.626L58.4838 91.9372L19.2486 85.6766C19.1958 85.7559 19.1701 85.8504 19.1754 85.9456V85.9456Z" fill="#CB4330"/>
<path d="M127.292 193.207H127.487L121.534 155.546L92.0342 185.112L110.115 203.209C110.115 203.209 110.115 203.209 110.115 203.087C111.589 204.998 113.705 206.308 116.07 206.774C118.436 207.24 120.889 206.83 122.976 205.62C125.062 204.41 126.639 202.483 127.415 200.196C128.191 197.908 128.113 195.416 127.195 193.183L127.292 193.207Z" fill="#CB4330"/>
<path d="M93.7908 128.229L85.568 119.988C84.2227 118.65 82.4121 117.887 80.5172 117.86C78.6173 117.874 76.7973 118.628 75.442 119.963L60.314 135.15L58.0204 137.449C57.3508 138.109 56.8201 138.897 56.4597 139.767C56.0992 140.636 55.9164 141.569 55.922 142.511C55.92 143.456 56.1043 144.391 56.4644 145.264C56.8246 146.137 57.3534 146.93 58.0204 147.598L66.2432 155.839C67.5985 157.174 69.4184 157.928 71.3184 157.942C72.2578 157.948 73.1888 157.765 74.0563 157.404C74.9239 157.042 75.7103 156.51 76.3692 155.839L93.8152 138.378C95.1468 137.02 95.8993 135.196 95.9136 133.291C95.8865 131.392 95.1255 129.577 93.7908 128.229V128.229Z" fill="#CB4330"/>
<path d="M167.65 101.915L189.024 37.6461C189.339 36.968 189.568 36.2533 189.707 35.5184V35.5184C190.029 33.9239 189.944 32.2739 189.46 30.7212C188.975 29.1685 188.108 27.7635 186.937 26.6366C185.767 25.5097 184.331 24.6974 182.763 24.2749C181.196 23.8525 179.548 23.8336 177.971 24.22H177.849C177.374 24.338 176.909 24.4934 176.458 24.6847L113.97 45.3251C111.728 45.7537 109.654 46.8142 107.992 48.382L63.779 92.7931L31.8881 124.854L26.4958 130.234C24.2604 132.52 23.0083 135.593 23.0083 138.794C23.0083 141.994 24.2604 145.067 26.4958 147.353L33.8158 154.69L31.9613 158.309L55.2877 181.689L58.899 179.83L66.4386 187.387C68.7191 189.627 71.7852 190.882 74.9786 190.882C78.1719 190.882 81.238 189.627 83.5186 187.387L88.911 181.982L120.631 150.19L165.112 105.608C166.181 104.546 167.041 103.294 167.65 101.915V101.915ZM78.6142 158.162C77.6533 159.127 76.5123 159.892 75.2562 160.414C74.0002 160.935 72.6539 161.204 71.2942 161.204C69.9345 161.204 68.5881 160.935 67.3321 160.414C66.0761 159.892 64.935 159.127 63.9742 158.162L55.7513 149.921C54.7864 148.96 54.0206 147.816 53.4981 146.557C52.9755 145.298 52.7065 143.948 52.7065 142.584C52.7065 141.221 52.9755 139.87 53.4981 138.611C54.0206 137.352 54.7864 136.209 55.7513 135.248L58.045 132.802L73.1974 117.64C74.1566 116.673 75.2971 115.905 76.5533 115.381C77.8096 114.858 79.1568 114.588 80.5174 114.588C81.878 114.588 83.2251 114.858 84.4814 115.381C85.7376 115.905 86.8782 116.673 87.8374 117.64L96.0602 125.881C97.0251 126.843 97.7909 127.986 98.3135 129.245C98.836 130.504 99.1051 131.854 99.1051 133.218C99.1051 134.582 98.836 135.932 98.3135 137.191C97.7909 138.45 97.0251 139.593 96.0602 140.555L78.6142 158.162ZM109.822 103.994C107.224 101.391 105.455 98.0752 104.738 94.4649C104.021 90.8545 104.388 87.1122 105.793 83.7111C107.198 80.31 109.578 77.4031 112.632 75.3578C115.686 73.3125 119.276 72.2208 122.949 72.2208C126.622 72.2208 130.212 73.3125 133.266 75.3578C136.32 77.4031 138.699 80.31 140.105 83.7111C141.51 87.1122 141.877 90.8545 141.16 94.4649C140.443 98.0752 138.674 101.391 136.076 103.994C132.584 107.472 127.857 109.419 122.934 109.405C118.01 109.392 113.294 107.419 109.822 103.92V103.994Z" fill="#CB4330"/>
</g>
</g>
<defs>
<clipPath id="clip0_401_2">
<rect width="722.91" height="474.8" fill="white"/>
</clipPath>
<clipPath id="clip1_401_2">
<rect width="59" height="59" fill="white" transform="translate(531 106)"/>
</clipPath>
<clipPath id="clip2_401_2">
<rect width="183" height="183" fill="white" transform="translate(7 24)"/>
</clipPath>
</defs>
</svg>
