<svg width="431" height="428" viewBox="0 0 431 428" fill="none" xmlns="http://www.w3.org/2000/svg">
<g clip-path="url(#clip0_401_4626)">
<path d="M82.1301 193.97L85.8301 201.48C85.9262 201.671 86.0675 201.836 86.2418 201.959C86.4162 202.083 86.6181 202.162 86.8301 202.19L95.1101 203.39C95.3506 203.425 95.5767 203.526 95.7625 203.682C95.9484 203.839 96.0867 204.045 96.1616 204.276C96.2366 204.507 96.2453 204.754 96.1867 204.99C96.1281 205.226 96.0045 205.441 95.8301 205.61L89.8301 211.45C89.6778 211.596 89.5642 211.777 89.4996 211.978C89.435 212.179 89.4214 212.393 89.4601 212.6L90.8701 220.85C90.9102 221.088 90.8831 221.333 90.7919 221.557C90.7007 221.78 90.5489 221.974 90.3537 222.116C90.1585 222.259 89.9275 222.344 89.6866 222.362C89.4458 222.38 89.2046 222.331 88.9901 222.22L81.5801 218.33C81.3935 218.232 81.1859 218.181 80.9751 218.181C80.7643 218.181 80.5566 218.232 80.3701 218.33L72.9601 222.22C72.7456 222.331 72.5044 222.38 72.2635 222.362C72.0227 222.344 71.7917 222.259 71.5964 222.116C71.4012 221.974 71.2495 221.78 71.1583 221.557C71.0671 221.333 71.04 221.088 71.0801 220.85L72.4901 212.6C72.5244 212.393 72.5087 212.18 72.4443 211.98C72.38 211.78 72.2688 211.598 72.1201 211.45L66.1201 205.61C65.9456 205.441 65.8221 205.226 65.7635 204.99C65.7049 204.754 65.7135 204.507 65.7885 204.276C65.8635 204.045 66.0017 203.839 66.1876 203.682C66.3735 203.526 66.5995 203.425 66.8401 203.39L75.1301 202.19C75.3423 202.163 75.5446 202.084 75.7191 201.96C75.8935 201.837 76.0347 201.672 76.1301 201.48L79.8401 193.97C79.9513 193.763 80.1165 193.59 80.3181 193.47C80.5197 193.349 80.7502 193.286 80.9851 193.286C81.22 193.286 81.4504 193.349 81.652 193.47C81.8537 193.59 82.0188 193.763 82.1301 193.97Z" fill="#E0E0E0"/>
<path d="M48.2099 150.59L50.7699 155.78C50.8328 155.912 50.9281 156.027 51.047 156.112C51.1659 156.198 51.3045 156.252 51.4499 156.27L57.1799 157.11C57.3451 157.135 57.5002 157.205 57.6279 157.313C57.7555 157.421 57.8506 157.562 57.9025 157.721C57.9544 157.879 57.961 158.049 57.9217 158.212C57.8824 158.374 57.7987 158.522 57.6799 158.64L53.5299 162.64C53.4254 162.743 53.3472 162.869 53.3019 163.008C53.2566 163.147 53.2457 163.296 53.2699 163.44L54.2699 169.14C54.2978 169.305 54.2792 169.474 54.2163 169.629C54.1533 169.784 54.0485 169.918 53.9135 170.017C53.7785 170.115 53.6188 170.175 53.4521 170.187C53.2854 170.2 53.1184 170.167 52.9699 170.09L47.8399 167.4C47.7107 167.331 47.5664 167.295 47.4199 167.295C47.2734 167.295 47.1291 167.331 46.9999 167.4L41.8799 170.09C41.731 170.169 41.5628 170.205 41.3945 170.194C41.2262 170.182 41.0645 170.124 40.9279 170.024C40.7913 169.925 40.6853 169.79 40.622 169.634C40.5587 169.477 40.5407 169.306 40.5699 169.14L41.5699 163.44C41.5968 163.296 41.5871 163.147 41.5417 163.007C41.4963 162.867 41.4166 162.741 41.3099 162.64L37.1299 158.66C37.0111 158.542 36.9274 158.394 36.8881 158.232C36.8487 158.069 36.8554 157.899 36.9073 157.741C36.9592 157.582 37.0543 157.441 37.1819 157.333C37.3095 157.225 37.4646 157.155 37.6299 157.13L43.3599 156.29C43.5035 156.271 43.6401 156.216 43.7571 156.13C43.8741 156.044 43.9679 155.931 44.0299 155.8L46.5999 150.61C46.6728 150.46 46.7861 150.332 46.9272 150.243C47.0683 150.153 47.2316 150.104 47.3987 150.102C47.5659 150.1 47.7303 150.145 47.8736 150.231C48.0168 150.317 48.1333 150.441 48.2099 150.59V150.59Z" fill="#E0E0E0"/>
<path d="M233.61 16.43L235.38 20.03C235.426 20.1196 235.493 20.1972 235.574 20.2563C235.656 20.3154 235.75 20.3543 235.85 20.37L239.85 20.94C239.965 20.9574 240.074 21.0065 240.163 21.0819C240.252 21.1574 240.319 21.2561 240.355 21.3671C240.391 21.478 240.396 21.5969 240.368 21.7105C240.341 21.824 240.283 21.9277 240.2 22.01L237.32 24.81C237.249 24.8811 237.197 24.9682 237.167 25.064C237.138 25.1598 237.132 25.2614 237.15 25.36L237.82 29.36C237.841 29.4745 237.829 29.5927 237.786 29.701C237.743 29.8092 237.671 29.9032 237.577 29.9721C237.483 30.0409 237.371 30.082 237.255 30.0904C237.139 30.0989 237.023 30.0745 236.92 30.02L233.37 28.15C233.28 28.1058 233.18 28.0828 233.08 28.0828C232.979 28.0828 232.88 28.1058 232.79 28.15L229.24 30.02C229.136 30.0732 229.02 30.0967 228.904 30.0878C228.788 30.0789 228.676 30.038 228.582 29.9696C228.488 29.9012 228.414 29.808 228.37 29.7004C228.325 29.5928 228.312 29.475 228.33 29.36L229.01 25.36C229.029 25.2605 229.022 25.158 228.991 25.0618C228.959 24.9657 228.904 24.879 228.83 24.81L225.96 22.01C225.877 21.9283 225.819 21.8254 225.791 21.7126C225.763 21.5998 225.767 21.4815 225.802 21.3708C225.837 21.26 225.902 21.1612 225.99 21.0852C226.078 21.0091 226.185 20.9589 226.3 20.94L230.3 20.37C230.398 20.3544 230.491 20.3154 230.571 20.2562C230.652 20.197 230.716 20.1194 230.76 20.03L232.54 16.43C232.595 16.3366 232.673 16.2592 232.767 16.2054C232.86 16.1516 232.967 16.1233 233.075 16.1233C233.183 16.1233 233.289 16.1516 233.383 16.2054C233.477 16.2592 233.555 16.3366 233.61 16.43V16.43Z" fill="#E0E0E0"/>
<path d="M388.65 201.93L390.43 205.52C390.473 205.613 390.538 205.694 390.62 205.755C390.703 205.816 390.799 205.856 390.9 205.87L394.9 206.44C395.015 206.457 395.123 206.506 395.211 206.58C395.299 206.655 395.365 206.754 395.4 206.864C395.436 206.974 395.44 207.093 395.411 207.205C395.383 207.317 395.324 207.42 395.24 207.5L392.37 210.31C392.297 210.38 392.242 210.466 392.211 210.562C392.179 210.658 392.172 210.761 392.19 210.86L392.87 214.86C392.889 214.975 392.875 215.093 392.83 215.2C392.786 215.308 392.712 215.401 392.618 215.47C392.524 215.538 392.412 215.579 392.296 215.588C392.18 215.597 392.064 215.573 391.96 215.52L388.41 213.65C388.32 213.606 388.221 213.583 388.12 213.583C388.02 213.583 387.92 213.606 387.83 213.65L384.28 215.52C384.177 215.575 384.061 215.599 383.945 215.59C383.829 215.582 383.717 215.541 383.623 215.472C383.529 215.403 383.457 215.309 383.414 215.201C383.371 215.093 383.359 214.975 383.38 214.86L384.06 210.86C384.075 210.761 384.067 210.659 384.036 210.563C384.005 210.468 383.951 210.381 383.88 210.31L381 207.5C380.916 207.419 380.857 207.316 380.829 207.203C380.802 207.09 380.806 206.971 380.843 206.86C380.879 206.75 380.946 206.651 381.036 206.577C381.126 206.503 381.235 206.455 381.35 206.44L385.35 205.87C385.451 205.854 385.546 205.814 385.628 205.753C385.71 205.692 385.776 205.612 385.82 205.52L387.59 201.93C387.645 201.839 387.723 201.764 387.816 201.711C387.909 201.659 388.014 201.632 388.12 201.632C388.227 201.632 388.331 201.659 388.424 201.711C388.517 201.764 388.595 201.839 388.65 201.93V201.93Z" fill="#E0E0E0"/>
<path d="M347.6 185.35L350.53 191.29C350.601 191.44 350.709 191.57 350.844 191.668C350.978 191.765 351.135 191.828 351.3 191.85L357.85 192.8C358.045 192.817 358.231 192.891 358.385 193.013C358.538 193.135 358.653 193.3 358.714 193.486C358.774 193.673 358.779 193.873 358.727 194.062C358.674 194.252 358.568 194.421 358.42 194.55L353.68 199.17C353.562 199.287 353.473 199.431 353.421 199.589C353.369 199.747 353.355 199.915 353.38 200.08L354.5 206.61C354.544 206.801 354.53 207.001 354.461 207.185C354.392 207.368 354.271 207.527 354.112 207.643C353.953 207.758 353.764 207.824 353.568 207.832C353.372 207.84 353.178 207.791 353.01 207.69L347.13 204.66C346.984 204.581 346.821 204.54 346.655 204.54C346.489 204.54 346.326 204.581 346.18 204.66L340.34 207.66C340.172 207.761 339.978 207.81 339.782 207.802C339.586 207.794 339.397 207.728 339.238 207.613C339.079 207.497 338.958 207.338 338.889 207.155C338.82 206.971 338.806 206.771 338.85 206.58L339.97 200.05C339.995 199.885 339.981 199.717 339.928 199.559C339.876 199.401 339.788 199.257 339.67 199.14L334.93 194.52C334.782 194.391 334.675 194.222 334.623 194.032C334.571 193.843 334.575 193.643 334.636 193.456C334.697 193.27 334.811 193.105 334.965 192.983C335.118 192.861 335.304 192.787 335.5 192.77L342.05 191.82C342.215 191.798 342.371 191.735 342.506 191.638C342.64 191.54 342.748 191.41 342.82 191.26L345.75 185.32C345.828 185.138 345.959 184.983 346.125 184.875C346.292 184.767 346.487 184.712 346.685 184.715C346.883 184.718 347.076 184.78 347.239 184.893C347.402 185.006 347.527 185.165 347.6 185.35Z" fill="#E0E0E0"/>
<path d="M48.97 257.88L51.13 262.16C51.184 262.268 51.263 262.361 51.3604 262.433C51.4578 262.504 51.5708 262.551 51.69 262.57L56.41 263.25C56.5469 263.271 56.6755 263.329 56.7814 263.418C56.8873 263.508 56.9663 263.625 57.0098 263.756C57.0533 263.888 57.0595 264.029 57.0278 264.163C56.996 264.298 56.9276 264.422 56.83 264.52L53.41 267.85C53.3221 267.931 53.256 268.034 53.2175 268.147C53.1791 268.261 53.1696 268.382 53.19 268.5L54 273.21C54.0241 273.347 54.0093 273.488 53.957 273.617C53.9047 273.746 53.8172 273.857 53.7045 273.939C53.5918 274.02 53.4584 274.068 53.3196 274.077C53.1809 274.086 53.0424 274.056 52.92 273.99L48.7 271.77C48.5931 271.716 48.4749 271.687 48.355 271.687C48.235 271.687 48.1168 271.716 48.01 271.77L43.78 273.99C43.6583 274.057 43.5198 274.089 43.3809 274.08C43.2421 274.071 43.1085 274.023 42.9961 273.941C42.8837 273.859 42.797 273.747 42.7463 273.617C42.6956 273.488 42.683 273.346 42.71 273.21L43.51 268.5C43.5344 268.383 43.5279 268.261 43.491 268.147C43.4542 268.033 43.3884 267.931 43.3 267.85L39.88 264.52C39.7788 264.424 39.7068 264.301 39.6723 264.166C39.6379 264.031 39.6423 263.889 39.6852 263.756C39.7281 263.623 39.8076 263.505 39.9146 263.416C40.0216 263.326 40.1517 263.269 40.29 263.25L45.02 262.57C45.1392 262.551 45.2521 262.504 45.3495 262.433C45.4469 262.361 45.5259 262.268 45.58 262.16L47.69 257.88C47.755 257.768 47.8484 257.675 47.9607 257.61C48.073 257.546 48.2004 257.511 48.33 257.511C48.4596 257.511 48.5869 257.546 48.6992 257.61C48.8115 257.675 48.9049 257.768 48.97 257.88Z" fill="#E0E0E0"/>
<path d="M149.896 20.4636L138.417 20.5784L138.988 77.6984L150.468 77.5836L149.896 20.4636Z" fill="#E0E0E0"/>
<path d="M68.4327 21.4468L38.7031 21.6077L38.8737 53.1372L68.6033 52.9764L68.4327 21.4468Z" fill="#EBEBEB"/>
<path d="M98.2871 20.6904L68.5571 20.9877L68.8724 52.5177L98.6024 52.2204L98.2871 20.6904Z" fill="#F5F5F5"/>
<path d="M38.74 30.3199C58.49 30.4799 78.3 30.3199 98.05 30.0399C98.1239 30.0267 98.1908 29.9879 98.239 29.9303C98.2872 29.8727 98.3136 29.8 98.3136 29.7249C98.3136 29.6498 98.2872 29.5771 98.239 29.5195C98.1908 29.4619 98.1239 29.4231 98.05 29.4099C78.3 29.2999 58.5 29.4099 38.75 29.7799C38.6784 29.7799 38.6097 29.8084 38.5591 29.859C38.5084 29.9096 38.48 29.9783 38.48 30.0499C38.48 30.1215 38.5084 30.1902 38.5591 30.2408C38.6097 30.2915 38.6784 30.3199 38.75 30.3199H38.74Z" fill="#E0E0E0"/>
<path d="M74.1703 52.4453L20.1611 52.7375L20.3002 78.4372L74.3094 78.1449L74.1703 52.4453Z" fill="#EBEBEB"/>
<path d="M127.928 52.1546L73.9189 52.4468L74.058 78.1464L128.067 77.8542L127.928 52.1546Z" fill="#F5F5F5"/>
<path d="M20.1999 59.8899C56.0699 60.2999 92.0799 59.8899 127.95 59.3599C128.024 59.3467 128.091 59.3079 128.139 59.2503C128.187 59.1927 128.214 59.12 128.214 59.0449C128.214 58.9698 128.187 58.8971 128.139 58.8395C128.091 58.7819 128.024 58.7431 127.95 58.7299C92.0699 58.5399 56.0699 58.5599 20.1899 59.3499C20.1183 59.3499 20.0496 59.3784 19.999 59.429C19.9484 59.4796 19.9199 59.5483 19.9199 59.6199C19.9199 59.6915 19.9484 59.7602 19.999 59.8108C20.0496 59.8615 20.1183 59.8899 20.1899 59.8899H20.1999Z" fill="#E0E0E0"/>
<path d="M209.23 78.4399H0V87.6499H209.23V78.4399Z" fill="#E0E0E0"/>
<path d="M42.7498 82.87H34.2598V114.28H42.7498V82.87Z" fill="#E0E0E0"/>
<path d="M169.54 82.87H161.05V114.28H169.54V82.87Z" fill="#E0E0E0"/>
<path d="M161.004 -0.889092L149.524 -0.774292L150.31 77.7857L161.79 77.6709L161.004 -0.889092Z" fill="#EBEBEB"/>
<path d="M178.754 14.6095L160.914 14.7061L161.258 78.3651L179.098 78.2686L178.754 14.6095Z" fill="#F5F5F5"/>
<path d="M178.63 26.89C178.63 27.06 174.63 27.2 169.71 27.2C164.79 27.2 160.79 27.06 160.79 26.89C160.79 26.72 164.79 26.58 169.71 26.58C174.63 26.58 178.63 26.72 178.63 26.89Z" fill="#E0E0E0"/>
<path d="M178.63 24.2099C178.63 24.3899 174.63 24.5199 169.71 24.5199C164.79 24.5199 160.79 24.3899 160.79 24.2099C160.79 24.0299 164.79 23.9099 169.71 23.9099C174.63 23.9099 178.63 24.0399 178.63 24.2099Z" fill="#E0E0E0"/>
<path d="M178.63 68.7099C178.63 68.8799 174.63 69.0199 169.71 69.0199C164.79 69.0199 160.79 68.8799 160.79 68.7099C160.79 68.5399 164.79 68.3999 169.71 68.3999C174.63 68.3999 178.63 68.5399 178.63 68.7099Z" fill="#E0E0E0"/>
<path d="M178.63 66.03C178.63 66.2 174.63 66.34 169.71 66.34C164.79 66.34 160.79 66.2 160.79 66.03C160.79 65.86 164.79 65.72 169.71 65.72C174.63 65.72 178.63 65.86 178.63 66.03Z" fill="#E0E0E0"/>
<path d="M170 60.2C169.83 60.2 169.69 53.77 169.69 45.85C169.69 37.93 169.83 31.51 170 31.51C170.17 31.51 170.31 37.93 170.31 45.85C170.31 53.77 170.13 60.2 170 60.2Z" fill="#E0E0E0"/>
<path d="M198.23 30.26H178.82V78.31H198.23V30.26Z" fill="#EBEBEB"/>
<path d="M158.2 13.41C158.2 14.0631 158.006 14.7015 157.643 15.2444C157.28 15.7873 156.764 16.2103 156.161 16.4597C155.557 16.7092 154.893 16.774 154.253 16.6458C153.612 16.5177 153.024 16.2024 152.563 15.7399C152.102 15.2774 151.788 14.6884 151.662 14.0476C151.536 13.4069 151.603 12.743 151.854 12.1402C152.105 11.5374 152.53 11.0227 153.074 10.6613C153.618 10.2999 154.257 10.108 154.91 10.11C155.343 10.11 155.772 10.1954 156.171 10.3614C156.571 10.5274 156.934 10.7706 157.24 11.0772C157.546 11.3837 157.788 11.7476 157.953 12.1479C158.117 12.5482 158.201 12.9771 158.2 13.41V13.41Z" fill="#E0E0E0"/>
<path d="M155.93 22.49H153.89V69.22H155.93V22.49Z" fill="#E0E0E0"/>
<path d="M428.65 39.0699H287.51V165.34H428.65V39.0699Z" fill="#FAFAFA"/>
<path d="M428.66 165.34C428.66 165.34 428.66 164.53 428.66 163C428.66 161.47 428.66 159.18 428.66 156.23C428.66 150.3 428.66 141.64 428.58 130.6C428.58 108.54 428.48 77.0099 428.42 39.0699L428.74 39.3899H287.61L287.98 39.0199C287.98 84.9599 287.98 128.19 287.98 165.29L287.65 164.96L389.73 165.13L418.52 165.21H426.14H428.14H428.82H428.18H426.25H418.69L389.97 165.29L287.52 165.66H287.18V165.33C287.18 128.23 287.18 84.9999 287.18 39.0599V38.6599H287.57L428.7 38.7199H429.02V39.0399C428.95 77.0399 428.89 108.66 428.85 130.77C428.85 141.77 428.79 150.42 428.77 156.33C428.77 159.263 428.77 161.5 428.77 163.04C428.68 164.58 428.66 165.34 428.66 165.34Z" fill="#E0E0E0"/>
<path d="M341.63 61.5C341.63 61.71 334.2 61.88 325.04 61.88C315.88 61.88 308.45 61.71 308.45 61.5C308.45 61.29 315.88 61.13 325.04 61.13C334.2 61.13 341.63 61.3 341.63 61.5Z" fill="#E0E0E0"/>
<path d="M401.44 70.98C401.44 71.19 381.03 71.36 355.86 71.36C330.69 71.36 310.27 71.19 310.27 70.98C310.27 70.77 330.68 70.61 355.86 70.61C381.04 70.61 401.44 70.78 401.44 70.98Z" fill="#E0E0E0"/>
<path d="M314.64 87.0399H308.69V92.9899H314.64V87.0399Z" fill="#E0E0E0"/>
<path d="M329.28 87.0399H323.33V92.9899H329.28V87.0399Z" fill="#E0E0E0"/>
<path d="M344.19 86.77H338.24V92.72H344.19V86.77Z" fill="#E0E0E0"/>
<path d="M358.55 87.0399H352.6V92.9899H358.55V87.0399Z" fill="#E0E0E0"/>
<path d="M373.19 87.0399H367.24V92.9899H373.19V87.0399Z" fill="#E0E0E0"/>
<path d="M387.83 87.0399H381.88V92.9899H387.83V87.0399Z" fill="#E0E0E0"/>
<path d="M402.46 87.0399H396.51V92.9899H402.46V87.0399Z" fill="#EBEBEB"/>
<path d="M314.64 99.6799H308.69V105.63H314.64V99.6799Z" fill="#EBEBEB"/>
<path d="M329.28 99.6799H323.33V105.63H329.28V99.6799Z" fill="#E0E0E0"/>
<path d="M343.92 99.6799H337.97V105.63H343.92V99.6799Z" fill="#EBEBEB"/>
<path d="M358.55 99.6799H352.6V105.63H358.55V99.6799Z" fill="#E0E0E0"/>
<path d="M373.19 99.6799H367.24V105.63H373.19V99.6799Z" fill="#E0E0E0"/>
<path d="M388.1 99.4099H382.15V105.36H388.1V99.4099Z" fill="#E0E0E0"/>
<path d="M402.46 99.6799H396.51V105.63H402.46V99.6799Z" fill="#E0E0E0"/>
<path d="M314.64 112.33H308.69V118.28H314.64V112.33Z" fill="#E0E0E0"/>
<path d="M329.55 112.06H323.6V118.01H329.55V112.06Z" fill="#E0E0E0"/>
<path d="M343.92 112.33H337.97V118.28H343.92V112.33Z" fill="#E0E0E0"/>
<path d="M358.55 112.33H352.6V118.28H358.55V112.33Z" fill="#EBEBEB"/>
<path d="M373.19 112.33H367.24V118.28H373.19V112.33Z" fill="#E0E0E0"/>
<path d="M387.83 112.33H381.88V118.28H387.83V112.33Z" fill="#E0E0E0"/>
<path d="M402.46 112.33H396.51V118.28H402.46V112.33Z" fill="#E0E0E0"/>
<path d="M314.64 124.97H308.69V130.92H314.64V124.97Z" fill="#E0E0E0"/>
<path d="M329.28 124.97H323.33V130.92H329.28V124.97Z" fill="#E0E0E0"/>
<path d="M343.92 124.97H337.97V130.92H343.92V124.97Z" fill="#E0E0E0"/>
<path d="M358.82 124.7H352.87V130.65H358.82V124.7Z" fill="#E0E0E0"/>
<path d="M373.19 124.97H367.24V130.92H373.19V124.97Z" fill="#E0E0E0"/>
<path d="M387.83 124.97H381.88V130.92H387.83V124.97Z" fill="#EBEBEB"/>
<path d="M402.46 124.97H396.51V130.92H402.46V124.97Z" fill="#E0E0E0"/>
<path d="M314.64 137.61H308.69V143.56H314.64V137.61Z" fill="#E0E0E0"/>
<path d="M329.28 137.61H323.33V143.56H329.28V137.61Z" fill="#EBEBEB"/>
<path d="M343.92 137.61H337.97V143.56H343.92V137.61Z" fill="#E0E0E0"/>
<path d="M358.55 137.61H352.6V143.56H358.55V137.61Z" fill="#E0E0E0"/>
<path d="M373.19 137.61H367.24V143.56H373.19V137.61Z" fill="#E0E0E0"/>
<path d="M388.1 137.34H382.15V143.29H388.1V137.34Z" fill="#E0E0E0"/>
<path d="M402.46 137.61H396.51V143.56H402.46V137.61Z" fill="#E0E0E0"/>
<path d="M18.62 361.31V398.08H12.48V402.08H18.62V426.66H133.37V404.26H124.87V399.39H133.37V392.07H137.13V388.76H132.64V361.31H18.62Z" fill="#EBEBEB"/>
<path d="M102.9 361.41V426.26H133.37V403.87H124.87V399.4L133.37 399.56V392.24L137.22 392.25L137.15 388.46L132.66 388.35V361.31L102.9 361.41Z" fill="#E0E0E0"/>
<path d="M105.07 401.54C105.07 401.76 84.3098 401.95 58.6998 401.95C33.0898 401.95 12.3198 401.76 12.3198 401.54C12.3198 401.32 33.0798 401.13 58.6998 401.13C84.3198 401.13 105.07 401.31 105.07 401.54Z" fill="#E0E0E0"/>
<path d="M105.07 397.8C105.07 398.03 84.3098 398.21 58.6998 398.21C33.0898 398.21 12.3198 398.03 12.3198 397.8C12.3198 397.57 33.0798 397.4 58.6998 397.4C84.3198 397.4 105.07 397.58 105.07 397.8Z" fill="#E0E0E0"/>
<path d="M111.03 387.75C111.03 387.98 90.2598 388.16 64.6498 388.16C39.0398 388.16 18.2798 387.98 18.2798 387.75C18.2798 387.52 39.0398 387.34 64.6498 387.34C90.2598 387.34 111.03 387.53 111.03 387.75Z" fill="#E0E0E0"/>
<path d="M111.6 415.14C111.6 415.37 90.8301 415.55 65.2301 415.55C39.6301 415.55 18.8501 415.37 18.8501 415.14C18.8501 414.91 39.6101 414.74 65.2301 414.74C90.8501 414.74 111.6 414.92 111.6 415.14Z" fill="#E0E0E0"/>
<path d="M33.5099 300.04V334.89H27.6899V338.66H33.5099V361.98H142.26V340.77H134.26V336.15H142.26V329.22H145.84V326.07H141.59V300.07L33.5099 300.04Z" fill="#F5F5F5"/>
<path d="M113.38 300.14V361.61H142.26V340.38H134.21V336.15L142.26 336.29V329.36H145.91L145.84 325.78L141.59 325.68V300.04L113.38 300.14Z" fill="#E0E0E0"/>
<path d="M115.44 338.17C115.44 338.39 95.76 338.56 71.49 338.56C47.22 338.56 27.54 338.39 27.54 338.17C27.54 337.95 47.21 337.79 71.54 337.79C95.87 337.79 115.44 337.96 115.44 338.17Z" fill="#E0E0E0"/>
<path d="M115.44 334.66C115.44 334.88 95.76 335.05 71.49 335.05C47.22 335.05 27.54 334.88 27.54 334.66C27.54 334.44 47.21 334.28 71.54 334.28C95.87 334.28 115.44 334.42 115.44 334.66Z" fill="#E0E0E0"/>
<path d="M121.13 325.11C121.13 325.32 101.46 325.49 77.1899 325.49C52.9199 325.49 33.1899 325.32 33.1899 325.11C33.1899 324.9 52.8699 324.72 77.1899 324.72C101.51 324.72 121.13 324.89 121.13 325.11Z" fill="#E0E0E0"/>
<path d="M121.63 351.07C121.63 351.28 101.95 351.45 77.68 351.45C53.41 351.45 33.73 351.28 33.73 351.07C33.73 350.86 53.4 350.68 77.68 350.68C101.96 350.68 121.63 350.85 121.63 351.07Z" fill="#E0E0E0"/>
<path d="M365.31 315.22C359.36 312.16 352.31 311.76 345.75 312.85C342.2 313.43 338.5 314.5 336.09 317.16C333.68 319.82 333.22 324.52 335.99 326.81C337.64 328.17 339.94 328.38 342.08 328.35C347.25 328.29 352.99 327.35 357.08 330.49C359.43 332.26 361 335.22 363.82 336.09C366.64 336.96 369.68 335.32 371.15 332.83C372.491 330.239 372.788 327.233 371.98 324.43C371.649 322.486 370.876 320.644 369.719 319.047C368.563 317.45 367.054 316.14 365.31 315.22Z" fill="#EBEBEB"/>
<path d="M378.93 288.92C375.3 294.11 368.23 292.39 364.93 289.22C361.63 286.05 360.27 281.46 359.01 277.07C356.12 267.07 353.22 256.56 355.36 246.36C355.875 243.269 357.231 240.381 359.28 238.01C361.43 235.75 364.72 234.4 367.73 235.2C371.3 236.14 373.51 239.63 375.11 242.95C379.829 252.755 382.302 263.489 382.35 274.37C382.35 279.43 381.77 284.74 378.91 288.92" fill="#EBEBEB"/>
<path d="M388.92 296.37C384.92 291.68 384.22 284.85 385.98 278.98C387.74 273.11 391.71 268.11 396.28 264.03C401.664 259.239 407.931 255.543 414.73 253.15C417.362 252.085 420.194 251.604 423.03 251.74C424.452 251.817 425.833 252.241 427.053 252.975C428.274 253.709 429.295 254.73 430.03 255.95C431.97 259.65 430.11 264.15 428.1 267.81C424.546 274.266 420.494 280.435 415.98 286.26C412.35 290.94 408.19 295.56 402.65 297.68C397.11 299.8 391.37 299.55 388.43 295.68" fill="#EBEBEB"/>
<path d="M379.18 367.28C378.986 366.507 378.875 365.716 378.85 364.92C378.68 363.2 378.47 361.04 378.22 358.48C377.902 355.307 377.418 352.152 376.77 349.03C375.928 345.227 374.781 341.498 373.34 337.88C371.928 334.265 370.013 330.868 367.65 327.79C365.722 325.283 363.263 323.234 360.45 321.79C358.538 320.845 356.49 320.207 354.38 319.9C353.586 319.873 352.798 319.759 352.03 319.56C352.824 319.472 353.626 319.472 354.42 319.56C356.61 319.734 358.753 320.292 360.75 321.21C363.708 322.599 366.306 324.652 368.34 327.21C370.807 330.328 372.795 333.796 374.24 337.5C375.708 341.172 376.849 344.967 377.65 348.84C378.267 351.998 378.687 355.19 378.91 358.4C379.11 361.14 379.19 363.35 379.23 364.89C379.3 365.686 379.283 366.487 379.18 367.28V367.28Z" fill="#E0E0E0"/>
<path d="M378.74 362.32C378.667 361.961 378.644 361.595 378.67 361.23C378.67 360.4 378.67 359.37 378.67 358.1C378.67 355.38 378.67 351.44 378.53 346.59C378.29 336.87 377.45 326.42 375.84 311.68C374.31 297.82 372.26 281.68 370.09 271.2C369.617 268.807 369.16 266.67 368.72 264.79C368.29 262.9 367.94 261.28 367.59 259.97C367.24 258.66 367.05 257.72 366.86 256.92C366.747 256.57 366.683 256.207 366.67 255.84C366.834 256.158 366.961 256.493 367.05 256.84L367.96 259.84C368.36 261.14 368.77 262.75 369.24 264.63C369.71 266.51 370.24 268.63 370.76 271.02C373.455 283.449 375.477 296.014 376.82 308.66C378.44 323.43 379.17 336.88 379.23 346.66C379.29 351.53 379.18 355.47 379.06 358.19C378.98 359.47 378.92 360.5 378.87 361.33C378.857 361.663 378.813 361.995 378.74 362.32Z" fill="#E0E0E0"/>
<path d="M378.67 336.38C378.581 335.292 378.581 334.198 378.67 333.11C378.854 330.142 379.188 327.185 379.67 324.25C380.38 319.891 381.341 315.577 382.55 311.33C383.958 306.106 385.763 300.998 387.95 296.05C392.43 285.42 398.51 276.73 403.81 271.35C404.977 270.117 406.223 268.961 407.54 267.89C408.11 267.4 408.62 266.89 409.13 266.54L410.58 265.54C411.454 264.882 412.377 264.29 413.34 263.77C413.49 263.99 409.43 266.38 404.34 271.83C397.821 279.093 392.589 287.416 388.87 296.44C386.73 301.362 384.916 306.42 383.44 311.58C382.03 316.32 381.09 320.69 380.37 324.36C379.65 328.03 379.31 331.06 379.07 333.14C379.026 334.229 378.892 335.313 378.67 336.38Z" fill="#E0E0E0"/>
<path d="M403.74 382.14L401.14 417.75H355.4L352.8 382.14H403.74Z" fill="#E0E0E0"/>
<path d="M408.16 368.1H347.34V382.14H408.16V368.1Z" fill="#E0E0E0"/>
<path d="M408.16 416.39V420.28H405.3H348.34V416.39H408.16Z" fill="#EBEBEB"/>
<path d="M402.5 427.13L405.3 420.28H350.52L353.79 427.13H402.5Z" fill="#E0E0E0"/>
<path d="M353.65 393.78C353.704 393.899 353.775 394.01 353.86 394.11L354.54 395.01L357.21 398.42L357.33 398.58L357.44 398.42C359.12 396.1 361.35 393 363.99 389.36H363.61L370.06 398.49L370.26 398.77L370.49 398.51L378.13 389.41H377.69L378.11 389.94C380.48 392.94 382.78 395.79 384.95 398.51L385.17 398.8L385.39 398.5L391.83 389.38H391.46L399.4 398.38L399.54 398.54L399.65 398.36L402.14 394.18L402.78 393.07C402.858 392.948 402.922 392.817 402.97 392.68C402.866 392.786 402.776 392.903 402.7 393.03L402 394.1L399.39 398.2H399.64L391.82 389.04L391.62 388.81L391.45 389.06L384.94 398.14H385.38L378.56 389.56L378.14 389.03L377.92 388.76L377.7 389.02L370.07 398.14H370.5L363.99 389.06L363.8 388.8L363.61 389.06L357.2 398.22H357.44L354.66 394.9C354.36 394.55 354.12 394.26 353.92 394.04C353.72 393.82 353.66 393.77 353.65 393.78Z" fill="#F5F5F5"/>
<path d="M352.13 381.91C352.13 382.06 363.59 382.19 377.73 382.19C391.87 382.19 403.33 382.06 403.33 381.91C403.33 381.76 391.87 381.62 377.73 381.62C363.59 381.62 352.13 381.75 352.13 381.91Z" fill="#F5F5F5"/>
<path d="M349.85 420.66C349.85 420.82 362.31 420.95 377.67 420.95C393.03 420.95 405.5 420.82 405.5 420.66C405.5 420.5 393.04 420.38 377.67 420.38C362.3 420.38 349.85 420.51 349.85 420.66Z" fill="#F5F5F5"/>
<path d="M418.19 426.96C418.19 427.11 329.51 427.22 220.19 427.22C110.87 427.22 22.1201 427.11 22.1201 426.96C22.1201 426.81 110.73 426.66 220.13 426.66C329.53 426.66 418.19 426.82 418.19 426.96Z" fill="#263238"/>
<path d="M237.62 55.25C238.05 47.74 242.67 43.12 249.15 39.25C252.413 37.3514 256.086 36.269 259.857 36.0949C263.628 35.9208 267.386 36.6601 270.81 38.25C275.36 40.41 279.34 44.11 284.33 44.75C292.55 45.81 300.33 38.19 308.4 40.1C310.832 40.6498 312.996 42.0326 314.516 44.0092C316.037 45.9858 316.818 48.4317 316.726 50.9237C316.633 53.4157 315.672 55.7969 314.009 57.6553C312.347 59.5136 310.086 60.7321 307.62 61.1C313 61.89 316.05 68.69 314.06 73.76C312.07 78.83 306.42 81.76 300.98 81.88C295.54 82 290.31 79.77 285.61 77.04C280.91 74.31 276.51 71.04 271.61 68.68C266.71 66.32 261.06 64.96 255.8 66.36C248.69 68.25 243.64 74.97 241.8 82.1C239.96 89.23 240.74 96.76 241.85 104.04C242.96 111.32 244.36 118.66 243.66 126.04C243.685 126.471 243.608 126.901 243.434 127.296C243.26 127.69 242.995 128.038 242.66 128.31C241.57 128.91 240.32 127.88 239.51 126.92C230.37 116.093 223.446 103.576 219.13 90.08C216.65 82.27 215.28 74.68 218.26 67.08C221.24 59.48 231.26 52.18 237.61 55.28" fill="#263238"/>
<path d="M230.69 91.57L242.69 165.81C244.94 179.67 253.95 193.06 275.69 188.51C294.26 183.14 292.88 169.78 290.46 153.3C290.46 153.3 310.9 147.98 309.07 127.2C308.18 117.2 304.68 96.6199 301.29 78.0799C299.533 68.4754 294.223 59.8848 286.418 54.018C278.613 48.1513 268.885 45.4386 259.17 46.42L257.17 46.6199C235.74 50.0499 226.67 70.2 230.69 91.57Z" fill="#FFBF9D"/>
<path d="M290.51 153.3C290.51 153.3 277.51 155.38 262.68 148.03C262.68 148.03 270.83 163.47 291.36 159.51L290.51 153.3Z" fill="#FF9A6C"/>
<path d="M294.3 98.87C294.377 99.64 294.154 100.41 293.677 101.02C293.2 101.629 292.506 102.03 291.74 102.14C291.366 102.209 290.983 102.202 290.612 102.119C290.241 102.037 289.891 101.882 289.581 101.661C289.272 101.441 289.01 101.162 288.81 100.838C288.611 100.515 288.478 100.155 288.42 99.7799C288.34 99.0098 288.56 98.2384 289.035 97.6271C289.511 97.0158 290.204 96.6119 290.97 96.4999C291.345 96.4313 291.73 96.4386 292.102 96.5213C292.474 96.604 292.825 96.7604 293.136 96.9814C293.446 97.2024 293.709 97.4833 293.909 97.8077C294.109 98.1321 294.242 98.4933 294.3 98.87Z" fill="#263238"/>
<path d="M297.91 88.71C297.58 89.13 295.16 87.71 291.97 88.03C288.78 88.35 286.61 90.19 286.22 89.83C286.04 89.68 286.34 88.94 287.28 88.1C288.567 87.0049 290.158 86.3312 291.84 86.17C293.496 85.9944 295.164 86.3442 296.61 87.17C297.67 87.85 298.07 88.52 297.91 88.71Z" fill="#263238"/>
<path d="M264.41 100.78C264.491 101.55 264.27 102.322 263.795 102.933C263.32 103.544 262.626 103.948 261.86 104.06C261.483 104.128 261.096 104.12 260.723 104.036C260.349 103.951 259.996 103.792 259.685 103.568C259.374 103.344 259.112 103.059 258.913 102.732C258.715 102.404 258.585 102.039 258.53 101.66C258.45 100.888 258.672 100.116 259.149 99.5041C259.627 98.8925 260.322 98.4896 261.09 98.38C261.467 98.313 261.852 98.3225 262.225 98.4077C262.598 98.493 262.949 98.6523 263.259 98.8762C263.569 99.1001 263.83 99.3841 264.028 99.7111C264.226 100.038 264.356 100.402 264.41 100.78V100.78Z" fill="#263238"/>
<path d="M266.61 92.46C266.28 92.88 263.87 91.46 260.68 91.78C257.49 92.1 255.31 93.94 254.93 93.58C254.74 93.42 255.04 92.69 255.99 91.84C257.275 90.744 258.868 90.0733 260.55 89.92C262.206 89.7409 263.876 90.091 265.32 90.92C266.37 91.6 266.77 92.27 266.61 92.46Z" fill="#263238"/>
<path d="M280.57 114.95C280.57 114.77 282.48 114.23 285.65 113.5C286.46 113.33 287.21 113.09 287.29 112.5C287.281 111.651 287.008 110.827 286.51 110.14C285.544 108.253 284.544 106.253 283.51 104.14C279.27 95.6499 276.12 88.6299 276.46 88.4599C276.8 88.2899 280.52 95.0399 284.75 103.54C285.75 105.63 286.75 107.63 287.69 109.54C288.297 110.475 288.559 111.593 288.43 112.7C288.344 113 288.189 113.275 287.977 113.505C287.765 113.734 287.502 113.91 287.21 114.02C286.773 114.191 286.316 114.305 285.85 114.36C282.6 114.91 280.6 115.13 280.57 114.95Z" fill="#263238"/>
<path d="M266.18 79.88C265.95 80.77 262.72 80.68 259.03 81.51C255.34 82.34 252.41 83.66 251.83 82.94C251.57 82.59 252.02 81.72 253.15 80.75C254.666 79.5406 256.449 78.7109 258.35 78.33C260.24 77.9088 262.204 77.9396 264.08 78.42C265.51 78.84 266.27 79.45 266.18 79.88Z" fill="#263238"/>
<path d="M295.8 79.6C295.32 80.38 293.04 79.85 290.4 80.08C287.76 80.31 285.57 81.08 284.98 80.35C284.71 80 284.98 79.24 285.9 78.46C287.131 77.5057 288.618 76.9383 290.172 76.8297C291.726 76.7211 293.278 77.0762 294.63 77.85C295.63 78.5 296.02 79.22 295.8 79.6Z" fill="#263238"/>
<path d="M233.93 106.77C233.56 106.65 219.25 103.98 221.13 118.13C223.01 132.28 236.82 127.47 236.79 127.06C236.76 126.65 233.93 106.77 233.93 106.77Z" fill="#FFBF9D"/>
<path d="M231.76 122.28C231.69 122.28 231.53 122.48 231.14 122.73C230.59 123.058 229.934 123.159 229.31 123.01C227.74 122.66 226.16 120.45 225.76 117.91C225.562 116.702 225.637 115.465 225.98 114.29C226.052 113.831 226.235 113.396 226.514 113.025C226.793 112.654 227.159 112.356 227.58 112.16C227.856 112.042 228.164 112.028 228.449 112.12C228.734 112.212 228.976 112.404 229.13 112.66C229.38 113.03 229.32 113.32 229.4 113.34C229.48 113.36 229.67 113.06 229.48 112.49C229.357 112.151 229.121 111.864 228.81 111.68C228.382 111.437 227.876 111.372 227.4 111.5C226.835 111.692 226.328 112.025 225.927 112.468C225.526 112.911 225.245 113.448 225.11 114.03C224.674 115.337 224.561 116.73 224.78 118.09C225.25 120.93 227.07 123.4 229.19 123.72C229.585 123.78 229.989 123.751 230.371 123.635C230.754 123.519 231.105 123.319 231.4 123.05C231.78 122.66 231.81 122.29 231.76 122.28Z" fill="#FF9A6C"/>
<path d="M299.65 58.72C297.39 54.83 293.77 51.9 289.92 49.56C281.613 44.3942 271.889 41.9796 262.13 42.66C252.346 43.4228 243.239 47.9545 236.73 55.3C231.756 61.3311 228.659 68.6875 227.82 76.46C227.016 84.1954 227.757 92.0135 230 99.46C230.93 102.74 232.19 106.11 234.78 108.33C236.4 109.71 239.01 110.47 240.56 109.01C241.37 108.041 241.834 106.831 241.88 105.57C243.51 94.34 245.02 82.3 239.95 72.15C242.191 68.2446 245.21 64.841 248.82 62.15C250.633 60.8251 252.691 59.8726 254.874 59.3474C257.057 58.8221 259.323 58.7347 261.54 59.09C268.06 60.41 272.54 66.17 278.06 69.94C282.011 72.6126 286.54 74.3075 291.275 74.8847C296.009 75.462 300.813 74.9051 305.29 73.26L299.65 58.72Z" fill="#263238"/>
<path d="M283.37 123.57C283.21 124.915 282.852 126.229 282.31 127.47C282.039 128.09 281.638 128.645 281.135 129.097C280.631 129.549 280.036 129.888 279.39 130.09C278.685 130.243 277.952 130.215 277.261 130.006C276.57 129.798 275.943 129.417 275.44 128.9C274.435 127.851 273.791 126.51 273.6 125.07C273.39 123.78 273.66 122.14 274.89 121.73C275.418 121.595 275.972 121.595 276.5 121.73L283.72 123.03" fill="#FF9A6C"/>
<path d="M281.86 129.6C281.79 129.4 280.45 130.29 278.22 129.9C276.963 129.691 275.827 129.025 275.03 128.03C274.572 127.415 274.246 126.712 274.074 125.965C273.902 125.218 273.887 124.443 274.03 123.69C274.108 123.305 274.236 122.932 274.41 122.58C274.61 122.25 274.57 122.27 274.86 122.25C275.15 122.23 275.63 122.38 276.01 122.45L277.2 122.66C278.74 122.94 280.14 123.17 281.31 123.35C283.66 123.71 285.13 123.85 285.16 123.69C285.19 123.53 283.79 123.09 281.48 122.51C280.33 122.23 278.95 121.9 277.42 121.57L276.24 121.31C275.805 121.203 275.364 121.12 274.92 121.06C274.569 121.026 274.218 121.111 273.92 121.3C273.656 121.485 273.446 121.737 273.31 122.03C273.091 122.481 272.93 122.958 272.83 123.45C272.643 124.372 272.664 125.324 272.89 126.238C273.117 127.151 273.544 128.002 274.14 128.73C274.642 129.311 275.254 129.787 275.94 130.13C276.627 130.474 277.374 130.677 278.14 130.73C279.134 130.839 280.138 130.669 281.04 130.24C281.64 129.95 281.9 129.66 281.86 129.6Z" fill="#263238"/>
<path d="M313.13 43.03C313.264 43.3299 313.358 43.6459 313.41 43.97C313.583 44.8866 313.613 45.8242 313.5 46.75C313.268 48.4673 312.694 50.1208 311.813 51.6131C310.932 53.1055 309.761 54.4066 308.37 55.44C304.89 58.21 299.37 59.32 293.72 58.44C288.07 57.56 282.23 54.89 276.23 52.44C270.23 49.99 264.13 48.29 258.56 49.31C253.67 50.2387 249.231 52.7767 245.95 56.52C243.69 59.0087 241.867 61.8624 240.56 64.96C239.65 67.17 239.34 68.46 239.24 68.44C239.262 68.1009 239.322 67.7654 239.42 67.44C239.638 66.5427 239.905 65.6581 240.22 64.79C241.426 61.5816 243.201 58.6174 245.46 56.04C248.79 52.1098 253.356 49.4267 258.41 48.43C264.18 47.32 270.56 49.04 276.59 51.54C282.62 54.04 288.29 56.76 293.85 57.54C299.41 58.32 304.63 57.41 307.99 54.85C310.682 52.8944 312.522 49.9812 313.13 46.71C313.287 45.4884 313.287 44.2517 313.13 43.03Z" fill="#455A64"/>
<path d="M220.26 86.13C220.182 84.803 220.369 83.4738 220.81 82.22C222.155 77.3948 224.947 73.0982 228.81 69.91C229.918 68.9322 231.251 68.245 232.69 67.91C233.7 67.6925 234.754 67.8119 235.69 68.25C236.32 68.57 236.56 68.9 236.52 68.94C235.384 68.3942 234.095 68.2565 232.87 68.55C230.65 69.12 228.15 71.55 225.87 74.31C223.968 76.7641 222.481 79.514 221.47 82.45C220.64 84.66 220.41 86.15 220.26 86.13Z" fill="#455A64"/>
<path d="M224.01 98.37C224.037 97.0353 224.308 95.7169 224.81 94.48C226.926 88.3186 231.242 83.1552 236.93 79.98C238.06 79.2666 239.311 78.7651 240.62 78.5C239.538 79.2224 238.42 79.8899 237.27 80.5C231.943 83.8758 227.8 88.8291 225.42 94.67C225.015 95.927 224.544 97.162 224.01 98.37Z" fill="#455A64"/>
<path d="M300.21 178.48C300.21 178.48 315.38 198.05 319.03 205.4C322.68 212.75 348.84 293.96 348.84 293.96L337.49 298.73L300.21 178.48Z" fill="#455A64"/>
<path d="M239.18 160.16V150.35L294.3 168.27L309.06 191.91L320.44 224.92L288.54 176.97L239.18 160.16Z" fill="#EBEBEB"/>
<path d="M235.9 169.59C235.9 169.59 212.52 197.59 213.02 215.75C213.52 233.66 237.81 342.49 237.81 342.49L231.93 361.94L225.56 426.76H358.06L348.84 293.96C347.37 293.88 319.84 217.85 319.84 217.85L288.97 175.06L238.22 156.77L235.9 169.59Z" fill="#455A64"/>
<path d="M336.87 262.33C336.87 262.33 346.14 261.97 350.98 264.13C355.82 266.29 359.91 265.21 363.33 271.9C366.75 278.59 370.75 281.62 371.59 291.77C372.43 301.92 361.47 325.44 354.23 328.77C346.99 332.1 336.87 262.33 336.87 262.33Z" fill="#455A64"/>
<g opacity="0.3">
<path d="M233.22 261.41C233.22 261.41 287.39 312.26 294.28 317.12C301.17 321.98 302.19 352.73 310.68 353.32C319.17 353.91 346.68 333.56 346.68 333.56L265.19 256.79L233.22 261.41Z" fill="black"/>
</g>
<path d="M309.5 306.94C309.5 306.94 297.72 322.01 296.37 325.79C295.02 329.57 293.71 332.08 295.15 333.34C295.667 333.89 296.34 334.268 297.078 334.424C297.817 334.579 298.585 334.505 299.28 334.21C301.2 333.47 310.67 320.98 310.67 320.98C310.67 320.98 298.11 338.89 297.54 341.98C296.97 345.07 299.43 346.57 302.31 346.03C305.19 345.49 310.67 337.4 310.67 337.4C310.67 337.4 302.9 346.4 304.54 347.92C306.18 349.44 308.07 349.63 310.23 348.55C312.39 347.47 317.87 340.37 317.87 340.37C317.87 340.37 314.09 344.37 316.16 345.37C318.23 346.37 318.41 346.47 320.21 344.98C322.01 343.49 337.89 327.98 337.89 327.98L327.89 321.12L309.5 306.94Z" fill="#FFBF9D"/>
<path d="M314.33 316.15C313.779 317.034 313.164 317.876 312.49 318.67L307.89 324.67C306.09 327 304.4 329.07 303.12 330.53C302.476 331.352 301.752 332.109 300.96 332.79C301.523 331.911 302.151 331.075 302.84 330.29L307.48 324.35C309.28 322.02 310.95 319.93 312.2 318.45C312.835 317.617 313.548 316.847 314.33 316.15V316.15Z" fill="#FF9A6C"/>
<path d="M322.68 323.37C320.721 326.082 318.625 328.692 316.4 331.19C314.302 333.795 312.073 336.292 309.72 338.67C311.675 335.955 313.771 333.345 316 330.85C318.098 328.245 320.328 325.748 322.68 323.37V323.37Z" fill="#FF9A6C"/>
<path d="M329.37 327.9C327.309 330.535 325.113 333.062 322.79 335.47C320.585 337.998 318.249 340.408 315.79 342.69C317.854 340.057 320.05 337.53 322.37 335.12C324.572 332.589 326.909 330.179 329.37 327.9V327.9Z" fill="#FF9A6C"/>
<path d="M243.07 187C250.68 185.39 260.34 184.72 267.7 188.89L307.89 225.15C307.89 225.15 364.54 288.7 366.76 292.24C368.98 295.78 371.97 316.7 363.39 327.36C354.81 338.02 345.13 333.92 334.13 331.41C325.42 329.41 264.51 284.66 239.47 266.07C230.769 259.664 224.494 250.499 221.67 240.07C219.76 233.361 219.082 226.361 219.67 219.41" fill="#455A64"/>
<path d="M219.68 219.46C219.68 219.46 219.68 219.82 219.61 220.51C219.54 221.2 219.51 222.22 219.49 223.57C219.49 227.503 219.885 231.426 220.67 235.28C221.213 238.064 221.949 240.807 222.87 243.49C223.997 246.674 225.469 249.726 227.26 252.59C229.312 255.872 231.753 258.894 234.53 261.59C237.44 264.51 241.06 266.97 244.73 269.71C259.49 280.58 277.08 293.49 296.89 307.44C301.89 310.92 306.95 314.44 312.2 318C317.45 321.56 322.85 325.14 328.54 328.44C329.961 329.261 331.427 330.002 332.93 330.66C333.689 330.973 334.476 331.21 335.28 331.37L337.72 331.96C340.963 332.872 344.268 333.541 347.61 333.96C350.986 334.379 354.41 333.754 357.42 332.17C360.41 330.453 362.91 327.998 364.68 325.04C367.57 320.04 368.63 314.24 368.82 308.61C368.933 305.795 368.819 302.976 368.48 300.18C368.31 298.8 368.08 297.42 367.79 296.07C367.541 294.731 367.085 293.439 366.44 292.24C364.8 290.08 362.94 288 361.19 285.92L355.87 279.78L345.42 267.86L307.74 225.28L267.6 188.96C264.421 187.244 260.914 186.221 257.31 185.96C254.687 185.747 252.05 185.77 249.43 186.03C247.32 186.24 245.72 186.51 244.65 186.69L243.45 186.91C243.18 186.96 243.04 186.97 243.04 186.97C243.04 186.97 243.58 186.84 244.64 186.62C245.7 186.4 247.3 186.13 249.42 185.9C252.048 185.616 254.695 185.573 257.33 185.77C260.97 186.023 264.515 187.046 267.73 188.77V188.77L307.98 224.96C319.26 237.59 331.98 251.91 345.73 267.48L356.19 279.4L361.51 285.54C363.29 287.63 365.1 289.66 366.81 291.91C367.01 292.227 367.181 292.562 367.32 292.91C367.46 293.24 367.56 293.57 367.68 293.91C367.91 294.58 368.06 295.26 368.23 295.91C368.53 297.28 368.76 298.67 368.93 300.07C369.273 302.893 369.39 305.738 369.28 308.58C369.08 314.26 368.02 320.14 365.06 325.26C363.248 328.3 360.682 330.821 357.61 332.58C354.509 334.205 350.986 334.847 347.51 334.42C344.131 334.008 340.788 333.339 337.51 332.42L335.07 331.83C334.242 331.663 333.432 331.419 332.65 331.1C331.124 330.426 329.638 329.665 328.2 328.82C322.48 325.5 317.1 321.89 311.84 318.36C306.58 314.83 301.48 311.26 296.53 307.77C276.72 293.77 259.15 280.86 244.42 269.95C240.77 267.2 237.14 264.72 234.21 261.77C231.421 259.039 228.973 255.98 226.92 252.66C225.136 249.774 223.671 246.703 222.55 243.5C221.635 240.801 220.91 238.041 220.38 235.24C219.613 231.371 219.251 227.433 219.3 223.49C219.344 222.14 219.471 220.794 219.68 219.46V219.46Z" fill="#263238"/>
<path d="M321.58 222.51L321.35 222.37L320.71 221.89C320.17 221.46 319.31 220.89 318.31 220C316.24 218.32 313.41 215.71 310.02 212.38C306.63 209.05 302.71 204.96 298.25 200.54C296.01 198.35 293.66 196.04 291.09 193.8C288.48 191.443 285.707 189.275 282.79 187.31C281.57 186.43 280.25 185.76 279.02 185.01L278.84 184.9V184.72C279.05 183.81 279.26 182.91 279.46 182.03L279.63 182.33L248.89 172.66L239.78 169.74L237.34 168.93L236.7 168.71L236.49 168.62C236.49 168.62 236.57 168.62 236.72 168.62L237.36 168.8L239.84 169.52L249 172.3L279.83 181.82L280.05 181.89L280 182.12C279.8 183 279.6 183.9 279.39 184.81L279.26 184.53C280.51 185.29 281.85 185.97 283.07 186.85C286.009 188.824 288.799 191.01 291.42 193.39C294 195.65 296.35 197.97 298.59 200.18C303.03 204.63 306.92 208.73 310.28 212.09C313.64 215.45 316.42 218.09 318.44 219.82C319.44 220.72 320.25 221.33 320.78 221.82L321.39 222.33C321.46 222.383 321.523 222.444 321.58 222.51V222.51Z" fill="#263238"/>
<path d="M341.47 263.45C341.047 262.793 340.67 262.108 340.34 261.4L337.45 255.66C335.03 250.79 331.73 244.06 328.11 236.6C324.49 229.14 321.25 222.37 318.93 217.46C317.81 215.04 316.88 213.07 316.21 211.63C315.92 210.98 315.68 210.45 315.5 210.03C315.404 209.85 315.33 209.658 315.28 209.46C315.406 209.623 315.51 209.801 315.59 209.99C315.8 210.39 316.07 210.91 316.39 211.54C317.1 212.96 318.08 214.91 319.26 217.3C321.68 222.23 324.96 228.95 328.58 236.37L337.78 255.5L340.53 261.31C340.88 262.007 341.193 262.721 341.47 263.45V263.45Z" fill="#263238"/>
<path d="M247.84 373.15H248.2L249.2 373.22L253.2 373.54L267.82 374.8L317.13 379.23L316.85 379.54L313.64 366.66C313.14 364.66 312.64 362.66 312.16 360.66L312.39 360.86L257.19 354.45L257.36 354.36C254.12 360.11 251.62 364.74 249.99 367.97C249.18 369.58 248.59 370.84 248.23 371.71C248.093 372.035 247.979 372.369 247.89 372.71C247.855 372.823 247.838 372.941 247.84 373.06C247.806 372.577 247.91 372.095 248.14 371.67C248.47 370.78 249.04 369.5 249.83 367.87C251.41 364.62 253.83 359.96 257.06 354.18L257.12 354.08H257.23L312.45 360.31H312.63V360.49L314.11 366.49C315.19 370.89 316.26 375.2 317.28 379.33L317.37 379.68H317.01L267.6 375.06L253.03 373.65L249.13 373.25L248.13 373.14C248.034 373.157 247.937 373.161 247.84 373.15Z" fill="#263238"/>
<g opacity="0.3">
<path d="M249.63 373.31L252 379.48L317.07 383.36V379.48L249.63 373.31Z" fill="black"/>
</g>
<path d="M160.13 63.22C159.93 59.74 157.04 56.83 153.72 55.78C150.4 54.73 146.72 55.26 143.45 56.36C136.24 58.75 130.18 63.65 124.3 68.46C115.17 75.91 106.3 86.15 102.82 97.46C100.19 105.94 99.4302 111.46 102.13 120.46C104.51 128.46 106.4 136.17 105.93 142.85C105.18 153.4 103.93 155.85 101.19 166.23C99.5002 172.7 105.27 189.63 105.27 189.63L141.76 175.63C154.76 169.51 182.82 158.09 182.82 158.09L160.13 63.22Z" fill="#263238"/>
<path d="M139.64 186.95C139.7 178.07 139.79 171.89 139.78 171.95C139.77 172.01 123.85 168.27 120.64 145.55C118.773 130.84 118.364 115.981 119.42 101.19C120.51 87.61 129.81 71.08 143.33 72.74L185.45 84.16C189.56 84.67 190.93 88.16 190.78 92.31L191.09 94.25L188 159.13L189.33 186.72C188.79 199.05 176.6 210.26 164.27 210.82C161.06 210.972 157.852 210.465 154.845 209.329C151.839 208.193 149.096 206.453 146.788 204.216C144.48 201.979 142.655 199.293 141.426 196.323C140.196 193.354 139.589 190.164 139.64 186.95V186.95Z" fill="#B56760"/>
<path d="M128.96 119.29C128.935 120.05 129.209 120.79 129.723 121.351C130.237 121.911 130.95 122.249 131.71 122.29C132.076 122.32 132.445 122.277 132.794 122.164C133.143 122.051 133.467 121.87 133.746 121.631C134.025 121.392 134.254 121.1 134.419 120.772C134.585 120.444 134.684 120.086 134.71 119.72C134.735 118.96 134.461 118.22 133.947 117.659C133.433 117.099 132.72 116.761 131.96 116.72C131.594 116.69 131.226 116.733 130.876 116.846C130.527 116.959 130.203 117.14 129.924 117.379C129.645 117.618 129.416 117.91 129.251 118.238C129.085 118.566 128.987 118.924 128.96 119.29V119.29Z" fill="#263238"/>
<path d="M125.13 111.42C125.48 111.8 127.71 110.21 130.84 110.27C133.97 110.33 136.23 111.94 136.58 111.56C136.75 111.39 136.39 110.7 135.4 109.96C134.067 108.996 132.466 108.472 130.82 108.46C129.192 108.422 127.594 108.905 126.26 109.84C125.3 110.56 124.96 111.24 125.13 111.42Z" fill="#263238"/>
<path d="M158.23 118.95C158.205 119.71 158.479 120.45 158.993 121.011C159.507 121.571 160.221 121.909 160.98 121.95C161.346 121.98 161.715 121.937 162.064 121.824C162.413 121.711 162.737 121.53 163.016 121.291C163.295 121.052 163.524 120.76 163.689 120.432C163.855 120.104 163.954 119.746 163.98 119.38C164.01 118.62 163.739 117.879 163.226 117.317C162.713 116.756 162 116.419 161.24 116.38C160.873 116.347 160.503 116.388 160.152 116.5C159.801 116.612 159.475 116.793 159.195 117.032C158.915 117.272 158.685 117.565 158.519 117.894C158.353 118.223 158.255 118.582 158.23 118.95V118.95Z" fill="#263238"/>
<path d="M155.13 111.33C155.49 111.71 157.72 110.12 160.85 110.18C163.98 110.24 166.24 111.85 166.59 111.47C166.76 111.3 166.4 110.61 165.41 109.87C164.077 108.906 162.476 108.382 160.83 108.37C159.203 108.336 157.606 108.819 156.27 109.75C155.3 110.47 154.96 111.15 155.13 111.33Z" fill="#263238"/>
<path d="M142.58 134.98C142.58 134.81 140.66 134.44 137.51 133.98C136.72 133.88 135.96 133.71 135.84 133.16C135.783 132.337 135.982 131.516 136.41 130.81L138.88 124.76C142.31 116.16 144.8 109.08 144.45 108.95C144.1 108.82 141.05 115.68 137.62 124.28C136.79 126.4 136 128.42 135.25 130.36C134.729 131.312 134.562 132.417 134.78 133.48C134.889 133.765 135.062 134.022 135.286 134.23C135.51 134.438 135.778 134.592 136.07 134.68C136.513 134.805 136.97 134.876 137.43 134.89C140.6 135.11 142.56 135.16 142.58 134.98Z" fill="#263238"/>
<path d="M139.78 171.96C150.449 172.303 161.004 169.679 170.27 164.38C170.27 164.38 162.34 180.25 139.69 177.74L139.78 171.96Z" fill="#8A4A43"/>
<path d="M154.13 100.27C154.5 101.1 157.58 100.48 161.28 100.67C164.98 100.86 168 101.67 168.43 100.86C168.62 100.48 168.05 99.72 166.8 98.98C165.138 98.0841 163.294 97.578 161.407 97.5C159.521 97.422 157.641 97.7742 155.91 98.53C154.6 99.16 153.97 99.87 154.13 100.27Z" fill="#263238"/>
<path d="M124.26 101.66C124.9 102.38 127.46 101.66 130.52 101.66C133.58 101.66 136.18 102.23 136.79 101.5C137.06 101.14 136.66 100.42 135.54 99.7301C133.99 98.8645 132.235 98.4327 130.46 98.4801C128.703 98.4671 126.975 98.9301 125.46 99.8201C124.35 100.57 123.98 101.3 124.26 101.66Z" fill="#263238"/>
<path d="M143.32 142.66C143.987 141.695 144.902 140.929 145.969 140.441C147.035 139.953 148.214 139.763 149.38 139.89H149.6C150.234 139.889 150.854 140.074 151.385 140.42C151.916 140.766 152.334 141.26 152.589 141.84C152.843 142.421 152.923 143.063 152.819 143.688C152.714 144.313 152.43 144.894 152 145.36C151.215 146.268 150.166 146.908 149 147.19C148.265 147.427 147.488 147.505 146.721 147.419C145.954 147.333 145.214 147.084 144.55 146.69C143.898 146.275 143.416 145.641 143.19 144.902C142.965 144.163 143.011 143.368 143.32 142.66V142.66Z" fill="#8A4A43"/>
<path d="M152.07 137.95C151.92 137.95 151.73 138.74 151.15 139.95C150.425 141.463 149.32 142.762 147.942 143.719C146.564 144.676 144.961 145.259 143.29 145.41C142 145.55 141.17 145.41 141.14 145.6C141.11 145.79 141.91 146.08 143.32 146.13C145.178 146.169 147.001 145.618 148.526 144.556C150.052 143.494 151.201 141.976 151.81 140.22C152.26 138.85 152.19 137.96 152.07 137.95Z" fill="#263238"/>
<path d="M118.84 127.37L114.15 108.37C109.93 102.55 113.22 93.05 116.21 86.52C119.2 79.99 124.9 74.98 131.21 71.6C137.52 68.22 144.56 66.31 151.54 64.6C148.658 73.4167 142.716 80.9115 134.79 85.73C134.79 85.73 123.26 93.66 121.13 102.96C118.89 113.15 118.84 127.37 118.84 127.37Z" fill="#263238"/>
<path d="M145.2 76.59L178.27 96.46C179.191 106.659 181.565 116.673 185.32 126.2C191.42 120.98 195.19 131.04 197.02 123.31C197.12 122.9 195.34 139.52 188.95 140.04L187.95 158.11L219.49 150.35C219.49 150.35 217.79 128.45 212.41 115.16C209.06 106.9 207.29 99.97 203.99 91.69C201.48 85.42 197.04 76.05 193.7 71.59C186.54 62.02 160.01 61.59 160.01 61.59C148.32 64.35 156.19 63.04 146.34 69.93L142.98 78.93" fill="#263238"/>
<path d="M185.31 126.07C185.31 121.3 190.4 117.83 194.74 119.98C197.12 121.17 199.04 123.7 199.11 128.77C199.29 142.29 185.43 139.7 185.4 139.31C185.37 138.92 185.34 131.66 185.31 126.07Z" fill="#B56760"/>
<path d="M189.53 134.13C189.59 134.13 189.78 134.29 190.18 134.47C190.759 134.694 191.401 134.694 191.98 134.47C193.43 133.92 194.62 131.64 194.65 129.2C194.669 128.041 194.427 126.892 193.94 125.84C193.8 125.419 193.56 125.037 193.242 124.727C192.923 124.418 192.535 124.189 192.11 124.06C191.834 123.991 191.542 124.02 191.285 124.143C191.028 124.265 190.821 124.472 190.7 124.73C190.52 125.11 190.61 125.37 190.54 125.4C190.47 125.43 190.24 125.18 190.34 124.62C190.417 124.282 190.603 123.98 190.87 123.76C191.247 123.473 191.72 123.344 192.19 123.4C192.754 123.498 193.284 123.738 193.729 124.099C194.173 124.46 194.518 124.928 194.73 125.46C195.33 126.618 195.632 127.906 195.61 129.21C195.61 131.94 194.18 134.51 192.19 135.1C191.822 135.211 191.434 135.239 191.053 135.182C190.673 135.125 190.31 134.984 189.99 134.77C189.56 134.46 189.49 134.16 189.53 134.13Z" fill="#8A4A43"/>
<path d="M160.97 61.5601C160.817 61.854 160.625 62.1264 160.4 62.3701C159.99 62.8601 159.4 63.5401 158.56 64.3701C156.96 65.9801 154.65 68.1101 152.09 70.4401C149.53 72.7701 147.23 74.8901 145.59 76.4401C144.746 77.3239 143.858 78.165 142.93 78.9601C143.088 78.6701 143.287 78.4041 143.52 78.1701C143.93 77.6801 144.52 77.0001 145.33 76.1701C146.91 74.5201 149.18 72.3501 151.74 70.0201L158.31 64.0201C159.99 62.5601 160.91 61.5101 160.97 61.5601Z" fill="#455A64"/>
<path d="M124.18 73.01C124.439 72.6476 124.734 72.3125 125.06 72.01C125.916 71.109 126.835 70.2702 127.81 69.5C131.042 66.9431 134.761 65.0717 138.74 64C140.941 63.3208 143.292 63.2895 145.51 63.91C146.423 64.1708 147.27 64.622 147.996 65.2339C148.721 65.8458 149.309 66.6045 149.72 67.46C150.243 68.6335 150.31 69.9593 149.91 71.18C149.803 71.5076 149.648 71.8176 149.45 72.1C149.31 72.2866 149.23 72.3766 149.21 72.37C149.406 71.9641 149.576 71.5467 149.72 71.12C150.017 69.9459 149.896 68.7053 149.38 67.61C148.976 66.8213 148.411 66.1258 147.722 65.5679C147.033 65.01 146.236 64.602 145.38 64.37C143.244 63.8049 140.992 63.8499 138.88 64.5C134.969 65.5641 131.294 67.3591 128.05 69.79C125.55 71.66 124.25 73.08 124.18 73.01Z" fill="#455A64"/>
<path d="M116.62 86.66C116.866 86.2935 117.155 85.9578 117.48 85.66C118.06 85.06 118.92 84.2 120 83.17C122.789 80.4242 125.906 78.0328 129.28 76.05C131.139 74.949 133.166 74.1618 135.28 73.72C137.061 73.3579 138.912 73.6341 140.51 74.5C141.572 75.101 142.413 76.0262 142.91 77.14C143.033 77.4622 143.117 77.7979 143.16 78.14C143.175 78.2528 143.175 78.3672 143.16 78.48C143.1 78.48 143.06 78.02 142.71 77.27C142.172 76.2485 141.339 75.4124 140.32 74.87C138.776 74.0896 137.01 73.867 135.32 74.24C133.252 74.6955 131.271 75.4787 129.45 76.56C126.115 78.5279 123.004 80.8515 120.17 83.49L117.54 85.85C117.258 86.1468 116.95 86.4179 116.62 86.66V86.66Z" fill="#455A64"/>
<path d="M195.78 140.66C195.811 141.593 195.565 142.514 195.073 143.307C194.581 144.1 193.864 144.729 193.015 145.115C192.165 145.501 191.22 145.626 190.299 145.475C189.378 145.324 188.522 144.903 187.84 144.266C187.158 143.629 186.681 142.804 186.467 141.895C186.254 140.986 186.315 140.035 186.643 139.161C186.97 138.287 187.55 137.53 188.307 136.985C189.065 136.44 189.967 136.132 190.9 136.1C191.52 136.079 192.138 136.18 192.719 136.397C193.3 136.615 193.832 136.945 194.285 137.368C194.739 137.792 195.104 138.301 195.36 138.865C195.617 139.43 195.759 140.04 195.78 140.66V140.66Z" fill="#455A64"/>
<path d="M109.13 275.71C108 276.46 95.5302 279.48 92.5102 287.42C89.4902 295.36 73.4502 311.48 85.0602 327.22L109.13 313.87V275.71Z" fill="#FF725E"/>
<path d="M85.07 327.26C83.0354 324.581 81.6832 321.448 81.13 318.13C80.6976 315.179 80.8746 312.17 81.65 309.29C83.08 303.58 86.33 298.29 88.94 293.97C90.3064 291.889 91.5036 289.702 92.52 287.43C94.99 280.94 103.77 277.73 107.52 276.36C108.072 276.164 108.61 275.931 109.13 275.66V275.66V313.88L85.07 327.26ZM109.13 275.75C108.609 275.993 108.075 276.207 107.53 276.39C103.79 277.75 95.02 280.96 92.53 287.39C91.5179 289.668 90.3206 291.858 88.95 293.94C86.34 298.22 83.09 303.54 81.67 309.25C80.8945 312.12 80.7175 315.119 81.15 318.06C81.7012 321.361 83.0427 324.48 85.06 327.15L109.06 313.81L109.13 275.75Z" fill="#263238"/>
<path d="M136.93 209.93L138.9 182.71L188.46 162.03L190.22 172.19L156.46 189.37L136.93 209.93Z" fill="#E0E0E0"/>
<path d="M190.22 166.2C190.22 166.2 159.86 178.48 146.39 190.48C133.73 201.76 107.39 246.24 104.57 258.37C101.75 270.5 102.3 304.05 102.3 304.05C102.3 304.05 102.23 338.67 102.23 339.52C102.23 340.37 80.52 396.21 84.46 426.66H208.29C208.29 426.66 211.96 383.78 203.5 367.14C195.04 350.5 194.75 353.88 194.75 353.88C194.75 353.88 199.83 348.24 199.27 343.16C198.777 339.819 197.521 336.637 195.6 333.86L217.32 266.16C217.32 266.16 219.57 232.03 213.65 209.16C208.13 187.78 206.03 188.99 199.13 182.14C198.98 182 199.22 182.33 199.13 182.14L192.82 176.97L190.22 166.2Z" fill="#FF725E"/>
<path d="M109.13 373.15C108.75 371.69 118.51 354.36 118.51 354.36L174.51 363.76L178.4 379.48L109.13 373.15Z" fill="#FF725E"/>
<path d="M109.13 373.15H109.5L110.5 373.22L114.5 373.54L129.13 374.82L178.4 379.23L178.12 379.54C177.18 375.73 176.19 371.73 175.18 367.67C174.86 366.37 174.54 365.07 174.18 363.82L174.39 364.01L118.44 354.53L118.62 354.44C115.38 360.18 112.89 364.82 111.26 368.04C110.44 369.65 109.85 370.92 109.49 371.79C109.349 372.114 109.232 372.449 109.14 372.79C109.08 373.02 109.14 373.13 109.14 373.14C109.12 372.654 109.227 372.172 109.45 371.74C109.78 370.85 110.35 369.58 111.14 367.95C112.72 364.69 115.14 360.03 118.37 354.26L118.43 354.16H118.55L174.55 363.47H174.72V363.63L175.67 367.48C176.67 371.55 177.67 375.55 178.61 379.36L178.7 379.71H178.34L128.94 375.09L114.37 373.68L110.46 373.28L109.46 373.17C109.35 373.178 109.239 373.171 109.13 373.15V373.15Z" fill="#263238"/>
<g opacity="0.3">
<path d="M97.1304 346.26L98.3804 356.4C107.3 362.72 119.92 361.52 129.47 356.18C139.02 350.84 146.1 342.07 152.64 333.31C172.49 306.76 189.78 278.09 201.57 247.11C170.82 284.04 128.2 309.58 97.1304 346.26Z" fill="black"/>
</g>
<path d="M197.13 194.85C207.52 203.12 216.58 229 200.49 251.37C200.49 251.37 130.19 346.75 118.55 354.37C106.91 361.99 91.2403 357.5 86.7603 346.31C82.2803 335.12 84.0704 324.37 90.3404 316.76C96.6104 309.15 137.81 236.6 137.81 236.6C137.81 236.6 147.2 202.98 163.21 193.22" fill="#FF725E"/>
<path d="M163.19 193.21L162.47 193.72C161.75 194.2 161.056 194.718 160.39 195.27C157.841 197.456 155.565 199.94 153.61 202.67C148.43 209.73 142.61 221.29 137.95 236.67C128.95 252.58 117.63 272.39 104.49 294.67C101.18 300.21 97.7902 305.93 94.1302 311.67C93.1302 313.09 92.3102 314.56 91.2502 315.95C90.7402 316.66 90.2502 317.35 89.7002 318.02C89.1857 318.711 88.7084 319.428 88.2702 320.17C87.3856 321.663 86.6456 323.237 86.0602 324.87C85.4852 326.53 85.07 328.241 84.8202 329.98C84.3355 333.518 84.4879 337.115 85.2702 340.6C85.4702 341.48 85.6802 342.36 85.9602 343.22C86.2402 344.08 86.5302 344.94 86.8402 345.79C87.1502 346.64 87.5902 347.43 87.9702 348.25L88.7102 349.39C88.9439 349.779 89.2116 350.148 89.5102 350.49C91.8634 353.36 94.9851 355.5 98.5102 356.66C102.046 357.863 105.821 358.189 109.51 357.61C112.92 357.057 116.159 355.734 118.98 353.74C121.581 351.514 124.005 349.09 126.23 346.49C130.77 341.39 135.06 336.2 139.23 331.07C147.55 320.79 155.38 310.72 162.8 301.07C170.22 291.42 177.19 282.23 183.69 273.6L193.07 261.08L197.47 255.17C198.89 253.23 200.37 251.39 201.55 249.43C203.971 245.798 205.851 241.833 207.13 237.66C207.4 236.66 207.67 235.66 207.93 234.72C208.19 233.78 208.3 232.77 208.48 231.81C209.865 223.767 208.993 215.497 205.96 207.92C204.563 204.233 202.559 200.805 200.03 197.78C199.58 197.27 199.22 196.78 198.85 196.45L197.9 195.57C197.39 195.1 197.14 194.84 197.14 194.84C197.14 194.84 197.42 195.07 197.94 195.53L198.94 196.39C199.33 196.73 199.69 197.21 200.15 197.71C202.712 200.725 204.741 204.154 206.15 207.85C208.458 213.688 209.554 219.935 209.37 226.21C209.291 228.103 209.098 229.99 208.79 231.86C208.61 232.86 208.51 233.86 208.25 234.79C207.99 235.72 207.72 236.79 207.44 237.79C206.157 242 204.264 245.999 201.82 249.66C200.63 251.66 199.15 253.48 197.74 255.43L193.35 261.35C190.35 265.35 187.23 269.53 183.99 273.89C177.51 282.53 170.54 291.75 163.14 301.39C155.74 311.03 147.91 321.11 139.59 331.39C135.42 336.53 131.14 341.73 126.59 346.83C125.46 348.11 124.28 349.37 123.09 350.61C121.899 351.882 120.619 353.069 119.26 354.16C116.376 356.219 113.057 357.587 109.56 358.16C105.772 358.754 101.895 358.411 98.2702 357.16C94.6707 355.96 91.4868 353.761 89.0902 350.82C88.7771 350.471 88.4991 350.093 88.2602 349.69L87.5002 348.52C87.1102 347.67 86.6502 346.85 86.3302 345.98C86.0102 345.11 85.6802 344.26 85.4402 343.38C85.2002 342.5 84.9502 341.61 84.7502 340.72C83.5015 335.417 83.7824 329.869 85.5602 324.72C86.1643 323.057 86.9209 321.454 87.8202 319.93C88.2802 319.18 88.7502 318.44 89.2802 317.74C89.8102 317.04 90.3402 316.36 90.8302 315.67C91.8302 314.31 92.7502 312.83 93.7002 311.42C97.3502 305.69 100.75 299.98 104.07 294.42C117.22 272.21 128.55 252.42 137.64 236.54C142.3 221.15 148.24 209.61 153.48 202.54C155.452 199.808 157.76 197.335 160.35 195.18C161.025 194.635 161.729 194.127 162.46 193.66C162.93 193.36 163.19 193.21 163.19 193.21Z" fill="#263238"/>
<path d="M132.19 267.04C132.19 267.04 130.38 262.31 126.76 261.68C123.14 261.05 116.15 261.68 116.15 261.68C116.15 261.68 113.07 264 113.1 267.18C113.101 268.999 113.32 270.812 113.75 272.58C113.75 272.58 111.22 269.17 107.89 272.4C104.56 275.63 101.64 282.18 101.64 282.18C101.64 282.18 97.21 283.6 95.52 285.75C94.3286 287.471 93.4204 289.372 92.83 291.38C91.7297 292.138 90.8611 293.185 90.3209 294.407C89.7807 295.629 89.5899 296.976 89.77 298.3C89.9696 299.707 90.4995 301.047 91.3165 302.21C92.1334 303.372 93.214 304.325 94.47 304.99C94.47 304.99 107.68 314.72 109.29 313.46C110.9 312.2 114.21 310.22 109.46 306.01L101.73 299.16L103.97 295.7C103.97 295.7 116.9 304.59 118.97 304.16C121.04 303.73 124.57 303.66 123.12 300.47C121.67 297.28 109.59 287.98 109.59 287.98L111.02 282.98C111.02 282.98 125.02 292.44 127.29 290.93C129.56 289.42 131.62 288.71 129.29 285.59C126.96 282.47 116.87 275.02 116.87 275.02L121 271.16C121 271.16 130.77 272.87 132.19 267.04Z" fill="#B56760"/>
<path d="M192.78 176.97L192.43 177.07L191.43 177.35C190.53 177.58 189.2 177.93 187.49 178.42C182.672 179.754 177.929 181.343 173.28 183.18C171.81 183.77 170.28 184.42 168.73 185.18C167.95 185.55 167.16 185.93 166.37 186.36C165.98 186.58 165.57 186.78 165.18 187.01C164.79 187.24 164.41 187.48 164.05 187.76C161 190.277 158.194 193.076 155.67 196.12C150.19 202.45 144.6 209.79 138.88 217.57C133.16 225.35 127.88 232.93 123.13 239.84C120.76 243.3 118.54 246.6 116.48 249.71C114.524 252.551 112.751 255.514 111.17 258.58C108.973 263.072 107.115 267.722 105.61 272.49C105.06 274.18 104.67 275.49 104.41 276.39L104.12 277.39C104.091 277.51 104.051 277.627 104 277.74C104 277.74 104 277.61 104.07 277.38L104.31 276.38C104.54 275.48 104.9 274.15 105.41 272.45C106.851 267.648 108.667 262.967 110.84 258.45C112.406 255.359 114.169 252.373 116.12 249.51C118.12 246.38 120.38 243.07 122.73 239.6C127.45 232.67 132.73 225.11 138.46 217.3C144.19 209.49 149.79 202.17 155.31 195.83C157.861 192.768 160.705 189.961 163.8 187.45C164.17 187.16 164.58 186.93 164.97 186.67C165.36 186.41 165.78 186.24 166.18 186.02C166.97 185.59 167.77 185.21 168.56 184.85C170.13 184.11 171.66 183.46 173.14 182.85C177.814 181.036 182.588 179.494 187.44 178.23C189.16 177.77 190.5 177.46 191.44 177.23L192.44 177.01C192.552 176.986 192.666 176.972 192.78 176.97V176.97Z" fill="#263238"/>
<path d="M184.92 347.9C184.381 347.649 183.862 347.355 183.37 347.02C182.37 346.44 181 345.53 179.32 344.36C170.581 338.207 162.949 330.616 156.75 321.91C155.57 320.24 154.65 318.86 154.06 317.91C153.73 317.415 153.436 316.897 153.18 316.36C153.552 316.808 153.887 317.287 154.18 317.79C154.82 318.74 155.78 320.08 157 321.72C163.331 330.264 170.912 337.805 179.49 344.09C181.13 345.3 182.49 346.25 183.43 346.88C183.951 347.184 184.448 347.525 184.92 347.9V347.9Z" fill="#263238"/>
<g opacity="0.3">
<path d="M110.95 373.31L112.64 379.48L176.02 379.26L110.95 373.31Z" fill="black"/>
</g>
</g>
<defs>
<clipPath id="clip0_401_4626">
<rect width="430.81" height="427.22" fill="white"/>
</clipPath>
</defs>
</svg>
