<svg width="133" height="133" viewBox="0 0 133 133" fill="none" xmlns="http://www.w3.org/2000/svg">
<g opacity="0.2" clip-path="url(#clip0_401_4812)">
<path d="M21.8567 63.1918C22.3678 56.3444 24.448 49.7066 27.9363 43.792C31.4246 37.8775 36.2276 32.845 41.9731 29.0842C47.7187 25.3233 54.2528 22.9349 61.0696 22.104C67.8864 21.2731 74.803 22.0219 81.284 24.2924C87.765 26.563 93.6364 30.2944 98.4437 35.1977C103.251 40.1011 106.865 46.0449 109.007 52.5689C111.148 59.0929 111.759 66.0221 110.792 72.8201C109.826 79.6181 107.307 86.1024 103.432 91.7712L119.073 105.751C125.232 97.4992 129.363 87.9138 131.131 77.77C132.899 67.6262 132.255 57.2087 129.25 47.3601C126.246 37.5114 120.965 28.508 113.835 21.0779C106.706 13.6478 97.9277 7.99968 88.2105 4.59022C78.4933 1.18076 68.1101 0.105683 57.9004 1.45195C47.6907 2.79821 37.9412 6.52803 29.4402 12.3397C20.9393 18.1515 13.9256 25.8819 8.96636 34.906C4.00711 43.9301 1.2415 53.9946 0.893188 64.2854L21.8567 63.1918Z" fill="white"/>
<path d="M119.073 106.644C118.858 106.647 118.65 106.569 118.49 106.425L102.831 92.4455C102.669 92.3016 102.566 92.1041 102.539 91.8896C102.512 91.675 102.564 91.4581 102.685 91.2789C106.493 85.7227 108.97 79.3643 109.925 72.6966C110.879 66.0289 110.286 59.231 108.19 52.8297C106.094 46.4283 102.552 40.5955 97.8385 35.7832C93.125 30.9709 87.3665 27.3084 81.0094 25.0796C74.6524 22.8507 67.8674 22.1153 61.1803 22.9304C54.4932 23.7455 48.0837 26.0892 42.4483 29.7798C36.813 33.4705 32.1033 38.409 28.6841 44.2125C25.265 50.0161 23.2283 56.529 22.7318 63.2463C22.7188 63.4644 22.6262 63.6702 22.4717 63.8247C22.3172 63.9792 22.1114 64.0718 21.8932 64.0848L0.947951 65.2513C0.823733 65.2603 0.699052 65.2421 0.582566 65.1981C0.46608 65.154 0.360599 65.0851 0.27348 64.9961C0.184516 64.912 0.114191 64.81 0.0670894 64.697C0.0199876 64.584 -0.00288604 64.4623 -1.62113e-06 64.3399C0.334416 53.9028 3.1221 43.691 8.13737 34.5314C13.1526 25.3717 20.2545 17.5214 28.8681 11.6162C37.4818 5.711 47.3651 1.91673 57.7179 0.540547C68.0708 -0.835637 78.6022 0.244953 88.4597 3.69484C98.3173 7.14472 107.224 12.8669 114.458 20.3983C121.693 27.9296 127.052 37.0584 130.102 47.0457C133.153 57.0329 133.808 67.5979 132.015 77.8854C130.223 88.173 126.032 97.8939 119.784 106.261C119.712 106.361 119.619 106.443 119.512 106.503C119.405 106.563 119.286 106.599 119.164 106.608L119.073 106.644ZM104.599 91.6252L118.945 104.384C128.243 91.3763 132.43 75.4035 130.708 59.5084C128.987 43.6133 121.478 28.9066 109.612 18.19C100.491 10.0414 89.2483 4.64339 77.1855 2.62111C65.1226 0.598833 52.7335 2.03512 41.4534 6.76358C30.1734 11.492 20.464 19.3191 13.4501 29.3382C6.43622 39.3572 2.4048 51.1582 1.82292 63.3739L21.0183 62.2803C21.7071 55.4183 23.9448 48.8021 27.5626 42.9304C31.1804 37.0587 36.084 32.0847 41.9038 28.3833C47.7237 24.6819 54.3079 22.3496 61.1603 21.5622C68.0126 20.7748 74.9544 21.5529 81.4623 23.8378C87.9701 26.1227 93.8743 29.8548 98.73 34.7528C103.586 39.6509 107.266 45.5871 109.494 52.114C111.722 58.6409 112.438 65.5882 111.591 72.4324C110.743 79.2766 108.352 85.8391 104.599 91.6252Z" fill="black"/>
<path d="M95.7579 100.374C88.2294 106.876 78.7496 110.685 68.8151 111.201L67.5756 132.107C83.8598 131.837 99.4587 125.507 111.326 114.354L95.7579 100.374Z" fill="black"/>
<path d="M67.5756 133C67.4533 133.002 67.332 132.978 67.2191 132.931C67.1062 132.884 67.0042 132.814 66.9193 132.726C66.8364 132.636 66.7727 132.529 66.732 132.413C66.6912 132.298 66.6744 132.175 66.6824 132.052L67.9037 111.146C67.9126 110.927 68.0039 110.718 68.1592 110.563C68.3146 110.408 68.5227 110.317 68.7423 110.308C78.4725 109.79 87.756 106.059 95.1381 99.6997C95.3002 99.5598 95.5073 99.4829 95.7214 99.4829C95.9355 99.4829 96.1426 99.5598 96.3047 99.6997L111.964 113.68C112.056 113.762 112.13 113.863 112.18 113.976C112.23 114.089 112.256 114.212 112.255 114.336C112.258 114.458 112.235 114.58 112.188 114.693C112.141 114.806 112.071 114.908 111.982 114.992C99.9419 126.319 84.1051 132.741 67.5756 133V133ZM69.6355 112.039L68.5235 131.195C83.9278 130.722 98.653 124.747 110.031 114.354L95.7032 101.595C88.3304 107.71 79.2272 111.362 69.672 112.039H69.6355Z" fill="black"/>
<path d="M57.3308 110.308C48.6433 108.497 40.6907 104.144 34.4842 97.8026C28.2778 91.4607 24.098 83.4164 22.4766 74.6929L1.53131 75.8776C3.52848 89.728 9.90181 102.577 19.7208 112.549C29.5397 122.521 42.29 129.093 56.1094 131.305L57.3308 110.308Z" fill="#FF725E"/>
<path d="M56.1094 132.198H55.9818C41.9733 129.96 29.0477 123.301 19.0939 113.194C9.14 103.087 2.67947 90.0629 0.656186 76.0235C0.638215 75.9018 0.645105 75.7776 0.676436 75.6586C0.707766 75.5395 0.762953 75.4281 0.838544 75.3309C0.914854 75.2334 1.01134 75.1535 1.12148 75.0969C1.23163 75.0403 1.35278 75.0082 1.47652 75.0028L22.4401 73.8181C22.6564 73.8094 22.8688 73.878 23.0391 74.0116C23.2094 74.1452 23.3266 74.3351 23.3698 74.5472C24.9463 83.0995 29.0365 90.9879 35.118 97.205C41.1996 103.422 48.9965 107.686 57.513 109.451C57.7217 109.498 57.9074 109.617 58.0373 109.787C58.1673 109.957 58.2334 110.167 58.2239 110.381L57.0026 131.378C56.9961 131.501 56.9635 131.622 56.9069 131.732C56.8504 131.842 56.7712 131.939 56.6745 132.016C56.5111 132.137 56.3126 132.201 56.1094 132.198V132.198ZM2.57034 76.6979C4.68641 90.0032 10.9034 102.316 20.3541 111.919C29.8048 121.522 42.0178 127.936 55.2891 130.266L56.401 111.019C47.8295 109.085 39.9997 104.715 33.8547 98.4355C27.7096 92.1555 23.5114 84.2331 21.7656 75.6225L2.57034 76.6979Z" fill="black"/>
</g>
<defs>
<clipPath id="clip0_401_4812">
<rect width="133" height="133" fill="white"/>
</clipPath>
</defs>
</svg>
