<svg width="175" height="138" viewBox="0 0 175 138" fill="none" xmlns="http://www.w3.org/2000/svg">
<g opacity="0.2" clip-path="url(#clip0_401_4793)">
<path d="M95.7927 130.715L81.8098 126.842L80.0081 133.357L93.991 137.23L95.7927 130.715Z" fill="black"/>
<path d="M94.0262 138C93.9537 138.016 93.8786 138.016 93.8061 138L79.8223 134.137C79.6109 134.074 79.4302 133.935 79.3145 133.747C79.2298 133.541 79.2298 133.31 79.3145 133.103L81.109 126.597C81.1683 126.387 81.3082 126.208 81.4984 126.1C81.6887 125.992 81.9138 125.964 82.1248 126.021L96.1254 129.901C96.2306 129.926 96.329 129.974 96.4138 130.042C96.4986 130.109 96.5678 130.194 96.6165 130.291C96.7212 130.482 96.7514 130.705 96.7011 130.918L94.8896 137.424C94.8354 137.605 94.7194 137.762 94.5617 137.868C94.4041 137.973 94.2146 138.02 94.0262 138V138ZM81.0583 132.714L93.4505 136.102L94.805 131.189L82.4126 127.8L81.0583 132.714Z" fill="black"/>
<path d="M142.191 74.5658C143.806 68.6957 143.949 62.5176 142.608 56.5788C141.268 50.64 138.484 45.1238 134.504 40.519C130.524 35.9142 125.47 32.3629 119.791 30.1796C114.112 27.9964 107.983 27.2487 101.946 28.0028C95.9088 28.7569 90.151 30.9895 85.1823 34.5027C80.2136 38.016 76.1873 42.7014 73.4604 48.144C70.7334 53.5866 69.3899 59.6184 69.5488 65.7048C69.7076 71.7913 71.364 77.7445 74.3712 83.0372C79.6871 92.4067 83.9195 98.7433 81.0415 109.129L105.623 115.906C108.467 105.741 115.104 102.352 124.415 97.1507C128.735 94.765 132.533 91.5374 135.586 87.6584C138.639 83.7794 140.885 79.3276 142.191 74.5658V74.5658Z" fill="white"/>
<path d="M105.623 116.686H105.403L80.8214 109.909C80.6109 109.849 80.4323 109.709 80.3245 109.519C80.2168 109.328 80.1884 109.103 80.2457 108.892C82.8359 99.5057 79.4162 93.5079 74.659 85.172C74.3373 84.579 73.9988 83.986 73.6602 83.4777C70.6155 78.0643 68.9494 71.984 68.8093 65.7735C68.6692 59.5631 70.0593 53.4137 72.8567 47.8683C75.6542 42.323 79.773 37.5523 84.8494 33.9776C89.9259 30.403 95.8037 28.1343 101.964 27.3719C108.124 26.6096 114.377 27.377 120.171 29.6064C125.964 31.8359 131.12 35.4587 135.183 40.155C139.246 44.8514 142.091 50.4767 143.467 56.5342C144.842 62.5917 144.706 68.8951 143.071 74.8876V74.8876C141.741 79.7508 139.447 84.2968 136.327 88.2552C133.206 92.2137 129.322 95.5038 124.906 97.93L123.958 98.4383C115.053 103.352 109.161 106.605 106.503 116.177C106.442 116.39 106.303 116.571 106.114 116.686C105.954 116.734 105.783 116.734 105.623 116.686ZM82.0741 108.468L105.081 114.839C108.01 105.198 114.376 101.691 123.094 96.8795L124.025 96.3712C130.305 92.9057 135.413 87.6499 138.701 81.2718C141.989 74.8937 143.307 67.6814 142.489 60.5515C141.671 53.4215 138.753 46.696 134.107 41.2298C129.46 35.7635 123.294 31.8033 116.393 29.8525C109.492 27.9018 102.167 28.0485 95.3497 30.2741C88.5321 32.4998 82.5298 36.7038 78.1054 42.3518C73.6811 47.9998 71.0345 54.8368 70.5023 61.9938C69.97 69.1507 71.576 76.3045 75.1161 82.5458L76.1149 84.3248C80.7367 92.4235 84.4273 98.8618 82.0741 108.468Z" fill="black"/>
<path d="M77.4184 113.399L80.5842 101.912L109.686 109.96L106.503 121.447C105.977 123.366 105.077 125.161 103.855 126.731C102.633 128.3 101.112 129.612 99.3818 130.592C97.6512 131.571 95.7441 132.198 93.7703 132.438C91.7965 132.677 89.795 132.523 87.8808 131.985V131.985C84.0349 130.902 80.7745 128.339 78.8136 124.855C76.8526 121.371 76.351 117.252 77.4184 113.399V113.399Z" fill="#E8505B"/>
<path d="M94.3648 134.154C93.2207 134.155 92.0817 134.002 90.9789 133.697L84.3426 131.867C82.7628 131.43 81.2844 130.686 79.992 129.677C78.6997 128.668 77.6186 127.415 76.8105 125.988C76.0024 124.56 75.4832 122.988 75.2825 121.36C75.0818 119.732 75.2036 118.081 75.6408 116.5L79.7377 101.692C79.7651 101.586 79.8133 101.487 79.8796 101.401C79.9459 101.314 80.0289 101.242 80.1237 101.188C80.2184 101.134 80.3231 101.1 80.4313 101.088C80.5395 101.075 80.649 101.085 80.7535 101.116L109.855 109.163C110.067 109.226 110.246 109.37 110.353 109.563C110.461 109.756 110.489 109.984 110.431 110.197L106.334 124.988C105.608 127.612 104.046 129.926 101.886 131.581C99.7256 133.235 97.0849 134.139 94.3648 134.154V134.154ZM77.2829 116.94C76.9049 118.311 76.8005 119.742 76.9753 121.154C77.1502 122.565 77.601 123.927 78.3022 125.164C79.0033 126.4 79.9411 127.487 81.0617 128.361C82.1823 129.235 83.464 129.879 84.8335 130.257L91.4699 132.104C94.2379 132.869 97.1959 132.502 99.6941 131.085C102.192 129.668 104.026 127.317 104.793 124.548L108.67 110.553L81.1599 102.928L77.2829 116.94Z" fill="black"/>
<path d="M104.895 114.585L82.4635 108.367C82.3939 108.349 82.3344 108.304 82.2979 108.242C82.2614 108.18 82.2509 108.106 82.2688 108.036C82.2868 107.967 82.3316 107.907 82.3936 107.871C82.4555 107.834 82.5294 107.824 82.599 107.842L104.98 113.992C105.047 114.015 105.104 114.063 105.138 114.125C105.173 114.188 105.182 114.261 105.166 114.331C105.158 114.398 105.127 114.461 105.077 114.507C105.027 114.554 104.963 114.581 104.895 114.585V114.585Z" fill="black"/>
<path d="M114.443 80.1061L92.0117 73.905C91.9535 73.8743 91.9076 73.8245 91.8816 73.7639C91.8557 73.7034 91.8512 73.6358 91.869 73.5724C91.8868 73.5089 91.9259 73.4535 91.9796 73.4154C92.0333 73.3773 92.0984 73.3588 92.1641 73.3629L114.596 79.5809C114.632 79.5883 114.666 79.6035 114.695 79.6253C114.725 79.6471 114.749 79.6751 114.767 79.7073C114.785 79.7395 114.795 79.7752 114.798 79.8119C114.8 79.8486 114.795 79.8854 114.782 79.9198C114.772 79.9544 114.756 79.9868 114.733 80.015C114.711 80.0432 114.683 80.0667 114.652 80.084C114.62 80.1014 114.585 80.1122 114.55 80.116C114.514 80.1198 114.478 80.1165 114.443 80.1061V80.1061Z" fill="black"/>
<path d="M120.386 15.4689H120.165C120.06 15.4413 119.96 15.3931 119.873 15.327C119.786 15.2609 119.713 15.1783 119.658 15.0838C119.603 14.9893 119.567 14.8849 119.553 14.7766C119.538 14.6682 119.545 14.558 119.573 14.4523L123.399 0.64384C123.419 0.529671 123.462 0.420907 123.527 0.324558C123.591 0.228209 123.675 0.14641 123.772 0.0844108C123.87 0.0224117 123.98 -0.0184294 124.095 -0.0354429C124.209 -0.0524564 124.326 -0.0452637 124.438 -0.0143728C124.549 0.0165181 124.653 0.0704282 124.742 0.143924C124.832 0.21742 124.905 0.308861 124.957 0.412354C125.009 0.515847 125.039 0.629112 125.045 0.744847C125.051 0.860582 125.032 0.976224 124.99 1.08435L121.181 14.8928C121.127 15.0611 121.021 15.2077 120.878 15.3113C120.735 15.415 120.562 15.4702 120.386 15.4689V15.4689Z" fill="black"/>
<path d="M155.413 39.6462C155.226 39.6521 155.043 39.5949 154.893 39.4839C154.743 39.3728 154.635 39.2144 154.586 39.0342C154.537 38.854 154.55 38.6625 154.623 38.4907C154.697 38.3189 154.826 38.1769 154.989 38.0875L167.449 31.0223C167.643 30.9145 167.87 30.8878 168.083 30.9482C168.296 31.0085 168.476 31.151 168.584 31.3442C168.691 31.5374 168.718 31.7656 168.658 31.9785C168.597 32.1914 168.455 32.3715 168.262 32.4794L155.819 39.5277C155.698 39.6057 155.557 39.6469 155.413 39.6462Z" fill="black"/>
<path d="M174.187 81.563H173.95L160.17 77.7509C160.064 77.7216 159.965 77.6715 159.878 77.6035C159.791 77.5355 159.719 77.4509 159.666 77.3547C159.612 77.2585 159.578 77.1527 159.566 77.0432C159.554 76.9338 159.563 76.823 159.594 76.7174C159.653 76.5068 159.794 76.3281 159.984 76.2202C160.174 76.1123 160.399 76.084 160.61 76.1413L174.407 79.9704C174.519 79.9849 174.626 80.0211 174.723 80.077C174.82 80.133 174.905 80.2075 174.974 80.2964C175.042 80.3853 175.092 80.4868 175.122 80.5951C175.151 80.7034 175.158 80.8164 175.144 80.9277C175.129 81.0389 175.093 81.1462 175.037 81.2435C174.981 81.3407 174.907 81.426 174.818 81.4944C174.729 81.5629 174.628 81.6131 174.52 81.6423C174.411 81.6716 174.299 81.6791 174.187 81.6647V81.563Z" fill="black"/>
<path d="M80.0765 18.7725C79.9301 18.7751 79.7855 18.7388 79.6577 18.6674C79.5298 18.596 79.4232 18.492 79.3485 18.3659L72.3058 5.89592C72.2406 5.801 72.1959 5.69355 72.1744 5.58036C72.1529 5.46718 72.1552 5.35076 72.1811 5.23851C72.207 5.12626 72.2559 5.02063 72.3248 4.92835C72.3937 4.83608 72.4811 4.75915 72.5814 4.7025C72.6816 4.64585 72.7925 4.61071 72.9071 4.5993C73.0216 4.58788 73.1373 4.60046 73.2467 4.63622C73.3562 4.67197 73.457 4.73014 73.5428 4.807C73.6285 4.88386 73.6973 4.97774 73.7449 5.08267L80.8044 17.5357C80.8583 17.6313 80.8928 17.7365 80.9058 17.8455C80.9188 17.9544 80.9101 18.0649 80.8802 18.1704C80.8503 18.276 80.7998 18.3746 80.7316 18.4605C80.6634 18.5464 80.5788 18.6179 80.4828 18.6709C80.358 18.7383 80.2183 18.7733 80.0765 18.7725Z" fill="black"/>
<path d="M56.2397 48.8973H56.0196L42.2221 45.0852C42.1167 45.0578 42.0179 45.0095 41.9315 44.9432C41.8451 44.8768 41.7728 44.7937 41.7191 44.6989C41.6654 44.6041 41.6314 44.4994 41.6189 44.3911C41.6064 44.2829 41.6158 44.1732 41.6465 44.0686C41.674 43.9628 41.7222 43.8634 41.7882 43.7763C41.8543 43.6892 41.9369 43.6159 42.0313 43.5608C42.1257 43.5057 42.23 43.4698 42.3383 43.4552C42.4466 43.4406 42.5566 43.4475 42.6622 43.4756L56.4598 47.3047C56.5709 47.3192 56.6782 47.3554 56.7753 47.4113C56.8725 47.4673 56.9577 47.5418 57.0261 47.6307C57.0945 47.7196 57.1447 47.8211 57.1739 47.9294C57.2031 48.0377 57.2106 48.1507 57.1962 48.262C57.1817 48.3732 57.1456 48.4805 57.0897 48.5778C57.0338 48.675 56.9593 48.7603 56.8705 48.8287C56.7817 48.8972 56.6802 48.9474 56.572 48.9767C56.4638 49.0059 56.3508 49.0135 56.2397 48.999V48.8973Z" fill="black"/>
<path d="M90.1325 104.673H89.9463C89.84 104.651 89.7391 104.608 89.6498 104.547C89.5604 104.485 89.4842 104.406 89.4258 104.314C89.3674 104.223 89.328 104.12 89.3098 104.013C89.2916 103.906 89.2951 103.796 89.3199 103.691C89.3199 103.437 95.1605 77.8189 86.4757 63.9426C86.4162 63.8504 86.3756 63.7474 86.3562 63.6394C86.3368 63.5314 86.339 63.4207 86.3626 63.3135C86.3863 63.2064 86.4309 63.105 86.4939 63.0153C86.5569 62.9255 86.637 62.8491 86.7297 62.7905C86.9189 62.6763 87.1453 62.6408 87.3604 62.6915C87.5755 62.7421 87.7623 62.8749 87.8809 63.0616C96.9381 77.5308 91.2667 102.979 90.9281 104.063C90.8801 104.238 90.7765 104.392 90.6328 104.502C90.4892 104.612 90.3135 104.672 90.1325 104.673Z" fill="black"/>
<path d="M100.51 107.536C100.426 107.553 100.34 107.553 100.256 107.536C100.151 107.504 100.054 107.45 99.9699 107.38C99.8857 107.309 99.8164 107.222 99.766 107.125C99.7155 107.027 99.6851 106.92 99.6763 106.81C99.6674 106.701 99.6805 106.591 99.7146 106.486C100.053 105.436 108.179 80.6481 123.416 72.8882C123.613 72.7871 123.843 72.7687 124.054 72.837C124.265 72.9053 124.441 73.0548 124.542 73.2525C124.643 73.4502 124.661 73.68 124.593 73.8913C124.525 74.1026 124.375 74.2781 124.178 74.3792C109.585 81.8171 101.391 106.757 101.306 106.994C101.251 107.159 101.143 107.302 100.999 107.399C100.856 107.497 100.684 107.545 100.51 107.536V107.536Z" fill="black"/>
<path d="M123.856 74.1422H123.636C122.936 73.9285 122.292 73.5603 121.753 73.0648C121.214 72.5692 120.793 71.9589 120.521 71.2788C120.013 70.33 119.607 69.5845 118.422 69.2457C117.928 69.1365 117.417 69.1391 116.925 69.2535C116.433 69.3678 115.972 69.5909 115.577 69.9064C115.002 70.3616 114.328 70.6749 113.609 70.821C112.89 70.967 112.147 70.9417 111.44 70.747C110.733 70.5524 110.082 70.1938 109.539 69.7005C108.996 69.2071 108.576 68.5928 108.315 67.9072C107.807 66.9584 107.401 66.2129 106.215 65.874C105.723 65.7532 105.209 65.75 104.715 65.8648C104.221 65.9796 103.76 66.2091 103.371 66.5348C102.798 66.9934 102.123 67.3093 101.404 67.4563C100.685 67.6033 99.9408 67.5773 99.2334 67.3805C98.526 67.1836 97.8755 66.8216 97.3352 66.3241C96.7949 65.8265 96.3802 65.2077 96.1255 64.5186C95.6007 63.5698 95.2113 62.8243 94.0262 62.4855C93.5291 62.3759 93.0137 62.38 92.5184 62.4973C92.023 62.6146 91.5605 62.8422 91.1652 63.1632C90.583 63.603 89.9094 63.906 89.1944 64.0497C88.4793 64.1934 87.741 64.1742 87.0344 63.9934C86.8422 63.9192 86.6844 63.7762 86.5918 63.5921C86.4992 63.408 86.4783 63.1961 86.5332 62.9974C86.5881 62.7987 86.7149 62.6276 86.8889 62.5173C87.0629 62.4071 87.2716 62.3655 87.4745 62.4007C87.9678 62.5099 88.4793 62.5073 88.9715 62.3929C89.4636 62.2786 89.9239 62.0555 90.3187 61.74C90.8927 61.2811 91.5671 60.9647 92.2867 60.8167C93.0063 60.6686 93.7506 60.693 94.459 60.888C95.1673 61.083 95.8194 61.443 96.3621 61.9385C96.9048 62.4341 97.3226 63.0511 97.5814 63.7392C98.0893 64.705 98.4957 65.4335 99.6807 65.7724C100.173 65.8932 100.687 65.8963 101.181 65.7816C101.676 65.6668 102.136 65.4373 102.525 65.1116C103.1 64.6531 103.775 64.3375 104.496 64.1906C105.216 64.0436 105.961 64.0696 106.67 64.2663C107.378 64.4629 108.03 64.8248 108.572 65.3222C109.114 65.8196 109.531 66.4383 109.788 67.1278C109.94 67.6149 110.213 68.0557 110.58 68.41C110.947 68.7643 111.398 69.0206 111.89 69.1555C112.382 69.2904 112.9 69.2995 113.396 69.1821C113.892 69.0646 114.351 68.8243 114.731 68.4832C115.306 68.0283 115.98 67.7156 116.699 67.5706C117.417 67.4257 118.16 67.4525 118.866 67.649C119.572 67.8455 120.222 68.2061 120.762 68.7014C121.303 69.1967 121.719 69.8128 121.977 70.4994C122.485 71.4482 122.891 72.1937 124.076 72.5326C124.187 72.5471 124.294 72.5833 124.392 72.6392C124.489 72.6952 124.574 72.7697 124.642 72.8586C124.711 72.9475 124.761 73.049 124.79 73.1573C124.819 73.2656 124.827 73.3786 124.812 73.4899C124.798 73.6011 124.762 73.7084 124.706 73.8057C124.65 73.9029 124.576 73.9882 124.487 74.0566C124.398 74.1251 124.297 74.1753 124.188 74.2045C124.08 74.2338 123.967 74.2413 123.856 74.2269V74.1422Z" fill="black"/>
<path d="M18.3377 114.241L9.58691 105.483L0.836155 114.241L9.58691 122.999L18.3377 114.241Z" fill="black"/>
<path d="M9.58204 123.819C9.47481 123.822 9.36814 123.802 9.26895 123.762C9.16976 123.721 9.08034 123.659 9.00649 123.581L0.253878 114.822C0.172554 114.746 0.108004 114.654 0.0642689 114.552C0.0205342 114.45 -0.00135528 114.34 -1.8974e-06 114.229C-0.00110354 114.12 0.0209909 114.013 0.0647856 113.913C0.10858 113.814 0.173003 113.725 0.253878 113.653L9.00649 104.893C9.07882 104.812 9.16751 104.748 9.26678 104.704C9.36605 104.66 9.47354 104.638 9.58204 104.639V104.639C9.69305 104.638 9.8031 104.66 9.90515 104.704C10.0072 104.747 10.099 104.812 10.1746 104.893L18.9271 113.653C19.0812 113.808 19.1676 114.018 19.1676 114.237C19.1676 114.456 19.0812 114.666 18.9271 114.822L10.1746 123.581C10.0976 123.66 10.0051 123.721 9.90308 123.762C9.8011 123.803 9.69181 123.822 9.58204 123.819V123.819ZM1.99766 114.229L9.58204 121.819L17.1664 114.229L9.58204 106.638L1.99766 114.229Z" fill="black"/>
</g>
<defs>
<clipPath id="clip0_401_4793">
<rect width="175" height="138" fill="white"/>
</clipPath>
</defs>
</svg>
