<svg width="543" height="405" viewBox="0 0 543 405" fill="none" xmlns="http://www.w3.org/2000/svg">
<g clip-path="url(#clip0_401_2257)">
<path d="M543 355.915H0V356.186H543V355.915Z" fill="#EBEBEB"/>
<path d="M488.591 373.403H452.623V373.675H488.591V373.403Z" fill="#EBEBEB"/>
<path d="M359.705 376.359H350.268V376.631H359.705V376.359Z" fill="#EBEBEB"/>
<path d="M451.537 363.316H430.697V363.588H451.537V363.316Z" fill="#EBEBEB"/>
<path d="M103.876 365.143H56.9717V365.414H103.876V365.143Z" fill="#EBEBEB"/>
<path d="M120.427 365.143H113.552V365.414H120.427V365.143Z" fill="#EBEBEB"/>
<path d="M244.513 369.729H142.776V370.001H244.513V369.729Z" fill="#EBEBEB"/>
<path d="M257.382 307.437H47.6863C46.0436 307.434 44.4691 306.779 43.3085 305.616C42.1479 304.452 41.4961 302.875 41.4961 301.231V6.20621C41.5104 4.5715 42.1685 3.00844 43.3276 1.85656C44.4866 0.70468 46.0529 0.0569996 47.6863 0.0541992H257.382C259.027 0.0541992 260.604 0.708081 261.767 1.872C262.93 3.03592 263.583 4.61453 263.583 6.26055V301.231C263.583 302.877 262.93 304.456 261.767 305.619C260.604 306.783 259.027 307.437 257.382 307.437V307.437ZM47.6863 0.271586C46.1156 0.274465 44.6101 0.900986 43.5005 2.01363C42.3908 3.12628 41.7676 4.63413 41.7676 6.20621V301.231C41.7676 302.803 42.3908 304.311 43.5005 305.423C44.6101 306.536 46.1156 307.163 47.6863 307.166H257.382C258.954 307.163 260.46 306.536 261.572 305.424C262.683 304.312 263.309 302.804 263.312 301.231V6.20621C263.309 4.63313 262.683 3.1253 261.572 2.01297C260.46 0.900633 258.954 0.274459 257.382 0.271586H47.6863Z" fill="#EBEBEB"/>
<path d="M492.295 307.437H282.588C280.945 307.434 279.369 306.78 278.207 305.616C277.044 304.453 276.39 302.876 276.387 301.231V6.20621C276.404 4.57051 277.065 3.00746 278.226 1.85588C279.386 0.7043 280.954 0.056969 282.588 0.0541992H492.295C493.926 0.0598561 495.49 0.7088 496.647 1.86038C497.803 3.01195 498.46 4.57337 498.474 6.20621V301.231C498.474 302.873 497.824 304.448 496.666 305.612C495.507 306.775 493.936 307.432 492.295 307.437V307.437ZM282.588 0.271586C281.017 0.274459 279.51 0.900633 278.399 2.01297C277.287 3.1253 276.662 4.63313 276.659 6.20621V301.231C276.662 302.804 277.287 304.312 278.399 305.424C279.51 306.536 281.017 307.163 282.588 307.166H492.295C493.867 307.163 495.373 306.536 496.485 305.424C497.596 304.312 498.222 302.804 498.224 301.231V6.20621C498.222 4.63313 497.596 3.1253 496.485 2.01297C495.373 0.900633 493.867 0.274459 492.295 0.271586H282.588Z" fill="#EBEBEB"/>
<path d="M483.726 67.6284H220.61V321.469H483.726V67.6284Z" fill="#E0E0E0"/>
<path d="M483.726 72.2373H224.834V317.035H483.726V72.2373Z" fill="#F5F5F5"/>
<path d="M226.746 257.754V184.125H234.38V174.397L251.583 166.343V156.387H254.45V184.125H257.317V257.754H261.139V219.505H269.741V199.429H272.608V257.754H279.287V235.765H284.065V230.026H294.577V209.94H300.311V196.56H307.001V176.473H309.868V196.56H316.558V209.94H322.281V230.026H332.794V235.765H337.572V257.754H343.306V230.026H353.819V168.821H356.686V162.126H379.611V168.821H384.39V212.809H403.503V217.592H410.182V220.461H403.503V237.678H423.562V180.299H427.384V168.821H436.941V124.833H439.808V168.821H446.498V180.299H483.726V317.046H224.834V257.754H226.746Z" fill="#E6E6E6"/>
<path d="M463.831 183.299H461.126V186.006H463.831V183.299Z" fill="#F0F0F0"/>
<path d="M463.831 187.843H461.126V190.549H463.831V187.843Z" fill="#F0F0F0"/>
<path d="M463.831 206.005H461.126V208.712H463.831V206.005Z" fill="#F0F0F0"/>
<path d="M463.831 210.549H461.126V213.255H463.831V210.549Z" fill="#F0F0F0"/>
<path d="M463.831 215.092H461.126V217.799H463.831V215.092Z" fill="#F0F0F0"/>
<path d="M463.831 228.722H461.126V231.429H463.831V228.722Z" fill="#F0F0F0"/>
<path d="M463.831 233.266H461.126V235.972H463.831V233.266Z" fill="#F0F0F0"/>
<path d="M459.53 201.462H456.826V204.168H459.53V201.462Z" fill="#F0F0F0"/>
<path d="M459.53 206.005H456.826V208.712H459.53V206.005Z" fill="#F0F0F0"/>
<path d="M459.53 210.549H456.826V213.255H459.53V210.549Z" fill="#F0F0F0"/>
<path d="M459.53 215.092H456.826V217.799H459.53V215.092Z" fill="#F0F0F0"/>
<path d="M459.53 219.635H456.826V222.342H459.53V219.635Z" fill="#F0F0F0"/>
<path d="M459.53 228.722H456.826V231.429H459.53V228.722Z" fill="#F0F0F0"/>
<path d="M459.53 233.266H456.826V235.972H459.53V233.266Z" fill="#F0F0F0"/>
<path d="M455.23 183.299H452.525V186.006H455.23V183.299Z" fill="#F0F0F0"/>
<path d="M455.23 187.843H452.525V190.549H455.23V187.843Z" fill="#F0F0F0"/>
<path d="M455.23 192.386H452.525V195.093H455.23V192.386Z" fill="#F0F0F0"/>
<path d="M455.23 196.93H452.525V199.636H455.23V196.93Z" fill="#F0F0F0"/>
<path d="M455.23 201.462H452.525V204.168H455.23V201.462Z" fill="#F0F0F0"/>
<path d="M455.23 206.005H452.525V208.712H455.23V206.005Z" fill="#F0F0F0"/>
<path d="M455.23 210.549H452.525V213.255H455.23V210.549Z" fill="#F0F0F0"/>
<path d="M455.23 215.092H452.525V217.799H455.23V215.092Z" fill="#F0F0F0"/>
<path d="M455.23 219.635H452.525V222.342H455.23V219.635Z" fill="#F0F0F0"/>
<path d="M455.23 224.179H452.525V226.885H455.23V224.179Z" fill="#F0F0F0"/>
<path d="M455.23 233.266H452.525V235.972H455.23V233.266Z" fill="#F0F0F0"/>
<path d="M450.929 183.299H448.225V186.006H450.929V183.299Z" fill="#F0F0F0"/>
<path d="M450.929 187.843H448.225V190.549H450.929V187.843Z" fill="#F0F0F0"/>
<path d="M450.929 192.386H448.225V195.093H450.929V192.386Z" fill="#F0F0F0"/>
<path d="M450.929 196.93H448.225V199.636H450.929V196.93Z" fill="#F0F0F0"/>
<path d="M450.929 201.462H448.225V204.168H450.929V201.462Z" fill="#F0F0F0"/>
<path d="M450.929 206.005H448.225V208.712H450.929V206.005Z" fill="#F0F0F0"/>
<path d="M450.929 210.549H448.225V213.255H450.929V210.549Z" fill="#F0F0F0"/>
<path d="M450.929 251.428H448.225V254.135H450.929V251.428Z" fill="#F0F0F0"/>
<path d="M446.628 183.299H443.924V186.006H446.628V183.299Z" fill="#F0F0F0"/>
<path d="M446.628 187.843H443.924V190.549H446.628V187.843Z" fill="#F0F0F0"/>
<path d="M446.628 192.386H443.924V195.093H446.628V192.386Z" fill="#F0F0F0"/>
<path d="M446.628 196.93H443.924V199.636H446.628V196.93Z" fill="#F0F0F0"/>
<path d="M446.628 201.462H443.924V204.168H446.628V201.462Z" fill="#F0F0F0"/>
<path d="M446.628 206.005H443.924V208.712H446.628V206.005Z" fill="#F0F0F0"/>
<path d="M446.628 210.549H443.924V213.255H446.628V210.549Z" fill="#F0F0F0"/>
<path d="M446.628 215.092H443.924V217.799H446.628V215.092Z" fill="#F0F0F0"/>
<path d="M446.628 242.352H443.924V245.059H446.628V242.352Z" fill="#F0F0F0"/>
<path d="M446.628 246.885H443.924V249.591H446.628V246.885Z" fill="#F0F0F0"/>
<path d="M446.628 251.428H443.924V254.135H446.628V251.428Z" fill="#F0F0F0"/>
<path d="M446.628 255.971H443.924V258.678H446.628V255.971Z" fill="#F0F0F0"/>
<path d="M446.628 274.145H443.924V276.851H446.628V274.145Z" fill="#F0F0F0"/>
<path d="M442.328 183.299H439.624V186.006H442.328V183.299Z" fill="#F0F0F0"/>
<path d="M442.328 187.843H439.624V190.549H442.328V187.843Z" fill="#F0F0F0"/>
<path d="M442.328 192.386H439.624V195.093H442.328V192.386Z" fill="#F0F0F0"/>
<path d="M442.328 196.93H439.624V199.636H442.328V196.93Z" fill="#F0F0F0"/>
<path d="M442.328 201.462H439.624V204.168H442.328V201.462Z" fill="#F0F0F0"/>
<path d="M442.328 206.005H439.624V208.712H442.328V206.005Z" fill="#F0F0F0"/>
<path d="M442.328 210.549H439.624V213.255H442.328V210.549Z" fill="#F0F0F0"/>
<path d="M442.328 215.092H439.624V217.799H442.328V215.092Z" fill="#F0F0F0"/>
<path d="M442.328 219.635H439.624V222.342H442.328V219.635Z" fill="#F0F0F0"/>
<path d="M442.328 224.179H439.624V226.885H442.328V224.179Z" fill="#F0F0F0"/>
<path d="M442.328 237.809H439.624V240.515H442.328V237.809Z" fill="#F0F0F0"/>
<path d="M442.328 242.352H439.624V245.059H442.328V242.352Z" fill="#F0F0F0"/>
<path d="M442.328 246.885H439.624V249.591H442.328V246.885Z" fill="#F0F0F0"/>
<path d="M442.328 251.428H439.624V254.135H442.328V251.428Z" fill="#F0F0F0"/>
<path d="M442.328 255.971H439.624V258.678H442.328V255.971Z" fill="#F0F0F0"/>
<path d="M442.328 274.145H439.624V276.851H442.328V274.145Z" fill="#F0F0F0"/>
<path d="M438.027 183.299H435.323V186.006H438.027V183.299Z" fill="#F0F0F0"/>
<path d="M438.027 187.843H435.323V190.549H438.027V187.843Z" fill="#F0F0F0"/>
<path d="M438.027 192.386H435.323V195.093H438.027V192.386Z" fill="#F0F0F0"/>
<path d="M438.027 196.93H435.323V199.636H438.027V196.93Z" fill="#F0F0F0"/>
<path d="M438.027 201.462H435.323V204.168H438.027V201.462Z" fill="#F0F0F0"/>
<path d="M438.027 206.005H435.323V208.712H438.027V206.005Z" fill="#F0F0F0"/>
<path d="M438.027 210.549H435.323V213.255H438.027V210.549Z" fill="#F0F0F0"/>
<path d="M438.027 215.092H435.323V217.799H438.027V215.092Z" fill="#F0F0F0"/>
<path d="M438.027 219.635H435.323V222.342H438.027V219.635Z" fill="#F0F0F0"/>
<path d="M438.027 224.179H435.323V226.885H438.027V224.179Z" fill="#F0F0F0"/>
<path d="M438.027 228.722H435.323V231.429H438.027V228.722Z" fill="#F0F0F0"/>
<path d="M438.027 233.266H435.323V235.972H438.027V233.266Z" fill="#F0F0F0"/>
<path d="M438.027 237.809H435.323V240.515H438.027V237.809Z" fill="#F0F0F0"/>
<path d="M438.027 242.352H435.323V245.059H438.027V242.352Z" fill="#F0F0F0"/>
<path d="M438.027 246.885H435.323V249.591H438.027V246.885Z" fill="#F0F0F0"/>
<path d="M438.027 251.428H435.323V254.135H438.027V251.428Z" fill="#F0F0F0"/>
<path d="M438.027 255.971H435.323V258.678H438.027V255.971Z" fill="#F0F0F0"/>
<path d="M438.027 260.515H435.323V263.221H438.027V260.515Z" fill="#F0F0F0"/>
<path d="M433.727 183.299H431.022V186.006H433.727V183.299Z" fill="#F0F0F0"/>
<path d="M433.727 187.843H431.022V190.549H433.727V187.843Z" fill="#F0F0F0"/>
<path d="M433.727 192.386H431.022V195.093H433.727V192.386Z" fill="#F0F0F0"/>
<path d="M433.727 196.93H431.022V199.636H433.727V196.93Z" fill="#F0F0F0"/>
<path d="M433.727 201.462H431.022V204.168H433.727V201.462Z" fill="#F0F0F0"/>
<path d="M433.727 206.005H431.022V208.712H433.727V206.005Z" fill="#F0F0F0"/>
<path d="M433.727 210.549H431.022V213.255H433.727V210.549Z" fill="#F0F0F0"/>
<path d="M433.727 215.092H431.022V217.799H433.727V215.092Z" fill="#F0F0F0"/>
<path d="M433.727 219.635H431.022V222.342H433.727V219.635Z" fill="#F0F0F0"/>
<path d="M433.727 224.179H431.022V226.885H433.727V224.179Z" fill="#F0F0F0"/>
<path d="M433.727 237.809H431.022V240.515H433.727V237.809Z" fill="#F0F0F0"/>
<path d="M433.727 242.352H431.022V245.059H433.727V242.352Z" fill="#F0F0F0"/>
<path d="M433.727 246.885H431.022V249.591H433.727V246.885Z" fill="#F0F0F0"/>
<path d="M433.727 251.428H431.022V254.135H433.727V251.428Z" fill="#F0F0F0"/>
<path d="M429.437 183.299H426.733V186.006H429.437V183.299Z" fill="#F0F0F0"/>
<path d="M429.437 187.843H426.733V190.549H429.437V187.843Z" fill="#F0F0F0"/>
<path d="M429.437 192.386H426.733V195.093H429.437V192.386Z" fill="#F0F0F0"/>
<path d="M429.437 196.93H426.733V199.636H429.437V196.93Z" fill="#F0F0F0"/>
<path d="M429.437 201.462H426.733V204.168H429.437V201.462Z" fill="#F0F0F0"/>
<path d="M429.437 206.005H426.733V208.712H429.437V206.005Z" fill="#F0F0F0"/>
<path d="M429.437 210.549H426.733V213.255H429.437V210.549Z" fill="#F0F0F0"/>
<path d="M429.437 215.092H426.733V217.799H429.437V215.092Z" fill="#F0F0F0"/>
<path d="M429.437 219.635H426.733V222.342H429.437V219.635Z" fill="#F0F0F0"/>
<path d="M429.437 224.179H426.733V226.885H429.437V224.179Z" fill="#F0F0F0"/>
<path d="M429.437 237.809H426.733V240.515H429.437V237.809Z" fill="#F0F0F0"/>
<path d="M429.437 242.352H426.733V245.059H429.437V242.352Z" fill="#F0F0F0"/>
<path d="M429.437 246.885H426.733V249.591H429.437V246.885Z" fill="#F0F0F0"/>
<path d="M381.023 171.506H378.319V174.213H381.023V171.506Z" fill="#F0F0F0"/>
<path d="M381.023 176.05H378.319V178.756H381.023V176.05Z" fill="#F0F0F0"/>
<path d="M381.023 180.593H378.319V183.299H381.023V180.593Z" fill="#F0F0F0"/>
<path d="M381.023 185.125H378.319V187.832H381.023V185.125Z" fill="#F0F0F0"/>
<path d="M381.023 189.669H378.319V192.375H381.023V189.669Z" fill="#F0F0F0"/>
<path d="M381.023 194.212H378.319V196.919H381.023V194.212Z" fill="#F0F0F0"/>
<path d="M381.023 198.755H378.319V201.462H381.023V198.755Z" fill="#F0F0F0"/>
<path d="M381.023 203.299H378.319V206.006H381.023V203.299Z" fill="#F0F0F0"/>
<path d="M381.023 216.929H378.319V219.635H381.023V216.929Z" fill="#F0F0F0"/>
<path d="M381.023 221.472H378.319V224.179H381.023V221.472Z" fill="#F0F0F0"/>
<path d="M376.723 171.506H374.019V174.213H376.723V171.506Z" fill="#F0F0F0"/>
<path d="M376.723 176.05H374.019V178.756H376.723V176.05Z" fill="#F0F0F0"/>
<path d="M376.723 180.593H374.019V183.299H376.723V180.593Z" fill="#F0F0F0"/>
<path d="M376.723 185.125H374.019V187.832H376.723V185.125Z" fill="#F0F0F0"/>
<path d="M376.723 189.669H374.019V192.375H376.723V189.669Z" fill="#F0F0F0"/>
<path d="M376.723 194.212H374.019V196.919H376.723V194.212Z" fill="#F0F0F0"/>
<path d="M376.723 198.755H374.019V201.462H376.723V198.755Z" fill="#F0F0F0"/>
<path d="M376.723 203.299H374.019V206.006H376.723V203.299Z" fill="#F0F0F0"/>
<path d="M376.723 221.472H374.019V224.179H376.723V221.472Z" fill="#F0F0F0"/>
<path d="M372.422 171.506H369.718V174.213H372.422V171.506Z" fill="#F0F0F0"/>
<path d="M372.422 176.05H369.718V178.756H372.422V176.05Z" fill="#F0F0F0"/>
<path d="M372.422 180.593H369.718V183.299H372.422V180.593Z" fill="#F0F0F0"/>
<path d="M372.422 185.125H369.718V187.832H372.422V185.125Z" fill="#F0F0F0"/>
<path d="M372.422 189.669H369.718V192.375H372.422V189.669Z" fill="#F0F0F0"/>
<path d="M372.422 194.212H369.718V196.919H372.422V194.212Z" fill="#F0F0F0"/>
<path d="M372.422 198.755H369.718V201.462H372.422V198.755Z" fill="#F0F0F0"/>
<path d="M372.422 203.299H369.718V206.006H372.422V203.299Z" fill="#F0F0F0"/>
<path d="M368.122 171.506H365.417V174.213H368.122V171.506Z" fill="#F0F0F0"/>
<path d="M368.122 176.05H365.417V178.756H368.122V176.05Z" fill="#F0F0F0"/>
<path d="M368.122 180.593H365.417V183.299H368.122V180.593Z" fill="#F0F0F0"/>
<path d="M368.122 185.125H365.417V187.832H368.122V185.125Z" fill="#F0F0F0"/>
<path d="M368.122 189.669H365.417V192.375H368.122V189.669Z" fill="#F0F0F0"/>
<path d="M368.122 194.212H365.417V196.919H368.122V194.212Z" fill="#F0F0F0"/>
<path d="M368.122 203.299H365.417V206.006H368.122V203.299Z" fill="#F0F0F0"/>
<path d="M368.122 207.842H365.417V210.549H368.122V207.842Z" fill="#F0F0F0"/>
<path d="M368.122 221.472H365.417V224.179H368.122V221.472Z" fill="#F0F0F0"/>
<path d="M368.122 226.016H365.417V228.722H368.122V226.016Z" fill="#F0F0F0"/>
<path d="M368.122 230.548H365.417V233.255H368.122V230.548Z" fill="#F0F0F0"/>
<path d="M368.122 235.091H365.417V237.798H368.122V235.091Z" fill="#F0F0F0"/>
<path d="M368.122 239.635H365.417V242.341H368.122V239.635Z" fill="#F0F0F0"/>
<path d="M368.122 244.178H365.417V246.885H368.122V244.178Z" fill="#F0F0F0"/>
<path d="M368.122 248.722H365.417V251.428H368.122V248.722Z" fill="#F0F0F0"/>
<path d="M363.821 171.506H361.117V174.213H363.821V171.506Z" fill="#F0F0F0"/>
<path d="M363.821 176.05H361.117V178.756H363.821V176.05Z" fill="#F0F0F0"/>
<path d="M363.821 180.593H361.117V183.299H363.821V180.593Z" fill="#F0F0F0"/>
<path d="M363.821 185.125H361.117V187.832H363.821V185.125Z" fill="#F0F0F0"/>
<path d="M363.821 189.669H361.117V192.375H363.821V189.669Z" fill="#F0F0F0"/>
<path d="M363.821 194.212H361.117V196.919H363.821V194.212Z" fill="#F0F0F0"/>
<path d="M363.821 207.842H361.117V210.549H363.821V207.842Z" fill="#F0F0F0"/>
<path d="M363.821 212.386H361.117V215.092H363.821V212.386Z" fill="#F0F0F0"/>
<path d="M363.821 216.929H361.117V219.635H363.821V216.929Z" fill="#F0F0F0"/>
<path d="M363.821 221.472H361.117V224.179H363.821V221.472Z" fill="#F0F0F0"/>
<path d="M363.821 226.016H361.117V228.722H363.821V226.016Z" fill="#F0F0F0"/>
<path d="M363.821 230.548H361.117V233.255H363.821V230.548Z" fill="#F0F0F0"/>
<path d="M363.821 235.091H361.117V237.798H363.821V235.091Z" fill="#F0F0F0"/>
<path d="M363.821 239.635H361.117V242.341H363.821V239.635Z" fill="#F0F0F0"/>
<path d="M363.821 244.178H361.117V246.885H363.821V244.178Z" fill="#F0F0F0"/>
<path d="M363.821 248.722H361.117V251.428H363.821V248.722Z" fill="#F0F0F0"/>
<path d="M363.821 253.265H361.117V255.972H363.821V253.265Z" fill="#F0F0F0"/>
<path d="M363.821 262.352H361.117V265.058H363.821V262.352Z" fill="#F0F0F0"/>
<path d="M359.52 171.506H356.816V174.213H359.52V171.506Z" fill="#F0F0F0"/>
<path d="M359.52 176.05H356.816V178.756H359.52V176.05Z" fill="#F0F0F0"/>
<path d="M359.52 180.593H356.816V183.299H359.52V180.593Z" fill="#F0F0F0"/>
<path d="M359.52 185.125H356.816V187.832H359.52V185.125Z" fill="#F0F0F0"/>
<path d="M359.52 189.669H356.816V192.375H359.52V189.669Z" fill="#F0F0F0"/>
<path d="M359.52 194.212H356.816V196.919H359.52V194.212Z" fill="#F0F0F0"/>
<path d="M359.52 207.842H356.816V210.549H359.52V207.842Z" fill="#F0F0F0"/>
<path d="M359.52 212.386H356.816V215.092H359.52V212.386Z" fill="#F0F0F0"/>
<path d="M359.52 216.929H356.816V219.635H359.52V216.929Z" fill="#F0F0F0"/>
<path d="M359.52 221.472H356.816V224.179H359.52V221.472Z" fill="#F0F0F0"/>
<path d="M359.52 235.091H356.816V237.798H359.52V235.091Z" fill="#F0F0F0"/>
<path d="M359.52 239.635H356.816V242.341H359.52V239.635Z" fill="#F0F0F0"/>
<path d="M359.52 244.178H356.816V246.885H359.52V244.178Z" fill="#F0F0F0"/>
<path d="M359.52 248.722H356.816V251.428H359.52V248.722Z" fill="#F0F0F0"/>
<path d="M359.52 253.265H356.816V255.972H359.52V253.265Z" fill="#F0F0F0"/>
<path d="M359.52 262.352H356.816V265.058H359.52V262.352Z" fill="#F0F0F0"/>
<path d="M359.52 266.895H356.816V269.601H359.52V266.895Z" fill="#F0F0F0"/>
<path d="M320.511 213.733H317.807V216.44H320.511V213.733Z" fill="#F0F0F0"/>
<path d="M320.511 218.277H317.807V220.983H320.511V218.277Z" fill="#F0F0F0"/>
<path d="M320.511 222.82H317.807V225.527H320.511V222.82Z" fill="#F0F0F0"/>
<path d="M320.511 227.363H317.807V230.07H320.511V227.363Z" fill="#F0F0F0"/>
<path d="M320.511 231.907H317.807V234.613H320.511V231.907Z" fill="#F0F0F0"/>
<path d="M320.511 236.45H317.807V239.157H320.511V236.45Z" fill="#F0F0F0"/>
<path d="M320.511 240.994H317.807V243.7H320.511V240.994Z" fill="#F0F0F0"/>
<path d="M320.511 254.624H317.807V257.33H320.511V254.624Z" fill="#F0F0F0"/>
<path d="M320.511 259.156H317.807V261.863H320.511V259.156Z" fill="#F0F0F0"/>
<path d="M320.511 263.699H317.807V266.406H320.511V263.699Z" fill="#F0F0F0"/>
<path d="M316.211 213.733H313.506V216.44H316.211V213.733Z" fill="#F0F0F0"/>
<path d="M316.211 218.277H313.506V220.983H316.211V218.277Z" fill="#F0F0F0"/>
<path d="M316.211 222.82H313.506V225.527H316.211V222.82Z" fill="#F0F0F0"/>
<path d="M316.211 227.363H313.506V230.07H316.211V227.363Z" fill="#F0F0F0"/>
<path d="M316.211 231.907H313.506V234.613H316.211V231.907Z" fill="#F0F0F0"/>
<path d="M316.211 236.45H313.506V239.157H316.211V236.45Z" fill="#F0F0F0"/>
<path d="M316.211 240.994H313.506V243.7H316.211V240.994Z" fill="#F0F0F0"/>
<path d="M311.91 213.733H309.206V216.44H311.91V213.733Z" fill="#F0F0F0"/>
<path d="M311.91 218.277H309.206V220.983H311.91V218.277Z" fill="#F0F0F0"/>
<path d="M311.91 222.82H309.206V225.527H311.91V222.82Z" fill="#F0F0F0"/>
<path d="M311.91 227.363H309.206V230.07H311.91V227.363Z" fill="#F0F0F0"/>
<path d="M311.91 231.907H309.206V234.613H311.91V231.907Z" fill="#F0F0F0"/>
<path d="M311.91 236.45H309.206V239.157H311.91V236.45Z" fill="#F0F0F0"/>
<path d="M311.91 240.994H309.206V243.7H311.91V240.994Z" fill="#F0F0F0"/>
<path d="M307.609 213.733H304.905V216.44H307.609V213.733Z" fill="#F0F0F0"/>
<path d="M307.609 218.277H304.905V220.983H307.609V218.277Z" fill="#F0F0F0"/>
<path d="M307.609 222.82H304.905V225.527H307.609V222.82Z" fill="#F0F0F0"/>
<path d="M307.609 227.363H304.905V230.07H307.609V227.363Z" fill="#F0F0F0"/>
<path d="M307.609 231.907H304.905V234.613H307.609V231.907Z" fill="#F0F0F0"/>
<path d="M307.609 236.45H304.905V239.157H307.609V236.45Z" fill="#F0F0F0"/>
<path d="M307.609 240.994H304.905V243.7H307.609V240.994Z" fill="#F0F0F0"/>
<path d="M307.609 245.537H304.905V248.244H307.609V245.537Z" fill="#F0F0F0"/>
<path d="M307.609 250.08H304.905V252.787H307.609V250.08Z" fill="#F0F0F0"/>
<path d="M307.609 254.624H304.905V257.33H307.609V254.624Z" fill="#F0F0F0"/>
<path d="M307.609 259.156H304.905V261.863H307.609V259.156Z" fill="#F0F0F0"/>
<path d="M303.309 213.733H300.605V216.44H303.309V213.733Z" fill="#F0F0F0"/>
<path d="M303.309 218.277H300.605V220.983H303.309V218.277Z" fill="#F0F0F0"/>
<path d="M303.309 222.82H300.605V225.527H303.309V222.82Z" fill="#F0F0F0"/>
<path d="M303.309 227.363H300.605V230.07H303.309V227.363Z" fill="#F0F0F0"/>
<path d="M303.309 231.907H300.605V234.613H303.309V231.907Z" fill="#F0F0F0"/>
<path d="M303.309 236.45H300.605V239.157H303.309V236.45Z" fill="#F0F0F0"/>
<path d="M303.309 240.994H300.605V243.7H303.309V240.994Z" fill="#F0F0F0"/>
<path d="M303.309 245.537H300.605V248.244H303.309V245.537Z" fill="#F0F0F0"/>
<path d="M303.309 250.08H300.605V252.787H303.309V250.08Z" fill="#F0F0F0"/>
<path d="M303.309 254.624H300.605V257.33H303.309V254.624Z" fill="#F0F0F0"/>
<path d="M303.309 259.156H300.605V261.863H303.309V259.156Z" fill="#F0F0F0"/>
<path d="M303.309 263.699H300.605V266.406H303.309V263.699Z" fill="#F0F0F0"/>
<path d="M303.309 277.33H300.605V280.036H303.309V277.33Z" fill="#F0F0F0"/>
<path d="M303.309 281.873H300.605V284.58H303.309V281.873Z" fill="#F0F0F0"/>
<path d="M299.008 213.733H296.304V216.44H299.008V213.733Z" fill="#F0F0F0"/>
<path d="M299.008 218.277H296.304V220.983H299.008V218.277Z" fill="#F0F0F0"/>
<path d="M299.008 222.82H296.304V225.527H299.008V222.82Z" fill="#F0F0F0"/>
<path d="M299.008 236.45H296.304V239.157H299.008V236.45Z" fill="#F0F0F0"/>
<path d="M299.008 240.994H296.304V243.7H299.008V240.994Z" fill="#F0F0F0"/>
<path d="M299.008 245.537H296.304V248.244H299.008V245.537Z" fill="#F0F0F0"/>
<path d="M299.008 250.08H296.304V252.787H299.008V250.08Z" fill="#F0F0F0"/>
<path d="M299.008 254.624H296.304V257.33H299.008V254.624Z" fill="#F0F0F0"/>
<path d="M299.008 259.156H296.304V261.863H299.008V259.156Z" fill="#F0F0F0"/>
<path d="M299.008 263.699H296.304V266.406H299.008V263.699Z" fill="#F0F0F0"/>
<path d="M299.008 277.33H296.304V280.036H299.008V277.33Z" fill="#F0F0F0"/>
<path d="M299.008 281.873H296.304V284.58H299.008V281.873Z" fill="#F0F0F0"/>
<path d="M299.008 286.416H296.304V289.122H299.008V286.416Z" fill="#F0F0F0"/>
<path d="M253.95 186.484H251.246V189.191H253.95V186.484Z" fill="#F0F0F0"/>
<path d="M253.95 191.027H251.246V193.734H253.95V191.027Z" fill="#F0F0F0"/>
<path d="M253.95 195.571H251.246V198.277H253.95V195.571Z" fill="#F0F0F0"/>
<path d="M253.95 200.114H251.246V202.821H253.95V200.114Z" fill="#F0F0F0"/>
<path d="M253.95 204.658H251.246V207.364H253.95V204.658Z" fill="#F0F0F0"/>
<path d="M253.95 209.201H251.246V211.907H253.95V209.201Z" fill="#F0F0F0"/>
<path d="M253.95 213.733H251.246V216.44H253.95V213.733Z" fill="#F0F0F0"/>
<path d="M253.95 218.277H251.246V220.983H253.95V218.277Z" fill="#F0F0F0"/>
<path d="M253.95 222.82H251.246V225.527H253.95V222.82Z" fill="#F0F0F0"/>
<path d="M253.95 227.363H251.246V230.07H253.95V227.363Z" fill="#F0F0F0"/>
<path d="M253.95 231.907H251.246V234.613H253.95V231.907Z" fill="#F0F0F0"/>
<path d="M253.95 236.45H251.246V239.157H253.95V236.45Z" fill="#F0F0F0"/>
<path d="M253.95 240.994H251.246V243.7H253.95V240.994Z" fill="#F0F0F0"/>
<path d="M253.95 245.537H251.246V248.244H253.95V245.537Z" fill="#F0F0F0"/>
<path d="M253.95 250.08H251.246V252.787H253.95V250.08Z" fill="#F0F0F0"/>
<path d="M253.95 254.624H251.246V257.33H253.95V254.624Z" fill="#F0F0F0"/>
<path d="M253.95 259.156H251.246V261.863H253.95V259.156Z" fill="#F0F0F0"/>
<path d="M253.95 263.699H251.246V266.406H253.95V263.699Z" fill="#F0F0F0"/>
<path d="M253.95 268.243H251.246V270.949H253.95V268.243Z" fill="#F0F0F0"/>
<path d="M253.95 272.786H251.246V275.493H253.95V272.786Z" fill="#F0F0F0"/>
<path d="M253.95 277.33H251.246V280.036H253.95V277.33Z" fill="#F0F0F0"/>
<path d="M253.95 281.873H251.246V284.58H253.95V281.873Z" fill="#F0F0F0"/>
<path d="M253.95 286.416H251.246V289.122H253.95V286.416Z" fill="#F0F0F0"/>
<path d="M249.649 186.484H246.945V189.191H249.649V186.484Z" fill="#F0F0F0"/>
<path d="M249.649 191.027H246.945V193.734H249.649V191.027Z" fill="#F0F0F0"/>
<path d="M249.649 195.571H246.945V198.277H249.649V195.571Z" fill="#F0F0F0"/>
<path d="M249.649 200.114H246.945V202.821H249.649V200.114Z" fill="#F0F0F0"/>
<path d="M249.649 204.658H246.945V207.364H249.649V204.658Z" fill="#F0F0F0"/>
<path d="M249.649 209.201H246.945V211.907H249.649V209.201Z" fill="#F0F0F0"/>
<path d="M249.649 213.733H246.945V216.44H249.649V213.733Z" fill="#F0F0F0"/>
<path d="M249.649 218.277H246.945V220.983H249.649V218.277Z" fill="#F0F0F0"/>
<path d="M249.649 222.82H246.945V225.527H249.649V222.82Z" fill="#F0F0F0"/>
<path d="M249.649 227.363H246.945V230.07H249.649V227.363Z" fill="#F0F0F0"/>
<path d="M249.649 231.907H246.945V234.613H249.649V231.907Z" fill="#F0F0F0"/>
<path d="M249.649 236.45H246.945V239.157H249.649V236.45Z" fill="#F0F0F0"/>
<path d="M249.649 240.994H246.945V243.7H249.649V240.994Z" fill="#F0F0F0"/>
<path d="M249.649 245.537H246.945V248.244H249.649V245.537Z" fill="#F0F0F0"/>
<path d="M249.649 250.08H246.945V252.787H249.649V250.08Z" fill="#F0F0F0"/>
<path d="M249.649 254.624H246.945V257.33H249.649V254.624Z" fill="#F0F0F0"/>
<path d="M249.649 259.156H246.945V261.863H249.649V259.156Z" fill="#F0F0F0"/>
<path d="M249.649 263.699H246.945V266.406H249.649V263.699Z" fill="#F0F0F0"/>
<path d="M249.649 268.243H246.945V270.949H249.649V268.243Z" fill="#F0F0F0"/>
<path d="M245.349 186.484H242.645V189.191H245.349V186.484Z" fill="#F0F0F0"/>
<path d="M245.349 191.027H242.645V193.734H245.349V191.027Z" fill="#F0F0F0"/>
<path d="M245.349 195.571H242.645V198.277H245.349V195.571Z" fill="#F0F0F0"/>
<path d="M245.349 200.114H242.645V202.821H245.349V200.114Z" fill="#F0F0F0"/>
<path d="M245.349 204.658H242.645V207.364H245.349V204.658Z" fill="#F0F0F0"/>
<path d="M245.349 209.201H242.645V211.907H245.349V209.201Z" fill="#F0F0F0"/>
<path d="M245.349 213.733H242.645V216.44H245.349V213.733Z" fill="#F0F0F0"/>
<path d="M245.349 218.277H242.645V220.983H245.349V218.277Z" fill="#F0F0F0"/>
<path d="M245.349 222.82H242.645V225.527H245.349V222.82Z" fill="#F0F0F0"/>
<path d="M245.349 227.363H242.645V230.07H245.349V227.363Z" fill="#F0F0F0"/>
<path d="M245.349 231.907H242.645V234.613H245.349V231.907Z" fill="#F0F0F0"/>
<path d="M245.349 236.45H242.645V239.157H245.349V236.45Z" fill="#F0F0F0"/>
<path d="M245.349 240.994H242.645V243.7H245.349V240.994Z" fill="#F0F0F0"/>
<path d="M245.349 245.537H242.645V248.244H245.349V245.537Z" fill="#F0F0F0"/>
<path d="M245.349 250.08H242.645V252.787H245.349V250.08Z" fill="#F0F0F0"/>
<path d="M245.349 254.624H242.645V257.33H245.349V254.624Z" fill="#F0F0F0"/>
<path d="M245.349 259.156H242.645V261.863H245.349V259.156Z" fill="#F0F0F0"/>
<path d="M245.349 263.699H242.645V266.406H245.349V263.699Z" fill="#F0F0F0"/>
<path d="M245.349 268.243H242.645V270.949H245.349V268.243Z" fill="#F0F0F0"/>
<path d="M241.048 186.484H238.344V189.191H241.048V186.484Z" fill="#F0F0F0"/>
<path d="M241.048 191.027H238.344V193.734H241.048V191.027Z" fill="#F0F0F0"/>
<path d="M241.048 195.571H238.344V198.277H241.048V195.571Z" fill="#F0F0F0"/>
<path d="M241.048 200.114H238.344V202.821H241.048V200.114Z" fill="#F0F0F0"/>
<path d="M241.048 204.658H238.344V207.364H241.048V204.658Z" fill="#F0F0F0"/>
<path d="M241.048 209.201H238.344V211.907H241.048V209.201Z" fill="#F0F0F0"/>
<path d="M241.048 213.733H238.344V216.44H241.048V213.733Z" fill="#F0F0F0"/>
<path d="M241.048 218.277H238.344V220.983H241.048V218.277Z" fill="#F0F0F0"/>
<path d="M241.048 222.82H238.344V225.527H241.048V222.82Z" fill="#F0F0F0"/>
<path d="M241.048 227.363H238.344V230.07H241.048V227.363Z" fill="#F0F0F0"/>
<path d="M241.048 231.907H238.344V234.613H241.048V231.907Z" fill="#F0F0F0"/>
<path d="M241.048 236.45H238.344V239.157H241.048V236.45Z" fill="#F0F0F0"/>
<path d="M241.048 240.994H238.344V243.7H241.048V240.994Z" fill="#F0F0F0"/>
<path d="M241.048 245.537H238.344V248.244H241.048V245.537Z" fill="#F0F0F0"/>
<path d="M241.048 250.08H238.344V252.787H241.048V250.08Z" fill="#F0F0F0"/>
<path d="M236.748 186.484H234.044V189.191H236.748V186.484Z" fill="#F0F0F0"/>
<path d="M236.748 191.027H234.044V193.734H236.748V191.027Z" fill="#F0F0F0"/>
<path d="M236.748 195.571H234.044V198.277H236.748V195.571Z" fill="#F0F0F0"/>
<path d="M236.748 200.114H234.044V202.821H236.748V200.114Z" fill="#F0F0F0"/>
<path d="M236.748 204.658H234.044V207.364H236.748V204.658Z" fill="#F0F0F0"/>
<path d="M236.748 209.201H234.044V211.907H236.748V209.201Z" fill="#F0F0F0"/>
<path d="M236.748 213.733H234.044V216.44H236.748V213.733Z" fill="#F0F0F0"/>
<path d="M236.748 218.277H234.044V220.983H236.748V218.277Z" fill="#F0F0F0"/>
<path d="M236.748 222.82H234.044V225.527H236.748V222.82Z" fill="#F0F0F0"/>
<path d="M236.748 227.363H234.044V230.07H236.748V227.363Z" fill="#F0F0F0"/>
<path d="M236.748 231.907H234.044V234.613H236.748V231.907Z" fill="#F0F0F0"/>
<path d="M236.748 236.45H234.044V239.157H236.748V236.45Z" fill="#F0F0F0"/>
<path d="M236.748 240.994H234.044V243.7H236.748V240.994Z" fill="#F0F0F0"/>
<path d="M232.447 186.484H229.743V189.191H232.447V186.484Z" fill="#F0F0F0"/>
<path d="M232.447 191.027H229.743V193.734H232.447V191.027Z" fill="#F0F0F0"/>
<path d="M232.447 195.571H229.743V198.277H232.447V195.571Z" fill="#F0F0F0"/>
<path d="M232.447 200.114H229.743V202.821H232.447V200.114Z" fill="#F0F0F0"/>
<path d="M232.447 204.658H229.743V207.364H232.447V204.658Z" fill="#F0F0F0"/>
<path d="M232.447 209.201H229.743V211.907H232.447V209.201Z" fill="#F0F0F0"/>
<path d="M232.447 213.733H229.743V216.44H232.447V213.733Z" fill="#F0F0F0"/>
<path d="M232.447 218.277H229.743V220.983H232.447V218.277Z" fill="#F0F0F0"/>
<path d="M232.447 222.82H229.743V225.527H232.447V222.82Z" fill="#F0F0F0"/>
<path d="M232.447 227.363H229.743V230.07H232.447V227.363Z" fill="#F0F0F0"/>
<path d="M232.447 231.907H229.743V234.613H232.447V231.907Z" fill="#F0F0F0"/>
<path d="M232.447 236.45H229.743V239.157H232.447V236.45Z" fill="#F0F0F0"/>
<path d="M483.411 185.125H480.707V187.832H483.411V185.125Z" fill="#F0F0F0"/>
<path d="M483.411 189.669H480.707V192.375H483.411V189.669Z" fill="#F0F0F0"/>
<path d="M483.411 194.212H480.707V196.919H483.411V194.212Z" fill="#F0F0F0"/>
<path d="M483.411 198.755H480.707V201.462H483.411V198.755Z" fill="#F0F0F0"/>
<path d="M483.411 203.299H480.707V206.006H483.411V203.299Z" fill="#F0F0F0"/>
<path d="M483.411 207.842H480.707V210.549H483.411V207.842Z" fill="#F0F0F0"/>
<path d="M483.411 212.386H480.707V215.092H483.411V212.386Z" fill="#F0F0F0"/>
<path d="M483.411 216.929H480.707V219.635H483.411V216.929Z" fill="#F0F0F0"/>
<path d="M483.411 221.472H480.707V224.179H483.411V221.472Z" fill="#F0F0F0"/>
<path d="M483.411 226.016H480.707V228.722H483.411V226.016Z" fill="#F0F0F0"/>
<path d="M483.411 230.548H480.707V233.255H483.411V230.548Z" fill="#F0F0F0"/>
<path d="M483.411 235.091H480.707V237.798H483.411V235.091Z" fill="#F0F0F0"/>
<path d="M483.411 239.635H480.707V242.341H483.411V239.635Z" fill="#F0F0F0"/>
<path d="M483.411 244.178H480.707V246.885H483.411V244.178Z" fill="#F0F0F0"/>
<path d="M483.411 248.722H480.707V251.428H483.411V248.722Z" fill="#F0F0F0"/>
<path d="M483.411 253.265H480.707V255.972H483.411V253.265Z" fill="#F0F0F0"/>
<path d="M483.411 257.808H480.707V260.515H483.411V257.808Z" fill="#F0F0F0"/>
<path d="M483.411 266.895H480.707V269.601H483.411V266.895Z" fill="#F0F0F0"/>
<path d="M483.411 271.438H480.707V274.145H483.411V271.438Z" fill="#F0F0F0"/>
<path d="M483.411 275.971H480.707V278.677H483.411V275.971Z" fill="#F0F0F0"/>
<path d="M483.411 280.514H480.707V283.221H483.411V280.514Z" fill="#F0F0F0"/>
<path d="M483.411 285.058H480.707V287.764H483.411V285.058Z" fill="#F0F0F0"/>
<path d="M479.11 185.125H476.406V187.832H479.11V185.125Z" fill="#F0F0F0"/>
<path d="M479.11 189.669H476.406V192.375H479.11V189.669Z" fill="#F0F0F0"/>
<path d="M479.11 194.212H476.406V196.919H479.11V194.212Z" fill="#F0F0F0"/>
<path d="M479.11 198.755H476.406V201.462H479.11V198.755Z" fill="#F0F0F0"/>
<path d="M479.11 203.299H476.406V206.006H479.11V203.299Z" fill="#F0F0F0"/>
<path d="M479.11 207.842H476.406V210.549H479.11V207.842Z" fill="#F0F0F0"/>
<path d="M479.11 212.386H476.406V215.092H479.11V212.386Z" fill="#F0F0F0"/>
<path d="M479.11 216.929H476.406V219.635H479.11V216.929Z" fill="#F0F0F0"/>
<path d="M479.11 221.472H476.406V224.179H479.11V221.472Z" fill="#F0F0F0"/>
<path d="M479.11 226.016H476.406V228.722H479.11V226.016Z" fill="#F0F0F0"/>
<path d="M479.11 230.548H476.406V233.255H479.11V230.548Z" fill="#F0F0F0"/>
<path d="M479.11 235.091H476.406V237.798H479.11V235.091Z" fill="#F0F0F0"/>
<path d="M479.11 239.635H476.406V242.341H479.11V239.635Z" fill="#F0F0F0"/>
<path d="M479.11 244.178H476.406V246.885H479.11V244.178Z" fill="#F0F0F0"/>
<path d="M479.11 248.722H476.406V251.428H479.11V248.722Z" fill="#F0F0F0"/>
<path d="M479.11 253.265H476.406V255.972H479.11V253.265Z" fill="#F0F0F0"/>
<path d="M479.11 280.514H476.406V283.221H479.11V280.514Z" fill="#F0F0F0"/>
<path d="M479.11 285.058H476.406V287.764H479.11V285.058Z" fill="#F0F0F0"/>
<path d="M474.821 185.125H472.117V187.832H474.821V185.125Z" fill="#F0F0F0"/>
<path d="M474.821 189.669H472.117V192.375H474.821V189.669Z" fill="#F0F0F0"/>
<path d="M474.821 194.212H472.117V196.919H474.821V194.212Z" fill="#F0F0F0"/>
<path d="M474.821 198.755H472.117V201.462H474.821V198.755Z" fill="#F0F0F0"/>
<path d="M474.821 203.299H472.117V206.006H474.821V203.299Z" fill="#F0F0F0"/>
<path d="M474.821 207.842H472.117V210.549H474.821V207.842Z" fill="#F0F0F0"/>
<path d="M474.821 212.386H472.117V215.092H474.821V212.386Z" fill="#F0F0F0"/>
<path d="M474.821 216.929H472.117V219.635H474.821V216.929Z" fill="#F0F0F0"/>
<path d="M474.821 221.472H472.117V224.179H474.821V221.472Z" fill="#F0F0F0"/>
<path d="M474.821 226.016H472.117V228.722H474.821V226.016Z" fill="#F0F0F0"/>
<path d="M474.821 230.548H472.117V233.255H474.821V230.548Z" fill="#F0F0F0"/>
<path d="M474.821 235.091H472.117V237.798H474.821V235.091Z" fill="#F0F0F0"/>
<path d="M474.821 239.635H472.117V242.341H474.821V239.635Z" fill="#F0F0F0"/>
<path d="M474.821 244.178H472.117V246.885H474.821V244.178Z" fill="#F0F0F0"/>
<path d="M474.821 248.722H472.117V251.428H474.821V248.722Z" fill="#F0F0F0"/>
<path d="M474.821 253.265H472.117V255.972H474.821V253.265Z" fill="#F0F0F0"/>
<path d="M474.821 262.352H472.117V265.058H474.821V262.352Z" fill="#F0F0F0"/>
<path d="M474.821 266.895H472.117V269.601H474.821V266.895Z" fill="#F0F0F0"/>
<path d="M474.821 271.438H472.117V274.145H474.821V271.438Z" fill="#F0F0F0"/>
<path d="M474.821 275.971H472.117V278.677H474.821V275.971Z" fill="#F0F0F0"/>
<path d="M474.821 285.058H472.117V287.764H474.821V285.058Z" fill="#F0F0F0"/>
<path d="M399.811 216.929H397.107V219.635H399.811V216.929Z" fill="#F0F0F0"/>
<path d="M399.811 221.472H397.107V224.179H399.811V221.472Z" fill="#F0F0F0"/>
<path d="M399.811 226.016H397.107V228.722H399.811V226.016Z" fill="#F0F0F0"/>
<path d="M399.811 230.548H397.107V233.255H399.811V230.548Z" fill="#F0F0F0"/>
<path d="M399.811 235.091H397.107V237.798H399.811V235.091Z" fill="#F0F0F0"/>
<path d="M399.811 239.635H397.107V242.341H399.811V239.635Z" fill="#F0F0F0"/>
<path d="M399.811 244.178H397.107V246.885H399.811V244.178Z" fill="#F0F0F0"/>
<path d="M399.811 248.722H397.107V251.428H399.811V248.722Z" fill="#F0F0F0"/>
<path d="M399.811 253.265H397.107V255.972H399.811V253.265Z" fill="#F0F0F0"/>
<path d="M399.811 257.808H397.107V260.515H399.811V257.808Z" fill="#F0F0F0"/>
<path d="M399.811 262.352H397.107V265.058H399.811V262.352Z" fill="#F0F0F0"/>
<path d="M399.811 266.895H397.107V269.601H399.811V266.895Z" fill="#F0F0F0"/>
<path d="M399.811 271.438H397.107V274.145H399.811V271.438Z" fill="#F0F0F0"/>
<path d="M399.811 280.514H397.107V283.221H399.811V280.514Z" fill="#F0F0F0"/>
<path d="M399.811 285.058H397.107V287.764H399.811V285.058Z" fill="#F0F0F0"/>
<path d="M399.811 289.601H397.107V292.308H399.811V289.601Z" fill="#F0F0F0"/>
<path d="M399.811 294.145H397.107V296.851H399.811V294.145Z" fill="#F0F0F0"/>
<path d="M399.811 303.231H397.107V305.937H399.811V303.231Z" fill="#F0F0F0"/>
<path d="M399.811 307.774H397.107V310.481H399.811V307.774Z" fill="#F0F0F0"/>
<path d="M399.811 312.318H397.107V315.024H399.811V312.318Z" fill="#F0F0F0"/>
<path d="M395.51 216.929H392.806V219.635H395.51V216.929Z" fill="#F0F0F0"/>
<path d="M395.51 221.472H392.806V224.179H395.51V221.472Z" fill="#F0F0F0"/>
<path d="M395.51 226.016H392.806V228.722H395.51V226.016Z" fill="#F0F0F0"/>
<path d="M395.51 230.548H392.806V233.255H395.51V230.548Z" fill="#F0F0F0"/>
<path d="M395.51 235.091H392.806V237.798H395.51V235.091Z" fill="#F0F0F0"/>
<path d="M395.51 239.635H392.806V242.341H395.51V239.635Z" fill="#F0F0F0"/>
<path d="M395.51 244.178H392.806V246.885H395.51V244.178Z" fill="#F0F0F0"/>
<path d="M395.51 248.722H392.806V251.428H395.51V248.722Z" fill="#F0F0F0"/>
<path d="M395.51 253.265H392.806V255.972H395.51V253.265Z" fill="#F0F0F0"/>
<path d="M395.51 257.808H392.806V260.515H395.51V257.808Z" fill="#F0F0F0"/>
<path d="M395.51 262.352H392.806V265.058H395.51V262.352Z" fill="#F0F0F0"/>
<path d="M395.51 266.895H392.806V269.601H395.51V266.895Z" fill="#F0F0F0"/>
<path d="M395.51 271.438H392.806V274.145H395.51V271.438Z" fill="#F0F0F0"/>
<path d="M395.51 285.058H392.806V287.764H395.51V285.058Z" fill="#F0F0F0"/>
<path d="M395.51 289.601H392.806V292.308H395.51V289.601Z" fill="#F0F0F0"/>
<path d="M395.51 298.688H392.806V301.394H395.51V298.688Z" fill="#F0F0F0"/>
<path d="M395.51 303.231H392.806V305.937H395.51V303.231Z" fill="#F0F0F0"/>
<path d="M395.51 307.774H392.806V310.481H395.51V307.774Z" fill="#F0F0F0"/>
<path d="M395.51 312.318H392.806V315.024H395.51V312.318Z" fill="#F0F0F0"/>
<path d="M391.21 216.929H388.506V219.635H391.21V216.929Z" fill="#F0F0F0"/>
<path d="M391.21 221.472H388.506V224.179H391.21V221.472Z" fill="#F0F0F0"/>
<path d="M391.21 226.016H388.506V228.722H391.21V226.016Z" fill="#F0F0F0"/>
<path d="M391.21 230.548H388.506V233.255H391.21V230.548Z" fill="#F0F0F0"/>
<path d="M391.21 235.091H388.506V237.798H391.21V235.091Z" fill="#F0F0F0"/>
<path d="M391.21 239.635H388.506V242.341H391.21V239.635Z" fill="#F0F0F0"/>
<path d="M391.21 244.178H388.506V246.885H391.21V244.178Z" fill="#F0F0F0"/>
<path d="M391.21 248.722H388.506V251.428H391.21V248.722Z" fill="#F0F0F0"/>
<path d="M391.21 253.265H388.506V255.972H391.21V253.265Z" fill="#F0F0F0"/>
<path d="M391.21 257.808H388.506V260.515H391.21V257.808Z" fill="#F0F0F0"/>
<path d="M391.21 262.352H388.506V265.058H391.21V262.352Z" fill="#F0F0F0"/>
<path d="M391.21 266.895H388.506V269.601H391.21V266.895Z" fill="#F0F0F0"/>
<path d="M391.21 271.438H388.506V274.145H391.21V271.438Z" fill="#F0F0F0"/>
<path d="M391.21 275.971H388.506V278.677H391.21V275.971Z" fill="#F0F0F0"/>
<path d="M391.21 285.058H388.506V287.764H391.21V285.058Z" fill="#F0F0F0"/>
<path d="M391.21 294.145H388.506V296.851H391.21V294.145Z" fill="#F0F0F0"/>
<path d="M391.21 298.688H388.506V301.394H391.21V298.688Z" fill="#F0F0F0"/>
<path d="M391.21 303.231H388.506V305.937H391.21V303.231Z" fill="#F0F0F0"/>
<path d="M391.21 307.774H388.506V310.481H391.21V307.774Z" fill="#F0F0F0"/>
<path d="M391.21 312.318H388.506V315.024H391.21V312.318Z" fill="#F0F0F0"/>
<path d="M417.328 242.831H414.624V245.537H417.328V242.831Z" fill="#F0F0F0"/>
<path d="M417.328 247.363H414.624V250.069H417.328V247.363Z" fill="#F0F0F0"/>
<path d="M417.328 251.906H414.624V254.613H417.328V251.906Z" fill="#F0F0F0"/>
<path d="M417.328 256.45H414.624V259.156H417.328V256.45Z" fill="#F0F0F0"/>
<path d="M417.328 260.993H414.624V263.7H417.328V260.993Z" fill="#F0F0F0"/>
<path d="M417.328 265.536H414.624V268.243H417.328V265.536Z" fill="#F0F0F0"/>
<path d="M417.328 279.167H414.624V281.873H417.328V279.167Z" fill="#F0F0F0"/>
<path d="M417.328 283.71H414.624V286.416H417.328V283.71Z" fill="#F0F0F0"/>
<path d="M417.328 288.242H414.624V290.949H417.328V288.242Z" fill="#F0F0F0"/>
<path d="M417.328 292.786H414.624V295.492H417.328V292.786Z" fill="#F0F0F0"/>
<path d="M417.328 297.329H414.624V300.036H417.328V297.329Z" fill="#F0F0F0"/>
<path d="M417.328 301.873H414.624V304.579H417.328V301.873Z" fill="#F0F0F0"/>
<path d="M417.328 306.416H414.624V309.122H417.328V306.416Z" fill="#F0F0F0"/>
<path d="M413.027 242.831H410.323V245.537H413.027V242.831Z" fill="#F0F0F0"/>
<path d="M413.027 247.363H410.323V250.069H413.027V247.363Z" fill="#F0F0F0"/>
<path d="M413.027 251.906H410.323V254.613H413.027V251.906Z" fill="#F0F0F0"/>
<path d="M413.027 256.45H410.323V259.156H413.027V256.45Z" fill="#F0F0F0"/>
<path d="M413.027 260.993H410.323V263.7H413.027V260.993Z" fill="#F0F0F0"/>
<path d="M413.027 265.536H410.323V268.243H413.027V265.536Z" fill="#F0F0F0"/>
<path d="M413.027 279.167H410.323V281.873H413.027V279.167Z" fill="#F0F0F0"/>
<path d="M413.027 283.71H410.323V286.416H413.027V283.71Z" fill="#F0F0F0"/>
<path d="M413.027 288.242H410.323V290.949H413.027V288.242Z" fill="#F0F0F0"/>
<path d="M413.027 292.786H410.323V295.492H413.027V292.786Z" fill="#F0F0F0"/>
<path d="M413.027 297.329H410.323V300.036H413.027V297.329Z" fill="#F0F0F0"/>
<path d="M413.027 301.873H410.323V304.579H413.027V301.873Z" fill="#F0F0F0"/>
<path d="M413.027 310.959H410.323V313.665H413.027V310.959Z" fill="#F0F0F0"/>
<path d="M270.186 222.82H267.482V225.527H270.186V222.82Z" fill="#F0F0F0"/>
<path d="M270.186 227.363H267.482V230.07H270.186V227.363Z" fill="#F0F0F0"/>
<path d="M270.186 231.907H267.482V234.613H270.186V231.907Z" fill="#F0F0F0"/>
<path d="M270.186 236.45H267.482V239.157H270.186V236.45Z" fill="#F0F0F0"/>
<path d="M270.186 240.994H267.482V243.7H270.186V240.994Z" fill="#F0F0F0"/>
<path d="M270.186 245.537H267.482V248.244H270.186V245.537Z" fill="#F0F0F0"/>
<path d="M270.186 250.08H267.482V252.787H270.186V250.08Z" fill="#F0F0F0"/>
<path d="M270.186 254.624H267.482V257.33H270.186V254.624Z" fill="#F0F0F0"/>
<path d="M270.186 259.156H267.482V261.863H270.186V259.156Z" fill="#F0F0F0"/>
<path d="M270.186 263.699H267.482V266.406H270.186V263.699Z" fill="#F0F0F0"/>
<path d="M270.186 268.243H267.482V270.949H270.186V268.243Z" fill="#F0F0F0"/>
<path d="M270.186 277.33H267.482V280.036H270.186V277.33Z" fill="#F0F0F0"/>
<path d="M270.186 281.873H267.482V284.58H270.186V281.873Z" fill="#F0F0F0"/>
<path d="M270.186 286.416H267.482V289.122H270.186V286.416Z" fill="#F0F0F0"/>
<path d="M270.186 290.959H267.482V293.666H270.186V290.959Z" fill="#F0F0F0"/>
<path d="M270.186 295.503H267.482V298.209H270.186V295.503Z" fill="#F0F0F0"/>
<path d="M270.186 300.046H267.482V302.753H270.186V300.046Z" fill="#F0F0F0"/>
<path d="M270.186 304.579H267.482V307.285H270.186V304.579Z" fill="#F0F0F0"/>
<path d="M270.186 309.122H267.482V311.829H270.186V309.122Z" fill="#F0F0F0"/>
<path d="M265.897 222.82H263.192V225.527H265.897V222.82Z" fill="#F0F0F0"/>
<path d="M265.897 227.363H263.192V230.07H265.897V227.363Z" fill="#F0F0F0"/>
<path d="M265.897 231.907H263.192V234.613H265.897V231.907Z" fill="#F0F0F0"/>
<path d="M265.897 236.45H263.192V239.157H265.897V236.45Z" fill="#F0F0F0"/>
<path d="M265.897 240.994H263.192V243.7H265.897V240.994Z" fill="#F0F0F0"/>
<path d="M265.897 245.537H263.192V248.244H265.897V245.537Z" fill="#F0F0F0"/>
<path d="M265.897 250.08H263.192V252.787H265.897V250.08Z" fill="#F0F0F0"/>
<path d="M265.897 254.624H263.192V257.33H265.897V254.624Z" fill="#F0F0F0"/>
<path d="M265.897 259.156H263.192V261.863H265.897V259.156Z" fill="#F0F0F0"/>
<path d="M265.897 263.699H263.192V266.406H265.897V263.699Z" fill="#F0F0F0"/>
<path d="M265.897 268.243H263.192V270.949H265.897V268.243Z" fill="#F0F0F0"/>
<path d="M265.897 272.786H263.192V275.493H265.897V272.786Z" fill="#F0F0F0"/>
<path d="M265.897 277.33H263.192V280.036H265.897V277.33Z" fill="#F0F0F0"/>
<path d="M265.897 281.873H263.192V284.58H265.897V281.873Z" fill="#F0F0F0"/>
<path d="M265.897 286.416H263.192V289.122H265.897V286.416Z" fill="#F0F0F0"/>
<path d="M265.897 290.959H263.192V293.666H265.897V290.959Z" fill="#F0F0F0"/>
<path d="M265.897 295.503H263.192V298.209H265.897V295.503Z" fill="#F0F0F0"/>
<path d="M265.897 300.046H263.192V302.753H265.897V300.046Z" fill="#F0F0F0"/>
<path d="M265.897 304.579H263.192V307.285H265.897V304.579Z" fill="#F0F0F0"/>
<path d="M265.897 309.122H263.192V311.829H265.897V309.122Z" fill="#F0F0F0"/>
<path d="M291.374 240.515H288.67V243.222H291.374V240.515Z" fill="#F0F0F0"/>
<path d="M291.374 245.059H288.67V247.765H291.374V245.059Z" fill="#F0F0F0"/>
<path d="M291.374 249.602H288.67V252.309H291.374V249.602Z" fill="#F0F0F0"/>
<path d="M291.374 254.146H288.67V256.852H291.374V254.146Z" fill="#F0F0F0"/>
<path d="M291.374 258.678H288.67V261.384H291.374V258.678Z" fill="#F0F0F0"/>
<path d="M291.374 263.221H288.67V265.928H291.374V263.221Z" fill="#F0F0F0"/>
<path d="M291.374 267.765H288.67V270.471H291.374V267.765Z" fill="#F0F0F0"/>
<path d="M291.374 272.308H288.67V275.015H291.374V272.308Z" fill="#F0F0F0"/>
<path d="M291.374 276.851H288.67V279.558H291.374V276.851Z" fill="#F0F0F0"/>
<path d="M291.374 281.395H288.67V284.101H291.374V281.395Z" fill="#F0F0F0"/>
<path d="M287.073 240.515H284.369V243.222H287.073V240.515Z" fill="#F0F0F0"/>
<path d="M287.073 245.059H284.369V247.765H287.073V245.059Z" fill="#F0F0F0"/>
<path d="M287.073 249.602H284.369V252.309H287.073V249.602Z" fill="#F0F0F0"/>
<path d="M287.073 254.146H284.369V256.852H287.073V254.146Z" fill="#F0F0F0"/>
<path d="M287.073 258.678H284.369V261.384H287.073V258.678Z" fill="#F0F0F0"/>
<path d="M287.073 263.221H284.369V265.928H287.073V263.221Z" fill="#F0F0F0"/>
<path d="M287.073 267.765H284.369V270.471H287.073V267.765Z" fill="#F0F0F0"/>
<path d="M287.073 272.308H284.369V275.015H287.073V272.308Z" fill="#F0F0F0"/>
<path d="M287.073 276.851H284.369V279.558H287.073V276.851Z" fill="#F0F0F0"/>
<path d="M312.648 68.1396H308.109V321.481H312.648V68.1396Z" fill="#E0E0E0"/>
<path d="M398.127 68.1396H393.588V321.481H398.127V68.1396Z" fill="#E0E0E0"/>
<path d="M483.596 68.1396H479.056V321.481H483.596V68.1396Z" fill="#E0E0E0"/>
<path d="M160.532 296.829H188.529C189.798 296.832 191.013 297.338 191.909 298.237C192.805 299.136 193.308 300.353 193.308 301.622V355.784H155.754V301.622C155.754 300.353 156.257 299.136 157.153 298.237C158.049 297.338 159.264 296.832 160.532 296.829V296.829Z" fill="#F0F0F0"/>
<path d="M193.319 304.796H155.754V309.025H193.319V304.796Z" fill="#E6E6E6"/>
<path d="M177.116 348.643H186.477C187.16 348.643 187.815 348.914 188.297 349.397C188.78 349.88 189.051 350.535 189.051 351.219V355.784H174.531V351.219C174.531 350.879 174.598 350.544 174.728 350.23C174.858 349.917 175.049 349.633 175.289 349.393C175.529 349.154 175.814 348.964 176.128 348.836C176.441 348.707 176.777 348.641 177.116 348.643V348.643Z" fill="#E0E0E0"/>
<path d="M189.094 355.784H178.69C178.247 355.784 177.822 355.608 177.508 355.294C177.194 354.98 177.018 354.554 177.018 354.11V354.11C177.021 353.668 177.198 353.245 177.512 352.934C177.825 352.622 178.249 352.447 178.69 352.447H189.094C189.536 352.447 189.96 352.622 190.273 352.934C190.586 353.245 190.764 353.668 190.767 354.11V354.11C190.767 354.554 190.591 354.98 190.277 355.294C189.963 355.608 189.538 355.784 189.094 355.784Z" fill="#E6E6E6"/>
<path d="M355.897 56.2535C369.644 53.0061 378.158 39.2198 374.914 25.4609C371.669 11.702 357.894 3.1808 344.147 6.42819C330.4 9.67558 321.886 23.4619 325.131 37.2207C328.375 50.9796 342.15 59.5009 355.897 56.2535Z" fill="#E0E0E0"/>
<path d="M353.501 52.801C365.359 50.8745 373.412 39.6914 371.487 27.8228C369.562 15.9543 358.389 7.89474 346.53 9.82127C334.672 11.7478 326.619 22.9309 328.544 34.7994C330.469 46.668 341.642 54.7276 353.501 52.801Z" fill="#F0F0F0"/>
<path d="M351.049 16.3799V31.5969L361.117 25.8905" fill="#F0F0F0"/>
<path d="M351.049 16.3799V31.5969L361.117 25.8905" stroke="#E0E0E0" stroke-width="2" stroke-linecap="round" stroke-linejoin="round"/>
<path d="M105.266 281.177C103.311 277.916 100.096 280.753 100.096 280.753C100.553 274.579 94.8837 270.362 94.8837 270.362C94.8837 270.362 101.476 270.362 102.388 264.069C103.3 257.776 100.096 260.699 97.0774 260.656C94.0583 260.612 90.8981 269.438 94.9054 274.406C98.9128 279.373 97.8159 287.851 88.6175 296.003C86.4178 298.063 84.7678 300.641 83.8174 303.503C84.5124 296.014 84.9034 285.46 82.7314 278.416C78.9955 266.46 86.1197 263.199 88.1614 257.243C90.203 251.287 82.7314 246.2 82.7314 246.2C82.7314 246.2 89.8012 242.939 86.3477 239.298C82.8943 235.657 75.7701 236.113 75.7701 240.928C75.7701 245.743 80.6028 247.58 80.6028 247.58C80.6028 247.58 86.1197 253.33 86.1197 256.276C86.1197 259.221 80.6028 265.71 80.6028 265.71C80.6028 265.71 83.1332 260.199 78.0724 259.971C73.0117 259.743 71.4044 266.406 73.4786 269.395C75.5529 272.384 78.9955 269.862 78.9955 269.862C79.2115 273.351 79.7385 276.814 80.5702 280.21C81.0915 281.938 80.8526 288.688 80.4182 295.709C79.4578 293.174 77.9224 290.897 75.933 289.057C66.7346 280.905 65.6703 272.427 69.6559 267.46C73.6415 262.493 70.4813 253.667 67.4839 253.71C64.4866 253.754 61.2394 250.819 62.1625 257.113C63.0856 263.406 69.6776 263.417 69.6776 263.417C69.6776 263.417 63.9979 267.634 64.454 273.808C64.454 273.808 61.196 271.004 59.2846 274.232C55.7986 279.982 63.8893 283.547 65.2468 280.753C65.2468 280.753 82.3947 292.905 78.2788 310.394L79.2344 311.818C79.115 313.231 79.039 314.078 79.039 314.078L80.3747 313.502L81.906 315.752C81.8525 318.295 81.9831 320.837 82.297 323.361L86.3912 317.296C82.2535 299.807 99.4232 287.655 99.4232 287.655C100.672 290.503 108.752 286.927 105.266 281.177Z" fill="#E0E0E0"/>
<path opacity="0.2" d="M105.266 281.177C103.311 277.916 100.096 280.753 100.096 280.753C100.553 274.579 94.8837 270.362 94.8837 270.362C94.8837 270.362 101.476 270.362 102.388 264.069C103.3 257.776 100.096 260.699 97.0774 260.656C94.0583 260.612 90.8981 269.438 94.9054 274.406C98.9128 279.373 97.8159 287.851 88.6175 296.003C86.4178 298.063 84.7678 300.641 83.8174 303.503C84.5124 296.014 84.9034 285.46 82.7314 278.416C78.9955 266.46 86.1197 263.199 88.1614 257.243C90.203 251.287 82.7314 246.2 82.7314 246.2C82.7314 246.2 89.8012 242.939 86.3477 239.298C82.8943 235.657 75.7701 236.113 75.7701 240.928C75.7701 245.743 80.6028 247.58 80.6028 247.58C80.6028 247.58 86.1197 253.33 86.1197 256.276C86.1197 259.221 80.6028 265.71 80.6028 265.71C80.6028 265.71 83.1332 260.199 78.0724 259.971C73.0117 259.743 71.4044 266.406 73.4786 269.395C75.5529 272.384 78.9955 269.862 78.9955 269.862C79.2115 273.351 79.7385 276.814 80.5702 280.21C81.0915 281.938 80.8526 288.688 80.4182 295.709C79.4578 293.174 77.9224 290.897 75.933 289.057C66.7346 280.905 65.6703 272.427 69.6559 267.46C73.6415 262.493 70.4813 253.667 67.4839 253.71C64.4866 253.754 61.2394 250.819 62.1625 257.113C63.0856 263.406 69.6776 263.417 69.6776 263.417C69.6776 263.417 63.9979 267.634 64.454 273.808C64.454 273.808 61.196 271.004 59.2846 274.232C55.7986 279.982 63.8893 283.547 65.2468 280.753C65.2468 280.753 82.3947 292.905 78.2788 310.394L79.2344 311.818C79.115 313.231 79.039 314.078 79.039 314.078L80.3747 313.502L81.906 315.752C81.8525 318.295 81.9831 320.837 82.297 323.361L86.3912 317.296C82.2535 299.807 99.4232 287.655 99.4232 287.655C100.672 290.503 108.752 286.927 105.266 281.177Z" fill="#E0E0E0"/>
<path d="M101.91 355.784H62.6294L58.394 312.73H106.156L101.91 355.784Z" fill="#E6E6E6"/>
<path d="M108.242 307.981H56.2876V317.481H108.242V307.981Z" fill="#F0F0F0"/>
<path d="M271.5 405C387.792 405 482.065 399.491 482.065 392.696C482.065 385.901 387.792 380.392 271.5 380.392C155.209 380.392 60.9355 385.901 60.9355 392.696C60.9355 399.491 155.209 405 271.5 405Z" fill="#F5F5F5"/>
<path d="M445.749 358.436C445.912 357.349 449.713 331.078 442.1 322.013C441.342 321.058 440.382 320.282 439.289 319.743C438.196 319.204 436.998 318.913 435.779 318.893C420.401 318.535 418.305 330.85 418.284 331.013L420.097 331.295C420.162 330.85 421.987 320.426 435.736 320.73C436.694 320.744 437.636 320.971 438.495 321.396C439.354 321.821 440.107 322.433 440.699 323.187C447.779 331.632 443.957 357.892 443.957 358.164L445.749 358.436Z" fill="#FF725E"/>
<path d="M446.672 357.241L448.507 357.175C448.507 356.936 447.899 332.991 459.682 328.046C471.237 323.209 476.439 333.165 476.645 333.589L478.285 332.763C478.231 332.643 472.127 320.807 458.976 326.361C446.031 331.785 446.639 356.197 446.672 357.241Z" fill="#FF725E"/>
<path d="M446.617 359.121C446.617 358.74 446.737 320.872 454.111 309.796C461.192 299.155 472.573 304.166 473.105 304.361L473.854 302.688C473.724 302.633 460.54 296.807 452.58 308.753C444.902 320.285 444.793 357.512 444.793 359.099L446.617 359.121Z" fill="#FF725E"/>
<path d="M433.575 319.806C433.575 319.806 440.286 322.285 438.288 328.121C436.29 333.958 415.08 343.588 415.08 343.588C415.08 343.588 406.186 335.436 414.353 322.176C422.519 308.915 433.39 315.622 433.575 319.806Z" fill="#FF725E"/>
<path d="M454.437 307.796C454.437 307.796 449.68 307.285 450.093 304.383C450.505 301.481 468.62 294.003 479.317 306.089C479.317 306.089 472.464 317.872 462.56 318.046C452.656 318.22 454.437 307.796 454.437 307.796Z" fill="#FF725E"/>
<path d="M459.378 327.219C459.378 327.219 456.12 324.567 459.639 323.274C463.157 321.981 480.598 322.339 480.772 339.578C480.772 339.578 460.497 342.958 457.966 336.382C455.436 329.806 459.378 327.219 459.378 327.219Z" fill="#FF725E"/>
<path opacity="0.2" d="M433.575 320.415C433.575 320.415 440.286 322.894 438.288 328.741C436.29 334.589 415.08 344.208 415.08 344.208C415.08 344.208 406.186 336.056 414.353 322.796C422.519 309.535 433.39 316.231 433.575 320.415Z" fill="#FF725E"/>
<path d="M429.969 393.598H461.441L464.829 359.11H426.581L429.969 393.598Z" fill="#AA473D"/>
<path d="M424.898 362.914H466.513V355.306H424.898V362.914Z" fill="#FF725E"/>
<path d="M394.349 368.881L363.061 365.805V321.785H350.659V365.784L319.284 368.881C317.78 369.03 316.384 369.733 315.368 370.853C314.353 371.974 313.79 373.433 313.789 374.946V379.653H399.887V374.946C399.888 373.426 399.32 371.96 398.295 370.837C397.27 369.715 395.862 369.017 394.349 368.881V368.881Z" fill="#263238"/>
<path opacity="0.2" d="M394.349 368.881L363.061 365.805V321.785H350.659V365.784L319.284 368.881C317.78 369.03 316.384 369.733 315.368 370.853C314.353 371.974 313.79 373.433 313.789 374.946V379.653H399.887V374.946C399.888 373.426 399.32 371.96 398.295 370.837C397.27 369.715 395.862 369.017 394.349 368.881V368.881Z" fill="white"/>
<path d="M317.058 393.599C321.538 393.599 325.17 389.963 325.17 385.479C325.17 380.995 321.538 377.36 317.058 377.36C312.577 377.36 308.945 380.995 308.945 385.479C308.945 389.963 312.577 393.599 317.058 393.599Z" fill="#263238"/>
<path d="M396.542 393.599C401.022 393.599 404.654 389.963 404.654 385.479C404.654 380.995 401.022 377.36 396.542 377.36C392.062 377.36 388.43 380.995 388.43 385.479C388.43 389.963 392.062 393.599 396.542 393.599Z" fill="#263238"/>
<path d="M348.53 292.046H365.2V326.752C365.2 327.943 364.727 329.084 363.886 329.926C363.045 330.768 361.904 331.241 360.715 331.241H353.015C351.825 331.241 350.685 330.768 349.843 329.926C349.002 329.084 348.53 327.943 348.53 326.752V292.046V292.046Z" fill="#263238"/>
<path opacity="0.3" d="M348.53 292.046H365.2V326.752C365.2 327.943 364.727 329.084 363.886 329.926C363.045 330.768 361.904 331.241 360.715 331.241H353.015C351.825 331.241 350.685 330.768 349.843 329.926C349.002 329.084 348.53 327.943 348.53 326.752V292.046V292.046Z" fill="white"/>
<path d="M386.507 223.255C386.507 223.255 388.875 281.949 372.542 292.047H391.188C391.188 292.047 405.632 272.058 401.549 223.255H386.507Z" fill="#263238"/>
<path opacity="0.3" d="M386.507 223.255C386.507 223.255 388.875 281.949 372.542 292.047H391.188C391.188 292.047 405.632 272.058 401.549 223.255H386.507Z" fill="white"/>
<path d="M397.53 296.546H313.995V289.275C313.995 287.833 314.567 286.451 315.586 285.432C316.604 284.413 317.985 283.84 319.425 283.84H392.1C393.54 283.84 394.922 284.413 395.94 285.432C396.958 286.451 397.53 287.833 397.53 289.275V296.546Z" fill="#263238"/>
<path d="M312.692 296.546H398.823C400.028 296.546 401.005 295.568 401.005 294.362V292.383C401.005 291.177 400.028 290.199 398.823 290.199H312.692C311.486 290.199 310.509 291.177 310.509 292.383V294.362C310.509 295.568 311.486 296.546 312.692 296.546Z" fill="#263238"/>
<path opacity="0.6" d="M312.692 296.546H398.823C400.028 296.546 401.005 295.568 401.005 294.362V292.383C401.005 291.177 400.028 290.199 398.823 290.199H312.692C311.486 290.199 310.509 291.177 310.509 292.383V294.362C310.509 295.568 311.486 296.546 312.692 296.546Z" fill="white"/>
<path d="M406.121 191.789H376.256C367.511 191.789 360.422 198.884 360.422 207.636V219.331C360.422 228.084 367.511 235.179 376.256 235.179H406.121C414.866 235.179 421.955 228.084 421.955 219.331V207.636C421.955 198.884 414.866 191.789 406.121 191.789Z" fill="#263238"/>
<path d="M285.672 143.833L279.71 128.106C279.71 128.106 282.273 125.736 280.514 123.334C278.754 120.932 267.764 114.182 265.766 115.367C263.768 116.552 259.304 121.03 261.715 123.519C264.126 126.008 274.747 130.149 274.747 130.149L280.025 150.801L285.672 143.833Z" fill="#E4897B"/>
<path d="M327.299 173.735C327.299 173.735 300.148 168.159 297.249 166.822C294.349 165.485 283.446 133.497 283.446 133.497L275.073 137.41C275.073 137.41 281.806 169.517 288.691 177.148C295.576 184.778 324.964 191.278 324.964 191.278L327.299 173.735Z" fill="#FF725E"/>
<path opacity="0.2" d="M324.899 191.245L324.399 191.125C322.922 190.789 318.285 189.702 312.779 188.082C303.841 185.484 292.568 181.561 288.637 177.158C281.763 169.55 275.019 137.41 275.019 137.41L283.381 133.497C283.381 133.497 294.295 165.496 297.249 166.822C300.203 168.148 327.299 173.735 327.299 173.735L324.899 191.245Z" fill="black"/>
<path d="M283.522 132.866L285.249 136.203L274.498 139.91L274.91 135.834L283.522 132.866Z" fill="#FF725E"/>
<path opacity="0.2" d="M325.105 190.799C323.606 190.582 318.904 189.854 313.278 188.625C316.482 183.082 325.865 180.234 325.865 180.234L325.105 190.799Z" fill="black"/>
<path d="M365.526 151.583C365.526 151.583 367.123 166.615 361.562 170.311C356.002 174.006 328.624 169.68 325.518 163.626C322.412 157.572 334.097 141.159 334.097 141.159L365.526 151.583Z" fill="#263238"/>
<path d="M254.765 349.382L261.911 351.11L265.527 341.241L268.807 332.263L260.672 328.795L257.545 339.686L254.765 349.382Z" fill="#E4897B"/>
<path opacity="0.2" d="M257.545 339.686L265.527 341.241L268.807 332.263L260.673 328.795L257.545 339.686Z" fill="black"/>
<path d="M258.262 334.48L268.166 338.165C268.166 338.165 294.588 272.047 300.018 271.862C305.448 271.678 360.737 297.068 374.594 282.96C388.451 268.852 368.415 234.831 368.415 234.831C368.415 234.831 335.085 230.07 332.577 237.602C331.959 239.823 331.488 242.081 331.165 244.363C330.785 246.667 330.524 248.602 330.524 248.602C329.492 248.341 296.033 239.7 282.849 248.602C269.437 257.656 258.262 334.48 258.262 334.48Z" fill="#FF725E"/>
<path opacity="0.6" d="M258.262 334.48L268.166 338.165C268.166 338.165 294.588 272.047 300.018 271.862C305.448 271.678 360.737 297.068 374.594 282.96C388.451 268.852 368.415 234.831 368.415 234.831C368.415 234.831 335.085 230.07 332.577 237.602C331.959 239.823 331.488 242.081 331.165 244.363C330.785 246.667 330.524 248.602 330.524 248.602C329.492 248.341 296.033 239.7 282.849 248.602C269.437 257.656 258.262 334.48 258.262 334.48Z" fill="white"/>
<path d="M315.233 377.588L322.347 375.762L320.978 365.545L319.708 356.175L310.911 356.969L313.192 367.881L315.233 377.588Z" fill="#E4897B"/>
<path opacity="0.2" d="M313.246 368.11L321.022 365.74L319.729 356.273L310.922 357.012L313.246 368.11Z" fill="black"/>
<path d="M272.26 334.491L257.827 329.589L257.208 335.502L268.155 339.371L272.26 334.491Z" fill="#FF725E"/>
<path d="M350.659 286.308C350.659 286.308 348.4 286.362 313.442 284.732C313.442 284.732 318.665 328.47 321.521 361.219L311.063 363.001C311.063 363.001 286.085 292.884 286.357 281.743C286.628 270.602 299.389 267.341 299.389 267.341C299.389 267.341 324.291 281.743 350.659 286.308Z" fill="#FF725E"/>
<path opacity="0.6" d="M350.659 286.308C350.659 286.308 348.4 286.362 313.442 284.732C313.442 284.732 318.665 328.47 321.521 361.219L311.063 363.001C311.063 363.001 286.085 292.884 286.357 281.743C286.628 270.602 299.389 267.341 299.389 267.341C299.389 267.341 324.291 281.743 350.659 286.308Z" fill="white"/>
<path opacity="0.1" d="M350.659 286.308C350.659 286.308 348.4 286.362 313.442 284.732C313.442 284.732 318.665 328.47 321.521 361.219L311.063 363.001C311.063 363.001 286.085 292.884 286.357 281.743C286.628 270.602 299.389 267.341 299.389 267.341C299.389 267.341 324.291 281.743 350.659 286.308Z" fill="black"/>
<path d="M323.042 358.045L308.674 359.675L311.454 365.316L323.085 363.827L323.042 358.045Z" fill="#FF725E"/>
<path opacity="0.1" d="M330.524 248.602L350.018 252.667C350.018 252.667 339.245 246.711 331.165 244.363C330.785 246.667 330.524 248.602 330.524 248.602Z" fill="black"/>
<path d="M367.611 229.635L368.415 234.831L332.577 237.592L331.632 231.461L367.611 229.635Z" fill="#263238"/>
<path opacity="0.2" d="M367.611 229.635L368.415 234.831L332.577 237.592L331.632 231.461L367.611 229.635Z" fill="black"/>
<path d="M356.308 238.322L358.08 238.14L357.152 229.111L355.38 229.294L356.308 238.322Z" fill="#FF725E"/>
<path d="M340.386 237.431L348.233 236.926L347.85 230.971L340.004 231.476L340.386 237.431Z" fill="white"/>
<path d="M334.319 239.27L336.091 239.088L335.163 230.06L333.392 230.242L334.319 239.27Z" fill="#FF725E"/>
<path d="M326.647 173.245C333.36 175.101 340.326 175.868 347.281 175.517C358.793 174.93 372.498 180.484 372.498 180.484L367.568 229.613L331.578 231.428C331.578 231.428 319.534 190.44 326.647 173.245Z" fill="#FF725E"/>
<path d="M332.436 145.496C332.436 145.496 334.456 121.649 354.373 130.279C379.351 141.148 359.499 170.213 347.281 164.257C335.064 158.3 332.436 145.496 332.436 145.496Z" fill="#263238"/>
<path opacity="0.2" d="M338.018 176.854L338.593 190.332L343.057 183.995C343.057 183.995 341.46 198.897 342.394 207.016C342.394 207.016 343.252 192.462 345.272 183.995L350.018 190.332L356.827 176.941C356.827 176.941 345.804 172.974 338.018 176.854Z" fill="black"/>
<path d="M344.186 179.398L354.492 176.485C348.139 172.137 351.343 162.354 351.343 162.354L341.134 165.941C341.604 167.362 341.967 168.815 342.22 170.289C343.306 176.658 340.417 177.169 340.417 177.169L344.186 179.398Z" fill="#E4897B"/>
<path opacity="0.2" d="M341.134 165.887C341.604 167.307 341.967 168.76 342.22 170.235C347.107 168.267 351.332 162.278 351.332 162.278L341.134 165.887Z" fill="black"/>
<path d="M347.802 135.322C338.756 133.323 334.77 137.496 332.055 146.692C328.656 158.159 329.405 167.006 341.254 167.028C357.348 167.05 362.811 138.648 347.802 135.322Z" fill="#E4897B"/>
<path d="M338.007 147.485C336.988 148.676 335.829 149.739 334.553 150.648C334.736 151.084 335.035 151.459 335.419 151.734C335.802 152.008 336.255 152.171 336.725 152.203L338.007 147.485Z" fill="#DE5753"/>
<path d="M343.708 147.964C343.524 148.703 343.773 149.409 344.273 149.529C344.773 149.649 345.305 149.149 345.489 148.442C345.674 147.736 345.424 147.007 344.925 146.877C344.425 146.746 343.893 147.225 343.708 147.964Z" fill="#263238"/>
<path d="M345.12 146.931L343.676 145.909C343.676 145.909 344.143 147.463 345.12 146.931Z" fill="#263238"/>
<path d="M334.564 145.55C334.38 146.289 334.629 146.996 335.129 147.115C335.628 147.235 336.215 146.735 336.345 146.028C336.476 145.322 336.28 144.594 335.78 144.463C335.281 144.333 334.749 144.811 334.564 145.55Z" fill="#263238"/>
<path d="M335.976 144.518L334.488 143.529C334.488 143.529 334.998 145.04 335.976 144.518Z" fill="#263238"/>
<path d="M345.174 141.746C345.904 141.81 346.61 142.038 347.238 142.415C347.866 142.792 348.401 143.306 348.802 143.92" stroke="#263238" stroke-width="0.72" stroke-linecap="round" stroke-linejoin="round"/>
<path d="M338.691 139.909C338.103 139.626 337.459 139.479 336.807 139.479C336.154 139.479 335.51 139.626 334.922 139.909" stroke="#263238" stroke-width="0.72" stroke-linecap="round" stroke-linejoin="round"/>
<path d="M354.308 152.757C354.308 152.757 351.723 144.388 353.634 138.79C353.634 138.79 337.344 127.497 332.436 145.496C332.436 145.496 334.249 128.953 349.877 132.04C365.504 135.127 360.389 157.855 350.865 162.855C350.865 162.855 355.893 157.985 354.308 152.757Z" fill="#263238"/>
<path d="M352.407 154.398C352.725 153.37 353.437 152.51 354.388 152.006C355.339 151.503 356.45 151.398 357.478 151.714C360.215 152.637 360.269 158.692 353.004 158.529C351.951 158.452 351.603 157.355 352.407 154.398Z" fill="#E4897B"/>
<path d="M335.085 155.637C335.327 156.747 335.487 157.873 335.563 159.007H336.15C338.854 159.235 340.179 158.442 340.83 157.507C341.142 157.042 341.336 156.509 341.395 155.952C341.441 155.639 341.441 155.32 341.395 155.007C339.652 155.608 337.8 155.826 335.965 155.648C335.444 155.681 335.085 155.637 335.085 155.637Z" fill="#263238"/>
<path d="M336.008 155.702L336.171 156.691C338.712 156.898 340.515 156.691 341.395 156.007C341.441 155.693 341.441 155.375 341.395 155.061C339.665 155.656 337.829 155.874 336.008 155.702V155.702Z" fill="white"/>
<path d="M336.149 159.061C338.854 159.289 340.178 158.496 340.83 157.561C339.805 157.494 338.775 157.608 337.789 157.898C337.134 158.103 336.56 158.51 336.149 159.061Z" fill="#DE5753"/>
<path d="M347.835 136.051C347.835 136.051 348.182 151.735 357.609 153.626C367.035 155.518 356.74 133.453 356.74 133.453C356.74 133.453 342.731 124.301 333.391 130.757C324.052 137.214 332.457 145.496 332.457 145.496C332.457 145.496 334.401 133.844 347.835 136.051Z" fill="#263238"/>
<path d="M348.161 135.007C348.161 135.007 344.805 144.931 351.419 150.137" stroke="#263238" stroke-width="0.5" stroke-linecap="round" stroke-linejoin="round"/>
<path d="M360.335 156.844C359.14 160.039 356.067 161.833 353.471 160.865C350.876 159.898 349.746 156.518 350.941 153.322C352.136 150.127 355.209 148.333 357.805 149.311C360.4 150.29 361.53 153.659 360.335 156.844Z" fill="#FF725E"/>
<path opacity="0.4" d="M360.335 156.844C359.14 160.039 356.067 161.833 353.471 160.865C350.876 159.898 349.746 156.518 350.941 153.322C352.136 150.127 355.209 148.333 357.805 149.311C360.4 150.29 361.53 153.659 360.335 156.844Z" fill="black"/>
<path d="M357.294 151.616C357.294 151.616 361.192 134.149 352.45 129.573C353.446 129.703 354.432 129.896 355.404 130.149C356.49 130.475 363.517 137.562 359.987 153.257L357.294 151.616Z" fill="#FF725E"/>
<path opacity="0.2" d="M357.294 151.616C357.294 151.616 361.192 134.149 352.45 129.573C353.446 129.703 354.432 129.896 355.404 130.149C356.49 130.475 363.517 137.562 359.987 153.257L357.294 151.616Z" fill="black"/>
<path d="M341.004 161.615L340.353 161.518L340.526 160.431C345.323 161.169 350.223 160.129 354.308 157.507L354.948 158.376C350.841 161.1 345.89 162.25 341.004 161.615V161.615Z" fill="#FF725E"/>
<g opacity="0.2">
<path d="M341.004 161.615L340.353 161.518L340.526 160.431C345.323 161.169 350.223 160.129 354.308 157.507L354.948 158.376C350.841 161.1 345.89 162.25 341.004 161.615V161.615Z" fill="black"/>
</g>
<path d="M359.966 156.409C359.184 158.518 357.142 159.67 355.437 159.061C353.732 158.452 352.972 156.192 353.765 154.083C354.557 151.974 356.588 150.822 358.293 151.431C359.998 152.039 360.759 154.3 359.966 156.409Z" fill="#FF725E"/>
<path d="M339.983 162.007L339.103 161.887C338.95 161.867 338.802 161.817 338.667 161.739C338.533 161.662 338.416 161.558 338.322 161.435C338.228 161.311 338.16 161.171 338.12 161.021C338.081 160.871 338.072 160.715 338.093 160.561C338.112 160.406 338.161 160.257 338.238 160.122C338.315 159.986 338.418 159.867 338.542 159.772C338.665 159.677 338.806 159.608 338.957 159.568C339.107 159.528 339.264 159.518 339.418 159.539L340.287 159.659C340.597 159.702 340.877 159.865 341.068 160.113C341.259 160.361 341.345 160.674 341.308 160.985V160.985C341.265 161.295 341.102 161.576 340.854 161.767C340.606 161.958 340.293 162.044 339.983 162.007V162.007Z" fill="#FF725E"/>
<path opacity="0.4" d="M339.983 162.007L339.103 161.887C338.95 161.867 338.802 161.817 338.667 161.739C338.533 161.662 338.416 161.558 338.322 161.435C338.228 161.311 338.16 161.171 338.12 161.021C338.081 160.871 338.072 160.715 338.093 160.561C338.112 160.406 338.161 160.257 338.238 160.122C338.315 159.986 338.418 159.867 338.542 159.772C338.665 159.677 338.806 159.608 338.957 159.568C339.107 159.528 339.264 159.518 339.418 159.539L340.287 159.659C340.597 159.702 340.877 159.865 341.068 160.113C341.259 160.361 341.345 160.674 341.308 160.985V160.985C341.265 161.295 341.102 161.576 340.854 161.767C340.606 161.958 340.293 162.044 339.983 162.007V162.007Z" fill="black"/>
<path d="M351.723 172.713L345.272 179.05L347.857 186.821L356.827 176.93L351.723 172.713Z" fill="#FF725E"/>
<path d="M342.394 174.039L343.437 178.919L340.103 185.821L338.018 176.854L342.394 174.039Z" fill="#FF725E"/>
<path d="M350.344 178.213L354.09 164.485C354.09 164.485 352.277 161.072 352.668 160.354C353.059 159.637 355.014 150.42 356.404 149.42C357.794 148.42 363.517 150.126 364.093 151.061C364.668 151.996 358.608 164.485 358.608 164.485L356.436 179.365L350.344 178.213Z" fill="#E4897B"/>
<path d="M372.498 180.484C382.815 191.049 362.148 214.983 350.3 213.962C338.452 212.94 350.604 169.55 350.604 169.55L358.206 170.8C358.206 170.8 355.545 189.582 356.382 191.049C357.218 192.517 369.077 176.974 372.498 180.484Z" fill="#FF725E"/>
<path opacity="0.2" d="M372.498 180.484C382.815 191.049 362.148 214.983 350.3 213.962C338.452 212.94 350.604 169.55 350.604 169.55L358.206 170.8C358.206 170.8 355.545 189.582 356.382 191.049C357.218 192.517 369.077 176.974 372.498 180.484Z" fill="black"/>
<path d="M350.018 168.191L348.899 171.778L359.466 172.713V169.582L350.018 168.191Z" fill="#FF725E"/>
<path opacity="0.6" d="M333.999 196.571H329.72C329.246 196.571 328.862 196.955 328.862 197.429V205.516C328.862 205.99 329.246 206.375 329.72 206.375H333.999C334.473 206.375 334.857 205.99 334.857 205.516V197.429C334.857 196.955 334.473 196.571 333.999 196.571Z" fill="white"/>
<path opacity="0.2" d="M334.086 197.212H329.221V203.875H334.086V197.212Z" fill="black"/>
<path d="M332.305 194.201H331.23V198.125H332.305V194.201Z" fill="#263238"/>
<path d="M242.949 363.273C244.032 362.769 245.2 362.47 246.392 362.393V362.393C246.392 362.393 250.519 359.969 254.602 350.523H259.196C259.975 350.529 260.733 350.775 261.367 351.229C262 351.682 262.479 352.32 262.736 353.056C262.813 353.258 262.857 353.471 262.867 353.686C262.812 354.798 262.692 355.904 262.508 357.002C261.836 360.676 260.94 364.306 259.826 367.871L259.044 367.675L260.456 360.806C260.933 358.48 258.479 360.73 257.35 363.077C256.22 365.425 254.472 367.806 249.389 366.643C243.471 365.186 241.092 364.338 242.949 363.273Z" fill="#FF725E"/>
<path d="M255.438 348.056C255.438 348.056 249.693 360.078 246.392 362.393C246.392 362.393 250.822 365.034 255.438 359.132C261.4 351.523 262.866 353.643 262.866 353.643C262.741 352.33 262.498 351.031 262.139 349.763C261.248 347.328 255.438 348.056 255.438 348.056Z" fill="#E4897B"/>
<path d="M306.176 391.914C307.114 391.173 308.177 390.606 309.314 390.24V390.24C309.314 390.24 312.746 386.903 314.473 376.762L318.936 375.675C319.694 375.5 320.487 375.563 321.208 375.855C321.928 376.146 322.542 376.653 322.965 377.305C323.088 377.486 323.183 377.684 323.248 377.892C323.465 378.969 323.614 380.058 323.693 381.153C323.902 384.868 323.884 388.592 323.639 392.305H322.835L322.585 385.305C322.488 382.925 320.652 385.696 320.098 388.251C319.545 390.805 318.426 393.511 313.213 393.587C307.142 393.653 304.623 393.392 306.176 391.914Z" fill="#FF725E"/>
<path d="M314.701 374.164C314.701 374.164 311.975 387.207 309.271 390.24C309.271 390.24 314.201 391.761 317.286 384.946C321.282 376.142 323.204 377.859 323.204 377.859C322.775 376.614 322.233 375.409 321.586 374.262C320.174 372.088 314.701 374.164 314.701 374.164Z" fill="#E4897B"/>
<path d="M415.678 111.073H377.765C374.724 111.073 372.259 113.54 372.259 116.584V132.812C372.259 135.855 374.724 138.323 377.765 138.323H415.678C418.718 138.323 421.184 135.855 421.184 132.812V116.584C421.184 113.54 418.718 111.073 415.678 111.073Z" fill="#FF725E"/>
<path d="M385.367 135.225L373.942 150.768L392.372 136.268L385.367 135.225Z" fill="#FF725E"/>
<path d="M385.791 124.703C385.793 125.022 385.7 125.335 385.524 125.601C385.349 125.867 385.098 126.075 384.804 126.198C384.509 126.321 384.185 126.354 383.873 126.292C383.56 126.231 383.272 126.077 383.047 125.852C382.821 125.626 382.668 125.338 382.607 125.025C382.545 124.712 382.578 124.388 382.701 124.094C382.824 123.799 383.031 123.548 383.297 123.372C383.563 123.196 383.875 123.103 384.194 123.106C384.618 123.106 385.024 123.274 385.323 123.573C385.623 123.873 385.791 124.28 385.791 124.703V124.703Z" fill="white"/>
<path d="M394.142 124.703C394.144 125.022 394.051 125.335 393.875 125.601C393.7 125.867 393.449 126.075 393.155 126.198C392.86 126.321 392.536 126.354 392.224 126.292C391.911 126.231 391.623 126.077 391.398 125.852C391.173 125.626 391.019 125.338 390.958 125.025C390.896 124.712 390.929 124.388 391.052 124.094C391.175 123.799 391.382 123.548 391.648 123.372C391.914 123.196 392.227 123.103 392.545 123.106C392.969 123.106 393.375 123.274 393.674 123.573C393.974 123.873 394.142 124.28 394.142 124.703V124.703Z" fill="white"/>
<path d="M402.493 124.703C402.495 125.022 402.403 125.335 402.227 125.601C402.051 125.867 401.8 126.075 401.506 126.198C401.212 126.321 400.888 126.354 400.575 126.292C400.262 126.231 399.975 126.077 399.75 125.852C399.524 125.626 399.371 125.338 399.309 125.025C399.247 124.712 399.28 124.388 399.403 124.094C399.526 123.799 399.734 123.548 400 123.372C400.266 123.196 400.578 123.103 400.897 123.106C401.32 123.106 401.726 123.274 402.026 123.573C402.325 123.873 402.493 124.28 402.493 124.703V124.703Z" fill="white"/>
<path d="M410.845 124.703C410.847 125.022 410.754 125.335 410.579 125.601C410.403 125.867 410.152 126.075 409.858 126.198C409.564 126.321 409.24 126.354 408.927 126.292C408.614 126.231 408.327 126.077 408.101 125.852C407.876 125.626 407.722 125.338 407.661 125.025C407.599 124.712 407.632 124.388 407.755 124.094C407.878 123.799 408.085 123.548 408.351 123.372C408.617 123.196 408.93 123.103 409.248 123.106C409.672 123.106 410.078 123.274 410.377 123.573C410.677 123.873 410.845 124.28 410.845 124.703V124.703Z" fill="white"/>
<path d="M273.317 98.2343L246.269 83.6518C245.54 83.2589 244.631 83.5317 244.239 84.261L235.607 100.299C235.215 101.028 235.487 101.938 236.216 102.331L263.264 116.913C263.993 117.306 264.902 117.034 265.294 116.304L273.926 100.266C274.319 99.5369 274.046 98.6272 273.317 98.2343Z" fill="#FF725E"/>
<path opacity="0.7" d="M273.317 98.2343L246.269 83.6518C245.54 83.2589 244.631 83.5317 244.239 84.261L235.607 100.299C235.215 101.028 235.487 101.938 236.216 102.331L263.264 116.913C263.993 117.306 264.902 117.034 265.294 116.304L273.926 100.266C274.319 99.5369 274.046 98.6272 273.317 98.2343Z" fill="white"/>
<path opacity="0.2" d="M243.536 85.5845L251.952 101.399C252.275 102.002 252.77 102.495 253.373 102.816C253.976 103.137 254.661 103.272 255.34 103.204L272.945 101.464L255.026 104.106C254.242 104.222 253.443 104.081 252.746 103.705C252.049 103.329 251.493 102.737 251.159 102.019L243.536 85.5845Z" fill="black"/>
<path d="M222.999 82.661C223.293 76.6177 227.767 64.4332 233.208 60.7051C238.649 56.9769 235.065 62.1398 235.065 62.1398C235.065 62.1398 240.223 57.1182 242.938 57.2704C245.653 57.4225 242.938 60.5311 242.938 60.5311C242.938 60.5311 248.531 57.0856 251.105 57.2704C253.679 57.4551 251.105 60.4333 251.105 60.4333C251.105 60.4333 255.688 57.1725 257.545 58.7051C259.402 60.2377 233.772 77.1829 230.916 84.074C228.06 90.9651 222.706 88.7586 222.999 82.661Z" fill="#FF725E"/>
<path opacity="0.4" d="M222.999 82.661C223.293 76.6177 227.767 64.4332 233.208 60.7051C238.649 56.9769 235.065 62.1398 235.065 62.1398C235.065 62.1398 240.223 57.1182 242.938 57.2704C245.653 57.4225 242.938 60.5311 242.938 60.5311C242.938 60.5311 248.531 57.0856 251.105 57.2704C253.679 57.4551 251.105 60.4333 251.105 60.4333C251.105 60.4333 255.688 57.1725 257.545 58.7051C259.402 60.2377 233.772 77.1829 230.916 84.074C228.06 90.9651 222.706 88.7586 222.999 82.661Z" fill="white"/>
<path d="M245.023 81.748L248.444 83.9219C248.498 83.9554 248.539 84.0062 248.561 84.066C248.583 84.1258 248.584 84.1912 248.563 84.2515C248.543 84.3118 248.504 84.3636 248.45 84.3985C248.397 84.4334 248.334 84.4493 248.271 84.4436L244.676 84.161L244.98 86.9218C244.989 86.9869 244.976 87.0531 244.944 87.1106C244.913 87.168 244.863 87.2136 244.803 87.2405C244.743 87.2674 244.676 87.2742 244.612 87.2598C244.548 87.2455 244.491 87.2108 244.448 87.1609L242.374 84.8349L245.023 81.748Z" fill="#FF725E"/>
<path opacity="0.3" d="M245.023 81.748L248.444 83.9219C248.498 83.9554 248.539 84.0062 248.561 84.066C248.583 84.1258 248.584 84.1912 248.563 84.2515C248.543 84.3118 248.504 84.3636 248.45 84.3985C248.397 84.4334 248.334 84.4493 248.271 84.4436L244.676 84.161L244.98 86.9218C244.989 86.9869 244.976 87.0531 244.944 87.1106C244.913 87.168 244.863 87.2136 244.803 87.2405C244.743 87.2674 244.676 87.2742 244.612 87.2598C244.548 87.2455 244.491 87.2108 244.448 87.1609L242.374 84.8349L245.023 81.748Z" fill="white"/>
<path d="M196.968 68.1394C196.968 68.1394 201.703 64.8786 208.859 66.9872C208.859 66.9872 210.912 76.4544 216.548 79.6064C219.643 81.3347 227.213 81.1825 233.208 79.2478C240.321 76.9435 243.796 76.9435 245.088 79.6064C246.381 82.2694 244.947 85.0411 239.506 86.3345C234.066 87.628 229.732 97.0842 219.882 97.2038C210.032 97.3234 204.798 87.4214 207.285 78.726C204.93 74.2808 201.349 70.6062 196.968 68.1394Z" fill="#FF725E"/>
<path opacity="0.5" d="M196.968 68.1394C196.968 68.1394 201.703 64.8786 208.859 66.9872C208.859 66.9872 210.912 76.4544 216.548 79.6064C219.643 81.3347 227.213 81.1825 233.208 79.2478C240.321 76.9435 243.796 76.9435 245.088 79.6064C246.381 82.2694 244.947 85.0411 239.506 86.3345C234.066 87.628 229.732 97.0842 219.882 97.2038C210.032 97.3234 204.798 87.4214 207.285 78.726C204.93 74.2808 201.349 70.6062 196.968 68.1394Z" fill="white"/>
<path d="M242.373 81.3998C242.373 81.4965 242.345 81.5911 242.291 81.6715C242.237 81.7519 242.161 81.8146 242.072 81.8517C241.982 81.8887 241.884 81.8984 241.789 81.8795C241.695 81.8606 241.607 81.814 241.539 81.7456C241.471 81.6772 241.424 81.5901 241.405 81.4952C241.387 81.4003 241.396 81.302 241.433 81.2126C241.47 81.1232 241.533 81.0468 241.613 80.9931C241.694 80.9393 241.788 80.9106 241.885 80.9106C242.014 80.9106 242.139 80.9622 242.23 81.0539C242.322 81.1456 242.373 81.27 242.373 81.3998V81.3998Z" fill="#382929"/>
<path d="M217.591 89.3565C211.759 90.9434 198.792 90.4434 193.579 86.4218C188.367 82.4002 194.361 84.2479 194.361 84.2479C194.361 84.2479 188.008 80.8893 187.302 78.259C186.596 75.6286 190.43 77.2372 190.43 77.2372C190.43 77.2372 185.434 72.9874 184.783 70.4874C184.131 67.9875 187.78 69.5092 187.78 69.5092C187.78 69.5092 183.23 66.1615 184.153 63.9115C185.076 61.6616 209.066 80.835 216.483 81.4328C223.9 82.0306 223.499 87.7478 217.591 89.3565Z" fill="#FF725E"/>
<path opacity="0.4" d="M217.591 89.3565C211.759 90.9434 198.792 90.4434 193.579 86.4218C188.367 82.4002 194.361 84.2479 194.361 84.2479C194.361 84.2479 188.008 80.8893 187.302 78.259C186.596 75.6286 190.43 77.2372 190.43 77.2372C190.43 77.2372 185.434 72.9874 184.783 70.4874C184.131 67.9875 187.78 69.5092 187.78 69.5092C187.78 69.5092 183.23 66.1615 184.153 63.9115C185.076 61.6616 209.066 80.835 216.483 81.4328C223.9 82.0306 223.499 87.7478 217.591 89.3565Z" fill="white"/>
<path d="M179.364 62.509C178.343 62.1395 177.311 61.8025 176.269 61.4873" stroke="#FF725E" stroke-width="0.75" stroke-linecap="round" stroke-linejoin="round"/>
<path d="M169.926 59.8352C166.125 59.0487 162.276 58.5185 158.404 58.2483C147.848 57.5201 131.254 56.4658 124.825 66.9981C118.928 76.5957 129.071 92.9757 132.666 101.878C137.075 112.747 142.32 126.29 137.108 137.833C126.41 161.572 80.6355 149.246 65.1274 127.388" stroke="#FF725E" stroke-width="0.75" stroke-linecap="round" stroke-linejoin="round" stroke-dasharray="6.03 6.03"/>
<path d="M63.3788 124.66C62.8342 123.731 62.3411 122.773 61.9019 121.79" stroke="#FF725E" stroke-width="0.75" stroke-linecap="round" stroke-linejoin="round"/>
<path d="M195.274 210.962H154.049V219.418H195.274V210.962Z" fill="white"/>
<path opacity="0.1" d="M195.274 210.962H154.049V219.418H195.274V210.962Z" fill="black"/>
<path opacity="0.1" d="M171.414 210.962H154.049V219.418H171.414V210.962Z" fill="black"/>
<path opacity="0.1" d="M154.049 212.179H190.745L154.049 213.223V212.179Z" fill="black"/>
<path opacity="0.1" d="M195.274 213.646L163.465 214.44H195.274V213.646Z" fill="black"/>
<path opacity="0.1" d="M155.732 216.016L171.414 215.375L194.47 216.016L171.414 216.374L155.732 216.016Z" fill="black"/>
<path opacity="0.1" d="M154.049 217.81H181.221L154.049 218.451V217.81Z" fill="black"/>
<path opacity="0.1" d="M195.209 218.451L177.062 218.788H195.274L195.209 218.451Z" fill="black"/>
<path d="M189.539 202.495H148.315V210.951H189.539V202.495Z" fill="white"/>
<path opacity="0.1" d="M189.539 202.495H148.315V210.951H189.539V202.495Z" fill="black"/>
<path opacity="0.1" d="M165.68 202.495H148.315V210.951H165.68V202.495Z" fill="black"/>
<path opacity="0.1" d="M148.315 203.723H185.011L148.315 204.755V203.723Z" fill="black"/>
<path opacity="0.1" d="M189.539 205.19L157.73 205.973H189.539V205.19Z" fill="black"/>
<path opacity="0.1" d="M149.987 207.549L165.669 206.908L188.725 207.549L165.669 207.908L149.987 207.549Z" fill="black"/>
<path opacity="0.1" d="M148.315 209.342H175.487L148.315 209.984V209.342Z" fill="black"/>
<path opacity="0.1" d="M189.474 209.983L171.327 210.32H189.539L189.474 209.983Z" fill="black"/>
<path d="M194.242 194.038H153.018V202.494H194.242V194.038Z" fill="white"/>
<path opacity="0.1" d="M194.242 194.038H153.018V202.494H194.242V194.038Z" fill="black"/>
<path opacity="0.1" d="M170.383 194.038H153.018V202.494H170.383V194.038Z" fill="black"/>
<path opacity="0.1" d="M153.018 195.256H189.714L153.018 196.299V195.256Z" fill="black"/>
<path opacity="0.1" d="M194.242 196.723L162.433 197.517H194.242V196.723Z" fill="black"/>
<path opacity="0.1" d="M154.701 199.093L170.383 198.44L193.438 199.093L170.383 199.451L154.701 199.093Z" fill="black"/>
<path opacity="0.1" d="M153.018 200.886H180.189L153.018 201.527V200.886Z" fill="black"/>
<path opacity="0.1" d="M194.188 201.527L176.041 201.864H194.242L194.188 201.527Z" fill="black"/>
<path d="M221.707 219.244L222.771 215.19H266.819L287.095 217.223L287.866 219.244H221.707Z" fill="#263238"/>
<path opacity="0.4" d="M266.819 215.19V219.244H221.707L222.771 215.19H266.819Z" fill="black"/>
<path d="M257.968 195.788C258.027 196.28 257.98 196.778 257.831 197.25C257.681 197.722 257.433 198.156 257.101 198.524C256.77 198.892 256.364 199.184 255.91 199.381C255.457 199.579 254.966 199.677 254.471 199.669H187.009C185.954 199.646 184.944 199.239 184.166 198.525C183.389 197.811 182.898 196.838 182.785 195.788L178.777 152.561C178.734 152.139 178.763 151.713 178.864 151.3C179.051 150.541 179.491 149.868 180.11 149.392C180.73 148.916 181.493 148.665 182.274 148.681H249.78C250.835 148.704 251.845 149.11 252.623 149.824C253.4 150.538 253.891 151.511 254.004 152.561L257.968 195.788Z" fill="#263238"/>
<path opacity="0.4" d="M254.233 199.669H187.009C185.954 199.646 184.944 199.239 184.166 198.525C183.389 197.811 182.898 196.838 182.785 195.788L178.777 152.561C178.734 152.139 178.763 151.712 178.864 151.3H246.088C247.142 151.323 248.153 151.73 248.93 152.444C249.708 153.158 250.199 154.131 250.312 155.181L254.319 198.408C254.363 198.83 254.333 199.256 254.233 199.669V199.669Z" fill="black"/>
<path d="M207.882 173.147H221.837L218.123 213.146L240.191 216.462V219.244H193.71V216.462L203.234 213.146L207.882 173.147Z" fill="#263238"/>
<path opacity="0.1" d="M221.837 173.147L211.498 218.614L203.234 218.364L207.882 173.147H221.837Z" fill="white"/>
<path d="M221.772 393.598H215.126L203.169 227.026H211.998L221.772 393.598Z" fill="#263238"/>
<path opacity="0.4" d="M221.783 393.598H215.126L203.755 235.298L203.169 227.298H211.998L212.476 235.298L221.783 393.598Z" fill="white"/>
<path opacity="0.2" d="M212.476 234.907H203.755L203.169 227.298H211.998L212.476 234.907Z" fill="black"/>
<path d="M270.599 393.598H263.952L262.866 227.026H271.685L270.599 393.598Z" fill="#263238"/>
<path opacity="0.5" d="M271.695 227.298L271.522 254.167L270.609 393.598H263.952L263.04 254.167L262.866 227.298H271.695Z" fill="white"/>
<path opacity="0.2" d="M271.695 227.298L271.522 254.472H263.04L262.866 227.298H271.695Z" fill="black"/>
<path d="M341.232 393.598H334.586L322.629 227.026H331.458L341.232 393.598Z" fill="#263238"/>
<path opacity="0.5" d="M341.243 393.598H334.586L323.215 235.298L322.629 227.298H331.458L331.936 235.298L341.243 393.598Z" fill="white"/>
<path opacity="0.2" d="M331.936 234.907H323.215L322.629 227.298H331.458L331.936 234.907Z" fill="black"/>
<path d="M145.665 393.598H139.019L148.793 227.026H157.622L145.665 393.598Z" fill="#263238"/>
<path opacity="0.5" d="M157.622 227.298L157.036 235.298L145.665 393.598H139.019L148.315 235.298L148.793 227.298H157.622Z" fill="white"/>
<path opacity="0.2" d="M148.793 227.298H157.622L157.036 234.907H148.315L148.793 227.298Z" fill="black"/>
<path d="M141.799 222.82H338.452V228.809C338.452 229.118 338.391 229.423 338.273 229.708C338.155 229.993 337.982 230.251 337.765 230.469C337.547 230.687 337.288 230.86 337.004 230.978C336.719 231.096 336.414 231.157 336.106 231.157H144.145C143.522 231.157 142.926 230.91 142.486 230.469C142.046 230.029 141.799 229.432 141.799 228.809V222.82Z" fill="#FF725E"/>
<path opacity="0.6" d="M141.799 222.82H338.452V228.809C338.452 229.118 338.391 229.423 338.273 229.708C338.155 229.993 337.982 230.251 337.765 230.469C337.547 230.687 337.288 230.86 337.004 230.978C336.719 231.096 336.414 231.157 336.106 231.157H144.145C143.522 231.157 142.926 230.91 142.486 230.469C142.046 230.029 141.799 229.432 141.799 228.809V222.82Z" fill="white"/>
<path opacity="0.2" d="M338.452 222.853H141.799V227.026H338.452V222.853Z" fill="black"/>
<path d="M342.579 223.961H137.672C137.05 223.961 136.454 223.714 136.014 223.274C135.574 222.833 135.327 222.236 135.327 221.613C135.327 220.99 135.573 220.392 136.013 219.95C136.453 219.508 137.049 219.258 137.672 219.255H342.579C343.202 219.258 343.799 219.508 344.238 219.95C344.678 220.392 344.925 220.99 344.925 221.613C344.925 222.236 344.678 222.833 344.238 223.274C343.798 223.714 343.201 223.961 342.579 223.961V223.961Z" fill="#FF725E"/>
<path opacity="0.6" d="M342.579 223.961H137.672C137.05 223.961 136.454 223.714 136.014 223.274C135.574 222.833 135.327 222.236 135.327 221.613C135.327 220.99 135.573 220.392 136.013 219.95C136.453 219.508 137.049 219.258 137.672 219.255H342.579C343.202 219.258 343.799 219.508 344.238 219.95C344.678 220.392 344.925 220.99 344.925 221.613C344.925 222.236 344.678 222.833 344.238 223.274C343.798 223.714 343.201 223.961 342.579 223.961V223.961Z" fill="white"/>
<path d="M294.1 212.005L296.619 208.223C296.867 207.851 297.204 207.547 297.598 207.336C297.992 207.126 298.431 207.016 298.878 207.016H302.071C302.336 207.017 302.599 207.057 302.853 207.136L314.245 210.592C314.892 210.785 315.443 211.216 315.787 211.799L317.427 214.549L294.1 212.005Z" fill="#FF725E"/>
<path opacity="0.2" d="M317.427 214.549L300.822 212.744L294.078 212.005L296.598 208.223C296.846 207.851 297.182 207.547 297.576 207.336C297.97 207.126 298.41 207.016 298.857 207.016H302.049C302.318 207.018 302.585 207.058 302.842 207.136L303.092 207.212L314.223 210.592C314.874 210.784 315.429 211.215 315.776 211.799L317.427 214.549Z" fill="black"/>
<path opacity="0.2" d="M317.427 214.549L300.822 212.744L303.092 207.212L314.223 210.592C314.874 210.784 315.429 211.215 315.776 211.799L317.427 214.549Z" fill="black"/>
<path d="M325.311 218.886V219.244H290.103L291.406 214.147C291.648 213.21 292.194 212.381 292.959 211.791C293.725 211.2 294.665 210.882 295.631 210.886H311.247C311.767 210.883 312.282 210.975 312.768 211.158L314.723 211.886L322.477 214.777C323.314 215.087 324.035 215.648 324.542 216.383C325.049 217.119 325.318 217.992 325.311 218.886Z" fill="#FF725E"/>
<path opacity="0.2" d="M325.311 218.885V219.244H310.856L311.628 213.733C311.677 213.392 311.803 213.066 311.994 212.779C312.186 212.492 312.44 212.251 312.737 212.075C313.034 211.899 313.366 211.792 313.709 211.761C314.053 211.73 314.399 211.776 314.723 211.897L322.477 214.788C323.312 215.098 324.032 215.657 324.539 216.39C325.046 217.123 325.315 217.994 325.311 218.885Z" fill="black"/>
<path d="M313.104 215.505L317.709 201.69C317.754 201.549 317.829 201.42 317.929 201.311C318.03 201.203 318.152 201.118 318.289 201.062C318.426 201.006 318.573 200.98 318.72 200.988C318.868 200.995 319.012 201.034 319.143 201.103V201.103C319.343 201.218 319.501 201.394 319.595 201.605C319.689 201.816 319.713 202.051 319.664 202.277L315.787 217.016C315.787 217.016 313.213 218.059 313.104 215.505Z" fill="#382627"/>
<path opacity="0.2" d="M294.1 218.103H292.058L292.449 216.092H294.491L294.1 218.103Z" fill="black"/>
<path opacity="0.2" d="M297.14 218.016H295.099L295.49 216.016H297.531L297.14 218.016Z" fill="black"/>
</g>
<defs>
<clipPath id="clip0_401_2257">
<rect width="543" height="405" fill="white"/>
</clipPath>
</defs>
</svg>
