<svg width="678" height="452" viewBox="0 0 678 452" fill="none" xmlns="http://www.w3.org/2000/svg">
<path d="M547.799 404.239C529.376 411.331 475.206 396.409 456.543 395.288L119.488 405.528C40.5918 383.807 -24.9956 261.084 76.6524 206.422C127.88 178.886 34.4062 84.1285 140.47 48.4137C215.543 23.1401 254.914 88.5129 397.841 41.0755C531.961 -3.44651 576.121 72.7155 547.79 148.651C516.204 233.293 568.031 217.037 589.874 249.947C622.142 298.546 623.238 375.203 547.799 404.239Z" fill="#F7F7F7"/>
<path d="M328.751 421.98C461.906 421.98 569.85 414.037 569.85 404.239C569.85 394.441 461.906 386.498 328.751 386.498C195.596 386.498 87.6519 394.441 87.6519 404.239C87.6519 414.037 195.596 421.98 328.751 421.98Z" fill="#FF725E"/>
<path d="M246.152 311.833C246.152 311.833 248.543 215.755 84.4923 239.131C84.4923 239.131 169.69 387.018 246.152 311.833Z" fill="#F99159"/>
<path d="M84.1963 238.99L244.362 299.848C238.712 274.927 211.832 220.802 84.1963 238.99Z" fill="#FF9A6C"/>
<path d="M237.729 297.525C237.775 297.498 237.813 297.459 237.837 297.412C237.862 297.366 237.873 297.313 237.869 297.26C237.866 297.207 237.847 297.157 237.816 297.114C237.785 297.071 237.742 297.038 237.693 297.018L84.289 238.728C84.2214 238.709 84.1489 238.715 84.0858 238.747C84.0228 238.778 83.9738 238.832 83.9488 238.898C83.9237 238.963 83.9243 239.036 83.9505 239.102C83.9767 239.167 84.0266 239.22 84.0901 239.25L237.494 297.54C237.532 297.555 237.573 297.561 237.614 297.558C237.654 297.555 237.694 297.544 237.729 297.525Z" fill="#3A1F00"/>
<path d="M164.408 269.663C164.463 269.626 164.503 269.571 164.521 269.508C164.539 269.444 164.535 269.376 164.508 269.316C164.481 269.256 164.433 269.207 164.374 269.178C164.314 269.15 164.246 269.143 164.182 269.159L121.712 285.723C121.644 285.749 121.589 285.802 121.559 285.87C121.529 285.937 121.528 286.013 121.554 286.082C121.581 286.151 121.634 286.207 121.702 286.237C121.77 286.267 121.847 286.269 121.916 286.243L164.386 269.679L164.408 269.663Z" fill="#3A1F00"/>
<path d="M197.269 282.15L197.314 282.118C197.342 282.094 197.365 282.065 197.382 282.033C197.398 282 197.409 281.965 197.412 281.928C197.415 281.892 197.41 281.855 197.399 281.82C197.388 281.785 197.369 281.753 197.346 281.725L168.318 247.667C168.269 247.611 168.2 247.577 168.126 247.572C168.052 247.566 167.979 247.59 167.923 247.637C167.867 247.685 167.832 247.754 167.826 247.827C167.82 247.901 167.843 247.974 167.891 248.031L196.921 282.086C196.962 282.136 197.02 282.169 197.083 282.181C197.147 282.192 197.212 282.181 197.269 282.15V282.15Z" fill="#3A1F00"/>
<path d="M275.37 329.036C275.37 329.036 234.764 230.699 79.1475 327.831C79.1475 327.831 231.634 439.396 275.37 329.036Z" fill="#F99159"/>
<path d="M78.7723 327.824L268.178 317.708C251.31 295.007 199.859 252.25 78.7723 327.824Z" fill="#FF9A6C"/>
<path d="M260.436 318.321C260.471 318.274 260.492 318.218 260.497 318.159C260.501 318.1 260.489 318.041 260.461 317.989C260.433 317.937 260.391 317.894 260.34 317.866C260.288 317.837 260.23 317.823 260.171 317.826L78.7722 327.515C78.6901 327.519 78.613 327.556 78.5579 327.617C78.5028 327.678 78.4742 327.758 78.4784 327.84C78.4826 327.922 78.5193 327.999 78.5803 328.054C78.6413 328.11 78.7218 328.138 78.8039 328.134L260.205 318.434C260.249 318.433 260.293 318.422 260.333 318.403C260.372 318.383 260.407 318.355 260.436 318.321V318.321Z" fill="#3A1F00"/>
<path d="M173.728 322.954C173.774 322.895 173.796 322.821 173.791 322.747C173.786 322.672 173.754 322.602 173.701 322.55C173.643 322.492 173.564 322.459 173.482 322.459C173.4 322.459 173.321 322.492 173.263 322.55L137.684 358.337C137.631 358.396 137.602 358.473 137.604 358.552C137.607 358.632 137.639 358.707 137.696 358.763C137.752 358.819 137.827 358.851 137.907 358.853C137.986 358.855 138.063 358.826 138.122 358.773L173.692 322.983C173.706 322.976 173.718 322.966 173.728 322.954V322.954Z" fill="#3A1F00"/>
<path d="M212.587 320.877C212.6 320.861 212.612 320.844 212.621 320.825C212.639 320.788 212.649 320.749 212.651 320.708C212.653 320.667 212.648 320.627 212.634 320.588C212.621 320.55 212.6 320.514 212.573 320.484C212.546 320.454 212.513 320.429 212.476 320.411L167.834 298.941C167.761 298.906 167.676 298.901 167.599 298.929C167.522 298.956 167.459 299.012 167.423 299.086C167.388 299.16 167.383 299.245 167.41 299.322C167.437 299.399 167.494 299.462 167.568 299.497L212.207 320.967C212.271 320.998 212.344 321.006 212.413 320.99C212.482 320.973 212.544 320.933 212.587 320.877V320.877Z" fill="#3A1F00"/>
<path d="M400.257 289.167C400.257 289.167 379.352 202.968 531.902 192.023C531.902 192.023 483.911 342.062 400.257 289.167Z" fill="#F99159"/>
<path d="M532.128 191.838L399.532 278.007C399.765 254.424 413.444 200.354 532.128 191.838Z" fill="#FF9A6C"/>
<path d="M405.064 274.615C405.005 274.598 404.954 274.56 404.922 274.509C404.903 274.48 404.89 274.449 404.884 274.415C404.878 274.382 404.878 274.348 404.885 274.315C404.892 274.281 404.905 274.25 404.925 274.222C404.944 274.194 404.968 274.17 404.996 274.152L531.995 191.621C532.052 191.583 532.122 191.57 532.189 191.584C532.256 191.598 532.314 191.638 532.352 191.695C532.389 191.753 532.403 191.822 532.389 191.889C532.375 191.956 532.335 192.015 532.277 192.053L405.279 274.59C405.247 274.61 405.212 274.622 405.174 274.626C405.137 274.631 405.1 274.627 405.064 274.615Z" fill="#3A1F00"/>
<path d="M465.764 235.169C465.7 235.151 465.645 235.109 465.611 235.052C465.577 234.995 465.566 234.928 465.581 234.863C465.596 234.798 465.635 234.742 465.691 234.705C465.746 234.669 465.814 234.655 465.879 234.667L507.422 241.316C507.456 241.32 507.49 241.331 507.519 241.349C507.549 241.366 507.575 241.389 507.596 241.417C507.617 241.445 507.632 241.476 507.64 241.51C507.649 241.543 507.65 241.578 507.645 241.612C507.639 241.647 507.627 241.679 507.609 241.709C507.59 241.738 507.566 241.763 507.538 241.783C507.509 241.803 507.477 241.817 507.443 241.824C507.41 241.831 507.375 241.831 507.341 241.825L465.797 235.176L465.764 235.169Z" fill="#3A1F00"/>
<path d="M438.564 252.849L438.517 252.828C438.487 252.813 438.46 252.791 438.438 252.765C438.417 252.738 438.401 252.708 438.391 252.675C438.381 252.643 438.378 252.609 438.381 252.575C438.384 252.541 438.394 252.508 438.411 252.478L457.948 216.092C457.984 216.038 458.038 215.999 458.101 215.982C458.164 215.966 458.23 215.975 458.287 216.005C458.344 216.036 458.388 216.087 458.409 216.149C458.429 216.21 458.427 216.277 458.4 216.336L438.863 252.722C438.835 252.774 438.79 252.815 438.736 252.838C438.682 252.861 438.621 252.865 438.564 252.849Z" fill="#3A1F00"/>
<path d="M409.553 309.552C409.553 309.552 458.043 223.693 590.192 330.67C590.192 330.67 437.285 416.025 409.553 309.552Z" fill="#F99159"/>
<path d="M590.531 330.706L417.445 299.947C435.54 280.975 487.712 247.47 590.531 330.706Z" fill="#FF9A6C"/>
<path d="M424.505 301.389C424.472 301.33 424.46 301.262 424.471 301.195C424.485 301.121 424.528 301.056 424.59 301.013C424.653 300.971 424.729 300.955 424.803 300.969L590.581 330.428C590.619 330.433 590.656 330.446 590.689 330.466C590.722 330.486 590.751 330.512 590.773 330.543C590.796 330.574 590.812 330.61 590.821 330.647C590.829 330.685 590.83 330.724 590.824 330.762C590.817 330.8 590.803 330.836 590.782 330.868C590.761 330.901 590.734 330.928 590.702 330.95C590.67 330.972 590.634 330.986 590.596 330.994C590.558 331.001 590.519 331.001 590.481 330.993L424.704 301.532C424.662 301.524 424.622 301.507 424.588 301.483C424.554 301.458 424.525 301.426 424.505 301.389V301.389Z" fill="#3A1F00"/>
<path d="M503.74 315.469C503.706 315.406 503.697 315.333 503.714 315.263C503.731 315.194 503.773 315.133 503.832 315.093C503.892 315.053 503.964 315.037 504.035 315.047C504.106 315.058 504.17 315.095 504.215 315.15L532.89 352.108C532.936 352.168 532.957 352.244 532.947 352.32C532.937 352.395 532.898 352.464 532.838 352.51C532.808 352.533 532.775 352.551 532.738 352.56C532.702 352.57 532.664 352.573 532.627 352.568C532.59 352.563 532.554 352.551 532.521 352.532C532.489 352.513 532.461 352.488 532.438 352.458L503.761 315.496L503.74 315.469Z" fill="#3A1F00"/>
<path d="M468.229 309.168C468.219 309.152 468.212 309.134 468.206 309.116C468.182 309.044 468.187 308.965 468.221 308.897C468.254 308.829 468.313 308.777 468.385 308.752L511.883 294.062C511.955 294.038 512.034 294.043 512.103 294.077C512.171 294.111 512.223 294.171 512.247 294.243C512.271 294.315 512.266 294.394 512.232 294.462C512.198 294.53 512.139 294.582 512.066 294.607L468.568 309.297C468.505 309.317 468.438 309.315 468.376 309.292C468.314 309.269 468.262 309.225 468.229 309.168V309.168Z" fill="#3A1F00"/>
<path d="M346.648 349.769H303.348V391.025H346.648V349.769Z" fill="#060633"/>
<path d="M443.188 191.58H209.825C207.622 191.58 205.836 193.366 205.836 195.569V348.944C205.836 351.147 207.622 352.933 209.825 352.933H443.188C445.391 352.933 447.177 351.147 447.177 348.944V195.569C447.177 193.366 445.391 191.58 443.188 191.58Z" fill="#0C0C4C"/>
<path d="M440.79 195.856H211.988V340.781H440.79V195.856Z" fill="#FCE9CB"/>
<path d="M361.968 387.002H288.028V396.467H361.968V387.002Z" fill="#0C0C4C"/>
<path d="M403.446 324.491C397.195 316.129 393.33 310.931 392.02 309.179C390.241 306.802 386.808 299.803 382.95 292.003C377.725 281.431 371.725 269.403 368.034 265.417C366.54 263.812 363.652 262.44 360.301 261.281C357.539 260.325 350.451 271.625 323.404 268.804C323.404 268.804 335.095 276.073 335.547 277.27C336.392 279.501 336.986 281.167 337.158 281.84C337.187 281.935 337.203 282.034 337.206 282.134C337.176 282.428 337.147 282.719 337.118 283.006C337.007 284.118 336.891 285.178 336.806 286.17C336.806 286.204 336.806 286.24 336.806 286.274C336.758 286.767 336.713 287.241 336.67 287.693C336.67 287.777 336.656 287.856 336.647 287.938C336.464 289.85 336.329 291.359 336.247 292.252C336.247 292.322 336.234 292.392 336.229 292.451C336.189 292.903 336.166 293.16 336.166 293.16C336.166 293.16 333.633 292.559 331.438 293.536C330.705 293.853 330.063 294.347 329.569 294.975C329.424 295.161 329.291 295.357 329.171 295.561C329.054 295.764 328.661 296.67 328.152 297.925C328.152 297.949 328.134 297.972 328.123 297.997C326.602 301.766 326.238 308.108 327.09 308.691C327.09 308.691 328.102 310.196 328.539 310.612C329.881 311.894 334.261 316.35 345.608 319.878C346.867 320.269 348.031 320.852 349.202 321.266C358.443 324.538 357.112 325.474 363.214 331.056C363.478 331.381 363.705 331.734 363.892 332.109C364.741 333.644 366.274 336.72 368.33 340.79H415.718C410.92 334.46 406.832 329.013 403.446 324.491Z" fill="#F09684"/>
<path d="M367.449 304.302C367.988 304.449 368.544 304.525 369.103 304.528L369.09 304.16C369.065 304.16 366.495 304.212 363.648 301.968C361.01 299.888 357.584 295.357 356.251 285.587L355.887 285.637C356.633 291.108 358.551 298.438 363.444 302.275C364.623 303.223 365.987 303.914 367.449 304.302V304.302Z" fill="#D97D6B"/>
<path d="M350.144 236.071C351.321 236.328 352.883 234.645 352.883 234.645C352.106 232.461 351.326 230.197 350.519 228.005C349.778 228.255 348.808 228.773 348.537 229.772C348.081 231.451 348.964 235.811 350.144 236.071Z" fill="#F3B2A3"/>
<path d="M423.456 340.779C414.143 327.648 405.53 315.946 404.551 316.389C403.654 316.8 402.783 317.268 401.943 317.788C400.728 318.527 399.578 319.37 398.508 320.308V320.308C391.931 326.034 389.619 333.454 378.36 335.04C372.807 335.827 368.529 337.445 365.691 339.56C365.485 339.707 365.288 339.867 365.103 340.04V340.04C364.824 340.269 364.557 340.513 364.303 340.77L423.456 340.779Z" fill="#BF602B"/>
<path d="M342.501 311.756C347.26 312.298 351.507 309.304 351.993 305.068L359.094 242.568C359.575 238.333 356.106 234.462 351.346 233.921C346.587 233.381 342.338 236.376 341.854 240.611L334.756 303.111C334.272 307.344 337.741 311.216 342.501 311.756Z" fill="#060633"/>
<path d="M284.342 141.939L384.272 218.519L390.227 230.988L379.104 241.452L252.058 248.853L284.342 141.939Z" fill="#FA7267"/>
<path d="M312.369 208.358C320.527 180.782 314.383 154.652 298.645 149.996C282.907 145.341 263.535 163.921 255.377 191.498C247.219 219.074 253.364 245.203 269.102 249.859C284.84 254.515 304.211 235.934 312.369 208.358Z" fill="#3862BF"/>
<path d="M384.27 218.519L402.043 227.528C402.043 227.528 405.48 227.819 403.071 237.309C400.662 246.799 397.394 242.864 379.115 241.452C379.104 241.452 391.416 231.829 384.27 218.519Z" fill="#0C0755"/>
<path d="M272.147 250.469L250.248 248.772L280.9 140.039L301.925 151.345L293.513 215.184L272.147 250.469Z" fill="#3862BF"/>
<path d="M291.891 202.299C300.767 172.294 295.205 144.196 279.467 139.541C263.729 134.885 243.775 155.434 234.899 185.439C226.022 215.444 231.585 243.542 247.323 248.198C263.06 252.853 283.014 232.304 291.891 202.299Z" fill="#5D80D6"/>
<path d="M287.343 200.955C295.176 174.478 290.535 149.764 276.978 145.753C263.421 141.742 246.081 159.954 238.249 186.431C230.416 212.907 235.057 237.622 248.614 241.632C262.171 245.643 279.511 227.431 287.343 200.955Z" fill="#0C0755"/>
<path d="M274.841 179.469L248.851 182.918L245.384 199.043L268.386 214.097C270.78 216.04 274.127 215.731 276.19 213.391C281.069 207.863 287.877 196.74 280.71 182.726C279.56 180.443 277.23 179.152 274.841 179.469Z" fill="#FA7267"/>
<path d="M243.734 190.62C242.921 195.269 243.865 199.373 245.847 199.782C247.829 200.191 250.096 196.756 250.912 192.098C251.728 187.44 250.781 183.345 248.799 182.936C246.817 182.527 244.55 185.969 243.734 190.62Z" fill="#F09684"/>
<path d="M314.983 282.706L314.757 280.898C314.289 277.379 319.051 274.915 325.35 274.423L340.718 273.238C347.186 272.732 350.736 273.975 352.018 277.404C352.257 278.109 352.363 278.852 352.332 279.596C352.144 283.182 349.572 285.648 343.104 286.15L327.088 287.476C320.784 287.985 315.451 286.222 314.983 282.706Z" fill="#F1A38D"/>
<path d="M317.641 295.477L317.343 293.64C316.814 290.356 321.286 287.901 327.287 287.201L343.158 285.352C349.317 284.636 354.007 285.804 355.211 289.045C355.444 289.701 355.544 290.397 355.505 291.093C355.322 294.483 351.281 296.824 345.109 297.54L329.237 299.389C323.248 300.09 318.17 298.772 317.641 295.477Z" fill="#F1A38D"/>
<path d="M321.094 304.684L321.117 303.283C321.162 300.553 325.11 298.614 330.019 298.241L340.089 297.83C344.028 297.628 349.032 297.868 349.414 301.405C349.866 305.679 343.14 307.493 340.826 307.543L329.842 308.379C324.941 308.752 321.044 307.414 321.094 304.684Z" fill="#F1A38D"/>
<path d="M350.293 278.751C350.04 275.951 347.719 275.322 345.303 275.573L342.252 275.887C341.1 276.007 340.284 276.884 340.444 277.838L341.005 281.239C341.176 282.297 342.361 283.047 343.644 282.923L347.116 282.563C349.17 282.351 350.404 280.014 350.293 278.751Z" fill="#F3B2A3"/>
<path d="M318.106 271.128C318.063 270.805 317.88 268.73 317.88 268.73C317.67 265.747 321.663 264.185 326.624 264.081L337.723 263.855C342.81 263.749 345.961 263.708 347.095 266.685C347.396 267.471 347.459 269.152 347.321 270.038C346.722 273.813 342.921 274.134 337.829 274.24L327.404 275.164C322.439 275.268 318.499 274.1 318.106 271.128Z" fill="#F1A38D"/>
<path d="M353.464 290.896V290.67C353.464 288.652 351.755 287.169 349.674 287.375L346.937 287.648C346.454 287.698 346.004 287.92 345.672 288.275C345.34 288.63 345.147 289.093 345.129 289.578V292.905C345.13 293.157 345.184 293.406 345.289 293.635C345.394 293.864 345.546 294.068 345.736 294.233C345.926 294.399 346.15 294.521 346.391 294.593C346.632 294.665 346.886 294.684 347.136 294.65L350.237 294.34C352.018 294.166 353.466 292.616 353.464 290.896Z" fill="#F3B2A3"/>
<path d="M347.324 301.617V301.681C347.455 303.312 346.395 304.761 344.971 304.899L342.501 305.138C341.823 305.204 341.215 304.621 341.145 303.843L340.941 301.272C340.871 300.406 341.432 299.64 342.187 299.568L344.899 299.303C346.13 299.186 347.213 300.227 347.324 301.617Z" fill="#F3B2A3"/>
<path d="M346.462 268.879L346.413 268.38C346.241 266.655 344.551 265.306 342.659 265.378L340.501 265.462C339.597 265.498 338.919 266.199 339.007 267.021L339.321 270.172C339.411 271.076 340.306 271.799 341.307 271.754L343.793 271.657C345.409 271.6 346.609 270.348 346.462 268.879Z" fill="#F3B2A3"/>
<path d="M324.904 287.669C324.916 287.671 324.929 287.671 324.941 287.669L347.794 285.345C347.821 285.342 347.846 285.329 347.863 285.308C347.881 285.287 347.889 285.26 347.886 285.232C347.885 285.219 347.881 285.206 347.875 285.193C347.869 285.181 347.86 285.171 347.849 285.162C347.839 285.153 347.827 285.147 347.814 285.143C347.801 285.139 347.787 285.138 347.773 285.14L324.918 287.472C324.893 287.474 324.87 287.484 324.853 287.502C324.835 287.519 324.825 287.542 324.823 287.567C324.822 287.591 324.829 287.616 324.844 287.635C324.859 287.655 324.88 287.668 324.904 287.673V287.669Z" fill="#D97D6B"/>
<path d="M322.909 274.836C322.919 274.839 322.93 274.839 322.94 274.836L345.088 273.254C345.116 273.252 345.141 273.239 345.159 273.218C345.176 273.198 345.185 273.171 345.183 273.144C345.182 273.13 345.179 273.117 345.173 273.105C345.167 273.092 345.158 273.082 345.148 273.073C345.138 273.064 345.126 273.057 345.113 273.053C345.1 273.049 345.086 273.048 345.073 273.049L322.925 274.631C322.9 274.633 322.878 274.644 322.861 274.661C322.844 274.678 322.834 274.701 322.831 274.725C322.829 274.749 322.836 274.773 322.849 274.793C322.863 274.813 322.883 274.828 322.906 274.834L322.909 274.836Z" fill="#D97D6B"/>
<path d="M324.491 299.601C324.502 299.604 324.514 299.604 324.525 299.601L343.165 297.904C343.193 297.901 343.218 297.888 343.235 297.867C343.252 297.846 343.261 297.818 343.258 297.791C343.257 297.778 343.253 297.764 343.247 297.752C343.24 297.74 343.232 297.73 343.221 297.721C343.211 297.712 343.198 297.706 343.185 297.702C343.172 297.698 343.159 297.697 343.145 297.699L324.507 299.394C324.479 299.396 324.454 299.41 324.437 299.431C324.419 299.452 324.41 299.479 324.412 299.507C324.413 299.529 324.422 299.55 324.436 299.567C324.45 299.584 324.469 299.596 324.491 299.601Z" fill="#D97D6B"/>
<path d="M379.282 284.636C379.282 284.636 366.068 243.99 344.887 250.058C341.992 250.887 336.925 250.245 331.429 249.398C329.14 249.045 326.776 248.656 324.466 248.327L323.519 248.191C319.553 247.649 319.302 260.479 337.224 261.468C341.448 261.694 352.228 263.954 356.603 274.124C359.394 280.597 374.545 294.336 379.282 284.636Z" fill="#F09684"/>
<path d="M189.813 146.055C189.186 142.963 188.139 139.972 186.701 137.164C185.217 134.267 183.339 131.589 181.121 129.206C177.74 125.579 173.646 122.688 169.096 120.716C164.546 118.744 159.638 117.733 154.679 117.746C153.978 117.746 153.285 117.764 152.597 117.805C146.223 118.146 140.054 120.183 134.73 123.706C129.406 127.229 125.12 132.11 122.313 137.844C120.024 142.563 118.838 147.741 118.844 152.986C118.844 165.771 125.767 176.965 136.122 183.144C140.094 185.516 144.486 187.099 149.058 187.806C150.92 188.095 152.802 188.24 154.686 188.24C169.932 188.24 182.952 178.874 188.134 165.676C188.533 164.655 188.885 163.612 189.189 162.548C189.947 159.898 190.385 157.167 190.493 154.412C190.511 153.942 190.523 153.468 190.523 152.993C190.519 150.662 190.281 148.338 189.813 146.055V146.055ZM174.144 153.761C174.06 155.86 173.626 157.93 172.861 159.886C171.412 163.521 168.903 166.636 165.659 168.825C162.415 171.014 158.588 172.175 154.674 172.158C153.312 172.158 151.954 172.019 150.62 171.744C148.401 171.286 146.279 170.445 144.348 169.258C141.557 167.56 139.248 165.173 137.644 162.327C136.04 159.48 135.194 156.269 135.186 153.002C135.183 150.088 135.857 147.213 137.155 144.604C138.622 141.67 140.807 139.154 143.506 137.29C146.206 135.426 149.332 134.274 152.595 133.941C156.389 133.545 160.217 134.251 163.62 135.975C167.139 137.76 170.029 140.576 171.905 144.048C173.388 146.802 174.165 149.881 174.165 153.009C174.165 153.251 174.16 153.506 174.144 153.761Z" fill="#FCDACA"/>
<path d="M150.622 171.744L149.058 187.806C144.49 187.101 140.101 185.521 136.131 183.153C125.776 176.974 118.853 165.78 118.853 152.995C118.847 147.75 120.033 142.572 122.323 137.853L137.164 144.602C135.863 147.211 135.186 150.086 135.186 153.002C135.194 156.27 136.04 159.481 137.645 162.327C139.25 165.174 141.559 167.56 144.351 169.258C146.281 170.445 148.403 171.287 150.622 171.744Z" fill="#C53B2E"/>
<path d="M189.175 162.544C188.874 163.607 188.522 164.65 188.12 165.672C182.942 178.87 169.923 188.235 154.672 188.235C148.141 188.249 141.728 186.491 136.117 183.148C138.504 179.103 141.467 174.108 144.346 169.247C146.78 170.742 149.51 171.689 152.346 172.022C155.183 172.355 158.058 172.066 160.772 171.175C163.485 170.284 165.972 168.813 168.06 166.863C170.147 164.913 171.784 162.533 172.858 159.886C173.219 158.972 173.507 158.03 173.719 157.07L185.697 161.127L189.175 162.544Z" fill="#F06A53"/>
<path d="M190.509 153.002C190.509 153.477 190.509 153.951 190.479 154.421C190.327 158.281 189.529 162.087 188.12 165.683L172.863 159.897C173.63 157.942 174.064 155.872 174.146 153.773C174.16 153.517 174.165 153.262 174.165 153.002C174.166 151.736 174.039 150.473 173.785 149.232L189.813 146.068C190.276 148.35 190.51 150.673 190.509 153.002V153.002Z" fill="#EA5A25"/>
<path d="M190.509 153.002C190.509 153.477 190.509 153.951 190.48 154.421L174.144 153.761C174.158 153.506 174.162 153.251 174.162 152.991C174.165 149.862 173.388 146.783 171.902 144.03C170.027 140.558 167.136 137.742 163.617 135.957L166.119 131.197L181.119 129.206C183.337 131.589 185.215 134.267 186.699 137.164C189.21 142.065 190.516 147.495 190.509 153.002V153.002Z" fill="#F67A52"/>
<path d="M170.239 134.436C170.239 134 170.368 133.573 170.611 133.211C170.853 132.848 171.198 132.565 171.601 132.398C172.004 132.231 172.447 132.188 172.875 132.273C173.303 132.358 173.696 132.568 174.004 132.876C174.313 133.185 174.523 133.578 174.608 134.006C174.693 134.434 174.65 134.877 174.483 135.28C174.316 135.683 174.033 136.028 173.67 136.27C173.307 136.513 172.881 136.642 172.445 136.642C171.86 136.642 171.299 136.409 170.885 135.996C170.471 135.582 170.239 135.021 170.239 134.436Z" fill="#551E00"/>
<path d="M223.313 115.538C223.313 115.101 223.443 114.674 223.685 114.311C223.928 113.948 224.273 113.665 224.677 113.498C225.08 113.331 225.524 113.287 225.953 113.373C226.381 113.458 226.774 113.668 227.083 113.977C227.392 114.286 227.602 114.68 227.687 115.109C227.772 115.537 227.728 115.981 227.56 116.385C227.393 116.788 227.109 117.133 226.746 117.375C226.383 117.617 225.956 117.746 225.519 117.746C225.229 117.746 224.942 117.689 224.674 117.578C224.406 117.467 224.163 117.304 223.958 117.099C223.753 116.894 223.591 116.651 223.48 116.383C223.37 116.115 223.313 115.828 223.313 115.538V115.538Z" fill="#551E00"/>
<path d="M172.632 134.549L172.26 134.323L183.774 115.321H225.521V115.755H184.018L172.632 134.549Z" fill="#551E00"/>
<path d="M220.962 101.449H183.661V103.558H220.962V101.449Z" fill="#551E00"/>
<path d="M205.924 106.274H183.661V108.383H205.924V106.274Z" fill="#551E00"/>
<path d="M365.415 113.16C365.415 103.194 374.163 95.1144 384.957 95.1144C395.751 95.1144 404.497 103.194 404.497 113.16C404.497 117.992 402.438 122.384 399.087 125.622C397.58 127.069 396.381 128.805 395.56 130.725C394.739 132.645 394.312 134.711 394.307 136.8V136.8C394.306 138.44 393.654 140.013 392.494 141.173C391.334 142.333 389.761 142.985 388.121 142.986H381.793C380.153 142.986 378.579 142.334 377.419 141.174C376.259 140.014 375.607 138.441 375.607 136.8V136.8C375.601 134.711 375.175 132.645 374.353 130.725C373.531 128.804 372.332 127.069 370.825 125.622C367.474 122.384 365.415 117.992 365.415 113.16Z" fill="#E97A6D"/>
<path d="M381.529 145.232C381.589 145.232 381.646 145.208 381.689 145.166C381.731 145.123 381.755 145.066 381.755 145.006C381.861 142.995 378.817 111.558 378.683 110.229C378.68 110.2 378.672 110.171 378.658 110.144C378.643 110.118 378.624 110.095 378.601 110.076C378.555 110.038 378.495 110.02 378.435 110.026C378.375 110.032 378.32 110.061 378.282 110.108C378.243 110.155 378.225 110.214 378.231 110.274C378.263 110.602 381.395 143.004 381.3 144.981C381.298 145.012 381.302 145.043 381.313 145.073C381.323 145.102 381.34 145.129 381.361 145.151C381.382 145.174 381.408 145.192 381.436 145.204C381.465 145.217 381.495 145.223 381.526 145.223L381.529 145.232Z" fill="#050731"/>
<path d="M388.559 145.232C388.591 145.232 388.621 145.226 388.65 145.214C388.678 145.201 388.704 145.183 388.725 145.16C388.746 145.138 388.763 145.111 388.773 145.082C388.783 145.052 388.788 145.021 388.785 144.99C388.679 143.013 391.823 110.611 391.855 110.284C391.857 110.254 391.855 110.224 391.846 110.195C391.837 110.167 391.823 110.14 391.804 110.117C391.785 110.094 391.762 110.075 391.736 110.061C391.71 110.047 391.681 110.038 391.651 110.035C391.621 110.032 391.591 110.035 391.563 110.043C391.534 110.052 391.508 110.066 391.485 110.085C391.462 110.104 391.443 110.127 391.428 110.154C391.414 110.18 391.405 110.209 391.403 110.238C391.271 111.576 388.223 143.008 388.331 145.015C388.334 145.074 388.359 145.129 388.401 145.17C388.444 145.211 388.501 145.233 388.559 145.232Z" fill="#050731"/>
<path d="M384.745 118.119C384.382 117.962 384.064 117.718 383.818 117.409C383.346 117.626 382.812 117.663 382.315 117.513C382.052 117.431 381.806 117.305 381.585 117.14C381.473 117.296 381.33 117.426 381.164 117.523C380.999 117.62 380.815 117.681 380.625 117.703C380.336 117.721 380.05 117.648 379.804 117.495C379.484 117.305 379.227 117.024 379.066 116.688C378.905 116.351 378.847 115.975 378.9 115.606C378.908 115.579 378.925 115.555 378.949 115.54C378.973 115.525 379.001 115.519 379.029 115.524C379.057 115.528 379.082 115.543 379.1 115.564C379.118 115.586 379.127 115.614 379.126 115.642C379.081 115.964 379.131 116.292 379.269 116.586C379.408 116.881 379.629 117.128 379.906 117.298C380.11 117.422 380.346 117.484 380.584 117.475C380.743 117.453 380.895 117.4 381.032 117.317C381.169 117.235 381.288 117.126 381.382 116.996C380.966 116.622 380.651 116.151 380.464 115.624C380.134 114.72 380.157 113.737 380.213 112.986C380.217 112.523 380.338 112.068 380.566 111.664C380.821 111.271 381.339 110.966 381.834 111.138C381.864 111.149 381.888 111.172 381.902 111.201C382.577 112.809 382.626 114.612 382.039 116.254C381.953 116.5 381.838 116.735 381.698 116.955C381.899 117.104 382.122 117.219 382.36 117.294C382.787 117.422 383.245 117.398 383.655 117.224C383.423 116.881 383.256 116.498 383.165 116.094C382.959 115.19 383.093 114.245 383.233 113.522C383.274 113.206 383.386 112.903 383.56 112.636C383.659 112.494 383.797 112.384 383.958 112.322C384.12 112.259 384.296 112.247 384.464 112.286C384.482 112.291 384.499 112.301 384.512 112.315C384.525 112.328 384.534 112.345 384.539 112.363C384.825 113.388 384.942 114.453 384.885 115.515C384.88 115.884 384.803 116.248 384.659 116.587C384.507 116.886 384.272 117.135 383.981 117.303C384.199 117.565 384.475 117.773 384.788 117.909C385.176 118.053 385.596 118.096 386.005 118.031C386.415 117.967 386.801 117.797 387.127 117.54C386.899 117.344 386.707 117.111 386.557 116.851C386.139 116.119 386.035 115.253 385.972 114.498C385.92 113.893 385.895 113.253 386.168 112.69C386.442 112.128 387.161 111.689 387.773 111.942C388.039 112.065 388.26 112.268 388.404 112.523C388.79 113.14 388.912 113.942 388.767 114.91C388.652 115.68 388.34 116.761 387.497 117.531C387.815 117.759 388.202 117.868 388.591 117.841C388.91 117.793 389.213 117.669 389.474 117.481C389.736 117.293 389.949 117.045 390.096 116.758C390.417 116.209 390.96 114.229 391.111 113.508C391.118 113.479 391.136 113.453 391.162 113.436C391.188 113.419 391.219 113.413 391.249 113.418C391.264 113.421 391.278 113.427 391.29 113.436C391.303 113.445 391.314 113.456 391.322 113.469C391.33 113.481 391.335 113.496 391.338 113.511C391.341 113.526 391.34 113.541 391.337 113.556C391.19 114.252 390.641 116.268 390.295 116.874C390.13 117.193 389.891 117.468 389.598 117.676C389.305 117.884 388.967 118.02 388.612 118.071C388.147 118.103 387.688 117.966 387.317 117.685C386.824 118.071 386.218 118.284 385.592 118.293C385.301 118.289 385.013 118.23 384.745 118.119V118.119ZM386.422 112.792C386.171 113.298 386.196 113.902 386.248 114.476C386.309 115.206 386.408 116.042 386.804 116.736C386.946 116.986 387.132 117.208 387.353 117.393L387.387 117.364C388.18 116.639 388.476 115.613 388.584 114.878C388.72 113.974 388.605 113.208 388.254 112.647C388.136 112.433 387.952 112.261 387.73 112.157C387.637 112.119 387.537 112.1 387.436 112.1C387.221 112.116 387.014 112.188 386.836 112.309C386.657 112.431 386.515 112.597 386.422 112.792ZM383.766 112.772C383.614 113.011 383.517 113.281 383.481 113.563C383.346 114.266 383.215 115.181 383.414 116.049C383.499 116.436 383.659 116.803 383.886 117.129C384.145 116.982 384.355 116.761 384.487 116.494C384.616 116.182 384.683 115.848 384.686 115.511C384.741 114.495 384.633 113.478 384.367 112.496C384.252 112.487 384.136 112.508 384.03 112.557C383.925 112.605 383.834 112.68 383.766 112.774V112.772ZM380.781 111.789C380.577 112.162 380.469 112.579 380.466 113.004C380.41 113.73 380.387 114.675 380.692 115.545C380.863 116.028 381.15 116.462 381.529 116.808C381.653 116.609 381.756 116.398 381.836 116.178C382.396 114.606 382.355 112.884 381.721 111.341C381.537 111.314 381.35 111.342 381.183 111.422C381.015 111.502 380.875 111.629 380.781 111.789V111.789Z" fill="#050731"/>
<path d="M391.17 152.896H378.74C378.304 152.896 377.886 152.723 377.578 152.414C377.27 152.106 377.097 151.688 377.097 151.253V148.407H392.822V151.253C392.822 151.469 392.779 151.684 392.696 151.884C392.613 152.083 392.491 152.265 392.337 152.418C392.184 152.57 392.002 152.691 391.801 152.773C391.601 152.855 391.386 152.897 391.17 152.896Z" fill="#4050D8"/>
<path d="M383.99 150.579C387.042 150.54 390.074 150.068 392.994 149.176C393.371 149.053 393.684 148.785 393.864 148.431C394.043 148.077 394.075 147.666 393.952 147.289C393.829 146.911 393.561 146.599 393.207 146.419C392.853 146.239 392.442 146.207 392.065 146.331C391.927 146.376 383.389 149.083 378.053 146.414C377.698 146.237 377.287 146.208 376.91 146.333C376.533 146.459 376.222 146.729 376.045 147.084C375.867 147.439 375.838 147.85 375.964 148.227C376.09 148.604 376.36 148.915 376.715 149.092C378.95 150.209 381.542 150.579 383.99 150.579Z" fill="#050731"/>
<path d="M383.99 148.148C387.042 148.11 390.074 147.637 392.994 146.744C393.186 146.687 393.364 146.593 393.519 146.466C393.674 146.339 393.802 146.183 393.895 146.005C393.988 145.828 394.045 145.634 394.062 145.435C394.078 145.235 394.055 145.035 393.993 144.844C393.931 144.654 393.831 144.478 393.7 144.327C393.568 144.176 393.408 144.053 393.228 143.965C393.048 143.877 392.853 143.826 392.653 143.815C392.453 143.804 392.253 143.833 392.065 143.901C391.927 143.944 383.389 146.654 378.053 143.985C377.699 143.816 377.293 143.793 376.923 143.921C376.552 144.048 376.247 144.316 376.072 144.666C375.896 145.017 375.866 145.422 375.986 145.795C376.106 146.168 376.368 146.478 376.715 146.66C378.95 147.777 381.542 148.148 383.99 148.148Z" fill="#4050D8"/>
<path d="M383.99 145.718C387.043 145.68 390.074 145.207 392.994 144.312C393.186 144.256 393.364 144.161 393.519 144.034C393.674 143.907 393.802 143.751 393.895 143.574C393.988 143.397 394.045 143.203 394.062 143.003C394.078 142.804 394.055 142.603 393.993 142.413C393.931 142.222 393.831 142.046 393.7 141.895C393.568 141.744 393.408 141.621 393.228 141.533C393.048 141.445 392.853 141.394 392.653 141.383C392.453 141.372 392.253 141.402 392.065 141.469C391.927 141.514 383.389 144.222 378.053 141.553C377.699 141.384 377.293 141.362 376.923 141.489C376.552 141.617 376.247 141.884 376.072 142.235C375.896 142.585 375.866 142.99 375.986 143.363C376.106 143.736 376.368 144.047 376.715 144.229C378.95 145.347 381.542 145.718 383.99 145.718Z" fill="#050731"/>
<path d="M489.468 83.7917C485.791 83.7917 482.197 84.8822 479.139 86.9252C476.082 88.9681 473.699 91.8719 472.292 95.2692C470.885 98.6665 470.518 102.405 471.235 106.011C471.953 109.617 473.724 112.93 476.324 115.53C478.925 118.13 482.238 119.9 485.844 120.617C489.451 121.333 493.189 120.965 496.586 119.557C499.983 118.149 502.886 115.766 504.928 112.708C506.971 109.65 508.06 106.055 508.059 102.378C508.059 99.9369 507.578 97.5198 506.643 95.2646C505.709 93.0095 504.339 90.9605 502.613 89.2346C500.887 87.5087 498.838 86.1397 496.582 85.2058C494.327 84.272 491.91 83.7915 489.468 83.7917V83.7917ZM489.889 116.144C487.167 116.144 484.506 115.336 482.243 113.824C479.979 112.312 478.215 110.163 477.173 107.648C476.132 105.133 475.859 102.366 476.39 99.696C476.921 97.0262 478.231 94.5738 480.156 92.6489C482.08 90.7239 484.533 89.4129 487.202 88.8816C489.872 88.3503 492.639 88.6225 495.154 89.6639C497.669 90.7052 499.819 92.469 501.332 94.7321C502.844 96.9951 503.652 99.6559 503.652 102.378C503.653 104.186 503.297 105.976 502.606 107.646C501.914 109.316 500.901 110.834 499.622 112.112C498.344 113.391 496.827 114.405 495.157 115.096C493.487 115.788 491.697 116.144 489.889 116.144V116.144Z" fill="#FF9A6C"/>
<path d="M492.002 78.2367H486.933V85.48H492.002V78.2367Z" fill="#FF9A6C"/>
<path d="M501.582 80.8323L496.989 78.6884L493.925 85.2519L498.519 87.3959L501.582 80.8323Z" fill="#FF9A6C"/>
<path d="M508.909 87.1271L505.54 83.3394L500.128 88.1531L503.497 91.9409L508.909 87.1271Z" fill="#FF9A6C"/>
<path d="M512.973 95.035L510.942 90.3901L504.305 93.2911L506.336 97.936L512.973 95.035Z" fill="#FF9A6C"/>
<path d="M472.749 105.036V99.9666H465.506V105.036H472.749Z" fill="#FF9A6C"/>
<path d="M513.312 105.036V99.9666H506.068V105.036H513.312Z" fill="#FF9A6C"/>
<path d="M480.307 87.3899L484.901 85.246L481.837 78.6824L477.244 80.8263L480.307 87.3899Z" fill="#FF9A6C"/>
<path d="M475.327 91.9362L478.696 88.1484L473.283 83.3347L469.915 87.1225L475.327 91.9362Z" fill="#FF9A6C"/>
<path d="M472.549 97.9676L474.579 93.3224L467.941 90.4225L465.912 95.0677L472.549 97.9676Z" fill="#FF9A6C"/>
<path d="M492.063 119.525H486.994V126.768H492.063V119.525Z" fill="#FF9A6C"/>
<path d="M498.571 117.621L493.977 119.765L497.04 126.328L501.634 124.185L498.571 117.621Z" fill="#FF9A6C"/>
<path d="M503.558 113.079L500.189 116.867L505.602 121.68L508.97 117.893L503.558 113.079Z" fill="#FF9A6C"/>
<path d="M506.385 107.079L504.355 111.723L510.992 114.624L513.022 109.98L506.385 107.079Z" fill="#FF9A6C"/>
<path d="M477.286 124.178L481.88 126.322L484.943 119.758L480.35 117.614L477.286 124.178Z" fill="#FF9A6C"/>
<path d="M469.976 117.871L473.345 121.658L478.757 116.845L475.388 113.057L469.976 117.871Z" fill="#FF9A6C"/>
<path d="M465.902 109.968L467.932 114.613L474.569 111.712L472.539 107.067L465.902 109.968Z" fill="#FF9A6C"/>
<path d="M464.568 135.247L467.506 128.467L461.723 125.981C461.785 124.971 461.736 123.957 461.576 122.958L467.4 119.995L464.048 113.409L458.518 116.223C457.931 115.519 457.274 114.875 456.558 114.302L458.929 108.815L452.149 105.877L449.781 111.362C448.873 111.234 447.954 111.198 447.039 111.253L445.297 105.298L438.205 107.373L440.038 113.644C439.202 114.214 438.43 114.873 437.737 115.61L431.954 113.124L429.016 119.904L434.282 122.18C433.948 123.692 433.872 125.249 434.056 126.786L428.62 129.543L431.972 136.129L436.887 133.627C437.548 134.484 438.306 135.26 439.147 135.939L437.082 140.723L443.862 143.661L445.927 138.877C447.001 139.027 448.087 139.05 449.166 138.947L450.714 144.24L457.806 142.165L456.091 136.289C457.338 135.372 458.421 134.251 459.295 132.974L464.568 135.247ZM444.971 131.778C443.652 131.209 442.532 130.261 441.751 129.055C440.971 127.849 440.566 126.438 440.587 125.001C440.608 123.565 441.055 122.167 441.871 120.984C442.687 119.802 443.836 118.888 445.171 118.358C446.506 117.828 447.969 117.706 449.374 118.007C450.779 118.309 452.062 119.02 453.063 120.051C454.063 121.082 454.736 122.387 454.995 123.8C455.254 125.213 455.088 126.672 454.518 127.991C454.14 128.866 453.593 129.659 452.909 130.323C452.224 130.987 451.416 131.51 450.529 131.862C449.643 132.214 448.696 132.387 447.742 132.373C446.788 132.359 445.847 132.157 444.971 131.778V131.778Z" fill="#FFBF9D"/>
<path d="M492.868 151.158V146.057H488.51C488.279 145.403 487.976 144.776 487.606 144.188L490.488 140.714L486.56 137.458L483.825 140.755C483.259 140.472 482.668 140.245 482.058 140.077V135.941H476.955V140.066C476.345 140.234 475.753 140.461 475.188 140.744L472.453 137.446L468.525 140.703L471.398 144.188C471.022 144.777 470.713 145.406 470.478 146.064H466.136V151.165H470.098C470.304 152.214 470.686 153.221 471.228 154.143L468.532 157.393L472.46 160.65L474.891 157.712C475.546 158.073 476.241 158.356 476.962 158.555V162.153H482.065V158.555C482.785 158.356 483.48 158.073 484.135 157.712L486.567 160.65L490.495 157.393L487.783 154.132C488.324 153.21 488.706 152.203 488.913 151.153L492.868 151.158ZM479.497 154.322C478.505 154.322 477.535 154.029 476.71 153.478C475.885 152.927 475.242 152.144 474.862 151.227C474.482 150.311 474.383 149.302 474.576 148.329C474.77 147.356 475.247 146.462 475.949 145.761C476.65 145.059 477.544 144.582 478.517 144.388C479.49 144.195 480.499 144.294 481.415 144.674C482.332 145.054 483.115 145.697 483.666 146.522C484.217 147.347 484.51 148.317 484.51 149.309C484.51 150.639 483.982 151.914 483.042 152.854C482.102 153.795 480.827 154.324 479.497 154.324V154.322Z" fill="#0C0755"/>
<path d="M260.913 327.428C273.946 327.243 284.358 316.226 284.169 302.819C283.979 289.413 273.26 278.694 260.227 278.879C247.193 279.063 236.782 290.08 236.971 303.487C237.161 316.893 247.88 327.612 260.913 327.428Z" fill="#ED7066"/>
<path d="M261.936 300.994C259.902 300.151 258.503 299.446 257.615 298.627C257.529 298.564 257.452 298.488 257.389 298.401C256.739 297.733 256.379 296.835 256.388 295.902C256.365 294.094 257.615 291.967 261.003 291.922C262.972 291.866 264.914 292.38 266.599 293.4L267.643 290.376C266.371 289.626 264.551 288.921 261.891 288.876L261.846 284.464H261.254L259.093 284.509L259.139 286.805L259.161 289.102C255.113 289.829 252.544 292.718 252.607 296.492C252.601 297.286 252.747 298.074 253.039 298.813C253.067 298.922 253.104 299.029 253.152 299.131C254.176 301.45 256.61 302.928 259.997 304.246C263.272 305.566 265.021 307.066 265.044 309.568C265.091 312.16 263.01 314.047 259.859 314.088C257.599 314.112 255.383 313.463 253.493 312.224L252.514 315.18L252.469 315.293C254.051 316.407 256.7 317.18 259.249 317.18L259.317 321.774L262.09 321.729L262.022 316.999C263.221 316.801 264.366 316.36 265.387 315.702C266.484 315.014 267.384 314.053 267.998 312.913C268.612 311.774 268.919 310.494 268.89 309.2C268.838 305.154 266.506 302.84 261.936 300.994Z" fill="white"/>
<path d="M215.203 367.083C224.868 366.945 232.588 358.773 232.445 348.831C232.303 338.89 224.353 330.942 214.688 331.081C205.023 331.219 197.304 339.39 197.446 349.332C197.588 359.274 205.539 367.222 215.203 367.083Z" fill="#ED7066"/>
<path d="M215.911 347.518C214.411 346.892 213.364 346.37 212.707 345.764C212.643 345.716 212.586 345.659 212.54 345.595C212.057 345.098 211.79 344.432 211.796 343.739C211.78 342.383 212.7 340.822 215.22 340.788C216.679 340.746 218.119 341.127 219.367 341.884L220.144 339.642C219.2 339.086 217.851 338.564 215.878 338.53L215.844 335.257H215.405L213.803 335.291L213.837 336.993L213.855 338.697C210.854 339.237 208.946 341.38 208.998 344.178C208.993 344.766 209.102 345.35 209.319 345.898C209.34 345.975 209.368 346.051 209.403 346.124C210.162 347.843 211.965 348.94 214.479 349.916C216.906 350.894 218.205 352.009 218.221 353.862C218.255 355.785 216.705 357.184 214.379 357.218C212.703 357.236 211.059 356.755 209.658 355.835L208.933 358.027L208.899 358.113C210.063 358.938 212.036 359.512 213.923 359.512L213.975 362.918L216.031 362.884L215.982 359.376C216.867 359.229 217.713 358.902 218.468 358.416C219.281 357.906 219.948 357.193 220.403 356.347C220.858 355.502 221.086 354.553 221.064 353.593C221.021 350.603 219.301 348.883 215.911 347.518Z" fill="white"/>
<path d="M296.34 86.8021H292.046V79.1181H277.329V86.8021H273.046V78.6661C273.046 76.5485 274.617 74.8241 276.545 74.8241H292.83C294.76 74.8241 296.329 76.5485 296.329 78.6661L296.34 86.8021Z" fill="#69057F"/>
<path d="M317.096 86.0427H254.587C254.338 86.0427 254.137 86.2441 254.137 86.4925V127.267C254.137 127.516 254.338 127.717 254.587 127.717H317.096C317.344 127.717 317.546 127.516 317.546 127.267V86.4925C317.546 86.2441 317.344 86.0427 317.096 86.0427Z" fill="#660440"/>
<path d="M287.639 108.638C287.602 108.638 287.566 108.632 287.531 108.62L254.191 98.084C254.147 98.0692 254.105 98.0457 254.07 98.015C254.035 97.9842 254.005 97.9468 253.985 97.9048C253.964 97.8629 253.951 97.8172 253.948 97.7704C253.944 97.7236 253.95 97.6766 253.965 97.632C253.98 97.5875 254.003 97.5464 254.034 97.5109C254.065 97.4755 254.102 97.4464 254.144 97.4254C254.186 97.4044 254.232 97.3919 254.279 97.3886C254.326 97.3853 254.373 97.3912 254.417 97.406L287.639 107.897L317.191 97.3269C317.235 97.3112 317.283 97.3044 317.33 97.3069C317.377 97.3094 317.423 97.3212 317.466 97.3415C317.508 97.3619 317.546 97.3904 317.578 97.4255C317.61 97.4606 317.634 97.5016 317.65 97.5462C317.665 97.5907 317.672 97.6379 317.67 97.685C317.667 97.7322 317.655 97.7783 317.635 97.8209C317.615 97.8635 317.586 97.9017 317.551 97.9333C317.516 97.9649 317.475 97.9892 317.43 98.0049L287.766 108.627C287.724 108.638 287.682 108.642 287.639 108.638V108.638Z" fill="#310724"/>
<path d="M289.596 104.665H285.802V111.54H289.596V104.665Z" fill="white"/>
<path d="M509.472 377.739C506.154 378.403 495.338 375.307 495.148 374.349C494.958 373.39 503.747 366.378 507.065 365.713C508.65 365.415 510.288 365.753 511.625 366.655C512.962 367.557 513.889 368.95 514.206 370.531C514.523 372.112 514.203 373.754 513.317 375.101C512.431 376.449 511.049 377.392 509.472 377.727V377.739Z" fill="#F68733"/>
<path d="M480.706 377.73C481.897 380.894 480.589 392.072 479.685 392.42C478.781 392.768 470.43 385.219 469.237 382.053C468.954 381.3 468.821 380.498 468.848 379.694C468.874 378.89 469.058 378.099 469.391 377.366C470.061 375.885 471.292 374.732 472.813 374.16C473.566 373.876 474.368 373.744 475.172 373.77C475.977 373.797 476.768 373.981 477.501 374.313C478.981 374.984 480.134 376.215 480.706 377.736V377.73Z" fill="#F68733"/>
<path d="M491.448 402.122C488.09 402.531 477.54 398.621 477.423 397.663C477.305 396.705 486.605 390.37 489.963 389.958C490.764 389.857 491.576 389.915 492.354 390.129C493.132 390.343 493.86 390.708 494.497 391.204C495.133 391.7 495.665 392.316 496.063 393.018C496.46 393.72 496.715 394.494 496.813 395.295C496.911 396.095 496.849 396.908 496.632 397.685C496.415 398.462 496.047 399.188 495.549 399.823C495.05 400.457 494.432 400.987 493.728 401.381C493.024 401.776 492.25 402.027 491.448 402.122Z" fill="#F68733"/>
<path d="M473.368 408.199C473.509 408.228 473.649 408.26 473.791 408.287C473.861 408.032 473.945 407.749 474.037 407.437C475.013 404.175 476.184 400.976 477.545 397.855C477.683 397.539 477.823 397.222 477.968 396.901C481.425 389.24 487.008 379.987 495.347 374.595C495.399 374.554 495.458 374.52 495.51 374.484L495.284 374.118C495.252 374.141 495.218 374.163 495.186 374.181C488.519 378.475 483.588 385.21 480.092 391.66C479.952 391.911 479.821 392.162 479.687 392.413C477.192 397.186 475.159 402.188 473.617 407.349C473.52 407.661 473.436 407.944 473.368 408.199Z" fill="#F68733"/>
<path d="M469.899 407.53C469.881 407.229 469.87 406.927 469.861 406.626C469.572 399.295 469.935 391.953 470.948 384.686C471.454 380.984 472.094 377.454 472.81 374.154C474.471 366.467 476.773 358.932 479.692 351.629C480.788 348.917 481.66 347.041 482.083 346.169C482.18 345.965 482.25 345.821 482.309 345.717L482.352 345.624L482.365 345.604L482.431 345.638L482.51 345.678L482.668 345.762L482.718 345.787L482.747 345.8C482.747 345.8 482.736 345.823 482.718 345.855L482.634 346.022C482.598 346.092 482.56 346.18 482.51 346.279C482.092 347.138 481.177 349.098 480.024 351.975C477.184 359.114 474.935 366.474 473.298 373.98C472.537 377.463 471.861 381.192 471.334 385.115C470.365 392.26 470.023 399.476 470.313 406.68C470.324 406.981 470.338 407.279 470.351 407.584L469.899 407.53Z" fill="#F68733"/>
<path d="M487.48 343.9C486.576 344.788 482.573 346.04 482.318 345.782C482.063 345.525 483.367 341.533 484.266 340.645C484.7 340.23 485.279 340.001 485.88 340.009C486.481 340.017 487.054 340.262 487.476 340.689C487.898 341.117 488.135 341.693 488.136 342.294C488.137 342.894 487.901 343.471 487.48 343.9V343.9Z" fill="white"/>
<path d="M481.73 340.195C482.408 341.258 482.815 345.439 482.512 345.635C482.209 345.832 478.568 343.735 477.884 342.672C477.72 342.42 477.608 342.138 477.554 341.843C477.5 341.547 477.504 341.244 477.567 340.95C477.63 340.656 477.751 340.378 477.921 340.13C478.092 339.883 478.309 339.672 478.562 339.508C478.814 339.345 479.096 339.233 479.391 339.179C479.687 339.125 479.99 339.129 480.284 339.192C480.578 339.255 480.856 339.375 481.104 339.546C481.351 339.717 481.562 339.934 481.726 340.186L481.73 340.195Z" fill="white"/>
<path d="M476.928 344.284C478.166 344.035 482.205 345.188 482.275 345.545C482.345 345.902 479.066 348.521 477.827 348.77C477.533 348.829 477.229 348.83 476.934 348.772C476.64 348.714 476.359 348.599 476.109 348.433C475.859 348.266 475.644 348.052 475.476 347.803C475.308 347.554 475.192 347.274 475.132 346.979C475.073 346.684 475.072 346.381 475.13 346.086C475.188 345.791 475.303 345.511 475.47 345.261C475.636 345.01 475.85 344.795 476.099 344.628C476.349 344.46 476.629 344.343 476.923 344.284H476.928Z" fill="white"/>
<path d="M479.321 349.954C479.529 348.709 482.033 345.344 482.397 345.402C482.761 345.461 484.04 349.471 483.834 350.704C483.735 351.304 483.401 351.839 482.907 352.193C482.413 352.546 481.799 352.689 481.199 352.589C480.6 352.49 480.065 352.156 479.711 351.662C479.358 351.168 479.215 350.554 479.314 349.954H479.321Z" fill="white"/>
<path d="M485.556 350.11C484.481 349.448 482.311 345.852 482.501 345.545C482.691 345.238 486.879 345.545 487.954 346.223C488.217 346.377 488.447 346.582 488.63 346.825C488.813 347.069 488.945 347.347 489.019 347.643C489.093 347.938 489.107 348.246 489.06 348.547C489.013 348.848 488.907 349.137 488.747 349.396C488.588 349.656 488.377 349.881 488.13 350.058C487.882 350.235 487.601 350.361 487.304 350.428C487.006 350.495 486.699 350.502 486.399 350.449C486.099 350.395 485.812 350.283 485.556 350.117V350.11Z" fill="white"/>
<path d="M483.251 345.477C483.238 345.329 483.18 345.188 483.086 345.072C482.993 344.956 482.867 344.871 482.724 344.827C482.582 344.783 482.43 344.782 482.287 344.825C482.144 344.867 482.017 344.951 481.922 345.066C481.827 345.181 481.768 345.321 481.753 345.469C481.738 345.617 481.767 345.767 481.837 345.898C481.906 346.03 482.014 346.138 482.145 346.208C482.276 346.279 482.425 346.309 482.573 346.295C482.771 346.276 482.954 346.179 483.081 346.026C483.208 345.872 483.269 345.675 483.251 345.477V345.477Z" fill="#F68733"/>
<path d="M434.017 384.166C436.322 384.618 443.839 382.476 443.961 381.818C444.083 381.16 437.986 376.279 435.681 375.818C435.128 375.697 434.557 375.687 434.001 375.789C433.444 375.891 432.914 376.103 432.441 376.412C431.967 376.722 431.56 377.122 431.243 377.591C430.926 378.059 430.706 378.586 430.594 379.141C430.483 379.695 430.484 380.266 430.596 380.821C430.708 381.375 430.929 381.901 431.247 382.369C431.565 382.837 431.973 383.237 432.447 383.546C432.921 383.854 433.452 384.065 434.008 384.166H434.017Z" fill="#F68A22"/>
<path d="M454.007 384.159C453.178 386.361 454.088 394.126 454.717 394.361C455.345 394.596 461.146 389.36 461.976 387.158C462.351 386.107 462.298 384.95 461.829 383.937C461.359 382.924 460.51 382.136 459.465 381.743C458.42 381.349 457.263 381.382 456.242 381.834C455.221 382.286 454.418 383.121 454.007 384.159V384.159Z" fill="#F68A22"/>
<path d="M446.538 401.109C448.872 401.394 456.204 398.675 456.285 398.011C456.366 397.346 449.905 392.942 447.57 392.657C446.455 392.532 445.336 392.852 444.456 393.547C443.575 394.243 443.005 395.258 442.869 396.372C442.733 397.485 443.042 398.608 443.729 399.495C444.416 400.382 445.425 400.962 446.538 401.109V401.109Z" fill="#F68A22"/>
<path d="M459.108 405.331L458.814 405.392C458.764 405.216 458.706 405.019 458.642 404.802C457.963 402.536 457.149 400.313 456.204 398.144C456.109 397.918 456.009 397.692 455.91 397.48C453.508 392.157 449.623 385.728 443.835 381.981L443.719 381.904L443.88 381.651C443.901 381.667 443.924 381.681 443.948 381.694C448.578 384.679 452.005 389.357 454.434 393.839C454.534 394.015 454.624 394.189 454.717 394.363C456.45 397.68 457.863 401.155 458.936 404.741C458.999 404.958 459.058 405.155 459.108 405.331Z" fill="#F68A22"/>
<path d="M461.515 404.865C461.515 404.657 461.535 404.447 461.542 404.239C461.742 399.145 461.49 394.043 460.787 388.993C460.434 386.421 459.991 383.974 459.492 381.675C458.338 376.333 456.738 371.098 454.71 366.023C453.948 364.136 453.354 362.834 453.049 362.228C452.981 362.088 452.933 361.986 452.899 361.923L452.868 361.858V361.844L452.823 361.869L452.766 361.896L452.658 361.952L452.624 361.973H452.601C452.601 361.973 452.601 361.986 452.624 362.009C452.641 362.049 452.661 362.089 452.682 362.126V362.126L452.766 362.307C453.058 362.904 453.695 364.264 454.499 366.262C456.472 371.224 458.035 376.339 459.173 381.556C459.702 383.974 460.172 386.566 460.529 389.292C461.202 394.257 461.44 399.271 461.239 404.278L461.212 404.904L461.515 404.865Z" fill="#F68A22"/>
<path d="M449.299 360.653C449.923 361.268 452.71 362.14 452.886 361.962C453.062 361.783 452.156 359.008 451.53 358.391C451.23 358.095 450.825 357.93 450.404 357.932C449.983 357.935 449.58 358.105 449.283 358.404C448.987 358.704 448.822 359.109 448.825 359.53C448.828 359.952 448.997 360.355 449.297 360.651L449.299 360.653Z" fill="white"/>
<path d="M453.3 358.079C452.825 358.816 452.547 361.722 452.757 361.858C452.967 361.993 455.496 360.538 455.973 359.799C456.201 359.444 456.279 359.014 456.19 358.602C456.1 358.19 455.851 357.83 455.496 357.602C455.142 357.374 454.711 357.296 454.299 357.386C453.887 357.475 453.528 357.724 453.3 358.079V358.079Z" fill="white"/>
<path d="M456.631 360.922C455.77 360.75 452.965 361.553 452.915 361.799C452.866 362.045 455.146 363.867 456.007 364.039C456.42 364.121 456.85 364.036 457.2 363.803C457.551 363.569 457.794 363.205 457.877 362.792C457.96 362.379 457.875 361.95 457.641 361.599C457.408 361.248 457.044 361.005 456.631 360.922V360.922Z" fill="white"/>
<path d="M454.967 364.859C454.823 363.993 453.078 361.654 452.832 361.695C452.585 361.736 451.688 364.513 451.833 365.379C451.902 365.794 452.134 366.166 452.476 366.411C452.819 366.656 453.246 366.754 453.661 366.685C454.077 366.616 454.448 366.384 454.693 366.041C454.938 365.699 455.037 365.272 454.967 364.857V364.859Z" fill="white"/>
<path d="M450.635 364.968C451.383 364.516 452.895 362.009 452.759 361.804C452.624 361.598 449.718 361.803 448.969 362.271C448.61 362.492 448.353 362.847 448.255 363.257C448.156 363.668 448.225 364.101 448.446 364.46C448.667 364.82 449.022 365.077 449.432 365.175C449.843 365.273 450.275 365.204 450.635 364.983V364.968Z" fill="white"/>
<path d="M452.237 361.749C452.247 361.646 452.286 361.549 452.351 361.468C452.416 361.388 452.503 361.329 452.601 361.298C452.7 361.267 452.805 361.266 452.904 361.295C453.003 361.324 453.091 361.382 453.158 361.461C453.224 361.54 453.265 361.637 453.276 361.74C453.287 361.843 453.268 361.946 453.22 362.038C453.172 362.129 453.099 362.204 453.008 362.254C452.918 362.304 452.815 362.325 452.712 362.316C452.643 362.311 452.576 362.292 452.515 362.26C452.454 362.228 452.4 362.185 452.356 362.132C452.312 362.079 452.279 362.018 452.258 361.952C452.238 361.887 452.231 361.818 452.237 361.749V361.749Z" fill="#F68A22"/>
</svg>
